<?xml version="1.0" encoding="UTF-8"?>
<svg width="16px" height="16px" viewBox="0 0 16 16" version="1.1" xmlns="http://www.w3.org/2000/svg" xmlns:xlink="http://www.w3.org/1999/xlink">
    <!-- Generator: Sketch 46.2 (44496) - http://www.bohemiancoding.com/sketch -->
    <title>network-wired-symbolic-connecting2</title>
    <desc>Created with Sketch.</desc>
    <defs></defs>
    <g id="Page-1" stroke="none" stroke-width="1" fill="none" fill-rule="evenodd">
        <g id="network-wired-symbolic-connecting2" fill-rule="nonzero" fill="#FFFFFF">
            <path d="M5.85775,8.00278155 C5.66675,8.02978155 5.48575,8.12278155 5.35475,8.26278155 L4.16475,9.45078155 C4.00375,9.60578155 3.90775,9.82378155 3.90375,10.0447816 L3.90375,11.2327816 L3.90375,11.2517816 L1.67475,13.4517816 C1.44175,13.6847816 1.44175,14.0727816 1.67475,14.3057816 C1.90975,14.5377816 2.29775,14.5377816 2.53175,14.3057816 L4.75875,12.0867816 L5.95075,12.0867816 C6.17175,12.0817816 6.39075,11.9867816 6.54575,11.8267816 L7.73575,10.6387816 C8.04275,10.3237816 8.04275,9.76478155 7.73575,9.45078155 L6.54575,8.26278155 C6.36975,8.08078155 6.10975,7.98178155 5.85775,8.00278155" id="Fill-124"></path>
            <path d="M10.1095,7.977 C10.2995,7.951 10.4795,7.857 10.6125,7.717 L11.8015,6.53 C11.9635,6.374 12.0585,6.157 12.0625,5.935 L12.0625,4.747 L12.0625,4.729 L14.2905,2.528 C14.5245,2.296 14.5245,1.907 14.2905,1.674 C14.0575,1.442 13.6685,1.442 13.4345,1.674 L11.2065,3.893 L10.0165,3.893 C9.7945,3.898 9.5755,3.994 9.4205,4.154 L8.2295,5.341 C7.9235,5.656 7.9235,6.215 8.2295,6.53 L9.4205,7.717 C9.5965,7.9 9.8565,7.998 10.1095,7.977" id="Fill-126"></path>
        </g>
    </g>
</svg>