<?xml version="1.0" encoding="UTF-8"?>
<svg width="16px" height="16px" viewBox="0 0 16 16" version="1.1" xmlns="http://www.w3.org/2000/svg" xmlns:xlink="http://www.w3.org/1999/xlink">
    <!-- Generator: Sketch 46.2 (44496) - http://www.bohemiancoding.com/sketch -->
    <title>network-wired-symbolic-connecting5</title>
    <desc>Created with Sketch.</desc>
    <defs></defs>
    <g id="Page-1" stroke="none" stroke-width="1" fill="none" fill-rule="evenodd">
        <g id="network-wired-symbolic-connecting5" fill-rule="nonzero" fill="#FFFFFF">
            <path d="M4.35775,9.50278155 C4.16675,9.52978155 3.98575,9.62278155 3.85475,9.76278155 L2.66475,10.9507816 C2.50375,11.1057816 2.40775,11.3237816 2.40375,11.5447816 L2.40375,12.7327816 L2.40375,12.7517816 L0.17475,14.9517816 C-0.05825,15.1847816 -0.05825,15.5727816 0.17475,15.8057816 C0.40975,16.0377816 0.79775,16.0377816 1.03175,15.8057816 L3.25875,13.5867816 L4.45075,13.5867816 C4.67175,13.5817816 4.89075,13.4867816 5.04575,13.3267816 L6.23575,12.1387816 C6.54275,11.8237816 6.54275,11.2647816 6.23575,10.9507816 L5.04575,9.76278155 C4.86975,9.58078155 4.60975,9.48178155 4.35775,9.50278155" id="Fill-124"></path>
            <path d="M11.6095,6.477 C11.7995,6.451 11.9795,6.357 12.1125,6.217 L13.3015,5.03 C13.4635,4.874 13.5585,4.657 13.5625,4.435 L13.5625,3.247 L13.5625,3.229 L15.7905,1.028 C16.0245,0.796 16.0245,0.407 15.7905,0.174 C15.5575,-0.058 15.1685,-0.058 14.9345,0.174 L12.7065,2.393 L11.5165,2.393 C11.2945,2.398 11.0755,2.494 10.9205,2.654 L9.7295,3.841 C9.4235,4.156 9.4235,4.715 9.7295,5.03 L10.9205,6.217 C11.0965,6.4 11.3565,6.498 11.6095,6.477" id="Fill-126"></path>
        </g>
    </g>
</svg>