<?xml version="1.0" encoding="UTF-8"?>
<svg width="20px" height="20px" viewBox="0 0 20 20" version="1.1" xmlns="http://www.w3.org/2000/svg" xmlns:xlink="http://www.w3.org/1999/xlink">
    <title>4</title>
    <g id="4" stroke="none" stroke-width="1" fill="none" fill-rule="evenodd">
        <g id="Group-25">
            <polygon id="Fill-100" opacity="0" points="0 20 20 20 20 0 0 0"></polygon>
            <path d="M6.77032574,17.5 C6.71509727,17.5 6.67032574,17.4552285 6.67032574,17.4 C6.67032574,17.3708075 6.68308201,17.3430726 6.7052466,17.3240743 L8.5,15.786 L8.5,10.792 L3,14 L3,12.5 L8.5,7.5 L8.5,3 C8.5,2.17157288 9.17157288,1.5 10,1.5 C10.8284271,1.5 11.5,2.17157288 11.5,3 L11.5,7.5 L17,12.5 L17,14 L11.5,10.792 L11.5,15.786 L13.2947534,17.3240743 C13.336686,17.3600166 13.3415421,17.4231466 13.3055999,17.4650791 C13.2866017,17.4872437 13.2588667,17.5 13.2296743,17.5 L6.77032574,17.5 Z" id="形状结合" fill="#FFFFFF" opacity="0.3" transform="translate(10.000000, 9.500000) rotate(-270.000000) translate(-10.000000, -9.500000) "></path>
        </g>
    </g>
</svg>