<svg xmlns="http://www.w3.org/2000/svg" width="20" height="20" viewBox="0 0 20 20">
  <path fill="#FFF" fill-rule="evenodd" d="M10.0000013,1.27118983e-06 C15.5228488,1.27118983e-06 20.0000013,4.47715377 20.0000013,10.0000013 C20.0000013,15.5228488 15.5228488,20.0000013 10.0000013,20.0000013 C4.47715377,20.0000013 1.27118983e-06,15.5228488 1.27118983e-06,10.0000013 C1.27118983e-06,4.47715377 4.47715377,1.27118983e-06 10.0000013,1.27118983e-06 Z M7.2843055,6.58858366 C7.08943736,6.45358761 6.82001296,6.47287276 6.64644661,6.64643911 L6.64644661,6.64643911 L6.58859116,6.715687 C6.45359511,6.91055514 6.47288026,7.17997954 6.64644661,7.35354589 L6.64644661,7.35354589 L9.293,9.9999925 L6.64644661,12.6464391 L6.58859116,12.715687 C6.45359511,12.9105551 6.47288026,13.1799795 6.64644661,13.3535459 L6.64644661,13.3535459 L6.7156945,13.4114013 C6.91056264,13.5463974 7.17998704,13.5271122 7.35355339,13.3535459 L7.35355339,13.3535459 L10,10.7069925 L12.6464466,13.3535459 L12.7156945,13.4114013 C12.9105626,13.5463974 13.179987,13.5271122 13.3535534,13.3535459 L13.3535534,13.3535459 L13.4114088,13.284298 C13.5464049,13.0894299 13.5271197,12.8200055 13.3535534,12.6464391 L13.3535534,12.6464391 L10.707,9.9999925 L13.3535534,7.35354589 L13.4114088,7.284298 C13.5464049,7.08942986 13.5271197,6.82000546 13.3535534,6.64643911 L13.3535534,6.64643911 L13.2843055,6.58858366 C13.0894374,6.45358761 12.820013,6.47287276 12.6464466,6.64643911 L12.6464466,6.64643911 L10,9.2929925 L7.35355339,6.64643911 Z"/>
</svg>
