<svg xmlns="http://www.w3.org/2000/svg" width="20" height="20" viewBox="0 0 20 20">
  <path fill-rule="evenodd" d="M17,2 L17,8 L11,8 L14.0692732,4.93027904 C12.9431015,4.02647545 11.5199506,3.5 10,3.5 C6.41014912,3.5 3.5,6.41014912 3.5,10 C3.5,13.5898508 6.41014914,16.5 10,16.5 C12.6572393,16.5 15.0163846,14.8908134 16.012065,12.4756735 L16.012065,12.4756735 L16.9365798,12.8568197 C15.7878061,15.6433054 13.0658021,17.5 10,17.5 C5.85786439,17.5 2.5,14.1421356 2.5,10 C2.5,5.85786438 5.85786438,2.5 10,2.5 C11.7921585,2.5 13.4677532,3.13445568 14.7801646,4.21961165 L17,2 Z"/>
</svg>
