<svg xmlns="http://www.w3.org/2000/svg" width="20" height="20" viewBox="0 0 20 20">
  <path fill="#FFF" fill-rule="evenodd" d="M2.008,1.74 C2.008,1.341 2.333,1.016 2.732,1.016 L3.283,1.016 C3.683,1.016 4.008,1.341 4.008,1.74 L4.008,3.016 L2.008,3.016 L2.008,1.74 Z M5.459,3 L5,3 L5,1.74 C5,0.789 4.234,0 3.283,0 L2.732,0 C1.781,0 1,0.789 1,1.74 L1,3 L0.557,3 C0.254,3 0,3.261 0,3.565 L0,6.466 C0,6.77 0.254,7 0.557,7 L5.459,7 C5.762,7 6,6.77 6,6.466 L6,3.565 C6,3.261 5.762,3 5.459,3 L5.459,3 Z" transform="translate(7 6)"/>
</svg>
