<svg xmlns="http://www.w3.org/2000/svg" width="20" height="20" viewBox="0 0 20 20">
  <path fill-rule="evenodd" d="M10,9.5 C11.3807119,9.5 12.5,10.6192881 12.5,12 C12.5,13.3807119 11.3807119,14.5 10,14.5 C8.61928813,14.5 7.5,13.3807119 7.5,12 C7.5,10.6192881 8.61928813,9.5 10,9.5 Z M10,6.35 C12.4909956,6.35 14.6054812,7.96203047 15.3571516,10.199786 L14.28887,11.2691526 C13.9413071,9.21468815 12.1533798,7.65 10,7.65 C7.84697001,7.65 6.0592738,9.21417985 5.71129948,11.2681514 L4.64318369,10.1987882 C5.39514732,7.96155131 7.50937467,6.35 10,6.35 Z M10,3.35 C13.3034694,3.35 16.1744216,5.20182631 17.6314067,7.92402907 L16.6634803,8.89414968 C15.4929817,6.38717755 12.9493606,4.65 10,4.65 C7.05103156,4.65 4.50769477,6.38671557 3.33698673,8.8931496 L2.36859333,7.92402907 C3.82557845,5.20182631 6.69653062,3.35 10,3.35 Z M9.98281644,0.4 C14.1100998,0.4 17.7361019,2.54624077 19.8056329,5.78353274 L18.8613804,6.72778525 C17.0518111,3.71552849 13.7526897,1.7 9.98281644,1.7 C6.21294316,1.7 2.91382177,3.71552849 1.10425251,6.72778525 L0.16,5.78353274 C2.22953104,2.54624077 5.85553305,0.4 9.98281644,0.4 Z" transform="translate(0 2.5)"/>
</svg>
