<svg xmlns="http://www.w3.org/2000/svg" width="20" height="20" viewBox="0 0 20 20">
  <path fill="#FFF" fill-rule="evenodd" d="M10,12 C11.3807119,12 12.5,13.1192881 12.5,14.5 C12.5,15.8807119 11.3807119,17 10,17 C8.61928813,17 7.5,15.8807119 7.5,14.5 C7.5,13.1192881 8.61928813,12 10,12 Z M10,8.85 C12.4909956,8.85 14.6054812,10.4620305 15.3571516,12.699786 L14.28887,13.7691526 C13.9413071,11.7146882 12.1533798,10.15 10,10.15 C7.84697001,10.15 6.0592738,11.7141798 5.71129948,13.7681514 L4.64318369,12.6987882 C5.39514732,10.4615513 7.50937467,8.85 10,8.85 Z M10,5.85 C13.3034694,5.85 16.1744216,7.70182631 17.6314067,10.4240291 L16.6634803,11.3941497 C15.4929817,8.88717755 12.9493606,7.15 10,7.15 C7.05103156,7.15 4.50769477,8.88671557 3.33698673,11.3931496 L2.36859333,10.4240291 C3.82557845,7.70182631 6.69653062,5.85 10,5.85 Z M9.98281644,2.9 C14.1100998,2.9 17.7361019,5.04624077 19.8056329,8.28353274 L18.8613804,9.22778525 C17.0518111,6.21552849 13.7526897,4.2 9.98281644,4.2 C6.21294316,4.2 2.91382177,6.21552849 1.10425251,9.22778525 L0.16,8.28353274 C2.22953104,5.04624077 5.85553305,2.9 9.98281644,2.9 Z" opacity=".3"/>
</svg>
