<svg xmlns="http://www.w3.org/2000/svg" xmlns:xlink="http://www.w3.org/1999/xlink" width="20" height="20" viewBox="0 0 20 20">
  <defs>
    <path id="wireless-40-symbolic-dark-a" d="M5.65,4.05025253 C7.03071187,4.05025253 8.15,5.16954066 8.15,6.55025253 C8.15,7.93096441 7.03071187,9.05025253 5.65,9.05025253 C4.26928813,9.05025253 3.15,7.93096441 3.15,6.55025253 C3.15,5.16954066 4.26928813,4.05025253 5.65,4.05025253 Z M5.65,0.900252532 C8.14099557,0.900252532 10.2554812,2.512283 11.0071516,4.75003848 L9.93887001,5.81940512 C9.59130708,3.76494068 7.80337979,2.20025253 5.65,2.20025253 C3.49697001,2.20025253 1.7092738,3.76443238 1.36129948,5.81840396 L0.292848434,4.75003848 C1.04451875,2.512283 3.15900443,0.900252532 5.65,0.900252532 Z"/>
  </defs>
  <g fill="none" fill-rule="evenodd" transform="translate(0 2.5)">
    <use fill="#000" transform="translate(4.35 5.45)" xlink:href="#wireless-40-symbolic-dark-a"/>
    <path fill="#000" fill-opacity=".3" d="M0.16,5.78353274 C2.22953104,2.54624077 5.85553305,0.4 9.98281644,0.4 C14.1100998,0.4 17.7361019,2.54624077 19.8056329,5.78353274 L18.8613804,6.72778525 C17.0518111,3.71552849 13.7526897,1.7 9.98281644,1.7 C6.21294316,1.7 2.91382177,3.71552849 1.10425251,6.72778525 L0.16,5.78353274 L0.16,5.78353274 Z"/>
    <path fill="#000" fill-opacity=".3" d="M9.98281644,3.4 C13.2865265,3.4 16.1576563,5.25209616 17.6145415,7.97462408 L16.645889,8.9432766 C15.4752076,6.43677423 12.9318347,4.7 9.98281644,4.7 C7.0337982,4.7 4.4904253,6.43677423 3.31974386,8.9432766 L2.35109134,7.97462408 C3.80797655,5.25209616 6.67910638,3.4 9.98281644,3.4 Z"/>
  </g>
</svg>
