<?xml version="1.0" encoding="UTF-8"?>
<svg width="96px" height="96px" viewBox="0 0 96 96" version="1.1" xmlns="http://www.w3.org/2000/svg" xmlns:xlink="http://www.w3.org/1999/xlink">
    <!-- Generator: Sketch 47.1 (45422) - http://www.bohemiancoding.com/sketch -->
    <title>wireless-disconnect</title>
    <desc>Created with Sketch.</desc>
    <defs></defs>
    <g id="Page-1" stroke="none" stroke-width="1" fill="none" fill-rule="evenodd">
        <g id="wireless-disconnect" fill-rule="nonzero" fill="#FFFFFF">
            <g id="Group" transform="translate(20.000000, 27.000000)">
                <path d="M57.2785533,9.4359895 C58.1623447,10.1707154 58.2465314,11.497399 57.4627014,12.3379464 L29.4627014,42.3640032 C28.6719255,43.2119989 27.3280745,43.2119989 26.5372986,42.3640032 L-1.46270135,12.3379464 C-2.24988188,11.4938061 -2.16111181,10.1604189 -1.26897732,9.42807884 C8.08285201,1.75129956 16.7734997,-2 28,-2 C39.3006506,-2 48.0266916,1.74460189 57.2785533,9.4359895 Z M28,2 C18.458865,2 10.9784854,4.96404567 2.93600242,11.1898479 L28,38.0674556 C27.8035206,38.278152 28.5824597,37.4428495 30.9122986,34.9444254 L50.1622986,14.3015114 C51.889148,12.4497086 52.012228,12.3177227 53.0723852,11.1808533 C45.1144274,4.95457377 37.6109788,2 28,2 Z" id="Oval-53"></path>
            </g>
        </g>
    </g>
</svg>