<svg xmlns="http://www.w3.org/2000/svg" width="20" height="20" viewBox="0 0 20 20">
  <g fill="#FFF" fill-rule="evenodd" transform="translate(.16 3)">
    <path d="M4.46581283,9.84934557 C5.21761262,7.61181898 7.33198429,6 9.82281644,6 C12.3136486,6 14.4280203,7.61181898 15.1798201,9.84934557 L14.1114441,10.9177215 C13.7632932,8.86396159 11.9756962,7.3 9.82281644,7.3 C7.66993667,7.3 5.8823397,8.86396159 5.53418878,10.9177215 L4.46581283,9.84934557 L4.46581283,9.84934557 Z" opacity=".3"/>
    <path d="M2.19109134,7.57462408 C3.64797655,4.85209616 6.51910638,3 9.82281644,3 C13.1265265,3 15.9976563,4.85209616 17.4545415,7.57462408 L16.485889,8.5432766 C15.3152076,6.03677423 12.7718347,4.3 9.82281644,4.3 C6.8737982,4.3 4.3304253,6.03677423 3.15974386,8.5432766 L2.19109134,7.57462408 L2.19109134,7.57462408 Z" opacity=".3"/>
    <path d="M2.66453526e-14,5.38353274 C2.06953104,2.14624077 5.69553305,-1.33226763e-14 9.82281644,-1.33226763e-14 C13.9500998,-1.33226763e-14 17.5761019,2.14624077 19.6456329,5.38353274 L18.7013804,6.32778525 C16.8918111,3.31552849 13.5926897,1.3 9.82281644,1.3 C6.05294316,1.3 2.75382177,3.31552849 0.944252509,6.32778525 L2.66453526e-14,5.38353274 L2.66453526e-14,5.38353274 Z" opacity=".3"/>
    <path d="M9.82281644,14.15 C8.44210457,14.15 7.32281644,13.0307119 7.32281644,11.65 C7.32281644,10.2692881 8.44210457,9.15 9.82281644,9.15 C11.2035283,9.15 12.3228164,10.2692881 12.3228164,11.65 C12.3228164,13.0307119 11.2035283,14.15 9.82281644,14.15 Z"/>
  </g>
</svg>
