<svg xmlns="http://www.w3.org/2000/svg" width="20" height="20" viewBox="0 0 20 20">
  <path fill-rule="evenodd" d="M15,-4.61852778e-14 C16.6568542,-4.61852778e-14 18,1.34314575 18,3 L18,9 C18,10.6568542 16.6568542,12 15,12 L3,12 C1.34314575,12 0,10.6568542 0,9 L0,3 C0,1.34314575 1.34314575,-4.61852778e-14 3,-4.61852778e-14 L15,-4.61852778e-14 Z M15,1 L3,1 C1.8954305,1 1,1.8954305 1,3 L1,9 C1,10.1045695 1.8954305,11 3,11 L15,11 C16.1045695,11 17,10.1045695 17,9 L17,3 C17,1.8954305 16.1045695,1 15,1 Z M11,2 L11,10 L10,9.98669107 C8.39779006,9.98669107 6.79558011,8.83618289 6.22161912,7.25088666 L3.99980749,7.25 C3.44762906,7.25 3,6.8030501 3,6.24755925 L3,5.75244075 C3,5.19880801 3.44371665,4.75 3.99980749,4.75 L6.19808563,4.74986702 C6.69621301,3.22335402 8.08177138,2.09346853 9.75777942,2.00552012 L9.96875,2 L11,2 Z M20,3 L20,9 L19,9 L19,3 L20,3 Z M15,7 L15,8 L12,8 L12,7 L15,7 Z M15,4 L15,5 L12,5 L12,4 L15,4 Z" transform="translate(0 4)"/>
</svg>
