<?xml version="1.0" encoding="UTF-8"?>
<svg width="16px" height="16px" viewBox="0 0 16 16" version="1.1" xmlns="http://www.w3.org/2000/svg" xmlns:xlink="http://www.w3.org/1999/xlink">
    <title>icon/dock/keyboard</title>
    <g id="icon/dock/keyboard" stroke="none" stroke-width="1" fill="none" fill-rule="evenodd">
        <path d="M14,2 C15.1045695,2 16,2.8954305 16,4 L16,12 C16,13.1045695 15.1045695,14 14,14 L2,14 C0.8954305,14 1.3527075e-16,13.1045695 0,12 L0,4 C-1.3527075e-16,2.8954305 0.8954305,2 2,2 L14,2 Z M13.9931545,3 L2.00684547,3 C1.45078007,3 1,3.4556644 1,3.99539757 L1,12.0046024 C1,12.5543453 1.44994876,13 2.00684547,13 L13.9931545,13 C14.5492199,13 15,12.5443356 15,12.0046024 L15,3.99539757 C15,3.44565467 14.5500512,3 13.9931545,3 Z M5,10 L5,12 L2,12 L2,10 L5,10 Z M11,10 L11,12 L6,12 L6,10 L11,10 Z M14,10 L14,12 L12,12 L12,10 L14,10 Z M6,7 L6,9 L2,9 L2,7 L6,7 Z M9,7 L9,9 L7,9 L7,7 L9,7 Z M14,7 L14,9 L10,9 L10,7 L14,7 Z M5,4 L5,6 L2,6 L2,4 L5,4 Z M8,4 L8,6 L6,6 L6,4 L8,4 Z M11,4 L11,6 L9,6 L9,4 L11,4 Z M14,4 L14,6 L12,6 L12,4 L14,4 Z" id="形状结合" fill="#536076"></path>
    </g>
</svg>