<?xml version="1.0" encoding="UTF-8"?>
<svg width="16px" height="16px" viewBox="0 0 16 16" version="1.1" xmlns="http://www.w3.org/2000/svg" xmlns:xlink="http://www.w3.org/1999/xlink">
    <title>icon/dock/plug-in2</title>
    <g id="icon/dock/plug-in2" stroke="none" stroke-width="1" fill="none" fill-rule="evenodd">
        <path d="M7.5,1 C8.6045695,1 9.5,1.8954305 9.5,3 C9.5,3.364732 9.4023677,3.70666076 9.23181186,4.0010775 L12,4 C12.5522847,4 13,4.44771525 13,5 L12.9996679,7.26775657 C13.2939163,7.09746762 13.6355757,7 14,7 C15.1045695,7 16,7.8954305 16,9 C16,10.1045695 15.1045695,11 14,11 C13.6355757,11 13.2939163,10.9025324 12.9996679,10.7322434 L13,13 C13,13.5522847 12.5522847,14 12,14 L3,14 C2.44771525,14 2,13.5522847 2,13 L1.99858626,10.5809198 C2.22625932,10.6893264 2.48104412,10.75 2.75,10.75 C3.71649831,10.75 4.5,9.96649831 4.5,9 C4.5,8.03350169 3.71649831,7.25 2.75,7.25 C2.48104412,7.25 2.22625932,7.31067361 1.99858626,7.41908017 L2,5 C2,4.44771525 2.44771525,4 3,4 L5.76818814,4.0010775 C5.5976323,3.70666076 5.5,3.364732 5.5,3 C5.5,1.8954305 6.3954305,1 7.5,1 Z" id="形状结合" fill="#536076"></path>
    </g>
</svg>