<?xml version="1.0" encoding="UTF-8"?>
<svg width="16px" height="16px" viewBox="0 0 16 16" version="1.1" xmlns="http://www.w3.org/2000/svg" xmlns:xlink="http://www.w3.org/1999/xlink">
    <title>icon/dock/power</title>
    <g id="icon/dock/power" stroke="none" stroke-width="1" fill="none" fill-rule="evenodd">
        <g id="path-1-link" transform="translate(0.000000, 3.000000)" fill="#536076">
            <path d="M11.6666667,0 C12.9553311,0 14,1.11928813 14,2.5 L14,7.5 C14,8.88071187 12.9553311,10 11.6666667,10 L2.33333333,10 C1.04466892,10 0,8.88071187 0,7.5 L0,2.5 C0,1.11928813 1.04466892,0 2.33333333,0 L11.6666667,0 Z M11.5,1 L2.5,1 C1.67157288,1 1,1.7163444 1,2.6 L1,7.4 C1,8.2836556 1.67157288,9 2.5,9 L11.5,9 C12.3284271,9 13,8.2836556 13,7.4 L13,2.6 C13,1.7163444 12.3284271,1 11.5,1 Z M10,2 L10,8 L3,8 C2.44771525,8 2,7.55228475 2,7 L2,3 C2,2.44771525 2.44771525,2 3,2 L10,2 Z M16,2 L16,8 L15,8 L15,2 L16,2 Z" id="形状结合"></path>
        </g>
    </g>
</svg>