<?xml version="1.0" encoding="UTF-8"?>
<svg width="16px" height="16px" viewBox="0 0 16 16" version="1.1" xmlns="http://www.w3.org/2000/svg" xmlns:xlink="http://www.w3.org/1999/xlink">
    <title>icon/dock/task</title>
    <g id="icon/dock/task" stroke="none" stroke-width="1" fill="none" fill-rule="evenodd">
        <path d="M13,2 C14.1045695,2 15,2.8954305 15,4 L15,12 C15,13.1045695 14.1045695,14 13,14 L3,14 C1.8954305,14 1,13.1045695 1,12 L1,4 C1,2.8954305 1.8954305,2 3,2 L13,2 Z M5.5,9 L3.5,9 C3.22385763,9 3,9.22385763 3,9.5 L3,9.5 L3,11.5 C3,11.7761424 3.22385763,12 3.5,12 L3.5,12 L5.5,12 C5.77614237,12 6,11.7761424 6,11.5 L6,11.5 L6,9.5 C6,9.22385763 5.77614237,9 5.5,9 L5.5,9 Z M12.5,9 L8.5,9 C8.22385763,9 8,9.22385763 8,9.5 L8,9.5 L8,11.5 C8,11.7761424 8.22385763,12 8.5,12 L8.5,12 L12.5,12 C12.7761424,12 13,11.7761424 13,11.5 L13,11.5 L13,9.5 C13,9.22385763 12.7761424,9 12.5,9 L12.5,9 Z M7.5,4 L3.5,4 C3.22385763,4 3,4.22385763 3,4.5 L3,4.5 L3,6.5 C3,6.77614237 3.22385763,7 3.5,7 L3.5,7 L7.5,7 C7.77614237,7 8,6.77614237 8,6.5 L8,6.5 L8,4.5 C8,4.22385763 7.77614237,4 7.5,4 L7.5,4 Z M12.5,4 L10.5,4 C10.2238576,4 10,4.22385763 10,4.5 L10,4.5 L10,6.5 C10,6.77614237 10.2238576,7 10.5,7 L10.5,7 L12.5,7 C12.7761424,7 13,6.77614237 13,6.5 L13,6.5 L13,4.5 C13,4.22385763 12.7761424,4 12.5,4 L12.5,4 Z" id="形状结合" fill="#536076"></path>
    </g>
</svg>