<svg xmlns="http://www.w3.org/2000/svg" width="20" height="20" viewBox="0 0 20 20">
  <path fill-rule="evenodd" d="M10,1 C13.8659932,1 17,5.02943725 17,10 C17,14.9705627 13.8659932,19 10,19 C6.13400675,19 3,14.9705627 3,10 C3,5.02943725 6.13400675,1 10,1 Z M9.70970381,4.04658915 C9.38851738,3.89590423 9,4.12745532 9,4.50085676 L9,4.50085676 L8.99993692,9.199 L6.01843775,7.30168117 C5.78546706,7.15342709 5.47642333,7.22210348 5.32816926,7.45507417 C5.17991518,7.68804485 5.24859157,7.99708858 5.48156225,8.14534266 L5.48156225,8.14534266 L8.57293692,10.112 L5.48156225,12.079026 L5.41006254,12.1340743 C5.2360083,12.2950173 5.19638786,12.5622095 5.32816926,12.7692945 L5.32816926,12.7692945 L5.38321754,12.8407942 C5.54416054,13.0148485 5.81135269,13.0544689 6.01843775,12.9226875 L6.01843775,12.9226875 L8.99993692,11.024 L9,15.7235119 C9,16.1256365 9.4505882,16.3632483 9.78242105,16.1361114 L9.78242105,16.1361114 L14.0324211,13.2270205 C14.3284434,13.0243956 14.3210831,12.5851828 14.0184377,12.3925903 L14.0184377,12.3925903 L10.4339369,10.112 L14.0184377,7.83177842 L14.0936502,7.77350167 C14.3199141,7.5612843 14.3015323,7.18155266 14.0324211,6.99734817 L14.0324211,6.99734817 L9.78242105,4.08825726 Z M10,11.0207121 L12.8425812,12.8296274 L10,14.7753515 L10,11.0207121 Z M10,5.4490172 L12.8425812,7.39474123 L10,9.20365655 L10,5.4490172 Z"/>
</svg>
