<?xml version="1.0" encoding="UTF-8" standalone="no"?>
<svg width="8px" height="18px" viewBox="0 0 8 18" version="1.1" xmlns="http://www.w3.org/2000/svg" xmlns:xlink="http://www.w3.org/1999/xlink">
    <!-- Generator: Sketch 3.8.3 (29802) - http://www.bohemiancoding.com/sketch -->
    <title>数字大0</title>
    <desc>Created with Sketch.</desc>
    <defs></defs>
    <g id="Page-1" stroke="none" stroke-width="1" fill="none" fill-rule="evenodd">
        <g id="数字大0" fill="#002422">
            <path d="M2,7.5079 L0,8.7539 L0,2.5749 L1,1.5039 L2,2.5749 L2,7.5079 Z M2,15.6395 L1,16.5515 L0,15.4805 L0,9.3015 L2,10.3725 L2,15.6395 Z M6.3906,1.002 L5.5296,2.002 L2.4836,2.002 L1.5786,1.002 L2.4836,0.002 L5.5296,0.002 L6.3906,1.002 Z M2.4843,16.0022 L1.5163,17.0022 L2.4843,18.0022 L5.7193,18.0022 L6.5153,17.0022 L5.5303,16.0022 L2.4843,16.0022 Z M5.9997,2.5751 L5.9997,7.5081 L8.0007,8.7531 L8.0007,2.5751 L6.9997,1.5041 L5.9997,2.5751 Z M5.9997,10.3727 L5.9997,15.5827 L6.9997,16.5517 L8.0007,15.4797 L8.0007,9.3007 L5.9997,10.3727 Z" id="Combined-Shape"></path>
        </g>
    </g>
</svg>