<?xml version="1.0" encoding="UTF-8" standalone="no"?>
<svg width="8px" height="18px" viewBox="0 0 8 18" version="1.1" xmlns="http://www.w3.org/2000/svg" xmlns:xlink="http://www.w3.org/1999/xlink">
    <!-- Generator: Sketch 3.8.3 (29802) - http://www.bohemiancoding.com/sketch -->
    <title>数字大8</title>
    <desc>Created with Sketch.</desc>
    <defs></defs>
    <g id="Page-1" stroke="none" stroke-width="1" fill="none" fill-rule="evenodd">
        <g id="数字大8" fill="#002422">
            <path d="M2,7.5079 L0,8.7539 L0,2.5749 L1,1.5039 L2,2.5749 L2,7.5079 L2,7.5079 Z M2,15.6395 L1,16.5515 L0,15.4805 L0,9.3015 L2,10.3725 L2,15.6395 L2,15.6395 Z M7,9.002 L5.406,10.002 L2.578,10.002 L1,9.007 L2.484,8.002 L5.53,8.002 L7,9.002 L7,9.002 Z M6.3906,1.002 L5.5296,2.002 L2.4836,2.002 L1.5786,1.002 L2.4836,0.002 L5.5296,0.002 L6.3906,1.002 L6.3906,1.002 Z M2.4836,16.0022 L1.5156,17.0022 L2.4836,18.0022 L5.7196,18.0022 L6.5156,17.0022 L5.5306,16.0022 L2.4836,16.0022 L2.4836,16.0022 Z M8,8.7538 L6,7.5078 L6,2.5748 L7,1.5038 L8,2.5748 L8,8.7538 L8,8.7538 Z M8,15.4801 L7,16.5521 L6,15.5831 L6,10.3731 L8,9.3011 L8,15.4801 L8,15.4801 Z" id="Combined-Shape"></path>
        </g>
    </g>
</svg>