<?xml version="1.0" encoding="UTF-8" standalone="no"?>
<svg width="5px" height="9px" viewBox="0 0 5 9" version="1.1" xmlns="http://www.w3.org/2000/svg" xmlns:xlink="http://www.w3.org/1999/xlink">
    <!-- Generator: Sketch 3.8.3 (29802) - http://www.bohemiancoding.com/sketch -->
    <title>数字小2</title>
    <desc>Created with Sketch.</desc>
    <defs></defs>
    <g id="Page-1" stroke="none" stroke-width="1" fill="none" fill-rule="evenodd">
        <g id="数字小2" fill="#002422">
            <path d="M1.2519,0.0017 L0.0399,1.0017 L3.7599,1.0017 L4.2889,0.5137 L3.7599,0.0017 L1.2519,0.0017 Z M0,7.7336 L0.5,8.2716 L1,7.7336 L1,5.2746 L0,4.7366 L0,7.7336 Z M1.2519,4.0022 L0.2799,4.5452 L1.2519,5.0022 L3.7599,5.0022 L4.7319,4.5452 L3.7599,4.0022 L1.2519,4.0022 Z M1.2519,8.0018 L0.7249,8.4908 L1.2519,9.0018 L4.9599,9.0018 L3.9759,8.0018 L1.2519,8.0018 Z M3.9996,1.2581 L3.9996,3.7331 L5.0006,4.2681 L5.0006,1.2581 L4.4996,0.7201 L3.9996,1.2581 Z" id="Combined-Shape"></path>
        </g>
    </g>
</svg>