<?xml version="1.0" encoding="UTF-8" standalone="no"?>
<svg width="5px" height="9px" viewBox="0 0 5 9" version="1.1" xmlns="http://www.w3.org/2000/svg" xmlns:xlink="http://www.w3.org/1999/xlink">
    <!-- Generator: Sketch 3.8.3 (29802) - http://www.bohemiancoding.com/sketch -->
    <title>数字小0</title>
    <desc>Created with Sketch.</desc>
    <defs></defs>
    <g id="Page-1" stroke="none" stroke-width="1" fill="none" fill-rule="evenodd">
        <g id="数字小0" fill="#002422">
            <path d="M-0.0003,1.2581 L-0.0003,4.3581 L0.9997,3.7331 L0.9997,1.2581 L0.4997,0.7201 L-0.0003,1.2581 Z M-0.0003,7.7336 L0.4997,8.2716 L0.9997,7.7336 L0.9997,5.1716 L-0.0003,4.6336 L-0.0003,7.7336 Z M1.2516,0.0017 L0.7246,0.5137 L1.2516,1.0017 L3.7596,1.0017 L4.2886,0.5137 L3.7596,0.0017 L1.2516,0.0017 Z M1.2516,8.0018 L0.7246,8.4908 L1.2516,9.0018 L3.7596,9.0018 L4.2886,8.4908 L3.7596,8.0018 L1.2516,8.0018 Z M4.0002,1.2581 L4.0002,3.7331 L5.0002,4.3581 L5.0002,1.2581 L4.4992,0.7201 L4.0002,1.2581 Z M4.0002,5.1713 L4.0002,7.7333 L4.4992,8.2723 L5.0002,7.7333 L5.0002,4.6333 L4.0002,5.1713 Z" id="Combined-Shape"></path>
        </g>
    </g>
</svg>