<svg height="512" viewBox="0 0 64 64" width="512" xmlns="http://www.w3.org/2000/svg"><g id="Time-Management"><path d="m57 30a27.041 27.041 0 0 1 -.58 5.59c-.15.71-.33 1.4-.53 2.09a26.563 26.563 0 0 1 -1.52 3.96 26.84 26.84 0 0 1 -3.51 5.49 25.294 25.294 0 0 1 -3.73 3.73 26.84 26.84 0 0 1 -5.49 3.51 26.563 26.563 0 0 1 -3.96 1.52c-.69.2-1.38.38-2.09.53a27 27 0 1 1 21.41-26.42z" fill="#ff9811"/><path d="m53 30a23.008 23.008 0 0 1 -.72 5.73 22.611 22.611 0 0 1 -2.26 5.57 22.1 22.1 0 0 1 -2.66 3.77 20.633 20.633 0 0 1 -2.29 2.29 22.1 22.1 0 0 1 -3.77 2.66 22.611 22.611 0 0 1 -5.57 2.26 23 23 0 1 1 17.27-22.28z" fill="#ff5023"/><path d="m27.999 27.999h4.002v4.002h-4.002z" fill="#ff9811" transform="matrix(.707 -.707 .707 .707 -12.426 30)"/><path d="m61 48a12.992 12.992 0 0 1 -23.32 7.89 12.487 12.487 0 0 1 -1.95-3.61 12.657 12.657 0 0 1 -.73-4.28 13 13 0 0 1 13-13 12.657 12.657 0 0 1 4.28.73 12.487 12.487 0 0 1 3.61 1.95 12.925 12.925 0 0 1 5.11 10.32z" fill="#ffd422"/><path d="m54.82 49.54a6.936 6.936 0 0 1 -.9 2.19l1.15 1.93-1.41 1.41-1.93-1.15a6.936 6.936 0 0 1 -2.19.9l-.54 2.18h-2l-.54-2.18a6.936 6.936 0 0 1 -2.19-.9l-1.93 1.15-1.41-1.41 1.15-1.93a7.179 7.179 0 0 1 -.78-1.71l-.12-.48-2.18-.54v-2l2.18-.54a6.936 6.936 0 0 1 .9-2.19l-1.15-1.93 1.41-1.41 1.93 1.15a6.936 6.936 0 0 1 2.19-.9l.54-2.18h2l.54 2.18.48.12a7.179 7.179 0 0 1 1.71.78l1.93-1.15.71.71.7.7-1.15 1.93a6.936 6.936 0 0 1 .9 2.19l2.18.54v2z" fill="#ff9811"/><path d="m50.86 47.13a2.961 2.961 0 0 0 -2.86-2.13 2.73 2.73 0 0 0 -.64.07 2.985 2.985 0 0 0 -2.29 2.29 2.73 2.73 0 0 0 -.07.64 2.961 2.961 0 0 0 2.13 2.86 2.782 2.782 0 0 0 .87.14 3 3 0 0 0 3-3 2.782 2.782 0 0 0 -.14-.87z" fill="#ffd422"/><path d="m29 10h2v2h-2z"/><path d="m15.565 15.565h2v2h-2z" transform="matrix(.707 -.707 .707 .707 -6.861 16.557)"/><path d="m10 29h2v2h-2z"/><path d="m15.565 42.435h2v2h-2z" transform="matrix(.707 -.707 .707 .707 -25.868 24.45)"/><path d="m29 48h2v2h-2z"/><path d="m48 29h2v2h-2z"/><path d="m42.435 15.565h2v2h-2z" transform="matrix(.707 -.707 .707 .707 1.015 35.58)"/><path d="m31 26.758v-11.758h-2v11.758l-2.243 2.242h-9.757v2h9.757l2.536 2.535a1 1 0 0 0 1.414 0l2.829-2.828a1 1 0 0 0 0-1.414zm-1 4.656-1.414-1.414 1.414-1.414 1.414 1.414z"/><path d="m48 44a4 4 0 1 0 4 4 4 4 0 0 0 -4-4zm0 6a2 2 0 1 1 2-2 2 2 0 0 1 -2 2z"/><path d="m57.242 46.03-1.606-.4a7.951 7.951 0 0 0 -.56-1.351l.853-1.421a1 1 0 0 0 -.151-1.221l-1.414-1.414a1 1 0 0 0 -1.222-.151l-1.421.853a7.884 7.884 0 0 0 -1.349-.56l-.4-1.606a1 1 0 0 0 -.972-.759h-2a1 1 0 0 0 -.97.758l-.4 1.606a7.884 7.884 0 0 0 -1.349.56l-1.421-.853a1 1 0 0 0 -1.222.151l-1.414 1.414a1 1 0 0 0 -.151 1.221l.853 1.421a7.951 7.951 0 0 0 -.56 1.351l-1.606.4a1 1 0 0 0 -.76.971v2a1 1 0 0 0 .758.97l1.606.4a7.908 7.908 0 0 0 .56 1.35l-.853 1.422a1 1 0 0 0 .151 1.221l1.414 1.414a1 1 0 0 0 1.222.151l1.421-.853a7.884 7.884 0 0 0 1.349.56l.4 1.606a1 1 0 0 0 .972.759h2a1 1 0 0 0 .97-.758l.4-1.606a7.884 7.884 0 0 0 1.349-.56l1.421.853a1 1 0 0 0 1.222-.151l1.414-1.414a1 1 0 0 0 .151-1.221l-.853-1.422a7.908 7.908 0 0 0 .56-1.35l1.606-.4a1 1 0 0 0 .76-.971v-2a1 1 0 0 0 -.758-.97zm-1.242 2.189-1.419.355a1 1 0 0 0 -.733.75 5.918 5.918 0 0 1 -.778 1.876 1 1 0 0 0 -.012 1.05l.754 1.257-.31.31-1.256-.753a1 1 0 0 0 -1.049.011 5.967 5.967 0 0 1 -1.873.778 1 1 0 0 0 -.75.733l-.355 1.414h-.438l-.355-1.419a1 1 0 0 0 -.75-.733 5.967 5.967 0 0 1 -1.876-.778 1.007 1.007 0 0 0 -1.049-.011l-1.256.753-.31-.31.754-1.257a1 1 0 0 0 -.012-1.05 5.918 5.918 0 0 1 -.778-1.871 1 1 0 0 0 -.733-.75l-1.416-.355v-.438l1.419-.355a1 1 0 0 0 .733-.75 5.948 5.948 0 0 1 .778-1.876 1 1 0 0 0 .012-1.049l-.754-1.251.31-.31 1.256.753a1 1 0 0 0 1.046-.013 5.967 5.967 0 0 1 1.873-.778 1 1 0 0 0 .75-.733l.358-1.419h.438l.355 1.419a1 1 0 0 0 .75.733 5.967 5.967 0 0 1 1.873.778 1 1 0 0 0 1.049.011l1.256-.753.31.31-.754 1.256a1 1 0 0 0 .012 1.046 5.948 5.948 0 0 1 .778 1.873 1 1 0 0 0 .733.75l1.419.358z"/><path d="m57.018 37.308a28.049 28.049 0 1 0 -19.71 19.71 13.989 13.989 0 1 0 19.71-19.71zm-27.018 18.692a26.041 26.041 0 1 1 25.275-19.939 13.97 13.97 0 0 0 -1.831-.959 24.038 24.038 0 1 0 -18.344 18.342 13.97 13.97 0 0 0 .959 1.831 26.05 26.05 0 0 1 -6.059.725zm4-8a13.945 13.945 0 0 0 .47 3.537 22.022 22.022 0 1 1 17.067-17.067 13.947 13.947 0 0 0 -17.537 13.53zm14 12a12 12 0 1 1 12-12 12.013 12.013 0 0 1 -12 12z"/></g></svg>