<?xml version="1.0" encoding="UTF-8" standalone="no"?>
<svg width="5px" height="9px" viewBox="0 0 5 9" version="1.1" xmlns="http://www.w3.org/2000/svg" xmlns:xlink="http://www.w3.org/1999/xlink">
    <!-- Generator: Sketch 3.8.3 (29802) - http://www.bohemiancoding.com/sketch -->
    <title>数字小9</title>
    <desc>Created with Sketch.</desc>
    <defs></defs>
    <g id="Page-1" stroke="none" stroke-width="1" fill="none" fill-rule="evenodd">
        <g id="数字小9" fill="#002422">
            <path d="M0.0003,1.2563 L0.0003,4.3563 L1.0003,3.8183 L1.0003,1.2563 L0.4993,0.7183 L0.0003,1.2563 Z M1.2522,8.0018 L0.2562,9.0018 L3.7592,9.0018 L4.2882,8.4908 L3.7592,8.0018 L1.2522,8.0018 Z M1.2522,4.0022 L0.2802,4.5452 L1.2522,5.0022 L3.7592,5.0022 L4.7312,4.5642 L3.7592,4.0022 L1.2522,4.0022 Z M1.2522,0.0017 L0.7242,0.5137 L1.2522,1.0017 L3.7592,1.0017 L4.2882,0.5137 L3.7592,0.0017 L1.2522,0.0017 Z M3.9999,1.2563 L3.9999,3.8183 L4.9999,4.3563 L4.9999,1.2563 L4.4999,0.7183 L3.9999,1.2563 Z M3.9999,5.2559 L3.9999,7.7319 L4.4999,8.2699 L4.9999,7.7319 L4.9999,4.6309 L3.9999,5.2559 Z" id="Combined-Shape"></path>
        </g>
    </g>
</svg>