<?xml version="1.0" encoding="UTF-8" standalone="no"?>
<svg width="5px" height="9px" viewBox="0 0 5 9" version="1.1" xmlns="http://www.w3.org/2000/svg" xmlns:xlink="http://www.w3.org/1999/xlink">
    <!-- Generator: Sketch 3.8.3 (29802) - http://www.bohemiancoding.com/sketch -->
    <title>数字小5</title>
    <desc>Created with Sketch.</desc>
    <defs></defs>
    <g id="Page-1" stroke="none" stroke-width="1" fill="none" fill-rule="evenodd">
        <g id="数字小5" fill="#002422">
            <path d="M0,1.2581 L0,4.3581 L1,3.7331 L1,1.2581 L0.5,0.7201 L0,1.2581 Z M1.0503,8.0018 L0.0543,9.0018 L3.7733,9.0018 L4.3023,8.4908 L3.7733,8.0018 L1.0503,8.0018 Z M1.2663,4.0022 L0.2943,4.5452 L1.2663,5.0022 L3.7733,5.0022 L4.7453,4.5452 L3.7733,4.0022 L1.2663,4.0022 Z M1.2663,0.0017 L0.7383,0.5137 L1.2663,1.0017 L3.7733,1.0017 L4.7583,0.0017 L1.2663,0.0017 Z M3.9996,5.3207 L3.9996,7.7337 L4.4996,8.2717 L5.0006,7.7337 L5.0006,4.7827 L3.9996,5.3207 Z" id="Combined-Shape"></path>
        </g>
    </g>
</svg>