<?xml version="1.0" encoding="UTF-8" standalone="no"?>
<svg width="5px" height="9px" viewBox="0 0 5 9" version="1.1" xmlns="http://www.w3.org/2000/svg" xmlns:xlink="http://www.w3.org/1999/xlink">
    <!-- Generator: Sketch 3.8.3 (29802) - http://www.bohemiancoding.com/sketch -->
    <title>数字小6</title>
    <desc>Created with Sketch.</desc>
    <defs></defs>
    <g id="Page-1" stroke="none" stroke-width="1" fill="none" fill-rule="evenodd">
        <g id="数字小6" fill="#002422">
            <path d="M0.0003,1.2581 L0.0003,4.3581 L1.0003,3.7331 L1.0003,1.2581 L0.4993,0.7201 L0.0003,1.2581 Z M0.0003,7.7336 L0.4993,8.2716 L1.0003,7.7336 L1.0003,5.3206 L0.0003,4.7826 L0.0003,7.7336 Z M1.2063,4.0022 L0.2343,4.5452 L1.2063,5.0022 L3.7133,5.0022 L4.6853,4.5642 L3.7133,4.0022 L1.2063,4.0022 Z M1.2063,0.0017 L0.6783,0.5137 L1.2063,1.0017 L3.7133,1.0017 L4.6983,0.0017 L1.2063,0.0017 Z M1.2063,8.0018 L0.6783,8.4908 L1.2063,9.0018 L3.7133,9.0018 L4.2423,8.4908 L3.7133,8.0018 L1.2063,8.0018 Z M3.9999,5.3207 L3.9999,7.7337 L4.4999,8.2717 L4.9999,7.7337 L4.9999,4.7827 L3.9999,5.3207 Z" id="Combined-Shape"></path>
        </g>
    </g>
</svg>