<?xml version="1.0" encoding="UTF-8" standalone="no"?>
<svg width="5px" height="9px" viewBox="0 0 5 9" version="1.1" xmlns="http://www.w3.org/2000/svg" xmlns:xlink="http://www.w3.org/1999/xlink">
    <!-- Generator: Sketch 3.8.3 (29802) - http://www.bohemiancoding.com/sketch -->
    <title>数字小8</title>
    <desc>Created with Sketch.</desc>
    <defs></defs>
    <g id="Page-1" stroke="none" stroke-width="1" fill="none" fill-rule="evenodd">
        <g id="数字小8" fill="#002422">
            <path d="M0,1.2563 L0,4.3563 L1,3.7313 L1,1.2563 L0.5,0.7183 L0,1.2563 Z M1,7.7315 L0.5,8.2695 L0,7.7315 L0.006,4.7325 L1.006,5.2705 L1,7.7315 Z M1.2519,4.0022 L0.2799,4.5452 L1.2519,5.0022 L3.7599,5.0022 L4.7319,4.5642 L3.7599,4.0022 L1.2519,4.0022 Z M1.2519,0.0017 L0.7249,0.5137 L1.2519,1.0017 L3.7599,1.0017 L4.2889,0.5137 L3.7599,0.0017 L1.2519,0.0017 Z M1.2519,8.0018 L0.7249,8.4908 L1.2519,9.0018 L3.7599,9.0018 L4.2889,8.4908 L3.7599,8.0018 L1.2519,8.0018 Z M3.9996,1.2563 L3.9996,3.7313 L5.0006,4.3563 L5.0006,1.2563 L4.4996,0.7183 L3.9996,1.2563 Z M5,7.7315 L4.5,8.2695 L4,7.7315 L4.006,5.2705 L5.006,4.7325 L5,7.7315 Z" id="Combined-Shape"></path>
        </g>
    </g>
</svg>