<?xml version="1.0" encoding="UTF-8" standalone="no"?>
<svg width="5px" height="9px" viewBox="0 0 5 9" version="1.1" xmlns="http://www.w3.org/2000/svg" xmlns:xlink="http://www.w3.org/1999/xlink">
    <!-- Generator: Sketch 3.8.3 (29802) - http://www.bohemiancoding.com/sketch -->
    <title>数字小3</title>
    <desc>Created with Sketch.</desc>
    <defs></defs>
    <g id="Page-1" stroke="none" stroke-width="1" fill="none" fill-rule="evenodd">
        <g id="数字小3" fill="#002422">
            <path d="M0.0174,0.0017 L1.0054,1.0017 L3.7384,1.0017 L4.2614,0.5137 L3.7384,0.0017 L0.0174,0.0017 Z M1.0056,8.0018 L0.0176,9.0018 L3.4926,9.0018 L4.0156,8.4908 L3.4926,8.0018 L1.0056,8.0018 Z M1.0056,4.0022 L0.0416,4.5452 L1.0056,5.0022 L3.4926,5.0022 L4.4566,4.5642 L3.4926,4.0022 L1.0056,4.0022 Z M3.9999,1.3058 L3.9999,3.7818 L4.9999,4.4058 L4.9999,1.3058 L4.4999,0.7678 L3.9999,1.3058 Z M3.9999,5.219 L3.9999,7.781 L4.4999,8.32 L4.9999,7.781 L4.9999,4.681 L3.9999,5.219 Z" id="Combined-Shape"></path>
        </g>
    </g>
</svg>