<svg xmlns="http://www.w3.org/2000/svg" width="16" height="16" viewBox="0 0 16 16">
  <path fill="#EB9900" d="M7.63381441,2.50138835 L1.86522449,12.5002775 C1.5892354,12.9786586 1.75330654,13.5901965 2.23168762,13.8661856 C2.38364083,13.9538509 2.55598208,14 2.73141008,14 L14.2685899,14 C14.8208747,14 15.2685899,13.5522847 15.2685899,13 C15.2685899,12.824572 15.2224408,12.6522307 15.1347755,12.5002775 L9.36618559,2.50138835 C9.0901965,2.02300726 8.47865864,1.85893613 8.00027755,2.13492522 C7.84804196,2.22275344 7.72164264,2.34915276 7.63381441,2.50138835 Z M8,5 L9,5 L9,9 L8,9 L8,5 Z M8.5,12 C7.948,12 7.5,11.552 7.5,11 C7.5,10.448 7.948,10 8.5,10 C9.052,10 9.5,10.448 9.5,11 C9.5,11.552 9.052,12 8.5,12 Z"/>
</svg>
