<?xml version="1.0" encoding="UTF-8"?>
<svg width="16px" height="16px" viewBox="0 0 16 16" version="1.1" xmlns="http://www.w3.org/2000/svg" xmlns:xlink="http://www.w3.org/1999/xlink">
    <title>icon/dock-set/search</title>
    <g id="icon/dock-set/search" stroke="none" stroke-width="1" fill="none" fill-rule="evenodd">
        <g id="ICON-/-Action-/-Search" transform="translate(1.000000, 1.000000)" fill="#536076">
            <path d="M6,0 C9.3137085,0 12,2.6862915 12,6 C12,7.38645854 11.5297397,8.6630819 10.7400213,9.67906791 L14.0303301,12.9696699 C14.3232233,13.2625631 14.3232233,13.7374369 14.0303301,14.0303301 C13.7640635,14.2965966 13.3473998,14.3208027 13.0537883,14.1029482 L12.9696699,14.0303301 L9.67906791,10.7400213 C8.6630819,11.5297397 7.38645854,12 6,12 C2.6862915,12 0,9.3137085 0,6 C0,2.6862915 2.6862915,0 6,0 Z M6,1.5 C3.51471863,1.5 1.5,3.51471863 1.5,6 C1.5,8.48528137 3.51471863,10.5 6,10.5 C8.48528137,10.5 10.5,8.48528137 10.5,6 C10.5,3.51471863 8.48528137,1.5 6,1.5 Z" id="形状结合"></path>
        </g>
    </g>
</svg>