<?xml version="1.0" encoding="UTF-8"?>
<svg width="16px" height="16px" viewBox="0 0 16 16" version="1.1" xmlns="http://www.w3.org/2000/svg" xmlns:xlink="http://www.w3.org/1999/xlink">
    <title>icon/dock/desktop</title>
    <g id="icon/dock/desktop" stroke="none" stroke-width="1" fill="none" fill-rule="evenodd">
        <path d="M13,2 C14.1045695,2 15,2.8954305 15,4 L15,12 C15,13.1045695 14.1045695,14 13,14 L3,14 C1.8954305,14 1,13.1045695 1,12 L1,4 C1,2.8954305 1.8954305,2 3,2 L13,2 Z M12.5,11 L3.5,11 C3.22385763,11 3,11.2238576 3,11.5 L3,11.5 L3,12.5 C3,12.7761424 3.22385763,13 3.5,13 L3.5,13 L12.5,13 C12.7761424,13 13,12.7761424 13,12.5 L13,12.5 L13,11.5 C13,11.2238576 12.7761424,11 12.5,11 L12.5,11 Z M4.5,7 L3.5,7 C3.22385763,7 3,7.22385763 3,7.5 L3,7.5 L3,8.5 C3,8.77614237 3.22385763,9 3.5,9 L3.5,9 L4.5,9 C4.77614237,9 5,8.77614237 5,8.5 L5,8.5 L5,7.5 C5,7.22385763 4.77614237,7 4.5,7 L4.5,7 Z M4.5,4 L3.5,4 C3.22385763,4 3,4.22385763 3,4.5 L3,4.5 L3,5.5 C3,5.77614237 3.22385763,6 3.5,6 L3.5,6 L4.5,6 C4.77614237,6 5,5.77614237 5,5.5 L5,5.5 L5,4.5 C5,4.22385763 4.77614237,4 4.5,4 L4.5,4 Z" id="形状结合" fill="#536076"></path>
    </g>
</svg>