<?xml version="1.0" encoding="UTF-8"?>
<svg width="16px" height="16px" viewBox="0 0 16 16" version="1.1" xmlns="http://www.w3.org/2000/svg" xmlns:xlink="http://www.w3.org/1999/xlink">
    <title>编组 3</title>
    <g id="浅" stroke="none" stroke-width="1" fill="none" fill-rule="evenodd">
        <g id="任务栏插件菜单" transform="translate(-792.000000, -603.000000)">
            <g id="控制中心-个性化备份" transform="translate(322.000000, 172.000000)">
                <g id="分组-4" transform="translate(450.000000, 60.000000)">
                    <g id="编组-2" transform="translate(10.000000, 11.000000)">
                        <g id="编组" transform="translate(0.000000, 54.000000)">
                            <g id="list/check-box/top" transform="translate(0.000000, 296.000000)">
                                <g id="编组-3" transform="translate(10.000000, 10.000000)">
                                    <rect id="矩形" x="0" y="0" width="16" height="16"></rect>
                                    <path d="M14,15 L13,15 L13,13 L3.77777779,13 C2.79593823,13 2,12.2040618 2,11.2222222 L2,4 L0,4 L0,3 L2,3 L2.00088889,1 L3,1 L3,3 L12.2222222,3 C13.2040618,3 14,3.79593823 14,4.77777779 L14,11.999 L16,12 L16,13 L14,13 L14,15 Z M13,4.8888889 C13,4.39796911 12.6020309,4 12.1111111,4 L3,4 L3,11.1111111 C3,11.5642678 3.33909794,11.938224 3.77738856,11.9930743 L3.8888889,12 L13,12 L13,4.8888889 Z M12,5 L12,11 L4,11 L4,5 L12,5 Z" id="Combined-Shape" fill="#536076"></path>
                                </g>
                            </g>
                        </g>
                    </g>
                </g>
            </g>
        </g>
    </g>
</svg>