<svg xmlns="http://www.w3.org/2000/svg" width="20" height="20" viewBox="0 0 20 20">
  <path fill-rule="evenodd" d="M9,0.501002377 L9,11.5010024 C9,11.9464548 8.46142904,12.1695382 8.14644661,11.8545558 L6.17157288,9.87968203 C5.60896374,9.3170729 4.845902,9.00100238 4.05025253,9.00100238 L2,9.00100238 C0.8954305,9.00100238 9.96112538e-14,8.10557188 0,7.00100238 L0,5.00100238 C-3.09994708e-14,3.89643288 0.8954305,3.00100238 2,3.00100238 L4.05025253,3.00100238 C4.845902,3.00100238 5.60896374,2.68493186 6.17157288,2.12232272 L8.14644661,0.147448987 C8.46142904,-0.167533444 9,0.055549952 9,0.501002377 Z M14.5,0.298002377 C14.7761424,0.298002377 15,0.521860002 15,0.798002377 L15,11.2470024 C15,11.5231448 14.7761424,11.7470024 14.5,11.7470024 C14.2238576,11.7470024 14,11.5231448 14,11.2470024 L14,0.798002377 C14,0.521860002 14.2238576,0.298002377 14.5,0.298002377 Z M11.514,2.11900238 C11.7901424,2.11900238 12.014,2.34286 12.014,2.61900238 L12.014,9.38300238 C12.014,9.65914475 11.7901424,9.88300238 11.514,9.88300238 C11.2378576,9.88300238 11.014,9.65914475 11.014,9.38300238 L11.014,2.61900238 C11.014,2.34286 11.2378576,2.11900238 11.514,2.11900238 Z" transform="translate(1 4)"/>
</svg>
