<svg xmlns="http://www.w3.org/2000/svg" width="20" height="20" viewBox="0 0 20 20">
  <path fill-rule="evenodd" d="M17.5,0.455002377 C17.7761424,0.455002377 18,0.678860002 18,0.955002377 L18,15.0900024 C18,15.3661448 17.7761424,15.5900024 17.5,15.5900024 C17.2238576,15.5900024 17,15.3661448 17,15.0900024 L17,0.955002377 C17,0.678860002 17.2238576,0.455002377 17.5,0.455002377 Z M9,2.50100238 L9,13.5010024 C9,13.9464548 8.46142904,14.1695382 8.14644661,13.8545558 L6.17157288,11.879682 C5.60896374,11.3170729 4.845902,11.0010024 4.05025253,11.0010024 L2,11.0010024 C0.8954305,11.0010024 9.96112538e-14,10.1055719 0,9.00100238 L0,7.00100238 C-3.09994708e-14,5.89643288 0.8954305,5.00100238 2,5.00100238 L4.05025253,5.00100238 C4.845902,5.00100238 5.60896374,4.68493186 6.17157288,4.12232272 L8.14644661,2.14744899 C8.46142904,1.83246656 9,2.05554995 9,2.50100238 Z M14.5,2.29800238 C14.7761424,2.29800238 15,2.52186 15,2.79800238 L15,13.2470024 C15,13.5231448 14.7761424,13.7470024 14.5,13.7470024 C14.2238576,13.7470024 14,13.5231448 14,13.2470024 L14,2.79800238 C14,2.52186 14.2238576,2.29800238 14.5,2.29800238 Z M11.514,4.11900238 C11.7901424,4.11900238 12.014,4.34286 12.014,4.61900238 L12.014,11.3830024 C12.014,11.6591448 11.7901424,11.8830024 11.514,11.8830024 C11.2378576,11.8830024 11.014,11.6591448 11.014,11.3830024 L11.014,4.61900238 C11.014,4.34286 11.2378576,4.11900238 11.514,4.11900238 Z" transform="translate(1 2)"/>
</svg>
