<svg xmlns="http://www.w3.org/2000/svg" width="20" height="20" viewBox="0 0 20 20">
  <path fill="#FFF" fill-opacity=".8" fill-rule="evenodd" d="M10,4.50100238 L10,15.5010024 C10,15.9464548 9.46142904,16.1695382 9.14644661,15.8545558 L7.17157288,13.879682 C6.60896374,13.3170729 5.845902,13.0010024 5.05025253,13.0010024 L3,13.0010024 C1.8954305,13.0010024 1,12.1055719 1,11.0010024 L1,9.00100238 C1,7.89643288 1.8954305,7.00100238 3,7.00100238 L5.05025253,7.00100238 C5.845902,7.00100238 6.60896374,6.68493186 7.17157288,6.12232272 L9.14644661,4.14744899 C9.46142904,3.83246656 10,4.05554995 10,4.50100238 Z M12.514,6.11900238 C12.7901424,6.11900238 13.014,6.34286 13.014,6.61900238 L13.014,13.3830024 C13.014,13.6591448 12.7901424,13.8830024 12.514,13.8830024 C12.2378576,13.8830024 12.014,13.6591448 12.014,13.3830024 L12.014,6.61900238 C12.014,6.34286 12.2378576,6.11900238 12.514,6.11900238 Z"/>
</svg>
