<?xml version="1.0" encoding="UTF-8"?>
<svg width="18px" height="20px" viewBox="0 0 18 20" version="1.1" xmlns="http://www.w3.org/2000/svg" xmlns:xlink="http://www.w3.org/1999/xlink">
    <title>ICON / MenuItem / Broadcast</title>
    <g id="任务栏" stroke="none" stroke-width="1" fill="none" fill-rule="evenodd">
        <g id="任务栏-时尚" transform="translate(-993.000000, -844.000000)" fill="#000000" fill-rule="nonzero">
            <g id="UDE-/-ControlPanel" transform="translate(712.000000, 534.000000)">
                <g id="编组-4" transform="translate(10.000000, 290.000000)">
                    <g id="形状结合" transform="translate(268.000000, 18.000000)">
                        <path d="M12,14 L20,22 L4,22 L12,14 Z M12,2 C16.9705627,2 21,6.02943725 21,11 C21,13.8342485 19.6898859,16.3625035 17.642214,18.0122085 L16.8031599,17.146139 C18.6274776,15.7184347 19.8,13.496146 19.8,11 C19.8,6.69217895 16.307821,3.2 12,3.2 C7.69217895,3.2 4.2,6.69217895 4.2,11 C4.2,13.4965987 5.37294772,15.7192407 7.19783267,17.1469157 L6.35879863,18.0130242 C4.31054605,16.3633369 3,13.8347157 3,11 C3,6.02943725 7.02943725,2 12,2 Z M12,5 C15.3137085,5 18,7.6862915 18,11 C18,12.9892946 17.0318944,14.752476 15.541118,15.8441093 L14.6955445,14.9722251 C15.9657118,14.1086147 16.8,12.6517366 16.8,11 C16.8,8.3490332 14.6509668,6.2 12,6.2 C9.3490332,6.2 7.2,8.3490332 7.2,11 C7.2,12.652163 8.03471909,14.109367 9.30543941,14.9728939 L8.4598839,15.8448429 C6.96853942,14.753266 6,12.9897402 6,11 C6,7.6862915 8.6862915,5 12,5 Z M12,8 C13.6568542,8 15,9.34314575 15,11 C15,12.1468362 14.356487,13.1433719 13.4108513,13.6482168 L12,12.1937608 L10.5901445,13.6487482 C9.6439648,13.1440714 9,12.1472387 9,11 C9,9.34314575 10.3431458,8 12,8 Z"></path>
                    </g>
                </g>
            </g>
        </g>
    </g>
</svg>