<?xml version="1.0" encoding="UTF-8"?>
<svg width="16px" height="16px" viewBox="0 0 16 16" version="1.1" xmlns="http://www.w3.org/2000/svg" xmlns:xlink="http://www.w3.org/1999/xlink">
    <!-- Generator: Sketch 46.2 (44496) - http://www.bohemiancoding.com/sketch -->
    <title>network-wired-symbolic-connecting4</title>
    <desc>Created with Sketch.</desc>
    <defs></defs>
    <g id="Page-1" stroke="none" stroke-width="1" fill="none" fill-rule="evenodd">
        <g id="network-wired-symbolic-connecting4" fill-rule="nonzero" fill="#FFFFFF">
            <path d="M4.85775,9.00278155 C4.66675,9.02978155 4.48575,9.12278155 4.35475,9.26278155 L3.16475,10.4507816 C3.00375,10.6057816 2.90775,10.8237816 2.90375,11.0447816 L2.90375,12.2327816 L2.90375,12.2517816 L0.67475,14.4517816 C0.44175,14.6847816 0.44175,15.0727816 0.67475,15.3057816 C0.90975,15.5377816 1.29775,15.5377816 1.53175,15.3057816 L3.75875,13.0867816 L4.95075,13.0867816 C5.17175,13.0817816 5.39075,12.9867816 5.54575,12.8267816 L6.73575,11.6387816 C7.04275,11.3237816 7.04275,10.7647816 6.73575,10.4507816 L5.54575,9.26278155 C5.36975,9.08078155 5.10975,8.98178155 4.85775,9.00278155" id="Fill-124"></path>
            <path d="M11.1095,6.977 C11.2995,6.951 11.4795,6.857 11.6125,6.717 L12.8015,5.53 C12.9635,5.374 13.0585,5.157 13.0625,4.935 L13.0625,3.747 L13.0625,3.729 L15.2905,1.528 C15.5245,1.296 15.5245,0.907 15.2905,0.674 C15.0575,0.442 14.6685,0.442 14.4345,0.674 L12.2065,2.893 L11.0165,2.893 C10.7945,2.898 10.5755,2.994 10.4205,3.154 L9.2295,4.341 C8.9235,4.656 8.9235,5.215 9.2295,5.53 L10.4205,6.717 C10.5965,6.9 10.8565,6.998 11.1095,6.977" id="Fill-126"></path>
        </g>
    </g>
</svg>