<?xml version="1.0" encoding="UTF-8"?>
<svg width="16px" height="16px" viewBox="0 0 16 16" version="1.1" xmlns="http://www.w3.org/2000/svg" xmlns:xlink="http://www.w3.org/1999/xlink">
    <!-- Generator: Sketch 46.2 (44496) - http://www.bohemiancoding.com/sketch -->
    <title>network-wired-symbolic-connecting3</title>
    <desc>Created with Sketch.</desc>
    <defs></defs>
    <g id="Page-1" stroke="none" stroke-width="1" fill="none" fill-rule="evenodd">
        <g id="network-wired-symbolic-connecting3" fill-rule="nonzero" fill="#FFFFFF">
            <path d="M5.35775,8.50278155 C5.16675,8.52978155 4.98575,8.62278155 4.85475,8.76278155 L3.66475,9.95078155 C3.50375,10.1057816 3.40775,10.3237816 3.40375,10.5447816 L3.40375,11.7327816 L3.40375,11.7517816 L1.17475,13.9517816 C0.94175,14.1847816 0.94175,14.5727816 1.17475,14.8057816 C1.40975,15.0377816 1.79775,15.0377816 2.03175,14.8057816 L4.25875,12.5867816 L5.45075,12.5867816 C5.67175,12.5817816 5.89075,12.4867816 6.04575,12.3267816 L7.23575,11.1387816 C7.54275,10.8237816 7.54275,10.2647816 7.23575,9.95078155 L6.04575,8.76278155 C5.86975,8.58078155 5.60975,8.48178155 5.35775,8.50278155" id="Fill-124"></path>
            <path d="M10.6095,7.477 C10.7995,7.451 10.9795,7.357 11.1125,7.217 L12.3015,6.03 C12.4635,5.874 12.5585,5.657 12.5625,5.435 L12.5625,4.247 L12.5625,4.229 L14.7905,2.028 C15.0245,1.796 15.0245,1.407 14.7905,1.174 C14.5575,0.942 14.1685,0.942 13.9345,1.174 L11.7065,3.393 L10.5165,3.393 C10.2945,3.398 10.0755,3.494 9.9205,3.654 L8.7295,4.841 C8.4235,5.156 8.4235,5.715 8.7295,6.03 L9.9205,7.217 C10.0965,7.4 10.3565,7.498 10.6095,7.477" id="Fill-126"></path>
        </g>
    </g>
</svg>