<svg xmlns="http://www.w3.org/2000/svg" width="20" height="20" viewBox="0 0 20 20">
  <g fill="none" fill-rule="evenodd" transform="translate(0 4)">
    <path fill="#3ACB00" d="M1,-1.86517468e-13 L11,-1.86517468e-13 L11,-1.86517468e-13 L11,8 L1,8 C0.44771525,8 6.76353751e-17,7.55228475 0,7 L0,1 C-6.76353751e-17,0.44771525 0.44771525,-1.86416015e-13 1,-1.86517468e-13 Z" transform="translate(2 2)"/>
    <path fill="#FFF" d="M15,-4.61852778e-14 C16.6568542,-4.61852778e-14 18,1.34314575 18,3 L18,9 C18,10.6568542 16.6568542,12 15,12 L3,12 C1.34314575,12 0,10.6568542 0,9 L0,3 C0,1.34314575 1.34314575,-4.61852778e-14 3,-4.61852778e-14 L15,-4.61852778e-14 Z M15,1 L3,1 C1.8954305,1 1,1.8954305 1,3 L1,9 C1,10.1045695 1.8954305,11 3,11 L15,11 C16.1045695,11 17,10.1045695 17,9 L17,3 C17,1.8954305 16.1045695,1 15,1 Z M20,3 L20,9 L19,9 L19,3 L20,3 Z"/>
  </g>
</svg>
