<?xml version="1.0" encoding="UTF-8"?>
<svg width="16px" height="16px" viewBox="0 0 16 16" version="1.1" xmlns="http://www.w3.org/2000/svg" xmlns:xlink="http://www.w3.org/1999/xlink">
    <title>icon/dock-set/desktop</title>
    <g id="icon/dock-set/desktop" stroke="none" stroke-width="1" fill="none" fill-rule="evenodd" fill-opacity="0.7">
        <g id="desktop" transform="translate(1.000000, 2.000000)" fill="#000000" fill-rule="nonzero">
            <path d="M12,0 C13.1045695,0 14,0.8954305 14,2 L14,10 C14,11.1045695 13.1045695,12 12,12 L2,12 C0.8954305,12 0,11.1045695 0,10 L0,2 C0,0.8954305 0.8954305,0 2,0 L12,0 Z M11.5,9 L2.5,9 C2.22385763,9 2,9.2238576 2,9.5 L2,9.5 L2,10.5 C2,10.7761424 2.22385763,11 2.5,11 L2.5,11 L11.5,11 C11.7761424,11 12,10.7761424 12,10.5 L12,10.5 L12,9.5 C12,9.2238576 11.7761424,9 11.5,9 L11.5,9 Z M3.5,5 L2.5,5 C2.22385763,5 2,5.22385763 2,5.5 L2,5.5 L2,6.5 C2,6.77614237 2.22385763,7 2.5,7 L2.5,7 L3.5,7 C3.77614237,7 4,6.77614237 4,6.5 L4,6.5 L4,5.5 C4,5.22385763 3.77614237,5 3.5,5 L3.5,5 Z M3.5,2 L2.5,2 C2.22385763,2 2,2.22385763 2,2.5 L2,2.5 L2,3.5 C2,3.77614237 2.22385763,4 2.5,4 L2.5,4 L3.5,4 C3.77614237,4 4,3.77614237 4,3.5 L4,3.5 L4,2.5 C4,2.22385763 3.77614237,2 3.5,2 L3.5,2 Z" id="形状结合"></path>
        </g>
    </g>
</svg>