<svg xmlns="http://www.w3.org/2000/svg" width="20" height="20" viewBox="0 0 20 20">
  <path fill-rule="evenodd" d="M7,16 L13,16 C13,17.6568542 11.6568542,19 10,19 C8.40231912,19 7.09633912,17.75108 7.00509269,16.1762728 L7,16 L13,16 Z M10.3773685,1 C12.8942381,1 15.0585627,3.06738216 15.2115228,5.6176273 L15.2344541,5.999952 C15.4012564,8.78098309 16.3249519,11.5195476 17.9830894,13.9755256 L18,14 L2,14 L2.01691063,13.9755256 C3.6750481,11.5195476 4.59874356,8.78098309 4.76554589,5.999952 L4.78847718,5.6176273 C4.94143729,3.06738216 7.1057619,1 9.62263149,1 L10.3773685,1 Z"/>
</svg>
