<svg xmlns="http://www.w3.org/2000/svg" width="16" height="16" viewBox="0 0 16 16">
  <path fill="#536076" fill-rule="evenodd" d="M13,3 C14.1045695,3 15,3.8954305 15,5 L15,13 L15.5,13 C15.7761424,13 16,13.2238576 16,13.5 C16,13.7761424 15.7761424,14 15.5,14 L1.5,14 C1.22385763,14 1,13.7761424 1,13.5 C1,13.2238576 1.22385763,13 1.5,13 L2,13 L2,5 C2,3.8954305 2.8954305,3 4,3 L13,3 Z M13,4 L4,4 C3.44771525,4 3,4.44771525 3,5 L3,5 L3,11 C3,11.5522847 3.44771525,12 4,12 L4,12 L13,12 C13.5522847,12 14,11.5522847 14,11 L14,11 L14,5 C14,4.44771525 13.5522847,4 13,4 L13,4 Z"/>
</svg>
