<?xml version="1.0" encoding="UTF-8"?>
<svg width="16px" height="16px" viewBox="0 0 16 16" version="1.1" xmlns="http://www.w3.org/2000/svg" xmlns:xlink="http://www.w3.org/1999/xlink">
    <title>buletooth_pad_light</title>
    <g id="buletooth_pad_light" stroke="none" stroke-width="1" fill="none" fill-rule="evenodd">
        <path d="M13,3 C14.1045695,3 15,3.8954305 15,5 L15,11 C15,12.1045695 14.1045695,13 13,13 L3,13 C1.8954305,13 1,12.1045695 1,11 L1,5 C1,3.8954305 1.8954305,3 3,3 L13,3 Z M12,4 L3,4 C2.44771525,4 2,4.44771525 2,5 L2,5 L2,11 C2,11.5522847 2.44771525,12 3,12 L3,12 L12,12 C12.5522847,12 13,11.5522847 13,11 L13,11 L13,5 C13,4.44771525 12.5522847,4 12,4 L12,4 Z M14,7.5 C13.7238576,7.5 13.5,7.72385763 13.5,8 C13.5,8.27614237 13.7238576,8.5 14,8.5 C14.2761424,8.5 14.5,8.27614237 14.5,8 C14.5,7.72385763 14.2761424,7.5 14,7.5 Z" id="形状结合" fill="#000000"></path>
    </g>
</svg>