<svg xmlns="http://www.w3.org/2000/svg" width="16" height="16" viewBox="0 0 16 16">
  <path fill="#536076" fill-rule="evenodd" d="M9,3 C9.3147573,3 9.61114562,3.14819416 9.8,3.4 L10.25,4 L13,4 C14.1045695,4 15,4.8954305 15,6 L15,11 C15,12.1045695 14.1045695,13 13,13 L3,13 C1.8954305,13 1,12.1045695 1,11 L1,6 C1,4.8954305 1.8954305,4 3,4 L5.75,4 L6.2,3.4 C6.38885438,3.14819416 6.6852427,3 7,3 L9,3 Z M8,5 C6.06700338,5 4.5,6.56700338 4.5,8.5 C4.5,10.4329966 6.06700338,12 8,12 C9.93299662,12 11.5,10.4329966 11.5,8.5 C11.5,6.56700338 9.93299662,5 8,5 Z M8,6 C9.38071187,6 10.5,7.11928813 10.5,8.5 C10.5,9.88071187 9.38071187,11 8,11 C6.61928813,11 5.5,9.88071187 5.5,8.5 C5.5,7.11928813 6.61928813,6 8,6 Z M13.5,5 C13.2238576,5 13,5.22385763 13,5.5 C13,5.77614237 13.2238576,6 13.5,6 C13.7761424,6 14,5.77614237 14,5.5 C14,5.22385763 13.7761424,5 13.5,5 Z"/>
</svg>
