<?xml version="1.0" encoding="UTF-8"?>
<svg width="16px" height="16px" viewBox="0 0 16 16" version="1.1" xmlns="http://www.w3.org/2000/svg" xmlns:xlink="http://www.w3.org/1999/xlink">
    <title>buletooth_vidicon_light</title>
    <g id="buletooth_vidicon_light" stroke="none" stroke-width="1" fill="none" fill-rule="evenodd">
        <path d="M9,4 C10.1045695,4 11,4.8954305 11,6 L11,11 C11,12.1045695 10.1045695,13 9,13 L3,13 C1.8954305,13 1,12.1045695 1,11 L1,6 C1,4.8954305 1.8954305,4 3,4 L9,4 Z M14.8466082,6.01915086 C14.9459035,6.14326999 15,6.29748735 15,6.45643739 L15,11.5435626 C15,11.9301619 14.6865993,12.2435626 14.3,12.2435626 C14.14105,12.2435626 13.9868326,12.1894661 13.8627135,12.0901708 L12,10.6 L12,7.4 L13.8627135,5.90982923 C14.1645968,5.66832254 14.6051015,5.71726751 14.8466082,6.01915086 Z M2.75,5 C2.33578644,5 2,5.33578644 2,5.75 C2,6.16421356 2.33578644,6.5 2.75,6.5 C3.16421356,6.5 3.5,6.16421356 3.5,5.75 C3.5,5.33578644 3.16421356,5 2.75,5 Z" id="形状结合" fill="#000000"></path>
    </g>
</svg>