<?xml version="1.0" encoding="UTF-8"?>
<svg width="16px" height="16px" viewBox="0 0 16 16" version="1.1" xmlns="http://www.w3.org/2000/svg" xmlns:xlink="http://www.w3.org/1999/xlink">
    <title>buletooth_pc_light</title>
    <g id="buletooth_pc_light" stroke="none" stroke-width="1" fill="none" fill-rule="evenodd">
        <g id="编组-4" transform="translate(2.000000, 3.000000)" fill="#000000">
            <path d="M2.5,11 C2.22385763,11 2,10.7761424 2,10.5 C2,10.2238576 2.22385763,10 2.5,10 L6,10 L6,9 L1,9 C0.44771525,9 6.76353751e-17,8.55228475 0,8 L13,8 C13,8.55228475 12.5522847,9 12,9 L7,9 L7,10 L10.5,10 C10.7761424,10 11,10.2238576 11,10.5 C11,10.7761424 10.7761424,11 10.5,11 L2.5,11 Z M11,0 C12.1045695,-2.02906125e-16 13,0.8954305 13,2 L13,7 L0,7 L0,2 C-1.3527075e-16,0.8954305 0.8954305,2.02906125e-16 2,0 L11,0 Z" id="形状结合"></path>
        </g>
    </g>
</svg>