<?xml version="1.0" encoding="UTF-8"?>
<svg width="16px" height="16px" viewBox="0 0 16 16" version="1.1" xmlns="http://www.w3.org/2000/svg" xmlns:xlink="http://www.w3.org/1999/xlink">
    <title>buletooth_lan_light</title>
    <g id="buletooth_lan_light" stroke="none" stroke-width="1" fill="none" fill-rule="evenodd">
        <path d="M8,7 C8.55228475,7 9,7.44771525 9,8 L9,9 L13,9 C14.1045695,9 15,9.8954305 15,11 L15,12 C15,13.1045695 14.1045695,14 13,14 L3,14 C1.8954305,14 0.999999999,13.1045695 0.999999999,12 L0.999999999,11 C0.999999999,9.8954305 1.8954305,9 3,9 L7,9 L7,8 C7,7.44771525 7.44771525,7 8,7 Z M3.75,10.5 C3.33578644,10.5 3,10.8357864 3,11.25 C3,11.6642136 3.33578644,12 3.75,12 C4.16421356,12 4.5,11.6642136 4.5,11.25 C4.5,10.8357864 4.16421356,10.5 3.75,10.5 Z M6.25,10.5 C5.83578644,10.5 5.5,10.8357864 5.5,11.25 C5.5,11.6642136 5.83578644,12 6.25,12 C6.66421356,12 7,11.6642136 7,11.25 C7,10.8357864 6.66421356,10.5 6.25,10.5 Z M8,4.43579477 C9.6465454,4.43579477 11.1321792,5.08947934 12.1843601,6.13825562 L11.2755628,6.9989637 C10.4560251,6.17090503 9.29167133,5.65369215 8,5.65369215 C6.70780741,5.65369215 5.54303518,6.17132256 4.72344523,6.99996635 L3.81563987,6.13825562 C4.86782077,5.08947934 6.3534546,4.43579477 8,4.43579477 Z M8,2 C10.3553542,2 12.4827521,2.92604569 13.9998287,4.41534116 L13.0920471,5.27668346 C11.8073922,4.00771041 10.0009066,3.21789738 8,3.21789738 C5.99909337,3.21789738 4.1926078,4.00771041 2.90795289,5.27668346 L2.00056858,4.41495114 C3.51761931,2.92588402 5.64485145,2 8,2 Z" id="形状结合" fill="#000000"></path>
    </g>
</svg>