<svg xmlns="http://www.w3.org/2000/svg" width="16" height="16" viewBox="0 0 16 16">
  <path fill="#536076" fill-rule="evenodd" d="M11,2 C12.6568542,2 14,3.34314575 14,5 L14,11 C14,12.6568542 12.6568542,14 11,14 L5,14 C3.34314575,14 2,12.6568542 2,11 L2,5 C2,3.34314575 3.34314575,2 5,2 L11,2 Z M8.21794839,3.04960864 C7.89636093,2.89141423 7.5,3.12236274 7.5,3.5 L7.5,3.5 L7.5,7.138 L4.74806947,5.56587843 L4.66603884,5.52828191 C4.44251729,5.4493158 4.18766064,5.53881167 4.06587843,5.75193053 L4.06587843,5.75193053 L4.02828191,5.83396116 C3.9493158,6.05748271 4.03881167,6.31233936 4.25193053,6.43412157 L4.25193053,6.43412157 L6.991,8 L4.25193053,9.56587843 L4.17789336,9.61746351 C3.99638085,9.76994543 3.94409622,10.0349506 4.06587843,10.2480695 L4.06587843,10.2480695 L4.11746351,10.3221066 C4.26994543,10.5036191 4.5349506,10.5559038 4.74806947,10.4341216 L4.74806947,10.4341216 L7.5,8.861 L7.5,12.5 L7.50682155,12.5844328 C7.56501237,12.9380679 7.98332302,13.1263639 8.2906191,12.9068667 L8.2906191,12.9068667 L11.7906191,10.4068667 L11.8581667,10.3492475 C12.0815493,10.1220755 12.0383123,9.73173147 11.7480695,9.56587843 L11.7480695,9.56587843 L9.008,8 L11.7480695,6.43412157 L11.8210878,6.38361429 C12.0662583,6.18014854 12.06264,5.78743392 11.7906191,5.59313326 L11.7906191,5.59313326 L8.2906191,3.09313326 Z M8.5,8.862 L10.574,10.047 L8.5,11.528 L8.5,8.862 Z M8.5,4.471 L10.574,5.952 L8.5,7.137 L8.5,4.471 Z"/>
</svg>
