<svg xmlns="http://www.w3.org/2000/svg" width="16" height="16" viewBox="0 0 16 16">
  <path fill="#536076" fill-rule="evenodd" d="M13.5,10 C13.7761424,10 14,10.2238576 14,10.5 L14,12 C14,13.1045695 13.1045695,14 12,14 L10.5,14 C10.2238576,14 10,13.7761424 10,13.5 C10,13.2238576 10.2238576,13 10.5,13 L12,13 C12.5522847,13 13,12.5522847 13,12 L13,10.5 C13,10.2238576 13.2238576,10 13.5,10 Z M2.5,10 C2.77614237,10 3,10.2238576 3,10.5 L3,10.5 L3,12 C3,12.5522847 3.44771525,13 4,13 L4,13 L5.5,13 C5.77614237,13 6,13.2238576 6,13.5 C6,13.7761424 5.77614237,14 5.5,14 L5.5,14 L4,14 C2.8954305,14 2,13.1045695 2,12 L2,12 L2,10.5 C2,10.2238576 2.22385763,10 2.5,10 Z M12,10 L12,11 C12,11.5522847 11.5522847,12 11,12 L5,12 C4.44771525,12 4,11.5522847 4,11 L4,10 L12,10 Z M13.5,8 C13.7761424,8 14,8.22385763 14,8.5 C14,8.77614237 13.7761424,9 13.5,9 L2.5,9 C2.22385763,9 2,8.77614237 2,8.5 C2,8.22385763 2.22385763,8 2.5,8 L13.5,8 Z M11,4 C11.5522847,4 12,4.44771525 12,5 L12,7 L4,7 L4,5 C4,4.44771525 4.44771525,4 5,4 L11,4 Z M5.5,2 C5.77614237,2 6,2.22385763 6,2.5 C6,2.77614237 5.77614237,3 5.5,3 L4,3 C3.44771525,3 3,3.44771525 3,4 L3,5.5 C3,5.77614237 2.77614237,6 2.5,6 C2.22385763,6 2,5.77614237 2,5.5 L2,4 C2,2.8954305 2.8954305,2 4,2 L5.5,2 Z M12,2 C13.1045695,2 14,2.8954305 14,4 L14,4 L14,5.5 C14,5.77614237 13.7761424,6 13.5,6 C13.2238576,6 13,5.77614237 13,5.5 L13,5.5 L13,4 C13,3.44771525 12.5522847,3 12,3 L12,3 L10.5,3 C10.2238576,3 10,2.77614237 10,2.5 C10,2.22385763 10.2238576,2 10.5,2 L10.5,2 Z"/>
</svg>
