<?xml version="1.0" encoding="UTF-8"?>
<svg width="16px" height="16px" viewBox="0 0 16 16" version="1.1" xmlns="http://www.w3.org/2000/svg" xmlns:xlink="http://www.w3.org/1999/xlink">
    <title>buletooth_keyboard_light</title>
    <g id="buletooth_keyboard_light" stroke="none" stroke-width="1" fill="none" fill-rule="evenodd">
        <path d="M13,4 L3,4 C1.8954305,4 1,4.8954305 1,6 L1,11 C1,12.1045695 1.8954305,13 3,13 L13,13 C14.1045695,13 15,12.1045695 15,11 L15,6 C15,4.8954305 14.1045695,4 13,4 Z M4,6 L2,6 L2,7 L4,7 L4,6 Z M6,6 L5,6 L5,7 L6,7 L6,6 Z M8,6 L7,6 L7,7 L8,7 L8,6 Z M10,6 L9,6 L9,7 L10,7 L10,6 Z M12,6 L11,6 L11,7 L12,7 L12,6 Z M14,6 L13,6 L13,7 L14,7 L14,6 Z M11,11 L5,11 L5,12 L11,12 L11,11 Z M14,9 L11,9 L11,10 L14,10 L14,9 Z M4,9 L2,9 L2,10 L4,10 L4,9 Z M6,9 L5,9 L5,10 L6,10 L6,9 Z M8,9 L7,9 L7,10 L8,10 L8,9 Z M10,9 L9,9 L9,10 L10,10 L10,9 Z" id="形状" fill="#000000"></path>
    </g>
</svg>