<?xml version="1.0" encoding="UTF-8"?>
<svg width="16px" height="16px" viewBox="0 0 16 16" version="1.1" xmlns="http://www.w3.org/2000/svg" xmlns:xlink="http://www.w3.org/1999/xlink">
    <title>buletooth_other_light</title>
    <g id="buletooth_other_light" stroke="none" stroke-width="1" fill="none" fill-rule="evenodd">
        <path d="M11,2 C12.6568542,2 14,3.34314575 14,5 L14,11 C14,12.6568542 12.6568542,14 11,14 L5,14 C3.34314575,14 2,12.6568542 2,11 L2,5 C2,3.34314575 3.34314575,2 5,2 L11,2 Z M7.71794839,3.04960864 C7.39636093,2.89141423 7,3.12236274 7,3.5 L7,3.5 L7,7.138 L4.24806947,5.56587843 L4.16603884,5.52828191 C3.94251729,5.4493158 3.68766064,5.53881167 3.56587843,5.75193053 L3.56587843,5.75193053 L3.52828191,5.83396116 C3.4493158,6.05748271 3.53881167,6.31233936 3.75193053,6.43412157 L3.75193053,6.43412157 L6.491,8 L3.75193053,9.56587843 L3.67789336,9.61746351 C3.49638085,9.76994543 3.44409622,10.0349506 3.56587843,10.2480695 L3.56587843,10.2480695 L3.61746351,10.3221066 C3.76994543,10.5036191 4.0349506,10.5559038 4.24806947,10.4341216 L4.24806947,10.4341216 L7,8.861 L7,12.5 L7.00682155,12.5844328 C7.06501237,12.9380679 7.48332302,13.1263639 7.7906191,12.9068667 L7.7906191,12.9068667 L11.2906191,10.4068667 L11.3581667,10.3492475 C11.5815493,10.1220755 11.5383123,9.73173147 11.2480695,9.56587843 L11.2480695,9.56587843 L8.508,8 L11.2480695,6.43412157 L11.3210878,6.38361429 C11.5662583,6.18014854 11.56264,5.78743392 11.2906191,5.59313326 L11.2906191,5.59313326 L7.7906191,3.09313326 Z M8,8.862 L10.074,10.047 L8,11.528 L8,8.862 Z M8,4.471 L10.074,5.952 L8,7.137 L8,4.471 Z" id="形状结合" fill="#000000"></path>
    </g>
</svg>