<?xml version="1.0" encoding="UTF-8"?>
<svg width="16px" height="16px" viewBox="0 0 16 16" version="1.1" xmlns="http://www.w3.org/2000/svg" xmlns:xlink="http://www.w3.org/1999/xlink">
    <title>buletooth_pheadset_light</title>
    <g id="buletooth_pheadset_light" stroke="none" stroke-width="1" fill="none" fill-rule="evenodd">
        <path d="M5,8 C6.1045695,8 7,8.8954305 7,10 L7,12 C7,13.0543618 6.18412221,13.9181651 5.14926234,13.9945143 L5,14 L5,8 Z M11,8 L11,14 L10.8507377,13.9945143 C9.81587779,13.9181651 9,13.0543618 9,12 L9,12 L9,10 C9,8.8954305 9.8954305,8 11,8 L11,8 Z M4,9 L4,13 C3.44771525,13 3,12.5522847 3,12 L3,10 C3,9.48716416 3.38604019,9.06449284 3.88337887,9.00672773 L4,9 Z M12,9 L12.1166211,9.00672773 C12.6139598,9.06449284 13,9.48716416 13,10 L13,10 L13,12 C13,12.5522847 12.5522847,13 12,13 L12,13 L12,9 Z M8,1.5 C11.7854517,1.5 14.8690987,4.50478338 14.995941,8.25935025 L15,8.5 L15,11 C15,11.2761424 14.7761424,11.5 14.5,11.5 C14.2545401,11.5 14.0503916,11.3231248 14.0080557,11.0898756 L14,11 L14,8.5 C14,5.1862915 11.3137085,2.5 8,2.5 C4.76160306,2.5 2.12242824,5.06557489 2.00413847,8.27506174 L2,8.5 L2,11 C2,11.2761424 1.77614237,11.5 1.5,11.5 C1.25454011,11.5 1.05039163,11.3231248 1.00805567,11.0898756 L1,11 L1,8.5 C1,4.63400675 4.13400675,1.5 8,1.5 Z" id="形状结合" fill="#000000"></path>
    </g>
</svg>