<?xml version="1.0" encoding="UTF-8"?>
<svg width="20px" height="20px" viewBox="0 0 20 20" version="1.1" xmlns="http://www.w3.org/2000/svg" xmlns:xlink="http://www.w3.org/1999/xlink">
    <title>keyboard-symbolic-dark</title>
    <g id="keyboard-symbolic-dark" stroke="none" stroke-width="1" fill="none" fill-rule="evenodd">
        <g id="svg3904" transform="translate(1.000000, 4.000000)" fill="#000000">
            <path d="M16,0 C17.1045695,-2.02906125e-16 18,0.8954305 18,2 L18,10 C18,11.1045695 17.1045695,12 16,12 L2,12 C0.8954305,12 1.3527075e-16,11.1045695 0,10 L0,2 C-1.3527075e-16,0.8954305 0.8954305,2.02906125e-16 2,0 L16,0 Z M15.9991283,1 L2.00087166,1 C1.4481055,1 1,1.4556644 1,1.99539757 L1,10.0046024 C1,10.5543453 1.44463086,11 2.00087166,11 L15.9991283,11 C16.5518945,11 17,10.5443356 17,10.0046024 L17,1.99539757 C17,1.44565467 16.5553691,1 15.9991283,1 Z M5,8 L5,10 L2,10 L2,8 L5,8 Z M13,8 L13,10 L6,10 L6,8 L13,8 Z M16,8 L16,10 L14,10 L14,8 L16,8 Z M6,5 L6,7 L2,7 L2,5 L6,5 Z M9,5 L9,7 L7,7 L7,5 L9,5 Z M12,5 L12,7 L10,7 L10,5 L12,5 Z M16,5 L16,7 L13,7 L13,5 L16,5 Z M4,2 L4,4 L2,4 L2,2 L4,2 Z M7,2 L7,4 L5,4 L5,2 L7,2 Z M10,2 L10,4 L8,4 L8,2 L10,2 Z M13,2 L13,4 L11,4 L11,2 L13,2 Z M16,2 L16,4 L14,4 L14,2 L16,2 Z" id="Combined-Shape"></path>
        </g>
    </g>
</svg>