<?xml version="1.0" encoding="UTF-8"?>
<svg width="32px" height="32px" viewBox="0 0 32 32" version="1.1" xmlns="http://www.w3.org/2000/svg" xmlns:xlink="http://www.w3.org/1999/xlink">
    <title>list2_icon/dock/normal</title>
    <g id="list2_icon/dock/normal" stroke="none" stroke-width="1" fill="none" fill-rule="evenodd">
        <path d="M24,8 C25.6568542,8 27,9.34314575 27,11 L27,21 C27,22.6568542 25.6568542,24 24,24 L8,24 C6.34314575,24 5,22.6568542 5,21 L5,11 C5,9.34314575 6.34314575,8 8,8 L24,8 Z M9.5,19 L7.5,19 C7.22385763,19 7,19.2238576 7,19.5 L7,19.5 L7,21.5 C7,21.7761424 7.22385763,22 7.5,22 L7.5,22 L9.5,22 C9.77614237,22 10,21.7761424 10,21.5 L10,21.5 L10,19.5 C10,19.2238576 9.77614237,19 9.5,19 L9.5,19 Z M14.5,19 L12.5,19 C12.2238576,19 12,19.2238576 12,19.5 L12,19.5 L12,21.5 C12,21.7761424 12.2238576,22 12.5,22 L12.5,22 L14.5,22 C14.7761424,22 15,21.7761424 15,21.5 L15,21.5 L15,19.5 C15,19.2238576 14.7761424,19 14.5,19 L14.5,19 Z M19.5,19 L17.5,19 C17.2238576,19 17,19.2238576 17,19.5 L17,19.5 L17,21.5 C17,21.7761424 17.2238576,22 17.5,22 L17.5,22 L19.5,22 C19.7761424,22 20,21.7761424 20,21.5 L20,21.5 L20,19.5 C20,19.2238576 19.7761424,19 19.5,19 L19.5,19 Z M24.5,19 L22.5,19 C22.2238576,19 22,19.2238576 22,19.5 L22,19.5 L22,21.5 C22,21.7761424 22.2238576,22 22.5,22 L22.5,22 L24.5,22 C24.7761424,22 25,21.7761424 25,21.5 L25,21.5 L25,19.5 C25,19.2238576 24.7761424,19 24.5,19 L24.5,19 Z" id="形状结合" fill="#29B2DC"></path>
    </g>
</svg>