<?xml version="1.0" encoding="UTF-8" standalone="no"?>
<svg width="48px" height="48px" viewBox="0 0 48 48" version="1.1" xmlns="http://www.w3.org/2000/svg" xmlns:xlink="http://www.w3.org/1999/xlink">
    <!-- Generator: Sketch 3.7 (28169) - http://www.bohemiancoding.com/sketch -->
    <title>battery_020</title>
    <desc>Created with Sketch.</desc>
    <defs>
        <filter x="-50%" y="-50%" width="200%" height="200%" filterUnits="objectBoundingBox" id="filter-1">
            <feOffset dx="0" dy="1" in="SourceAlpha" result="shadowOffsetOuter1"></feOffset>
            <feGaussianBlur stdDeviation="0.5" in="shadowOffsetOuter1" result="shadowBlurOuter1"></feGaussianBlur>
            <feColorMatrix values="0 0 0 0 0   0 0 0 0 0   0 0 0 0 0  0 0 0 0.2 0" type="matrix" in="shadowBlurOuter1" result="shadowMatrixOuter1"></feColorMatrix>
            <feMerge>
                <feMergeNode in="shadowMatrixOuter1"></feMergeNode>
                <feMergeNode in="SourceGraphic"></feMergeNode>
            </feMerge>
        </filter>
    </defs>
    <g id="Page-1" stroke="none" stroke-width="1" fill="none" fill-rule="evenodd">
        <g id="battery_020">
            <g transform="translate(3.000000, 3.000000)">
                <g id="Group-11" filter="url(#filter-1)">
                    <path d="M21,0 C9.40202048,5.52284519e-07 5.5228449e-07,9.40202048 -2.84217094e-14,21 C0.00769549842,23.3892232 0.42305733,25.7596129 1.2282,28.0091 L40.7672,28.0091 C41.5739094,25.7598864 41.9908282,23.389489 42,21 C41.9999994,9.40202048 32.5979795,5.52284519e-07 21,0 L21,0 Z" id="path15600" fill="#B25800"></path>
                    <path d="M1.26000023,28 C4.22593255,36.3766908 12.1432423,41.9797809 21.0295002,41.9909 C29.9165658,41.9807113 37.8349976,36.3774506 40.8012002,28 L1.26000023,28 L1.26000023,28 Z" id="path15604" fill="#FFB600"></path>
                </g>
                <circle id="circle15606" fill="#FFFFFF" cx="21" cy="21" r="12"></circle>
                <path d="M21.0592728,12.0533936 C20.3758546,12.0607786 20.0688,12.6070473 20.0767273,13.0194998 L20.0854546,20.0452235 C20.0774546,20.5458529 20.3546182,21.0394666 21.0661091,21.044193 C21.7655273,21.051578 22.0810182,20.5548626 22.0716364,20.0452235 C22.0716364,19.6674067 22.0629091,13.0194998 22.0629091,13.0194998 C22.0701819,12.5978899 21.7588364,12.0587846 21.0592728,12.0533936 L21.0592728,12.0533936 Z" id="path15610" fill="#F0A500"></path>
                <path d="M17.0269818,14.291936 C16.8396578,14.3005747 16.658717,14.3636564 16.5056727,14.473681 C14.4290909,15.9181139 13.0639273,18.3358166 13.0639273,21.0610308 C13.0639273,25.4841313 16.6653091,29.076345 21.0639273,29.076345 C25.4625455,29.076345 29.0639273,25.4842051 29.0639273,21.0610308 C29.0639273,18.3410599 27.7032728,15.9262374 25.6335273,14.4809183 C25.3452854,14.2796868 24.9732154,14.2498905 24.6574725,14.4027534 C24.3417295,14.5556162 24.1302825,14.8679146 24.1027815,15.2220089 C24.0752805,15.5761031 24.2359036,15.9181978 24.5241455,16.1194291 C26.0887273,17.2120405 27.1065455,19.0119875 27.1065455,21.0610308 C27.1065455,24.3931446 24.4205091,27.0873418 21.0639273,27.0873418 C17.7073455,27.0873418 15.0226909,24.3930708 15.0226909,21.0610308 C15.0226909,19.0079996 16.0425455,17.2055417 17.6122182,16.1136688 C17.9789794,15.8667092 18.138409,15.4016137 18.0019306,14.9767817 C17.8654523,14.5519496 17.466605,14.2717823 17.0269818,14.291936 L17.0269818,14.291936 Z" id="path15612" fill="#F0A500"></path>
            </g>
        </g>
    </g>
</svg>