<?xml version="1.0" encoding="UTF-8" standalone="no"?>
<svg width="48px" height="48px" viewBox="0 0 48 48" version="1.1" xmlns="http://www.w3.org/2000/svg" xmlns:xlink="http://www.w3.org/1999/xlink">
    <!-- Generator: Sketch 3.7 (28169) - http://www.bohemiancoding.com/sketch -->
    <title>battery_000</title>
    <desc>Created with Sketch.</desc>
    <defs>
        <filter x="-50%" y="-50%" width="200%" height="200%" filterUnits="objectBoundingBox" id="filter-1">
            <feOffset dx="0" dy="1" in="SourceAlpha" result="shadowOffsetOuter1"></feOffset>
            <feGaussianBlur stdDeviation="0.5" in="shadowOffsetOuter1" result="shadowBlurOuter1"></feGaussianBlur>
            <feColorMatrix values="0 0 0 0 0   0 0 0 0 0   0 0 0 0 0  0 0 0 0.2 0" type="matrix" in="shadowBlurOuter1" result="shadowMatrixOuter1"></feColorMatrix>
            <feMerge>
                <feMergeNode in="shadowMatrixOuter1"></feMergeNode>
                <feMergeNode in="SourceGraphic"></feMergeNode>
            </feMerge>
        </filter>
    </defs>
    <g id="Page-1" stroke="none" stroke-width="1" fill="none" fill-rule="evenodd">
        <g id="battery_000">
            <g transform="translate(3.000000, 3.000000)">
                <g id="Group-9" filter="url(#filter-1)">
                    <path d="M21.0090362,0.00231979974 C9.41105612,0.00231979974 0.00903559935,9.40434032 0.00903559935,21.0023204 C0.0188208725,26.1767544 1.93866271,31.1654101 5.40031909,35.0114208 L36.6223033,35.0114208 C40.082308,31.164735 42.000501,26.1761537 42.0090368,21.0023204 C42.0090368,9.40434032 32.6070163,0.00231979974 21.0090362,0.00231979974 L21.0090362,0.00231979974 Z" id="path15626" fill="#842000"></path>
                    <path d="M5.40486909,35.0114208 C9.37914891,39.449626 15.0514834,41.9909166 21.0090362,42.002321 C26.9602018,41.9857271 32.6248718,39.4448878 36.5948866,35.0114208 L5.40486909,35.0114208 L5.40486909,35.0114208 Z" id="path15630" fill="#FF5822"></path>
                </g>
                <circle id="circle15632" fill="#FFFFFF" cx="21.0983" cy="21.0417" r="12"></circle>
                <g id="g15634" transform="translate(12.935914, 11.954345)" fill="#FF5822">
                    <path d="M8.05927276,0.0533935796 C7.37585457,0.0607785837 7.06880003,0.607047337 7.0767273,1.01949982 L7.08545457,8.04522347 C7.07745457,8.54585289 7.35461821,9.03946657 8.06610912,9.04419297 C8.76552731,9.05157798 9.08101822,8.5548626 9.0716364,8.04522347 C9.0716364,7.66740666 9.06290912,1.01949982 9.06290912,1.01949982 C9.07018185,0.597889932 8.7588364,0.0587846326 8.05927276,0.0533935796 L8.05927276,0.0533935796 Z" id="path15636"></path>
                    <path d="M4.02698183,2.29193602 C3.83965779,2.30057466 3.65871701,2.36365638 3.50567274,2.47368097 C1.42909091,3.91811393 0.063927273,6.33581657 0.063927273,9.06103078 C0.063927273,13.4841313 3.6653091,17.076345 8.0639273,17.076345 C12.4625455,17.076345 16.0639273,13.4842051 16.0639273,9.06103078 C16.0639273,6.34105992 14.7032728,3.92623743 12.6335273,2.48091828 C12.3452854,2.27968684 11.9732154,2.24989055 11.6574725,2.40275337 C11.3417295,2.5556162 11.1302825,2.86791465 11.1027815,3.22200888 C11.0752805,3.57610312 11.2359036,3.9181978 11.5241455,4.11942914 C13.0887273,5.21204049 14.1065455,7.01198754 14.1065455,9.06103078 C14.1065455,12.3931446 11.4205091,15.0873418 8.0639273,15.0873418 C4.70734547,15.0873418 2.02269092,12.3930708 2.02269092,9.06103078 C2.02269092,7.00799964 3.04254547,5.20554169 4.6122182,4.11366883 C4.97897938,3.86670921 5.13840902,3.40161367 5.00193064,2.97678165 C4.86545226,2.55194964 4.46660499,2.2717823 4.02698183,2.29193602 L4.02698183,2.29193602 Z" id="path15638"></path>
                </g>
            </g>
        </g>
    </g>
</svg>