<?xml version="1.0" encoding="UTF-8" standalone="no"?>
<svg width="48px" height="48px" viewBox="0 0 48 48" version="1.1" xmlns="http://www.w3.org/2000/svg" xmlns:xlink="http://www.w3.org/1999/xlink">
    <!-- Generator: Sketch 3.7 (28169) - http://www.bohemiancoding.com/sketch -->
    <title>battery_plugged</title>
    <desc>Created with Sketch.</desc>
    <defs>
        <path d="M21,42 C32.5979797,42 42,32.5979797 42,21 C42,9.40202025 32.5979797,0 21,0 C9.40202025,0 0,9.40202025 0,21 C0,32.5979797 9.40202025,42 21,42 Z" id="path-1"></path>
        <filter x="-50%" y="-50%" width="200%" height="200%" filterUnits="objectBoundingBox" id="filter-2">
            <feOffset dx="0" dy="1" in="SourceAlpha" result="shadowOffsetOuter1"></feOffset>
            <feGaussianBlur stdDeviation="0.5" in="shadowOffsetOuter1" result="shadowBlurOuter1"></feGaussianBlur>
            <feColorMatrix values="0 0 0 0 0   0 0 0 0 0   0 0 0 0 0  0 0 0 0.2 0" type="matrix" in="shadowBlurOuter1"></feColorMatrix>
        </filter>
    </defs>
    <g id="Page-1" stroke="none" stroke-width="1" fill="none" fill-rule="evenodd">
        <g id="battery_plugged">
            <g transform="translate(3.000000, 3.000000)">
                <g id="circle15768">
                    <use fill="black" fill-opacity="1" filter="url(#filter-2)" xlink:href="#path-1"></use>
                    <use fill="#9AD82D" fill-rule="evenodd" xlink:href="#path-1"></use>
                </g>
                <g id="g15774" transform="translate(9.000000, 9.000000)">
                    <circle id="circle15776" fill="#FFFFFF" cx="12.0071" cy="12.0033" r="12"></circle>
                    <path d="M4.08134,11 C4.03511762,11.3314158 4.00973443,11.6654053 4.00534,12 C4.00534,16.418278 7.587062,20 12.00534,20 C16.423618,20 20.00534,16.418278 20.00534,12 C20.0016085,11.6654472 19.9768932,11.331458 19.93134,11 L4.08174,11 L4.08134,11 Z" id="path15778" fill="#9AD82D"></path>
                    <path d="M11.9952,17.0077 C11.3118,17.0177 11.0047,17.5614 11.0126,17.9738 L11.0226,24.9996 C11.0126,25.5002 11.2917,25.9938 12.0032,25.9985 C12.7026,26.0085 13.0181,25.5092 13.0088,24.9996 C13.0088,24.6218 12.9988,17.9738 12.9988,17.9738 C13.0088,17.5522 12.6948,17.0131 11.9952,17.0077 L11.9952,17.0077 Z" id="path15780" fill="#9AD82D"></path>
                    <rect id="rect15782" fill="#9AD82D" x="7.0051" y="5" width="2" height="5"></rect>
                    <rect id="rect15784" fill="#9AD82D" x="15.0051" y="5" width="2" height="5"></rect>
                </g>
            </g>
        </g>
    </g>
</svg>