<?xml version="1.0" encoding="UTF-8"?>
<svg width="16px" height="16px" viewBox="0 0 16 16" version="1.1" xmlns="http://www.w3.org/2000/svg" xmlns:xlink="http://www.w3.org/1999/xlink">
    <title>icon/dock-set/power</title>
    <g id="icon/dock-set/power" stroke="none" stroke-width="1" fill="none" fill-rule="evenodd">
        <path d="M8,1 C11.8659932,1 15,4.13400675 15,8 C15,11.8659932 11.8659932,15 8,15 C4.13400675,15 1,11.8659932 1,8 C1,4.13400675 4.13400675,1 8,1 Z M5.35903478,3.72431037 C5.19110576,3.5050971 4.87726493,3.46352301 4.65805167,3.63145203 C3.30807232,4.665608 2.5,6.26636725 2.5,8 C2.5,11.0375661 4.96243388,13.5 8,13.5 C11.0375661,13.5 13.5,11.0375661 13.5,8 C13.5,6.27318712 12.698307,4.67801229 11.357281,3.64324033 C11.1386573,3.47454441 10.8246728,3.51501883 10.6559769,3.73364248 C10.487281,3.95226613 10.5277554,4.26625067 10.746379,4.43494659 C11.8445789,5.28234731 12.5,6.58647654 12.5,8 C12.5,10.4852814 10.4852814,12.5 8,12.5 C5.51471863,12.5 3.5,10.4852814 3.5,8 C3.5,6.58090106 4.1606451,5.27218928 5.26617644,4.42529349 C5.4853897,4.25736447 5.5269638,3.94352364 5.35903478,3.72431037 Z M8,2.5 C7.72385763,2.5 7.5,2.72385763 7.5,3 L7.5,3 L7.5,7.5 C7.5,7.77614237 7.72385763,8 8,8 C8.27614237,8 8.5,7.77614237 8.5,7.5 L8.5,7.5 L8.5,3 C8.5,2.72385763 8.27614237,2.5 8,2.5 Z" id="形状结合" fill="#536076"></path>
    </g>
</svg>