<svg xmlns="http://www.w3.org/2000/svg" width="20" height="20" viewBox="0 0 20 20">
  <path fill="#FFF" fill-rule="evenodd" d="M10,0 C15.5138095,0 20,4.48619048 20,10 C20,15.5138095 15.5138095,20 10,20 C4.48571429,20 0,15.5138095 0,10 C0,4.48619048 4.48571429,0 10,0 Z M13.65725,5.1199999 C13.3921533,4.92117739 13.0160725,4.97490322 12.81725,5.2399999 C12.6184275,5.50509658 12.6721533,5.88117739 12.93725,6.0799999 C14.1640688,7.00011398 14.9,8.43965246 14.9,10.0021999 C14.9,12.7084791 12.7062792,14.9021999 10,14.9021999 C7.29372085,14.9021999 5.1,12.7084791 5.1,10.0021999 C5.1,8.44070019 5.83490353,7.00215721 7.06028437,6.08198649 C7.32526319,5.88300693 7.37876615,5.50689435 7.17978659,5.24191553 C6.98080703,4.97693672 6.60469444,4.92343375 6.33971563,5.12241332 C4.81562554,6.26689266 3.9,8.05919144 3.9,10.0021999 C3.9,13.3712208 6.63097915,16.1021999 10,16.1021999 C13.3690208,16.1021999 16.1,13.3712208 16.1,10.0021999 C16.1,8.05789775 15.1831141,6.26439802 13.65725,5.1199999 Z M10.0000002,3 C9.30000019,3 9.30000019,3.69999981 9.30000019,3.69999981 L9.3002076,9.30891871 C9.3031113,9.39022239 9.34666686,10 10.0000002,10 C10.7000002,10 10.7000002,9.30000019 10.7000002,9.30000019 L10.7000002,9.30000019 L10.7000002,3.69999981 C10.7000002,3.69999981 10.7000002,3 10.0000002,3 Z"/>
</svg>
