<?xml version="1.0" encoding="UTF-8"?>
<svg width="16px" height="16px" viewBox="0 0 16 16" version="1.1" xmlns="http://www.w3.org/2000/svg" xmlns:xlink="http://www.w3.org/1999/xlink">
    <!-- Generator: Sketch 41.2 (35397) - http://www.bohemiancoding.com/sketch -->
    <title>network-none-symbolic</title>
    <desc>Created with Sketch.</desc>
    <defs></defs>
    <g id="Page-1" stroke="none" stroke-width="1" fill="none" fill-rule="evenodd">
        <g id="network-none-symbolic">
            <polygon id="Fill-44" opacity="0" points="0 16 16 16 16 0 0 0"></polygon>
            <path d="M6.5572,7.5707 C6.3662,7.5977 6.1852,7.6907 6.0542,7.8307 L4.8642,9.0187 C4.7032,9.1737 4.6072,9.3917 4.6032,9.6127 L4.6032,10.8007 L4.6032,10.8197 L2.3742,13.0197 C2.1412,13.2527 2.1412,13.6407 2.3742,13.8737 C2.6092,14.1057 2.9972,14.1057 3.2312,13.8737 L5.4582,11.6557 L6.6502,11.6557 C6.8712,11.6497 7.0902,11.5547 7.2452,11.3947 L8.4352,10.2067 C8.7422,9.8917 8.7422,9.3327 8.4352,9.0187 L7.2452,7.8307 C7.0692,7.6487 6.8092,7.5497 6.5572,7.5707" id="Fill-317" fill-opacity="0.3" fill="#FFFFFF"></path>
            <path d="M9.8433,8.5244 C10.0333,8.4984 10.2133,8.4044 10.3463,8.2644 L11.5353,7.0774 C11.6973,6.9214 11.7923,6.7044 11.7963,6.4824 L11.7963,5.2934 L11.7963,5.2764 L14.0243,3.0754 C14.2583,2.8434 14.2583,2.4544 14.0243,2.2214 C13.7913,1.9894 13.4023,1.9894 13.1683,2.2214 L10.9403,4.4394 L9.7503,4.4394 C9.5283,4.4454 9.3093,4.5414 9.1543,4.7014 L7.9633,5.8884 C7.6573,6.2034 7.6573,6.7624 7.9633,7.0774 L9.1543,8.2644 C9.3303,8.4474 9.5903,8.5454 9.8433,8.5244" id="Fill-318" fill-opacity="0.3" fill="#FFFFFF"></path>
        </g>
    </g>
</svg>