<svg xmlns="http://www.w3.org/2000/svg" width="20" height="20" viewBox="0 0 20 20">
  <path fill-rule="evenodd" d="M5.95464235,10.6412146 L7.36885591,12.0554282 C7.7593802,12.4459525 7.7593802,13.0791174 7.36885591,13.4696417 L5.87202067,14.966477 C5.69758259,15.140915 5.46482229,15.244719 5.21848382,15.2579343 L3.58777669,15.3454168 L1.21360736,17.7195861 C0.962727708,17.9704657 0.555971426,17.9704657 0.305091775,17.7195861 C0.0542121235,17.4687064 0.0542121235,17.0619502 0.305091775,16.8110705 L2.67926111,14.4369012 L2.75483336,12.7960739 C2.76630348,12.5470343 2.87038337,12.31126 3.04666762,12.1349758 L4.54042878,10.6412146 C4.93095307,10.2506903 5.56411805,10.2506903 5.95464235,10.6412146 Z M16.7893235,0.240141323 C17.0402031,-0.0107383279 17.4469594,-0.0107383279 17.6978391,0.240141323 C17.9487187,0.491020974 17.9487187,0.897777257 17.6978391,1.14865691 L17.6978391,1.14865691 L15.3236697,3.52282624 L15.2361873,5.15353337 C15.222972,5.39987184 15.119168,5.63263214 14.9447299,5.80707022 L14.9447299,5.80707022 L13.4478947,7.30390546 C13.0573704,7.69442975 12.4242054,7.69442975 12.0336811,7.30390546 L12.0336811,7.30390546 L10.6194676,5.88969189 C10.2289433,5.4991676 10.2289433,4.86600262 10.6194676,4.47547833 L10.6194676,4.47547833 L12.1132287,2.98171717 C12.289513,2.80543292 12.5252873,2.70135303 12.7743269,2.68988291 L12.7743269,2.68988291 L14.4151542,2.61431066 Z" transform="translate(1 1)"/>
</svg>
