<svg xmlns="http://www.w3.org/2000/svg" width="20" height="20" viewBox="0 0 20 20">
  <g fill="none" fill-rule="evenodd">
    <path fill="#000" d="M12.1464466,12.1464466 C12.3417088,11.9511845 12.6582912,11.9511845 12.8535534,12.1464466 L12.8535534,12.1464466 L14.25,13.543 L15.6464466,12.1464466 C15.820013,11.9728803 16.0894374,11.9535951 16.2843055,12.0885912 L16.3535534,12.1464466 C16.5488155,12.3417088 16.5488155,12.6582912 16.3535534,12.8535534 L16.3535534,12.8535534 L14.957,14.25 L16.3535534,15.6464466 C16.5271197,15.820013 16.5464049,16.0894374 16.4114088,16.2843055 L16.3535534,16.3535534 C16.1582912,16.5488155 15.8417088,16.5488155 15.6464466,16.3535534 L15.6464466,16.3535534 L14.25,14.957 L12.8535534,16.3535534 C12.679987,16.5271197 12.4105626,16.5464049 12.2156945,16.4114088 L12.1464466,16.3535534 C11.9511845,16.1582912 11.9511845,15.8417088 12.1464466,15.6464466 L12.1464466,15.6464466 L13.543,14.25 L12.1464466,12.8535534 C11.9728803,12.679987 11.9535951,12.4105626 12.0885912,12.2156945 Z"/>
    <path fill="#000" d="M6.29495771,9.75770358 L7.70917127,11.1719171 C8.09969556,11.5624414 8.09969556,12.1956064 7.70917127,12.5861307 L6.21233603,14.0829659 C6.03789795,14.257404 5.80513765,14.361208 5.55879918,14.3744233 L3.92809205,14.4619057 L1.55392272,16.8360751 C1.30304307,17.0869547 0.896286788,17.0869547 0.645407136,16.8360751 C0.394527485,16.5851954 0.394527485,16.1784391 0.645407136,15.9275595 L3.01957647,13.5533902 L3.09514872,11.9125629 C3.10661884,11.6635233 3.21069874,11.427749 3.38698298,11.2514647 L4.88074414,9.75770358 C5.27126844,9.36717929 5.90443342,9.36717929 6.29495771,9.75770358 Z M15.9591048,0.599283615 C16.2099845,0.348403964 16.6167408,0.348403964 16.8676204,0.599283615 C17.1185001,0.850163266 17.1185001,1.25691955 16.8676204,1.5077992 L16.8676204,1.5077992 L14.4934511,3.88196853 L14.4059686,5.51267566 C14.3927533,5.75901413 14.2889494,5.99177443 14.1145113,6.16621251 L14.1145113,6.16621251 L12.617676,7.66304775 C12.2271518,8.05357204 11.5939868,8.05357204 11.2034625,7.66304775 L11.2034625,7.66304775 L9.78924892,6.24883419 C9.39872463,5.85830989 9.39872463,5.22514492 9.78924892,4.83462062 L9.78924892,4.83462062 L11.2830101,3.34085946 C11.4592943,3.16457521 11.6950687,3.06049532 11.9441082,3.0490252 L11.9441082,3.0490252 L13.5849355,2.97345295 Z" transform="translate(1.25 1.25)"/>
  </g>
</svg>
