<svg xmlns="http://www.w3.org/2000/svg" width="20" height="20" viewBox="0 0 20 20">
  <path fill-rule="evenodd" d="M6.33771031,7.4730306 L7.75192387,8.88724416 C8.14244816,9.27776845 8.14244816,9.91093343 7.75192387,10.3014577 L6.25508864,11.798293 C6.08065055,11.972731 5.84789026,12.076535 5.60155178,12.0897503 L3.97084466,12.1772328 L1.59667532,14.5514021 C1.34579567,14.8022817 0.93903939,14.8022817 0.688159738,14.5514021 C0.437280087,14.3005224 0.437280087,13.8937662 0.688159738,13.6428865 L3.06232907,11.2687172 L3.13790132,9.62788991 C3.14937144,9.37885034 3.25345134,9.14307601 3.42973558,8.96679176 L4.92349675,7.4730306 C5.31402104,7.08250631 5.94718602,7.08250631 6.33771031,7.4730306 Z M13.3783083,0.938159738 C13.629188,0.687280087 14.0359443,0.687280087 14.2868239,0.938159738 C14.5377036,1.18903939 14.5377036,1.59579567 14.2868239,1.84667532 L14.2868239,1.84667532 L11.9126546,4.22084466 L11.8251721,5.85155178 C11.8119568,6.09789026 11.7081529,6.33065055 11.5337148,6.50508864 L11.5337148,6.50508864 L10.0368795,8.00192387 C9.64635525,8.39244816 9.01319027,8.39244816 8.62266598,8.00192387 L8.62266598,8.00192387 L7.20845241,6.58771031 C6.81792812,6.19718602 6.81792812,5.56402104 7.20845241,5.17349675 L7.20845241,5.17349675 L8.70221358,3.67973558 C8.87849782,3.50345134 9.11427215,3.39937144 9.36331172,3.38790132 L9.36331172,3.38790132 L11.004139,3.31232907 Z" transform="translate(2.5 2.25)"/>
</svg>
