<svg xmlns="http://www.w3.org/2000/svg" width="20" height="20" viewBox="0 0 20 20">
  <g fill="none" fill-rule="evenodd">
    <path fill="#000" d="M8.83771031,9.7230306 L10.2519239,11.1372442 C10.6424482,11.5277685 10.6424482,12.1609334 10.2519239,12.5514577 L8.75508864,14.048293 C8.58065055,14.222731 8.34789026,14.326535 8.10155178,14.3397503 L6.47084466,14.4272328 L4.09667532,16.8014021 C3.84579567,17.0522817 3.43903939,17.0522817 3.18815974,16.8014021 C2.93728009,16.5505224 2.93728009,16.1437662 3.18815974,15.8928865 L5.56232907,13.5187172 L5.63790132,11.8778899 C5.64937144,11.6288503 5.75345134,11.393076 5.92973558,11.2167918 L7.42349675,9.7230306 C7.81402104,9.33250631 8.44718602,9.33250631 8.83771031,9.7230306 Z M15.8783083,3.18815974 C16.129188,2.93728009 16.5359443,2.93728009 16.7868239,3.18815974 C17.0377036,3.43903939 17.0377036,3.84579567 16.7868239,4.09667532 L16.7868239,4.09667532 L14.4126546,6.47084466 L14.3251721,8.10155178 C14.3119568,8.34789026 14.2081529,8.58065055 14.0337148,8.75508864 L14.0337148,8.75508864 L12.5368795,10.2519239 C12.1463552,10.6424482 11.5131903,10.6424482 11.122666,10.2519239 L11.122666,10.2519239 L9.70845241,8.83771031 C9.31792812,8.44718602 9.31792812,7.81402104 9.70845241,7.42349675 L9.70845241,7.42349675 L11.2022136,5.92973558 C11.3784978,5.75345134 11.6142722,5.64937144 11.8633117,5.63790132 L11.8633117,5.63790132 L13.504139,5.56232907 Z"/>
    <path stroke="#FF001F" stroke-linecap="round" d="M12.5 12.5L16 16M16 12.5L12.5 16"/>
  </g>
</svg>
