<svg xmlns="http://www.w3.org/2000/svg" width="20" height="20" viewBox="0 0 20 20">
  <path fill-rule="evenodd" d="M5.95845533,8.09755265 L7.37266889,9.51176621 C7.76319318,9.9022905 7.76319318,10.5354555 7.37266889,10.9259798 L5.87583366,12.422815 C5.70139557,12.5972531 5.46863528,12.701057 5.2222968,12.7142723 L3.59158968,12.8017548 L1.21742034,15.1759241 C0.966540692,15.4268038 0.559784409,15.4268038 0.308904758,15.1759241 C0.0580251071,14.9250445 0.0580251071,14.5182882 0.308904758,14.2674086 L2.68307409,11.8932392 L2.75864634,10.252412 C2.77011646,10.0033724 2.87419636,9.76759806 3.0504806,9.59131381 L4.54424177,8.09755265 C4.93476606,7.70702836 5.56793104,7.70702836 5.95845533,8.09755265 Z M14.2719301,0.289805053 C14.5228097,0.0389254018 14.929566,0.0389254018 15.1804457,0.289805053 C15.4313253,0.540684704 15.4313253,0.947440986 15.1804457,1.19832064 L15.1804457,1.19832064 L12.8062763,3.57248997 L12.7187938,5.2031971 C12.7055785,5.44953557 12.6017746,5.68229587 12.4273365,5.85673395 L12.4273365,5.85673395 L10.9305013,7.35356919 C10.539977,7.74409348 9.90681202,7.74409348 9.51628773,7.35356919 L9.51628773,7.35356919 L8.10207417,5.93935562 C7.71154988,5.54883133 7.71154988,4.91566635 8.10207417,4.52514206 L8.10207417,4.52514206 L9.59583533,3.0313809 C9.77211958,2.85509665 10.0078939,2.75101675 10.2569335,2.73954664 L10.2569335,2.73954664 L11.8977607,2.66397439 Z" transform="translate(2.25 2.25)"/>
</svg>
