<svg xmlns="http://www.w3.org/2000/svg" width="20" height="20" viewBox="0 0 20 20">
  <path fill-rule="evenodd" d="M5.84594306,12.7290882 L7.26015663,14.1433017 C7.65068092,14.533826 7.65068092,15.166991 7.26015663,15.5575153 L5.76332139,17.0543505 C5.58888331,17.2287886 5.35612301,17.3325926 5.10978454,17.3458079 L3.47907741,17.4332903 L1.10490808,19.8074597 C0.854028427,20.0583393 0.447272144,20.0583393 0.196392493,19.8074597 C-0.0544871578,19.55658 -0.0544871578,19.1498237 0.196392493,18.8989441 L2.57056183,16.5247748 L2.64613408,14.8839475 C2.6576042,14.6349079 2.76168409,14.3991336 2.93796834,14.2228493 L4.4317295,12.7290882 C4.82225379,12.3385639 5.45541877,12.3385639 5.84594306,12.7290882 Z M18.8914666,0.203143417 C19.1423462,-0.047736234 19.5491025,-0.047736234 19.7999821,0.203143417 C20.0508618,0.454023068 20.0508618,0.86077935 19.7999821,1.111659 L19.7999821,1.111659 L17.4258128,3.48582833 L17.3383303,5.11653546 C17.325115,5.36287394 17.2213111,5.59563423 17.046873,5.77007231 L17.046873,5.77007231 L15.5500378,7.26690755 C15.1595135,7.65743184 14.5263485,7.65743184 14.1358242,7.26690755 L14.1358242,7.26690755 L12.7216107,5.85269399 C12.3310864,5.4621697 12.3310864,4.82900472 12.7216107,4.43848043 L12.7216107,4.43848043 L14.2153718,2.94471926 C14.3916561,2.76843502 14.6274304,2.66435512 14.87647,2.652885 L14.87647,2.652885 L16.5172972,2.57731275 Z"/>
</svg>
