<svg xmlns="http://www.w3.org/2000/svg" width="16" height="16" viewBox="0 0 16 16">
  <g fill="none" fill-rule="evenodd">
    <polygon points="0 16 16 16 16 0 0 0" opacity="0"/>
    <path fill="#FFF" d="M6.382 7.5499C6.191 7.5769 6.01 7.6699 5.879 7.8099L4.689 8.9979C4.528 9.1529 4.432 9.3709 4.428 9.5929L4.428 10.7799 4.428 10.7989 2.199 12.9989C1.966 13.2319 1.966 13.6199 2.199 13.8529 2.434 14.0849 2.822 14.0849 3.056 13.8529L5.283 11.6349 6.475 11.6349C6.696 11.6289 6.915 11.5339 7.07 11.3739L8.26 10.1859C8.567 9.8709 8.567 9.3119 8.26 8.9979L7.07 7.8099C6.894 7.6279 6.634 7.5289 6.382 7.5499M9.6681 8.5036C9.8581 8.4776 10.0381 8.3836 10.1711 8.2436L11.3601 7.0566C11.5221 6.9006 11.6171 6.6836 11.6211 6.4616L11.6211 5.2736 11.6211 5.2556 13.8491 3.0546C14.0831 2.8226 14.0831 2.4336 13.8491 2.2006 13.6161 1.9686 13.2271 1.9686 12.9931 2.2006L10.7651 4.4186 9.5751 4.4186C9.3531 4.4246 9.1341 4.5206 8.9791 4.6806L7.7881 5.8676C7.4821 6.1826 7.4821 6.7416 7.7881 7.0566L8.9791 8.2436C9.1551 8.4266 9.4151 8.5246 9.6681 8.5036" opacity=".3"/>
    <path fill="#FFF" d="M11.5191 14.0261L11.5191 14.0261C11.2431 14.0261 11.0191 13.8021 11.0191 13.5261L11.0191 13.5261C11.0191 13.2501 11.2431 13.0261 11.5191 13.0261 11.7951 13.0261 12.0191 13.2501 12.0191 13.5261L12.0191 13.5261C12.0191 13.8021 11.7951 14.0261 11.5191 14.0261M11.567 12.0065L11.433 12.0065C11.194 12.0065 11 11.8125 11 11.5735L11 9.4395C11 9.2005 11.194 9.0065 11.433 9.0065L11.567 9.0065C11.806 9.0065 12 9.2005 12 9.4395L12 11.5735C12 11.8125 11.806 12.0065 11.567 12.0065"/>
  </g>
</svg>
