<svg xmlns="http://www.w3.org/2000/svg" width="20" height="20" viewBox="0 0 20 20">
  <path fill="#FFF" fill-rule="evenodd" d="M14.5 16C14.7761424 16 15 16.2238576 15 16.5 15 16.7761424 14.7761424 17 14.5 17 14.2238576 17 14 16.7761424 14 16.5 14 16.2238576 14.2238576 16 14.5 16zM14.5 11C14.7761424 11 15 11.2238576 15 11.5L15 14.5C15 14.7761424 14.7761424 15 14.5 15 14.2238576 15 14 14.7761424 14 14.5L14 11.5C14 11.2238576 14.2238576 11 14.5 11zM8.83771031 9.7230306L10.2519239 11.1372442C10.6424482 11.5277685 10.6424482 12.1609334 10.2519239 12.5514577L8.75508864 14.048293C8.58065055 14.222731 8.34789026 14.326535 8.10155178 14.3397503L6.47084466 14.4272328 4.09667532 16.8014021C3.84579567 17.0522817 3.43903939 17.0522817 3.18815974 16.8014021 2.93728009 16.5505224 2.93728009 16.1437662 3.18815974 15.8928865L5.56232907 13.5187172 5.63790132 11.8778899C5.64937144 11.6288503 5.75345134 11.393076 5.92973558 11.2167918L7.42349675 9.7230306C7.81402104 9.33250631 8.44718602 9.33250631 8.83771031 9.7230306zM15.8783083 3.18815974C16.129188 2.93728009 16.5359443 2.93728009 16.7868239 3.18815974 17.0377036 3.43903939 17.0377036 3.84579567 16.7868239 4.09667532L16.7868239 4.09667532 14.4126546 6.47084466 14.3251721 8.10155178C14.3119568 8.34789026 14.2081529 8.58065055 14.0337148 8.75508864L14.0337148 8.75508864 12.5368795 10.2519239C12.1463552 10.6424482 11.5131903 10.6424482 11.122666 10.2519239L11.122666 10.2519239 9.70845241 8.83771031C9.31792812 8.44718602 9.31792812 7.81402104 9.70845241 7.42349675L9.70845241 7.42349675 11.2022136 5.92973558C11.3784978 5.75345134 11.6142722 5.64937144 11.8633117 5.63790132L11.8633117 5.63790132 13.504139 5.56232907z"/>
</svg>
