<svg xmlns="http://www.w3.org/2000/svg" width="24" height="24" viewBox="0 0 24 24">
  <path fill="#536076" fill-rule="evenodd" d="M11.5,18 C11.7761424,18 12,18.2238576 12,18.5 L12,20.5 C12,20.7761424 11.7761424,21 11.5,21 C11.2238576,21 11,20.7761424 11,20.5 L11,18.5 C11,18.2238576 11.2238576,18 11.5,18 Z M17.8121778,14.5669873 L19.5442286,15.5669873 C19.7833749,15.7050585 19.8653125,16.0108537 19.7272413,16.25 C19.5891701,16.4891463 19.2833749,16.5710839 19.0442286,16.4330127 L17.3121778,15.4330127 C17.0730315,15.2949415 16.9910939,14.9891463 17.1291651,14.75 C17.2672363,14.5108537 17.5730315,14.4289161 17.8121778,14.5669873 Z M5.87083488,14.75 C6.00890606,14.9891463 5.92696849,15.2949415 5.68782217,15.4330127 L3.95577137,16.4330127 C3.71662505,16.5710839 3.41082985,16.4891463 3.27275866,16.25 C3.13468748,16.0108537 3.21662505,15.7050585 3.45577137,15.5669873 L5.18782217,14.5669873 C5.42696849,14.4289161 5.73276369,14.5108537 5.87083488,14.75 Z M11.5,7 C13.9852814,7 16,9.01471863 16,11.5 C16,13.9852814 13.9852814,16 11.5,16 C9.01471863,16 7,13.9852814 7,11.5 C7,9.01471863 9.01471863,7 11.5,7 Z M19.7272413,6.75 C19.8653125,6.98914631 19.7833749,7.29494151 19.5442286,7.4330127 L17.8121778,8.4330127 C17.5730315,8.57108389 17.2672363,8.48914631 17.1291651,8.25 C16.9910939,8.01085369 17.0730315,7.70505849 17.3121778,7.5669873 L19.0442286,6.5669873 C19.2833749,6.42891611 19.5891701,6.51085369 19.7272413,6.75 Z M3.95577137,6.5669873 L5.68782217,7.5669873 C5.92696849,7.70505849 6.00890606,8.01085369 5.87083488,8.25 C5.73276369,8.48914631 5.42696849,8.57108389 5.18782217,8.4330127 L3.45577137,7.4330127 C3.21662505,7.29494151 3.13468748,6.98914631 3.27275866,6.75 C3.41082985,6.51085369 3.71662505,6.42891611 3.95577137,6.5669873 Z M11.5,2 C11.7761424,2 12,2.22385763 12,2.5 L12,4.5 C12,4.77614237 11.7761424,5 11.5,5 C11.2238576,5 11,4.77614237 11,4.5 L11,2.5 C11,2.22385763 11.2238576,2 11.5,2 Z"/>
</svg>
