<?xml version="1.0" encoding="UTF-8"?>
<svg width="20px" height="20px" viewBox="0 0 20 20" version="1.1" xmlns="http://www.w3.org/2000/svg" xmlns:xlink="http://www.w3.org/1999/xlink">
    <title>ICON / MenuItem / Brightness+</title>
    <g id="任务栏" stroke="none" stroke-width="1" fill="none" fill-rule="evenodd">
        <g id="任务栏-时尚" transform="translate(-738.000000, -914.000000)" fill="#000000" fill-rule="nonzero">
            <g id="UDE-/-ControlPanel" transform="translate(712.000000, 534.000000)">
                <g id="编组-5" transform="translate(10.000000, 360.000000)">
                    <g id="ICON-/-MenuItem-/-Brightness+" transform="translate(16.000000, 20.000000)">
                        <path d="M10.125,15.625 C10.4011424,15.625 10.625,15.8488576 10.625,16.125 L10.625,18.875 C10.625,19.1511424 10.4011424,19.375 10.125,19.375 L9.875,19.375 C9.59885763,19.375 9.375,19.1511424 9.375,18.875 L9.375,16.125 C9.375,15.8488576 9.59885763,15.625 9.875,15.625 L10.125,15.625 Z M14.7729708,13.8890873 L16.7175144,15.8336309 C16.9127766,16.0288931 16.9127766,16.3454756 16.7175144,16.5407377 L16.5407377,16.7175144 C16.3454756,16.9127766 16.0288931,16.9127766 15.8336309,16.7175144 L13.8890873,14.7729708 C13.6938252,14.5777086 13.6938252,14.2611261 13.8890873,14.065864 L14.065864,13.8890873 C14.2611261,13.6938252 14.5777086,13.6938252 14.7729708,13.8890873 Z M5.93413601,13.8890873 L6.1109127,14.065864 C6.30617485,14.2611261 6.30617485,14.5777086 6.1109127,14.7729708 L4.16636906,16.7175144 C3.97110691,16.9127766 3.65452442,16.9127766 3.45926227,16.7175144 L3.28248558,16.5407377 C3.08722343,16.3454756 3.08722343,16.0288931 3.28248558,15.8336309 L5.22702923,13.8890873 C5.42229137,13.6938252 5.73887386,13.6938252 5.93413601,13.8890873 Z M10,5.625 C12.4162458,5.625 14.375,7.58375422 14.375,10 C14.375,12.4162458 12.4162458,14.375 10,14.375 C7.58375422,14.375 5.625,12.4162458 5.625,10 C5.625,7.58375422 7.58375422,5.625 10,5.625 Z M18.875,9.375 C19.1511424,9.375 19.375,9.59885763 19.375,9.875 L19.375,10.125 C19.375,10.4011424 19.1511424,10.625 18.875,10.625 L16.125,10.625 C15.8488576,10.625 15.625,10.4011424 15.625,10.125 L15.625,9.875 C15.625,9.59885763 15.8488576,9.375 16.125,9.375 L18.875,9.375 Z M3.875,9.375 C4.15114237,9.375 4.375,9.59885763 4.375,9.875 L4.375,10.125 C4.375,10.4011424 4.15114237,10.625 3.875,10.625 L1.125,10.625 C0.848857625,10.625 0.625,10.4011424 0.625,10.125 L0.625,9.875 C0.625,9.59885763 0.848857625,9.375 1.125,9.375 L3.875,9.375 Z M16.5407377,3.28248558 L16.7175144,3.45926227 C16.9127766,3.65452442 16.9127766,3.97110691 16.7175144,4.16636906 L14.7729708,6.1109127 C14.5777086,6.30617485 14.2611261,6.30617485 14.065864,6.1109127 L13.8890873,5.93413601 C13.6938252,5.73887386 13.6938252,5.42229137 13.8890873,5.22702923 L15.8336309,3.28248558 C16.0288931,3.08722343 16.3454756,3.08722343 16.5407377,3.28248558 Z M4.16636906,3.28248558 L6.1109127,5.22702923 C6.30617485,5.42229137 6.30617485,5.73887386 6.1109127,5.93413601 L5.93413601,6.1109127 C5.73887386,6.30617485 5.42229137,6.30617485 5.22702923,6.1109127 L3.28248558,4.16636906 C3.08722343,3.97110691 3.08722343,3.65452442 3.28248558,3.45926227 L3.45926227,3.28248558 C3.65452442,3.08722343 3.97110691,3.08722343 4.16636906,3.28248558 Z M10.125,0.625 C10.4011424,0.625 10.625,0.848857625 10.625,1.125 L10.625,3.875 C10.625,4.15114237 10.4011424,4.375 10.125,4.375 L9.875,4.375 C9.59885763,4.375 9.375,4.15114237 9.375,3.875 L9.375,1.125 C9.375,0.848857625 9.59885763,0.625 9.875,0.625 L10.125,0.625 Z" id="形状结合"></path>
                    </g>
                </g>
            </g>
        </g>
    </g>
</svg>