<svg xmlns="http://www.w3.org/2000/svg" width="25" height="24" viewBox="0 0 25 24">
  <path fill="#536076" fill-rule="evenodd" d="M11.5,17 C11.7761424,17 12,17.2238576 12,17.5 L12,18.5 C12,18.7761424 11.7761424,19 11.5,19 C11.2238576,19 11,18.7761424 11,18.5 L11,17.5 C11,17.2238576 11.2238576,17 11.5,17 Z M16.9461524,14.0669873 L17.8121778,14.5669873 C18.0513241,14.7050585 18.1332617,15.0108537 17.9951905,15.25 C17.8571193,15.4891463 17.5513241,15.5710839 17.3121778,15.4330127 L16.4461524,14.9330127 C16.2070061,14.7949415 16.1250685,14.4891463 16.2631397,14.25 C16.4012109,14.0108537 16.7070061,13.9289161 16.9461524,14.0669873 Z M6.73686028,14.25 C6.87493147,14.4891463 6.79299389,14.7949415 6.55384758,14.9330127 L5.68782217,15.4330127 C5.44867586,15.5710839 5.14288066,15.4891463 5.00480947,15.25 C4.86673828,15.0108537 4.94867586,14.7050585 5.18782217,14.5669873 L6.05384758,14.0669873 C6.29299389,13.9289161 6.59878909,14.0108537 6.73686028,14.25 Z M11.5,8 C13.4329966,8 15,9.56700338 15,11.5 C15,13.4329966 13.4329966,15 11.5,15 C9.56700338,15 8,13.4329966 8,11.5 C8,9.56700338 9.56700338,8 11.5,8 Z M17.9951905,7.75 C18.1332617,7.98914631 18.0513241,8.29494151 17.8121778,8.4330127 L16.9461524,8.9330127 C16.7070061,9.07108389 16.4012109,8.98914631 16.2631397,8.75 C16.1250685,8.51085369 16.2070061,8.20505849 16.4461524,8.0669873 L17.3121778,7.5669873 C17.5513241,7.42891611 17.8571193,7.51085369 17.9951905,7.75 Z M5.68782217,7.5669873 L6.55384758,8.0669873 C6.79299389,8.20505849 6.87493147,8.51085369 6.73686028,8.75 C6.59878909,8.98914631 6.29299389,9.07108389 6.05384758,8.9330127 L5.18782217,8.4330127 C4.94867586,8.29494151 4.86673828,7.98914631 5.00480947,7.75 C5.14288066,7.51085369 5.44867586,7.42891611 5.68782217,7.5669873 Z M11.5,4 C11.7761424,4 12,4.22385763 12,4.5 L12,5.5 C12,5.77614237 11.7761424,6 11.5,6 C11.2238576,6 11,5.77614237 11,5.5 L11,4.5 C11,4.22385763 11.2238576,4 11.5,4 Z" transform="translate(1)"/>
</svg>
