<?xml version="1.0" encoding="UTF-8" standalone="no"?>
<svg width="48px" height="48px" viewBox="0 0 48 48" version="1.1" xmlns="http://www.w3.org/2000/svg" xmlns:xlink="http://www.w3.org/1999/xlink">
    <!-- Generator: Sketch 3.7.2 (28276) - http://www.bohemiancoding.com/sketch -->
    <title>show_desktop_48</title>
    <desc>Created with Sketch.</desc>
    <defs>
        <filter x="-50%" y="-50%" width="200%" height="200%" filterUnits="objectBoundingBox" id="filter-1">
            <feOffset dx="0" dy="1" in="SourceAlpha" result="shadowOffsetOuter1"></feOffset>
            <feGaussianBlur stdDeviation="0.5" in="shadowOffsetOuter1" result="shadowBlurOuter1"></feGaussianBlur>
            <feColorMatrix values="0 0 0 0 0   0 0 0 0 0   0 0 0 0 0  0 0 0 0.2 0" type="matrix" in="shadowBlurOuter1" result="shadowMatrixOuter1"></feColorMatrix>
            <feMerge>
                <feMergeNode in="shadowMatrixOuter1"></feMergeNode>
                <feMergeNode in="SourceGraphic"></feMergeNode>
            </feMerge>
        </filter>
        <rect id="path-2" x="0" y="0" width="42" height="36" rx="1"></rect>
        <filter x="-50%" y="-50%" width="200%" height="200%" filterUnits="objectBoundingBox" id="filter-4">
            <feOffset dx="0" dy="1" in="SourceAlpha" result="shadowOffsetOuter1"></feOffset>
            <feGaussianBlur stdDeviation="0.5" in="shadowOffsetOuter1" result="shadowBlurOuter1"></feGaussianBlur>
            <feColorMatrix values="0 0 0 0 0   0 0 0 0 0   0 0 0 0 0  0 0 0 0.2 0" type="matrix" in="shadowBlurOuter1" result="shadowMatrixOuter1"></feColorMatrix>
            <feMerge>
                <feMergeNode in="shadowMatrixOuter1"></feMergeNode>
                <feMergeNode in="SourceGraphic"></feMergeNode>
            </feMerge>
        </filter>
        <polygon id="path-5" points="0.5 37 36 0 36 22.5 36 37"></polygon>
        <linearGradient x1="50%" y1="0%" x2="50%" y2="93.693785%" id="linearGradient-7">
            <stop stop-color="#2B0077" offset="0%"></stop>
            <stop stop-color="#1A009E" offset="100%"></stop>
        </linearGradient>
        <linearGradient x1="50%" y1="0%" x2="50%" y2="97.5047832%" id="linearGradient-8">
            <stop stop-color="#070035" offset="0%"></stop>
            <stop stop-color="#0500FF" offset="100%"></stop>
        </linearGradient>
    </defs>
    <g id="Page-1" stroke="none" stroke-width="1" fill="none" fill-rule="evenodd">
        <g id="show_desktop48" filter="url(#filter-1)" transform="translate(3.000000, 8.000000)">
            <mask id="mask-3" fill="white">
                <use xlink:href="#path-2"></use>
            </mask>
            <use id="Mask" fill-opacity="0" fill="#D8D8D8" xlink:href="#path-2"></use>
            <g id="Group-24" mask="url(#mask-3)">
                <g transform="translate(0.000000, -1.000000)">
                    <g id="Group-3" filter="url(#filter-4)" stroke-width="1" fill="none" transform="translate(6.000000, 0.000000)">
                        <mask id="mask-6" fill="white">
                            <use xlink:href="#path-5"></use>
                        </mask>
                        <use id="Mask" fill="#D8D8D8" xlink:href="#path-5"></use>
                        <polygon id="Rectangle-path" fill="url(#linearGradient-7)" mask="url(#mask-6)" points="-6 1 36 1 36 37 -6 37"></polygon>
                        <g id="Group-2" mask="url(#mask-6)">
                            <g transform="translate(-18.000000, 17.000000)" id="Shape">
                                <polygon fill="#5D40B4" points="0.529497084 17.035637 9.69860839 13.3014894 14.4771846 14.971107 23.5263589 10.3432767 34.6533402 0.0521943858 37.0966536 2.94064234 38.4173635 2.94064234 39.6555291 1.53587804 44.2284872 6.19211928 45.8138344 5.03279413 64.484876 15.6940082 64.484876 21.8812847 1.09079881 21.8812847"></polygon>
                                <polygon fill="#745ECC" points="39.7710912 5.76595483 42.3610034 4.29063663 39.6636184 1.53587804"></polygon>
                                <polygon fill="#654DC7" transform="translate(43.146083, 6.019538) scale(-1, 1) translate(-43.146083, -6.019538) " points="42.0301656 6.20791893 44.2620003 7.74842451 43.9311624 4.29065241"></polygon>
                                <polygon fill="#6546C2" transform="translate(41.066047, 6.019538) scale(-1, 1) translate(-41.066047, -6.019538) " points="42.3610034 5.76597061 40.101929 7.74842451 39.7710912 4.29065241"></polygon>
                                <polyline fill="#9793DF" points="34.6533402 13.1141506 45.8133392 5.03280991 46.9359426 15.0713504 42.2639312 12.3794116 34.6533402 13.1141506"></polyline>
                                <polyline fill="#7B6EDF" points="34.6533402 13.1141506 45.8133392 5.03280991 46.9359426 15.0713504 42.2639312 12.3794116 34.6533402 13.1141506"></polyline>
                                <polygon fill="#9683E4" points="14.462987 14.9679502 9.6919223 13.2948602 23.5263589 10.3432767"></polygon>
                                <polygon fill="#A995EA" points="18.8784505 12.7130668 9.6919223 13.2948602 23.5263589 10.3432767"></polygon>
                                <polygon fill="#765BE1" points="14.462987 14.9679502 9.6919223 13.2948602 1.09905325 16.7756767"></polygon>
                                <polygon fill="#846AE4" points="14.462987 14.9679502 9.6919223 13.2948602 5.41813795 15.0351895 7.26148583 15.9441825"></polygon>
                                <polygon fill="#C998F3" points="27.8351751 12.3793958 23.5263589 10.3432767 34.6533402 0.0521943858"></polygon>
                                <polygon fill="#A995EA" points="27.8351751 12.3793958 23.5263589 10.3432767 30.9433009 6.75923368"></polygon>
                                <polygon fill="#9B8FE6" points="27.8351751 12.3793958 34.6533402 0.0521943858 35.3467129 3.13004877"></polygon>
                                <polygon fill="#B097EE" points="30.9414849 6.7617591 34.6533402 0.0521943858 35.3467129 3.13004877"></polygon>
                                <polygon fill="#B4A1EA" points="39.6555291 1.53587804 37.1791979 4.31383891 38.2511191 6.20790315 39.7710912 5.76595483"></polygon>
                                <polygon fill="#C8A0EB" points="39.6555291 1.53587804 37.1791979 4.31383891 38.2511191 6.20790315"></polygon>
                                <polygon fill="#9C91E8" points="37.179231 4.31608022 34.2229868 8.84605052 36.2040518 8.84605052 38.2511522 6.20793472"></polygon>
                                <polygon fill="#8B7DE4" points="37.179231 4.31608022 34.2229868 8.84605052 36.2040518 8.84605052"></polygon>
                                <polygon fill="#9A8EEE" points="14.462987 14.9679502 25.392357 14.508324 23.5263589 10.3432767"></polygon>
                                <polygon fill="#6B44CD" points="14.462987 14.9679502 25.392357 14.508324 28.7803082 15.4409928 13.0578176 21.8812847"></polygon>
                                <polygon fill="#8D81EE" points="23.5263589 10.3432767 25.392357 14.508324 27.8351751 12.3793958"></polygon>
                                <polygon fill="#8F77F1" points="46.9359756 15.0713346 42.2697423 12.3798693 34.6533732 13.0423183 2.20402522 26.3244437"></polygon>
                                <polygon fill="#846AE4" points="34.6532907 13.0423025 35.9622793 12.9289743 27.8351256 19.8713511 22.3124944 18.0824074"></polygon>
                                <polygon fill="#A68BEA" points="45.8144618 5.03284148 34.6533072 13.0423656 42.2668698 12.3797588 45.9064162 5.87364816"></polygon>
                                <polygon fill="#6244BD" points="64.484876 15.6926192 45.8144453 5.03280991 64.4931304 21.8813163"></polygon>
                                <polygon fill="#6A58BC" points="64.484876 21.8813163 46.9359922 15.0713661 57.0714009 21.8813163"></polygon>
                                <polygon fill="#7D6DDF" points="31.5744351 7.77050614 34.6533402 13.0423183 27.8351751 12.3793958"></polygon>
                                <polygon fill="#735ED3" points="31.5744351 7.77050614 34.6533402 13.0423183 35.6417265 9.66472821 34.2229538 8.84601895"></polygon>
                                <polyline fill="#6F5ACA" points="39.7710912 5.76595483 42.0301656 7.74840872 39.9739853 9.22372692 38.2605292 6.20790315"></polyline>
                                <polyline fill="#6953C8" points="36.2017075 8.84601895 37.9511529 10.675685 39.9739853 9.22372692 38.2605292 6.20790315"></polyline>
                                <polygon fill="#6F5ACA" points="34.383255 4.31778488 36.0970412 5.96435805 34.2229538 8.84601895 31.5749304 7.77050614"></polygon>
                                <polygon fill="#7863D3" points="35.3467129 3.13004877 37.1791979 4.31604865 36.0970412 5.98692899 34.383255 4.31604865"></polygon>
                                <polygon fill="#7863D3" points="35.3467129 3.13004877 37.1791979 4.31604865 36.0970412 5.98692899 34.383255 4.31604865"></polygon>
                                <polygon fill="#7D69D8" points="35.3467129 3.13004877 37.1791979 4.31604865 36.0970412 5.98692899"></polygon>
                                <polygon fill="#5745A9" points="37.0842719 2.94060762 38.3802185 2.94060762 37.7438014 3.80355698"></polygon>
                                <polygon fill="#8677D9" points="34.2229538 8.84600316 36.1982406 8.84600316 35.640901 9.70895252"></polygon>
                                <polygon fill="#7565D4" points="37.951318 10.6756692 36.1982406 8.84600316 35.640901 9.66471243"></polygon>
                                <polygon fill="#6E52D4" points="25.3907391 14.5033363 27.8352081 12.3794589 28.7806714 15.4408981"></polygon>
                                <polygon fill="#765DD7" points="25.3907391 14.5033363 22.3124944 18.0823285 28.7806714 15.4408981"></polygon>
                                <polygon fill="#7763D2" points="34.6533732 13.0423814 27.8352081 12.3794589 28.7806714 15.4408981"></polygon>
                                <polygon fill="#7E65D9" points="35.6427748 9.66471243 34.653398 13.0423025 37.9512107 10.6756692"></polygon>
                                <polygon fill="#7E65D9" points="35.6427748 9.66471243 34.653398 13.0423025 37.9512107 10.6756692"></polygon>
                                <polygon fill="#6E59CC" points="1.09928809 21.8810876 14.4630945 14.9680134 13.057703 21.8810876"></polygon>
                                <polygon fill="#6E49D3" points="1.09928809 21.8810876 13.6640791 18.892045 13.057703 21.8810876"></polygon>
                                <polygon fill="#604BBD" points="1.09928809 21.8810876 14.4630945 14.9680134 7.2796176 15.9404993"></polygon>
                                <polygon fill="#7260C5" points="19.903023 21.8813643 46.936013 15.0715285 57.0714688 21.8813643"></polygon>
                                <polygon fill="#7661D4" points="22.348946 18.0824232 27.8351751 19.8753128 19.9028261 21.8812847 13.0578176 21.8812847"></polygon>
                                <polygon fill="#887BE1" points="35.9619821 12.9286744 34.6533402 13.0423183 37.9512354 10.675685"></polygon>
                                <polygon fill="#C096E3" points="45.8143297 5.03279413 45.9062841 5.87312729 37.9512354 10.675685"></polygon>
                            </g>
                        </g>
                        <rect id="Mask" fill="url(#linearGradient-8)" opacity="0.7" style="mix-blend-mode: soft-light;" mask="url(#mask-6)" x="-6" y="1" width="42" height="36" rx="1"></rect>
                    </g>
                    <polygon id="Mask" fill="#4E4FBB" transform="translate(20.500000, 19.000000) scale(1, -1) translate(-20.500000, -19.000000) " points="0 1 6.5 1 41 37 0 37"></polygon>
                    <path d="M28.1923077,11 L33,6 L4.99824564,6 C4.45552075,6 4,6.44919255 4,7.00329963 L4,30.9967004 C4,31.5487213 4.45190985,32 5.0093689,32 L8,32 L8.96153846,31 L5,31 L5,11 L28.1923077,11 Z M22,8 L23,8 L23,9 L22,9 L22,8 Z M24,8 L25,8 L25,9 L24,9 L24,8 Z M26,8 L27,8 L27,9 L26,9 L26,8 Z" id="Combined-Shape" fill="#FFFFFF"></path>
                    <polygon id="Path-1261" fill="#FFFFFF" points="37.0999756 4 38.5999756 4 8.59997559 35 7.09997559 35"></polygon>
                    <polygon id="Path-1263" fill="#FFFFFF" opacity="0.3" points="9 31 28.2000122 11 5 11 5 31"></polygon>
                </g>
            </g>
        </g>
    </g>
</svg>