<svg xmlns="http://www.w3.org/2000/svg" width="20" height="20" viewBox="0 0 20 20">
  <g fill="none" fill-rule="evenodd" transform="translate(0 2)">
    <path fill="#FF001F" d="M1,-1.70530257e-13 L1,8 C0.44771525,8 6.76353751e-17,7.55228475 0,7 L0,1 C-6.28042769e-17,0.487164161 0.38604019,0.0644928393 0.883378875,0.00672773133 L1,-1.70530257e-13 Z" transform="translate(2 4)"/>
    <path fill="#000" d="M7.523,2 L7.193,2.999 L3,3 C1.8954305,3 1,3.8954305 1,5 L1,11 C1,12.1045695 1.8954305,13 3,13 L8,12.999 L8,13.999 L3,14 C1.34314575,14 0,12.6568542 0,11 L0,5 C0,3.34314575 1.34314575,2 3,2 L7.523,2 Z M15,2 C16.6568542,2 18,3.34314575 18,5 L18,11 C18,12.6568542 16.6568542,14 15,14 L10.477,13.999 L10.806,12.999 L15,13 C16.1045695,13 17,12.1045695 17,11 L17,5 C17,3.8954305 16.1045695,3 15,3 L10,2.999 L10,2 L15,2 Z M20,5 L20,11 L19,11 L19,5 L20,5 Z"/>
    <polygon fill="#000" points="12 6 9 16 9 10 6 10 9 0 9 6"/>
  </g>
</svg>
