<?xml version="1.0" encoding="UTF-8"?>
<svg width="16px" height="16px" viewBox="0 0 16 16" version="1.1" xmlns="http://www.w3.org/2000/svg" xmlns:xlink="http://www.w3.org/1999/xlink">
    <title>buletooth_tv_dark</title>
    <g id="buletooth_tv_dark" stroke="none" stroke-width="1" fill="none" fill-rule="evenodd">
        <path d="M12,4 C13.6568542,4 15,5.34314575 15,7 L15,11 C15,12.6568542 13.6568542,14 12,14 L5,14 C3.34314575,14 2,12.6568542 2,11 L2,7 C2,5.34314575 3.34314575,4 5,4 L12,4 Z M12,5 L5,5 C3.9456382,5 3.08183488,5.81587779 3.00548574,6.85073766 L3,7 L3,11 C3,12.0543618 3.81587779,12.9181651 4.85073766,12.9945143 L5,13 L12,13 C13.0543618,13 13.9181651,12.1841222 13.9945143,11.1492623 L14,11 L14,7 C14,5.8954305 13.1045695,5 12,5 Z M12,6 C12.5522847,6 13,6.44771525 13,7 L13,11 C13,11.5522847 12.5522847,12 12,12 L5,12 C4.44771525,12 4,11.5522847 4,11 L4,7 C4,6.44771525 4.44771525,6 5,6 L12,6 Z M7.47058824,7 L5,7 L5,7.8 L5.82352941,7.8 L5.82352941,11 L6.64705882,11 L6.64705882,7.8 L7.47058824,7.8 L7.47058824,7 Z M9.14917766,7 L8.2726478,7 L9.66165358,11 L10.6081938,11 L12,7 L11.1234701,7 L10.3477552,9.38030096 C10.2282709,9.7998176 10.1582605,10.0934793 10.1377241,10.2612859 C10.1265224,10.1883265 10.0980516,10.0583675 10.0523115,9.87140903 C10.021818,9.74677003 9.99194696,9.63246694 9.96269818,9.52849977 L9.91929175,9.38030096 L9.14917766,7 Z" id="形状结合" fill="#FFFFFF"></path>
        <polyline id="路径-5" stroke="#FFFFFF" stroke-linecap="round" stroke-linejoin="bevel" transform="translate(8.500000, 2.500000) rotate(-45.000000) translate(-8.500000, -2.500000) " points="7 1 7 4 10 4"></polyline>
    </g>
</svg>