<?xml version="1.0" encoding="UTF-8"?>
<svg width="16px" height="16px" viewBox="0 0 16 16" version="1.1" xmlns="http://www.w3.org/2000/svg" xmlns:xlink="http://www.w3.org/1999/xlink">
    <title>buletooth_pen_dark</title>
    <g id="buletooth_pen_dark" stroke="none" stroke-width="1" fill="none" fill-rule="evenodd">
        <path d="M5.40009062,12.9559895 L2.79944555,13.4807163 C2.66410182,13.5080243 2.53224653,13.4204441 2.5049385,13.2851003 C2.49835429,13.2524677 2.49835383,13.2188487 2.50493716,13.1862159 L3.02967395,10.5851562 L3.02967395,10.5851562 L9.70545583,3.90977002 C9.90070318,3.71449308 10.2172857,3.71450246 10.412542,3.9097704 C10.4125489,3.90977726 10.4125557,3.90978412 10.412542,3.90981157 L12.0763307,5.57389266 C12.2715761,5.76917159 12.2715482,6.08575408 12.0762689,6.28099907 C12.0762688,6.28099919 12.0762687,6.28099931 12.0762682,6.28099907 L5.40009062,12.9559895 L5.40009062,12.9559895 Z M13.8391542,3.8098192 L12.1751352,2.14638503 C11.9798394,1.95115657 11.6632569,1.95121221 11.4680291,2.14650867 C11.4680289,2.14650888 11.4680287,2.14650909 11.4680291,2.14650993 L11.001677,2.61302763 C10.8066232,2.80840055 10.8066235,3.12488673 11.0016776,3.32025929 L12.6655284,4.98469494 C12.860506,5.18024154 13.1770885,5.18029717 13.372385,4.98506934 C13.3724684,4.98498593 13.3725518,4.98490248 13.3723849,4.98456895 L13.8394045,4.51705195 C14.0343874,4.32160917 14.0342754,4.00512389 13.8391542,3.8098192 Z" id="形状" fill="#FFFFFF"></path>
    </g>
</svg>