<svg xmlns="http://www.w3.org/2000/svg" width="16" height="16" viewBox="0 0 16 16">
  <path fill="#C5CFE0" fill-rule="evenodd" d="M11,2 C12.1045695,2 13,2.8954305 13,4 L13,13 C13,14.1045695 12.1045695,15 11,15 L5,15 C3.8954305,15 3,14.1045695 3,13 L3,4 C3,2.8954305 3.8954305,2 5,2 L11,2 Z M7,8 C5.34314575,8 4,9.34314575 4,11 C4,12.6568542 5.34314575,14 7,14 C8.65685425,14 10,12.6568542 10,11 C10,9.34314575 8.65685425,8 7,8 Z M7,9.5 C7.82842712,9.5 8.5,10.1715729 8.5,11 C8.5,11.8284271 7.82842712,12.5 7,12.5 C6.17157288,12.5 5.5,11.8284271 5.5,11 C5.5,10.1715729 6.17157288,9.5 7,9.5 Z M9,3 C7.8954305,3 7,3.8954305 7,5 C7,6.1045695 7.8954305,7 9,7 C10.1045695,7 11,6.1045695 11,5 C11,3.8954305 10.1045695,3 9,3 Z M9,4 C9.55228475,4 10,4.44771525 10,5 C10,5.55228475 9.55228475,6 9,6 C8.44771525,6 8,5.55228475 8,5 C8,4.44771525 8.44771525,4 9,4 Z"/>
</svg>
