<?xml version="1.0" encoding="UTF-8"?>
<svg width="16px" height="16px" viewBox="0 0 16 16" version="1.1" xmlns="http://www.w3.org/2000/svg" xmlns:xlink="http://www.w3.org/1999/xlink">
    <title>buletooth_microphone_dark</title>
    <g id="buletooth_microphone_dark" stroke="none" stroke-width="1" fill="none" fill-rule="evenodd">
        <path d="M9.97129776,7.3924645 L9.43182891,14.6703097 C9.37629241,15.4200524 8.75179683,16 8,16 C7.24820317,16 6.62370759,15.4200524 6.56817109,14.6703097 L6.02870224,7.3924645 C6.59011897,7.7758262 7.26888019,8 8,8 C8.73111981,8 9.40988103,7.7758262 9.97129776,7.3924645 Z M7.5,9 C7.25454011,9 7.05039163,9.17687516 7.00805567,9.41012437 L7,9.5 L7,10.5 C7,10.7761424 7.22385763,11 7.5,11 C7.74545989,11 7.94960837,10.8231248 7.99194433,10.5898756 L8,10.5 L8,9.5 C8,9.22385763 7.77614237,9 7.5,9 Z M8,1 C9.65685425,1 11,2.34314575 11,4 C11,5.65685425 9.65685425,7 8,7 C6.34314575,7 5,5.65685425 5,4 C5,2.34314575 6.34314575,1 8,1 Z" id="形状结合" fill="#FFFFFF" transform="translate(8.000000, 8.500000) rotate(45.000000) translate(-8.000000, -8.500000) "></path>
    </g>
</svg>