<?xml version="1.0" encoding="UTF-8"?>
<svg width="16px" height="16px" viewBox="0 0 16 16" version="1.1" xmlns="http://www.w3.org/2000/svg" xmlns:xlink="http://www.w3.org/1999/xlink">
    <title>buletooth_mouse_dark</title>
    <g id="buletooth_mouse_dark" stroke="none" stroke-width="1" fill="none" fill-rule="evenodd">
        <path d="M13,8.53172798 L13,9.53172798 C13,12.2931517 10.7614237,14.531728 8,14.531728 C5.23857625,14.531728 3,12.2931517 3,9.53172798 L3,8.53172798 L13,8.53172798 Z M8,1.53172798 C10.7614237,1.53172798 13,3.77030423 13,6.53172798 L13,7.53172798 L3,7.53172798 L3,6.53172798 C3,3.77030423 5.23857625,1.53172798 8,1.53172798 Z M8,3.53172798 C7.72385763,3.53172798 7.5,3.7555856 7.5,4.03172798 L7.5,4.03172798 L7.5,6.03172798 C7.5,6.30787035 7.72385763,6.53172798 8,6.53172798 C8.27614237,6.53172798 8.5,6.30787035 8.5,6.03172798 L8.5,6.03172798 L8.5,4.03172798 C8.5,3.7555856 8.27614237,3.53172798 8,3.53172798 Z" id="形状结合" fill="#FFFFFF" transform="translate(8.000000, 8.031728) rotate(45.000000) translate(-8.000000, -8.031728) "></path>
    </g>
</svg>