<svg xmlns="http://www.w3.org/2000/svg" width="16" height="16" viewBox="0 0 16 16">
  <path fill="#C5CFE0" fill-rule="evenodd" d="M10.5,10 C10.7761424,10 11,10.2238576 11,10.5 L11,13.5 C11,13.7761424 10.7761424,14 10.5,14 L5.5,14 C5.22385763,14 5,13.7761424 5,13.5 L5,10.5 C5,10.2238576 5.22385763,10 5.5,10 L10.5,10 Z M13,5 C14.1045695,5 15,5.8954305 15,7 L15,11 C15,12.1045695 14.1045695,13 13,13 L12,13 L12,10.5 C12,9.72030388 11.4051119,9.07955132 10.64446,9.00686658 L10.5,9 L5.5,9 C4.72030388,9 4.07955132,9.59488808 4.00686658,10.35554 L4,10.5 L4,13 L3,13 C1.8954305,13 1,12.1045695 1,11 L1,7 C1,5.8954305 1.8954305,5 3,5 L13,5 Z M8.5,12 L6.5,12 C6.22385763,12 6,12.2238576 6,12.5 C6,12.7454599 6.17687516,12.9496084 6.41012437,12.9919443 L6.5,13 L8.5,13 C8.77614237,13 9,12.7761424 9,12.5 C9,12.2238576 8.77614237,12 8.5,12 Z M10.5,2 C10.7761424,2 11,2.22385763 11,2.5 L11,4 L5,4 L5,2.5 C5,2.22385763 5.22385763,2 5.5,2 L10.5,2 Z"/>
</svg>
