<?xml version="1.0" encoding="UTF-8" standalone="no"?>
<svg width="48px" height="48px" viewBox="0 0 48 48" version="1.1" xmlns="http://www.w3.org/2000/svg" xmlns:xlink="http://www.w3.org/1999/xlink">
    <!-- Generator: Sketch 3.7 (28169) - http://www.bohemiancoding.com/sketch -->
    <title>battery_060_plugged</title>
    <desc>Created with Sketch.</desc>
    <defs>
        <filter x="-50%" y="-50%" width="200%" height="200%" filterUnits="objectBoundingBox" id="filter-1">
            <feOffset dx="0" dy="1" in="SourceAlpha" result="shadowOffsetOuter1"></feOffset>
            <feGaussianBlur stdDeviation="0.5" in="shadowOffsetOuter1" result="shadowBlurOuter1"></feGaussianBlur>
            <feColorMatrix values="0 0 0 0 0   0 0 0 0 0   0 0 0 0 0  0 0 0 0.2 0" type="matrix" in="shadowBlurOuter1" result="shadowMatrixOuter1"></feColorMatrix>
            <feMerge>
                <feMergeNode in="shadowMatrixOuter1"></feMergeNode>
                <feMergeNode in="SourceGraphic"></feMergeNode>
            </feMerge>
        </filter>
    </defs>
    <g id="Page-1" stroke="none" stroke-width="1" fill="none" fill-rule="evenodd">
        <g id="battery_060_plugged">
            <g transform="translate(3.000000, 2.000000)">
                <g id="g15896" filter="url(#filter-1)" transform="translate(21.000000, 21.500000) scale(-1, 1) translate(-21.000000, -21.500000) ">
                    <path d="M21,0.9909 C12.1072956,1.0027618 4.186176,6.61450625 1.2258,15 L40.7786,15 C37.8176847,6.61298584 29.8943199,1.00089957 21,0.9909 L21,0.9909 Z" id="path15898" fill="#6D9D1D"></path>
                    <path d="M1.2167,15 C0.417510129,17.2444114 0.0060709329,19.6084537 -2.27373675e-13,21.9909 C-2.27373675e-13,33.5888797 9.40202025,42.9909 21,42.9909 C32.5979797,42.9909 42,33.5888797 42,21.9909 C41.987285,19.6072609 41.5688398,17.243184 40.7626,15 L1.2167,15 L1.2167,15 Z" id="path15900" fill="#9AD82D"></path>
                </g>
                <circle id="circle15732" fill="#FFFFFF" cx="21" cy="22" r="12"></circle>
                <path d="M21.8589,13.041631 L16,23.989431 L21.0355,23.989431 L20.014,31.912731 C20.004,31.994731 20.112,32.029731 20.1487,31.953731 L26.0156,21.016031 L20.9984,21.030031 L21.9936,13.082331 C22.0036,13.000331 21.8946,12.967031 21.8589,13.041331 L21.8589,13.041631 Z" id="path15734" fill="#9AD82D"></path>
            </g>
        </g>
    </g>
</svg>