<?xml version="1.0" encoding="UTF-8"?>
<svg width="16px" height="16px" viewBox="0 0 16 16" version="1.1" xmlns="http://www.w3.org/2000/svg" xmlns:xlink="http://www.w3.org/1999/xlink">
    <title>icon/dock/assistant</title>
    <defs>
        <path d="M7,0 C10.8659932,0 14,3.13400675 14,7 C14,10.8659932 10.8659932,14 7,14 C3.13400675,14 0,10.8659932 0,7 C0,3.13400675 3.13400675,0 7,0 Z M7.5,4 C7.22385763,4 7,4.22385763 7,4.5 L7,4.5 L7,9.5 C7,9.77614237 7.22385763,10 7.5,10 C7.77614237,10 8,9.77614237 8,9.5 L8,9.5 L8,4.5 C8,4.22385763 7.77614237,4 7.5,4 Z M5.5,5 C5.22385763,5 5,5.22385763 5,5.5 L5,5.5 L5,8.5 C5,8.77614237 5.22385763,9 5.5,9 C5.77614237,9 6,8.77614237 6,8.5 L6,8.5 L6,5.5 C6,5.22385763 5.77614237,5 5.5,5 Z M9.5,5 C9.22385763,5 9,5.22385763 9,5.5 L9,5.5 L9,8.5 C9,8.77614237 9.22385763,9 9.5,9 C9.77614237,9 10,8.77614237 10,8.5 L10,8.5 L10,5.5 C10,5.22385763 9.77614237,5 9.5,5 Z M3.5,6 C3.22385763,6 3,6.22385763 3,6.5 L3,6.5 L3,7.5 C3,7.77614237 3.22385763,8 3.5,8 C3.77614237,8 4,7.77614237 4,7.5 L4,7.5 L4,6.5 C4,6.22385763 3.77614237,6 3.5,6 Z M11.5,6 C11.2238576,6 11,6.22385763 11,6.5 L11,6.5 L11,7.5 C11,7.77614237 11.2238576,8 11.5,8 C11.7761424,8 12,7.77614237 12,7.5 L12,7.5 L12,6.5 C12,6.22385763 11.7761424,6 11.5,6 Z" id="path-1"></path>
    </defs>
    <g id="icon/dock/assistant" stroke="none" stroke-width="1" fill="none" fill-rule="evenodd">
        <g id="路径-5" transform="translate(1.000000, 1.000000)">
            <mask id="mask-2" fill="white">
                <use xlink:href="#path-1"></use>
            </mask>
            <use id="形状结合" fill="#536076" xlink:href="#path-1"></use>
        </g>
    </g>
</svg>