<svg xmlns="http://www.w3.org/2000/svg" width="20" height="20" viewBox="0 0 20 20">
  <path fill-rule="evenodd" d="M9,1.046 L9,12.046 C9,12.4914524 8.46142904,12.7145358 8.14644661,12.3995534 L6.17157288,10.4246797 C5.60896374,9.86207052 4.845902,9.546 4.05025253,9.546 L2,9.546 C0.8954305,9.546 9.96112538e-14,8.6505695 0,7.546 L0,5.546 C-3.09994708e-14,4.4414305 0.8954305,3.546 2,3.546 L4.05025253,3.546 C4.845902,3.546 5.60896374,3.22992948 6.17157288,2.66732034 L8.14644661,0.692446609 C8.46142904,0.377464179 9,0.600547575 9,1.046 Z M14.8412133,5.16189438 C15.0442449,5.36492592 15.060441,5.67790899 14.8773883,5.86096165 L13.738,6.99999762 L14.8773883,8.13903835 C15.060441,8.32209101 15.0442449,8.63507408 14.8412133,8.83810562 C14.6381818,9.04113717 14.3251987,9.05733326 14.1421461,8.8742806 L13.003,7.73499762 L11.8640694,8.8742806 C11.6810167,9.05733326 11.3680336,9.04113717 11.1650021,8.83810562 C10.9619706,8.63507408 10.9457745,8.32209101 11.1288271,8.13903835 L12.268,6.99999762 L11.1288271,5.86096165 C10.9457745,5.67790899 10.9619706,5.36492592 11.1650021,5.16189438 C11.3680336,4.95886283 11.6810167,4.94266674 11.8640694,5.1257194 L13.003,6.26399762 L14.1421461,5.1257194 C14.3251987,4.94266674 14.6381818,4.95886283 14.8412133,5.16189438 Z" transform="translate(1 3)"/>
</svg>
