<svg xmlns="http://www.w3.org/2000/svg" width="20" height="20" viewBox="0 0 20 20">
  <path fill="#FFF" fill-opacity=".8" fill-rule="evenodd" d="M9,0.501002377 L9,11.5010024 C9,11.9464548 8.46142904,12.1695382 8.14644661,11.8545558 L6.17157288,9.87968203 C5.60896374,9.3170729 4.845902,9.00100238 4.05025253,9.00100238 L2,9.00100238 C0.8954305,9.00100238 9.96112538e-14,8.10557188 0,7.00100238 L0,5.00100238 C-3.09994708e-14,3.89643288 0.8954305,3.00100238 2,3.00100238 L4.05025253,3.00100238 C4.845902,3.00100238 5.60896374,2.68493186 6.17157288,2.12232272 L8.14644661,0.147448987 C8.46142904,-0.167533444 9,0.055549952 9,0.501002377 Z M14.8412133,4.61689675 C15.0442449,4.81992829 15.060441,5.13291137 14.8773883,5.31596402 L13.738,6.455 L14.8773883,7.59404073 C15.060441,7.77709338 15.0442449,8.09007646 14.8412133,8.293108 C14.6381818,8.49613954 14.3251987,8.51233563 14.1421461,8.32928298 L13.003,7.19 L11.8640694,8.32928298 C11.6810167,8.51233563 11.3680336,8.49613954 11.1650021,8.293108 C10.9619706,8.09007646 10.9457745,7.77709338 11.1288271,7.59404073 L12.268,6.455 L11.1288271,5.31596402 C10.9457745,5.13291137 10.9619706,4.81992829 11.1650021,4.61689675 C11.3680336,4.41386521 11.6810167,4.39766912 11.8640694,4.58072177 L13.003,5.719 L14.1421461,4.58072177 C14.3251987,4.39766912 14.6381818,4.41386521 14.8412133,4.61689675 Z" transform="translate(1 4)"/>
</svg>
