<svg xmlns="http://www.w3.org/2000/svg" xmlns:xlink="http://www.w3.org/1999/xlink" width="256" height="256" viewBox="0 0 256 256">
  <defs>
    <filter id="calendar-256px-a" width="126.2%" height="127.1%" x="-12.6%" y="-12.6%" filterUnits="objectBoundingBox">
      <feOffset dy="4" in="SourceAlpha" result="shadowOffsetOuter1"/>
      <feGaussianBlur in="shadowOffsetOuter1" result="shadowBlurOuter1" stdDeviation="5"/>
      <feColorMatrix in="shadowBlurOuter1" result="shadowMatrixOuter1" values="0 0 0 0 0   0 0 0 0 0   0 0 0 0 0  0 0 0 0.2 0"/>
      <feMerge>
        <feMergeNode in="shadowMatrixOuter1"/>
        <feMergeNode in="SourceGraphic"/>
      </feMerge>
    </filter>
    <radialGradient id="calendar-256px-b" cx="54.324%" cy="55.779%" r="61.914%" fx="54.324%" fy="55.779%" gradientTransform="matrix(-.81914 -.50611 .72543 -.9141 .584 1.343)">
      <stop offset="0%"/>
      <stop offset="100%" stop-opacity=".148"/>
    </radialGradient>
    <linearGradient id="calendar-256px-e" x1="69.176%" x2="56.777%" y1="71.097%" y2="57.701%">
      <stop offset="0%" stop-color="#C6C6C6"/>
      <stop offset="53.052%" stop-color="#E7E7E7"/>
      <stop offset="100%" stop-color="#F4F4F4"/>
    </linearGradient>
    <path id="calendar-256px-d" d="M214,144 C214,144 211.131698,161.907704 207.5,167.75 C201.75,177 197.5,173.5 189.5,183.25 C181.5,193 187,194.75 175,205 C168.569162,210.493008 153,214 153,214 C202.75,214 214,170.75 214,144 Z"/>
    <filter id="calendar-256px-c" width="113.1%" height="111.4%" x="-6.6%" y="-2.9%" filterUnits="objectBoundingBox">
      <feOffset dy="2" in="SourceAlpha" result="shadowOffsetOuter1"/>
      <feGaussianBlur in="shadowOffsetOuter1" result="shadowBlurOuter1" stdDeviation="1"/>
      <feColorMatrix in="shadowBlurOuter1" values="0 0 0 0 0   0 0 0 0 0   0 0 0 0 0  0 0 0 0.05 0"/>
    </filter>
  </defs>
  <g fill="none" fill-rule="evenodd" filter="url(#calendar-256px-a)" transform="rotate(-8 267.657 -32.657)">
    <rect width="214" height="214" fill="#FFF" rx="39"/>
    <path fill="url(#calendar-256px-b)" fill-opacity=".39" d="M214,146 L214,175 C214,196.539105 196.539105,214 175,214 L154,214 C174.5,211.5 188.916667,203.583333 197.25,190.25 C205.583333,176.916667 211.166667,162.166667 214,146 Z"/>
    <use fill="#000" filter="url(#calendar-256px-c)" xlink:href="#calendar-256px-d"/>
    <use fill="url(#calendar-256px-e)" xlink:href="#calendar-256px-d"/>
  </g>
</svg>
