<svg xmlns="http://www.w3.org/2000/svg" xmlns:xlink="http://www.w3.org/1999/xlink" width="112" height="104" viewBox="0 0 112 104">
  <defs>
    <path id="day16-b" d="M33.9375,89.6777344 L33.9375,12.7910156 L22.9160156,12.7910156 L12,20.7539062 L12,32.4609375 L22.9160156,24.4453125 L22.9160156,89.6777344 L33.9375,89.6777344 Z M69.1191406,89.625 C71.5800781,90.328125 74.4101562,90.5390625 77.609375,90.2578125 C80.6679687,90.0117187 83.3046875,89.3613281 85.5195312,88.3066406 C87.734375,87.2519531 89.6152344,85.9951172 91.1621094,84.5361328 C92.7089844,83.0771484 93.9570312,81.5302734 94.90625,79.8955078 C95.8554688,78.2607422 96.5849609,76.7314453 97.0947266,75.3076172 C97.6044922,73.8837891 97.9560547,72.6533203 98.1494141,71.6162109 C98.3427734,70.5791016 98.4570312,69.9375 98.4921875,69.6914062 C98.5273438,69.1992187 98.5537109,68.6015625 98.5712891,67.8984375 C98.5888672,67.1953125 98.5976562,66.5009766 98.5976562,65.8154297 L98.5976562,65.8154297 L98.5976562,62.7832031 C98.5976562,62.1152344 98.5009766,61.1923828 98.3076172,60.0146484 C98.1142578,58.8369141 97.7714844,57.5712891 97.2792969,56.2177734 C96.7871094,54.8642578 96.1103516,53.4755859 95.2490234,52.0517578 C94.3876953,50.6279297 93.3066406,49.3359375 92.0058594,48.1757812 C90.7050781,47.015625 89.1494141,46.0488281 87.3388672,45.2753906 C85.5283203,44.5019531 83.4101562,44.0800781 80.984375,44.0097656 C79.296875,43.9394531 77.8115234,43.9658203 76.5283203,44.0888672 C75.2451172,44.2119141 74.09375,44.5722656 73.0742187,45.1699219 C73.5664062,44.3261719 74.1816406,43.2011719 74.9199219,41.7949219 C75.6582031,40.3886719 76.4755859,38.8242187 77.3720703,37.1015625 C78.2685547,35.3789062 79.2001953,33.5683594 80.1669922,31.6699219 C81.1337891,29.7714844 82.0830078,27.890625 83.0146484,26.0273437 C83.9462891,24.1640625 84.8339844,22.3886719 85.6777344,20.7011719 C86.5214844,19.0136719 87.2597656,17.5195312 87.8925781,16.21875 C88.5253906,14.9179687 89.0263672,13.8896484 89.3955078,13.1337891 C89.7646484,12.3779297 89.9316406,12 89.8964844,12 L89.8964844,12 L77.4511719,12 C74.0410156,18.8554687 70.9648437,25.0605469 68.2226562,30.6152344 C67.0625,33.0058594 65.9023437,35.3613281 64.7421875,37.6816406 C63.5820312,40.0019531 62.5361328,42.1289062 61.6044922,44.0625 C60.6728516,45.9960937 59.890625,47.6220703 59.2578125,48.9404297 C58.625,50.2587891 58.2382812,51.09375 58.0976562,51.4453125 C57.5351562,52.8515625 57.0429687,54.1523437 56.6210937,55.3476562 C56.1992187,56.5429687 55.8212891,57.7558594 55.4873047,58.9863281 C55.1533203,60.2167969 54.8632812,61.5087891 54.6171875,62.8623047 C54.3710937,64.2158203 54.1425781,65.7539062 53.9316406,67.4765625 C53.7910156,68.6367187 53.8349609,70.0429687 54.0634766,71.6953125 C54.2919922,73.3476562 54.7490234,75.0703125 55.4345703,76.8632812 C56.1201172,78.65625 57.0605469,80.4052734 58.2558594,82.1103516 C59.4511719,83.8154297 60.9453125,85.3183594 62.7382812,86.6191406 C64.53125,87.9199219 66.6582031,88.921875 69.1191406,89.625 Z M76.5019531,78.9726562 C74.5332031,78.9726562 72.8896484,78.7265625 71.5712891,78.234375 C70.2529297,77.7421875 69.171875,77.109375 68.328125,76.3359375 C67.484375,75.5625 66.8339844,74.6748047 66.3769531,73.6728516 C65.9199219,72.6708984 65.5947266,71.6337891 65.4013672,70.5615234 C65.2080078,69.4892578 65.09375,68.4169922 65.0585938,67.3447266 C65.0234375,66.2724609 65.0058594,65.296875 65.0058594,64.4179687 C65.0058594,64.03125 65.09375,63.4775391 65.2695312,62.7568359 C65.4453125,62.0361328 65.7353516,61.2539062 66.1396484,60.4101562 C66.5439453,59.5664062 67.0537109,58.7138672 67.6689453,57.8525391 C68.2841797,56.9912109 69.0136719,56.2265625 69.8574219,55.5585937 C70.7011719,54.890625 71.6679688,54.3632812 72.7578125,53.9765625 C73.8476562,53.5898437 75.0605469,53.4492187 76.3964844,53.5546875 C79.2441406,53.765625 81.4414062,54.3984375 82.9882812,55.453125 C84.5351562,56.5078125 85.6513672,57.7646484 86.3369141,59.2236328 C87.0224609,60.6826172 87.4179688,62.2207031 87.5234375,63.8378906 C87.6289062,65.4550781 87.6816406,66.9316406 87.6816406,68.2675781 C87.6816406,68.5839844 87.6289062,69.0673828 87.5234375,69.7177734 C87.4179688,70.3681641 87.2158203,71.0976562 86.9169922,71.90625 C86.6181641,72.7148437 86.2050781,73.5410156 85.6777344,74.3847656 C85.1503906,75.2285156 84.4736328,75.9931641 83.6474609,76.6787109 C82.8212891,77.3642578 81.8193359,77.9267578 80.6416016,78.3662109 C79.4638672,78.8056641 78.0839844,79.0078125 76.5019531,78.9726562 Z"/>
    <filter id="day16-a" width="132.3%" height="135.7%" x="-16.2%" y="-12.8%" filterUnits="objectBoundingBox">
      <feOffset dy="4" in="SourceAlpha" result="shadowOffsetOuter1"/>
      <feGaussianBlur in="shadowOffsetOuter1" result="shadowBlurOuter1" stdDeviation="4"/>
      <feColorMatrix in="shadowBlurOuter1" values="0 0 0 0 0.000854821203   0 0 0 0 0.168099661   0 0 0 0 0.309386322  0 0 0 0.2 0"/>
    </filter>
  </defs>
  <g fill="none" transform="rotate(-8 55.299 51.19)">
    <use fill="#000" filter="url(#day16-a)" xlink:href="#day16-b"/>
    <use fill="#000" fill-opacity=".7" xlink:href="#day16-b"/>
    <use fill="#2D394F" xlink:href="#day16-b"/>
  </g>
</svg>
