<svg xmlns="http://www.w3.org/2000/svg" xmlns:xlink="http://www.w3.org/1999/xlink" width="28" height="26" viewBox="0 0 28 26">
  <defs>
    <path id="day19-b" d="M8.484375,22.3320312 L8.484375,3.11035156 L5.72900391,3.11035156 L3,5.10107422 L3,8.02783203 L5.72900391,6.02392578 L5.72900391,22.3320312 L8.484375,22.3320312 Z M18.453125,22.3320312 C19.2880859,20.6445312 20.0439453,19.1152344 20.7207031,17.7441406 C21.0107422,17.1640625 21.2941895,16.5861816 21.5710449,16.010498 C21.8479004,15.4348145 22.1027832,14.9118652 22.3356934,14.4416504 C22.5686035,13.9714355 22.7619629,13.5737305 22.9157715,13.2485352 C23.0695801,12.9233398 23.1640625,12.7124023 23.1992188,12.6157227 C23.3398438,12.2641602 23.4628906,11.9389648 23.5683594,11.6401367 C23.6738281,11.3413086 23.7683105,11.0380859 23.8518066,10.7304688 C23.9353027,10.4228516 24.0078125,10.0998535 24.0693359,9.76147461 C24.1308594,9.4230957 24.1879883,9.03857422 24.2407227,8.60791016 C24.2758789,8.31787109 24.2670898,7.96850586 24.2143555,7.55981445 C24.1616211,7.15112305 24.0539551,6.72924805 23.8913574,6.29418945 C23.7287598,5.85913086 23.5024414,5.43066406 23.2124023,5.00878906 C22.9223633,4.58691406 22.5576172,4.21777344 22.1181641,3.90136719 C21.6787109,3.58496094 21.1535645,3.34326172 20.5427246,3.17626953 C19.9318848,3.00927734 19.2265625,2.9609375 18.4267578,3.03125 C17.6621094,3.1015625 17.0007324,3.26416016 16.442627,3.51904297 C15.8845215,3.77392578 15.4143066,4.07714844 15.0319824,4.42871094 C14.6496582,4.78027344 14.3398438,5.15600586 14.1025391,5.5559082 C13.8652344,5.95581055 13.6806641,6.33154297 13.5488281,6.68310547 C13.4169922,7.03466797 13.3269043,7.33569336 13.2785645,7.58618164 C13.2302246,7.83666992 13.2016602,7.99267578 13.1928711,8.05419922 C13.175293,8.17724609 13.1643066,8.32666016 13.1599121,8.50244141 C13.1555176,8.67822266 13.1533203,8.85180664 13.1533203,9.02319336 C13.1533203,9.19458008 13.1555176,9.35058594 13.1599121,9.49121094 C13.1643066,9.63183594 13.1665039,9.72851562 13.1665039,9.78125 C13.1665039,9.94824219 13.1950684,10.1789551 13.2521973,10.4733887 C13.3093262,10.7678223 13.4016113,11.0842285 13.5290527,11.4226074 C13.6564941,11.7609863 13.8256836,12.1081543 14.0366211,12.4641113 C14.2475586,12.8200684 14.5112305,13.1430664 14.8276367,13.4331055 C15.144043,13.7231445 15.5197754,13.9648438 15.954834,14.1582031 C16.3898926,14.3515625 16.8974609,14.4570312 17.4775391,14.4746094 C17.8994141,14.4921875 18.270752,14.4855957 18.5915527,14.454834 C18.9123535,14.4240723 19.2001953,14.3339844 19.4550781,14.1845703 C19.2880859,14.4746094 19.0705566,14.8745117 18.8024902,15.3842773 C18.5344238,15.894043 18.246582,16.4521484 17.9389648,17.0585938 C17.6313477,17.6650391 17.3193359,18.2802734 17.0029297,18.9042969 C16.6865234,19.5283203 16.4008789,20.0952148 16.1459961,20.6049805 C15.8911133,21.1147461 15.6845703,21.5300293 15.5263672,21.8508301 C15.3681641,22.1716309 15.293457,22.3320312 15.3022461,22.3320312 L15.3022461,22.3320312 L18.453125,22.3320312 Z M18.8212109,12.0918066 L18.6245117,12.0883789 C17.956543,12.0532227 17.4379883,11.9060059 17.0688477,11.6467285 C16.699707,11.3874512 16.4294434,11.0754395 16.2580566,10.7106934 C16.0866699,10.3459473 15.9833984,9.95703125 15.9482422,9.54394531 C15.9130859,9.13085938 15.8955078,8.75292969 15.8955078,8.41015625 C15.8955078,8.3046875 15.9350586,8.11132812 16.0141602,7.83007812 C16.0932617,7.54882812 16.2338867,7.25878906 16.4360352,6.95996094 C16.6381836,6.66113281 16.9128418,6.38867188 17.2600098,6.14257812 C17.6071777,5.89648438 18.0532227,5.76025391 18.5981445,5.73388672 C19.090332,5.70751953 19.5012207,5.74926758 19.8308105,5.85913086 C20.1604004,5.96899414 20.4306641,6.12060547 20.6416016,6.31396484 C20.8525391,6.50732422 21.0151367,6.73364258 21.1293945,6.99291992 C21.2436523,7.25219727 21.3249512,7.52246094 21.373291,7.80371094 C21.4216309,8.08496094 21.447998,8.36181641 21.4523926,8.63427734 C21.4567871,8.90673828 21.4633789,9.15283203 21.472168,9.37255859 C21.472168,9.47802734 21.4501953,9.61865234 21.40625,9.79443359 C21.3623047,9.97021484 21.2897949,10.161377 21.1887207,10.3679199 C21.0876465,10.5744629 20.9602051,10.7832031 20.8063965,10.9941406 C20.6525879,11.2050781 20.4702148,11.394043 20.2592773,11.5610352 C20.0483398,11.7280273 19.8066406,11.8620605 19.5341797,11.9631348 C19.2617188,12.064209 18.9584961,12.105957 18.6245117,12.0883789 L18.8212109,12.0918066 Z"/>
    <filter id="day19-a" width="132.9%" height="136.2%" x="-16.5%" y="-12.9%" filterUnits="objectBoundingBox">
      <feOffset dy="1" in="SourceAlpha" result="shadowOffsetOuter1"/>
      <feGaussianBlur in="shadowOffsetOuter1" result="shadowBlurOuter1" stdDeviation="1"/>
      <feColorMatrix in="shadowBlurOuter1" values="0 0 0 0 0.000854821203   0 0 0 0 0.168099661   0 0 0 0 0.309386322  0 0 0 0.2 0"/>
    </filter>
  </defs>
  <g fill="none" transform="rotate(-8 13.63 12.666)">
    <use fill="#000" filter="url(#day19-a)" xlink:href="#day19-b"/>
    <use fill="#000" fill-opacity=".7" xlink:href="#day19-b"/>
    <use fill="#2D394F" xlink:href="#day19-b"/>
  </g>
</svg>
