<svg xmlns="http://www.w3.org/2000/svg" xmlns:xlink="http://www.w3.org/1999/xlink" width="112" height="104" viewBox="0 0 112 104">
  <defs>
    <path id="day18-b" d="M33.9375,89.5195312 L33.9375,12.6328125 L22.9160156,12.6328125 L12,20.5957031 L12,32.3027344 L22.9160156,24.2871094 L22.9160156,89.5195312 L33.9375,89.5195312 Z M75.7109375,90.1523438 C82.2851562,90.0820312 87.8398438,87.9199219 92.375,83.6660156 C96.8398438,79.5175781 99.1074219,73.9804688 99.1777344,67.0546875 C99.1074219,59.6367188 96.0839844,53.8710937 90.1074219,49.7578125 C92.3925781,47.7539062 94.2558594,45.4511719 95.6972656,42.8496094 C97.0683594,40.4238281 97.7539062,37.5410156 97.7539062,34.2011719 C97.6835938,27.8027344 95.5917969,22.5117188 91.4785156,18.328125 C87.4003906,14.1796875 82.1445312,12.0703125 75.7109375,12 C69.3828125,12.0703125 64.2148438,14.1796875 60.2070312,18.328125 C55.953125,22.5117188 53.7910156,27.8027344 53.7207031,34.2011719 C53.7207031,37.5410156 54.4765625,40.4238281 55.9882812,42.8496094 C57.2890625,45.4511719 59.0820312,47.7539062 61.3671875,49.7578125 C55.390625,53.8710937 52.3671875,59.6367188 52.296875,67.0546875 C52.3671875,73.9804688 54.7050781,79.5175781 59.3105469,83.6660156 C63.7050781,87.9199219 69.171875,90.0820312 75.7109375,90.1523438 Z M75.7109375,45.0117188 C72.8632812,45.0117188 70.3496094,44.0449219 68.1699219,42.1113281 C65.9550781,40.2480469 64.8125,37.5410156 64.7421875,33.9902344 C64.8125,30.3339844 65.9550781,27.5742188 68.1699219,25.7109375 C70.3496094,23.9179688 72.8632812,23.0214844 75.7109375,23.0214844 C78.6640625,23.0214844 81.2304688,23.9179688 83.4101562,25.7109375 C85.5546875,27.5742188 86.6621094,30.3339844 86.7324219,33.9902344 C86.6621094,37.5410156 85.5546875,40.2480469 83.4101562,42.1113281 C81.2304688,44.0449219 78.6640625,45.0117188 75.7109375,45.0117188 Z M75.7109375,79.1308594 C72.3359375,79.1308594 69.4707031,77.953125 67.1152344,75.5976562 C64.6542969,73.3476562 63.3886719,70.4648438 63.3183594,66.9492188 C63.3886719,63.3632812 64.6542969,60.4453125 67.1152344,58.1953125 C69.4707031,55.9804688 72.3359375,54.8378906 75.7109375,54.7675781 C79.1914062,54.8378906 82.109375,55.9804688 84.4648438,58.1953125 C86.8554688,60.4453125 88.0859375,63.3632812 88.15625,66.9492188 C88.0859375,70.4648438 86.8554688,73.3476562 84.4648438,75.5976562 C82.109375,77.953125 79.1914062,79.1308594 75.7109375,79.1308594 Z"/>
    <filter id="day18-a" width="132.1%" height="135.8%" x="-16.1%" y="-12.8%" filterUnits="objectBoundingBox">
      <feOffset dy="4" in="SourceAlpha" result="shadowOffsetOuter1"/>
      <feGaussianBlur in="shadowOffsetOuter1" result="shadowBlurOuter1" stdDeviation="4"/>
      <feColorMatrix in="shadowBlurOuter1" values="0 0 0 0 0.000854821203   0 0 0 0 0.168099661   0 0 0 0 0.309386322  0 0 0 0.2 0"/>
    </filter>
  </defs>
  <g fill="none" transform="rotate(-8 55.589 51.076)">
    <use fill="#000" filter="url(#day18-a)" xlink:href="#day18-b"/>
    <use fill="#000" fill-opacity=".7" xlink:href="#day18-b"/>
    <use fill="#2D394F" xlink:href="#day18-b"/>
  </g>
</svg>
