<svg xmlns="http://www.w3.org/2000/svg" xmlns:xlink="http://www.w3.org/1999/xlink" width="28" height="26" viewBox="0 0 28 26">
  <defs>
    <path id="day10-b" d="M8.484375,22.3798828 L8.484375,3.15820312 L5.72900391,3.15820312 L3,5.14892578 L3,8.07568359 L5.72900391,6.07177734 L5.72900391,22.3798828 L8.484375,22.3798828 Z M18.9277344,22.5380859 C20.421875,22.5205078 21.6918945,22.0371094 22.737793,21.0878906 C23.8012695,20.1298828 24.3505859,18.7675781 24.3857422,17.0009766 L24.3857422,8.52392578 C24.3505859,6.74853516 23.8012695,5.38183594 22.737793,4.42382812 C21.6918945,3.47460938 20.421875,3 18.9277344,3 C17.4775391,3 16.2294922,3.47460938 15.1835938,4.42382812 C14.0673828,5.38183594 13.5004883,6.74853516 13.4829102,8.52392578 L13.4829102,17.0009766 C13.5004883,18.7675781 14.0673828,20.1298828 15.1835938,21.0878906 C16.2294922,22.0371094 17.4775391,22.5205078 18.9277344,22.5380859 Z M18.9277344,19.7827148 C17.1699219,19.7651367 16.2734375,18.7851562 16.2382812,16.8427734 L16.2382812,8.6953125 C16.2734375,6.77050781 17.1699219,5.79052734 18.9277344,5.75537109 C20.6767578,5.79052734 21.5776367,6.77050781 21.6303711,8.6953125 L21.6303711,16.8427734 C21.5776367,18.7851562 20.6767578,19.7651367 18.9277344,19.7827148 Z"/>
    <filter id="day10-a" width="132.7%" height="135.8%" x="-16.4%" y="-12.8%" filterUnits="objectBoundingBox">
      <feOffset dy="1" in="SourceAlpha" result="shadowOffsetOuter1"/>
      <feGaussianBlur in="shadowOffsetOuter1" result="shadowBlurOuter1" stdDeviation="1"/>
      <feColorMatrix in="shadowBlurOuter1" values="0 0 0 0 0.000854821203   0 0 0 0 0.168099661   0 0 0 0 0.309386322  0 0 0 0.2 0"/>
    </filter>
  </defs>
  <g fill="none" transform="rotate(-8 13.693 12.769)">
    <use fill="#000" filter="url(#day10-a)" xlink:href="#day10-b"/>
    <use fill="#000" fill-opacity=".7" xlink:href="#day10-b"/>
    <use fill="#2D394F" xlink:href="#day10-b"/>
  </g>
</svg>
