<svg xmlns="http://www.w3.org/2000/svg" xmlns:xlink="http://www.w3.org/1999/xlink" width="112" height="104" viewBox="0 0 112 104">
  <defs>
    <path id="day13-b" d="M33.9375,89.5195312 L33.9375,12.6328125 L22.9160156,12.6328125 L12,20.5957031 L12,32.3027344 L22.9160156,24.2871094 L22.9160156,89.5195312 L33.9375,89.5195312 Z M73.0214844,90.1523438 C79.8066406,90.0820312 85.3613281,87.9199219 89.6855469,83.6660156 C94.0800781,79.5175781 96.3125,73.8398438 96.3828125,66.6328125 C96.3828125,63.3984375 95.6972656,60.3046875 94.3261719,57.3515625 C92.8847656,54.3984375 90.546875,51.8671875 87.3125,49.7578125 C90.4765625,47.6132812 92.6738281,45.1699219 93.9042969,42.4277344 C94.9589844,39.6855469 95.4863281,36.8378906 95.4863281,33.8847656 C95.4160156,28.0488281 93.4121094,22.9863281 89.4746094,18.6972656 C85.3613281,14.3027344 79.8066406,12.0703125 72.8105469,12 C67.2910156,12.0703125 62.5449219,14.0390625 58.5722656,17.90625 C54.5292969,21.8085938 52.2265625,26.6074219 51.6640625,32.3027344 L62.6855469,32.3027344 C63.3886719,29.1386719 64.7597656,26.8007812 66.7988281,25.2890625 C68.7324219,23.7773438 70.8769531,23.0214844 73.2324219,23.0214844 C76.5019531,23.0917969 79.1738281,24.1289062 81.2480469,26.1328125 C83.3222656,28.2070312 84.3945312,30.8613281 84.4648438,34.0957031 C84.4648438,37.2949219 83.4277344,39.8964844 81.3535156,41.9003906 C79.2792969,43.9746094 76.3613281,45.0117188 72.5996094,45.0117188 L68.8027344,45.0117188 L68.8027344,54.7675781 L73.4433594,54.7675781 C76.8535156,54.7675781 79.6660156,55.8046875 81.8808594,57.8789062 C84.1308594,60.0234375 85.2910156,63.046875 85.3613281,66.9492188 C85.2910156,70.78125 84.1308594,73.734375 81.8808594,75.8085938 C79.6660156,78.0234375 76.9414062,79.1308594 73.7070312,79.1308594 C70.6835938,79.1308594 68.2578125,78.3046875 66.4296875,76.6523438 C64.6367188,75.0703125 63.2480469,72.9960938 62.2636719,70.4296875 L51.2421875,70.4296875 C52.4375,76.828125 55.0566406,81.7148438 59.0996094,85.0898438 C63.1425781,88.4648438 67.7832031,90.1523438 73.0214844,90.1523438 Z"/>
    <filter id="day13-a" width="133.2%" height="135.8%" x="-16.6%" y="-12.8%" filterUnits="objectBoundingBox">
      <feOffset dy="4" in="SourceAlpha" result="shadowOffsetOuter1"/>
      <feGaussianBlur in="shadowOffsetOuter1" result="shadowBlurOuter1" stdDeviation="4"/>
      <feColorMatrix in="shadowBlurOuter1" values="0 0 0 0 0.000854821203   0 0 0 0 0.168099661   0 0 0 0 0.309386322  0 0 0 0.2 0"/>
    </filter>
  </defs>
  <g fill="none" transform="rotate(-8 54.191 51.076)">
    <use fill="#000" filter="url(#day13-a)" xlink:href="#day13-b"/>
    <use fill="#000" fill-opacity=".7" xlink:href="#day13-b"/>
    <use fill="#2D394F" xlink:href="#day13-b"/>
  </g>
</svg>
