<svg xmlns="http://www.w3.org/2000/svg" xmlns:xlink="http://www.w3.org/1999/xlink" width="112" height="104" viewBox="0 0 112 104">
  <defs>
    <path id="day12-b" d="M33.9375,89.5195312 L33.9375,12.6328125 L22.9160156,12.6328125 L12,20.5957031 L12,32.3027344 L22.9160156,24.2871094 L22.9160156,89.5195312 L33.9375,89.5195312 Z M97.1210938,89.5195312 L97.1210938,78.4980469 L67.7480469,78.4980469 L92.4804688,47.4902344 C95.5742188,43.5527344 97.1210938,39.0527344 97.1210938,33.9902344 C97.0507812,27.6621094 94.9238281,22.4414062 90.7402344,18.328125 C86.6269531,14.1796875 81.265625,12.0703125 74.65625,12 C68.75,12.0703125 63.7753906,14.1445312 59.7324219,18.2226562 C55.7246094,22.40625 53.5800781,27.6972656 53.2988281,34.0957031 L64.2675781,34.0957031 C64.6542969,30.5800781 65.8847656,27.8554688 67.9589844,25.921875 C69.9628906,23.9882812 72.4765625,23.0214844 75.5,23.0214844 C78.9101562,23.0917969 81.546875,24.1992188 83.4101562,26.34375 C85.203125,28.4882812 86.0996094,31.0019531 86.0996094,33.8847656 C86.0996094,34.9746094 85.9589844,36.1347656 85.6777344,37.3652344 C85.2558594,38.6660156 84.4648438,40.0722656 83.3046875,41.5839844 L53.2988281,79.1308594 L53.2988281,89.5195312 L97.1210938,89.5195312 Z"/>
    <filter id="day12-a" width="132.9%" height="136.1%" x="-16.4%" y="-12.9%" filterUnits="objectBoundingBox">
      <feOffset dy="4" in="SourceAlpha" result="shadowOffsetOuter1"/>
      <feGaussianBlur in="shadowOffsetOuter1" result="shadowBlurOuter1" stdDeviation="4"/>
      <feColorMatrix in="shadowBlurOuter1" values="0 0 0 0 0.000854821203   0 0 0 0 0.168099661   0 0 0 0 0.309386322  0 0 0 0.2 0"/>
    </filter>
  </defs>
  <g fill="none" transform="rotate(-8 54.56 50.76)">
    <use fill="#000" filter="url(#day12-a)" xlink:href="#day12-b"/>
    <use fill="#000" fill-opacity=".7" xlink:href="#day12-b"/>
    <use fill="#2D394F" xlink:href="#day12-b"/>
  </g>
</svg>
