<svg xmlns="http://www.w3.org/2000/svg" xmlns:xlink="http://www.w3.org/1999/xlink" width="112" height="104" viewBox="0 0 112 104">
  <defs>
    <path id="day19-b" d="M33.9375,89.328125 L33.9375,12.4414062 L22.9160156,12.4414062 L12,20.4042969 L12,32.1113281 L22.9160156,24.0957031 L22.9160156,89.328125 L33.9375,89.328125 Z M73.8125,89.328125 C77.1523438,82.578125 80.1757813,76.4609375 82.8828125,70.9765625 C84.0429688,68.65625 85.1767578,66.3447266 86.2841797,64.0419922 C87.3916016,61.7392578 88.4111328,59.6474609 89.3427734,57.7666016 C90.2744141,55.8857422 91.0478516,54.2949219 91.6630859,52.9941406 C92.2783203,51.6933594 92.65625,50.8496094 92.796875,50.4628906 C93.359375,49.0566406 93.8515625,47.7558594 94.2734375,46.5605469 C94.6953125,45.3652344 95.0732422,44.1523438 95.4072266,42.921875 C95.7412109,41.6914062 96.03125,40.3994141 96.2773438,39.0458984 C96.5234375,37.6923828 96.7519531,36.1542969 96.9628906,34.4316406 C97.1035156,33.2714844 97.0683594,31.8740234 96.8574219,30.2392578 C96.6464844,28.6044922 96.2158203,26.9169922 95.5654297,25.1767578 C94.9150391,23.4365234 94.0097656,21.7226562 92.8496094,20.0351562 C91.6894531,18.3476562 90.2304688,16.8710938 88.4726563,15.6054688 C86.7148438,14.3398438 84.6142578,13.3730469 82.1708984,12.7050781 C79.7275391,12.0371094 76.90625,11.84375 73.7070313,12.125 C70.6484375,12.40625 68.0029297,13.0566406 65.7705078,14.0761719 C63.5380859,15.0957031 61.6572266,16.3085938 60.1279297,17.7148438 C58.5986328,19.1210938 57.359375,20.6240234 56.4101563,22.2236328 C55.4609375,23.8232422 54.7226563,25.3261719 54.1953125,26.7324219 C53.6679688,28.1386719 53.3076172,29.3427734 53.1142578,30.3447266 C52.9208984,31.3466797 52.8066406,31.9707031 52.7714844,32.2167969 C52.7011719,32.7089844 52.6572266,33.3066406 52.6396484,34.0097656 C52.6220703,34.7128906 52.6132813,35.4072266 52.6132813,36.0927734 C52.6132813,36.7783203 52.6220703,37.4023438 52.6396484,37.9648438 C52.6572266,38.5273438 52.6660156,38.9140625 52.6660156,39.125 C52.6660156,39.7929688 52.7802734,40.7158203 53.0087891,41.8935547 C53.2373047,43.0712891 53.6064453,44.3369141 54.1162109,45.6904297 C54.6259766,47.0439453 55.3027344,48.4326172 56.1464844,49.8564453 C56.9902344,51.2802734 58.0449219,52.5722656 59.3105469,53.7324219 C60.5761719,54.8925781 62.0791016,55.859375 63.8193359,56.6328125 C65.5595703,57.40625 67.5898438,57.828125 69.9101563,57.8984375 C71.5976563,57.96875 73.0830078,57.9423828 74.3662109,57.8193359 C75.6494141,57.6962891 76.8007813,57.3359375 77.8203125,56.7382812 C77.1523438,57.8984375 76.2822266,59.4980469 75.2099609,61.5371094 C74.1376953,63.5761719 72.9863281,65.8085938 71.7558594,68.234375 C70.5253906,70.6601563 69.2773438,73.1210938 68.0117188,75.6171875 C66.7460938,78.1132812 65.6035156,80.3808594 64.5839844,82.4199219 C63.5644531,84.4589844 62.7382813,86.1201172 62.1054688,87.4033203 C61.4726563,88.6865234 61.1738281,89.328125 61.2089844,89.328125 L61.2089844,89.328125 L73.8125,89.328125 Z M75.2848438,48.3672266 L74.4980469,48.3535156 C71.8261719,48.2128906 69.7519531,47.6240234 68.2753906,46.5869141 C66.7988281,45.5498047 65.7177734,44.3017578 65.0322266,42.8427734 C64.3466797,41.3837891 63.9335938,39.828125 63.7929688,38.1757812 C63.6523438,36.5234375 63.5820313,35.0117188 63.5820313,33.640625 C63.5820313,33.21875 63.7402344,32.4453125 64.0566406,31.3203125 C64.3730469,30.1953125 64.9355469,29.0351562 65.7441406,27.8398438 C66.5527344,26.6445312 67.6513672,25.5546875 69.0400391,24.5703125 C70.4287109,23.5859375 72.2128906,23.0410156 74.3925781,22.9355469 C76.3613281,22.8300781 78.0048828,22.9970703 79.3232422,23.4365234 C80.6416016,23.8759766 81.7226563,24.4824219 82.5664063,25.2558594 C83.4101563,26.0292969 84.0605469,26.9345703 84.5175781,27.9716797 C84.9746094,29.0087891 85.2998047,30.0898438 85.4931641,31.2148438 C85.6865234,32.3398438 85.7919922,33.4472656 85.8095703,34.5371094 C85.8271484,35.6269531 85.8535156,36.6113281 85.8886719,37.4902344 C85.8886719,37.9121094 85.8007813,38.4746094 85.625,39.1777344 C85.4492188,39.8808594 85.1591797,40.6455078 84.7548828,41.4716797 C84.3505859,42.2978516 83.8408203,43.1328125 83.2255859,43.9765625 C82.6103516,44.8203125 81.8808594,45.5761719 81.0371094,46.2441406 C80.1933594,46.9121094 79.2265625,47.4482422 78.1367188,47.8525391 C77.046875,48.2568359 75.8339844,48.4238281 74.4980469,48.3535156 L75.2848438,48.3672266 Z"/>
    <filter id="day19-a" width="132.9%" height="136.2%" x="-16.5%" y="-12.9%" filterUnits="objectBoundingBox">
      <feOffset dy="4" in="SourceAlpha" result="shadowOffsetOuter1"/>
      <feGaussianBlur in="shadowOffsetOuter1" result="shadowBlurOuter1" stdDeviation="4"/>
      <feColorMatrix in="shadowBlurOuter1" values="0 0 0 0 0.000854821203   0 0 0 0 0.168099661   0 0 0 0 0.309386322  0 0 0 0.2 0"/>
    </filter>
  </defs>
  <g fill="none" transform="rotate(-8 54.524 50.664)">
    <use fill="#000" filter="url(#day19-a)" xlink:href="#day19-b"/>
    <use fill="#000" fill-opacity=".7" xlink:href="#day19-b"/>
    <use fill="#2D394F" xlink:href="#day19-b"/>
  </g>
</svg>
