<svg xmlns="http://www.w3.org/2000/svg" xmlns:xlink="http://www.w3.org/1999/xlink" width="28" height="26" viewBox="0 0 28 26">
  <defs>
    <path id="day15-b" d="M8.484375,22.2216797 L8.484375,3 L5.72900391,3 L3,4.99072266 L3,7.91748047 L5.72900391,5.91357422 L5.72900391,22.2216797 L8.484375,22.2216797 Z M19.0727539,22.3798828 C20.0395508,22.3623047 20.8745117,22.1381836 21.5776367,21.7075195 C22.2983398,21.2944336 22.8476562,20.8374023 23.2255859,20.3364258 C23.65625,19.8266602 23.9638672,19.2421875 24.1484375,18.5830078 C24.3242188,17.9150391 24.4121094,16.9570312 24.4121094,15.7089844 C24.4121094,14.9003906 24.3857422,14.2192383 24.3330078,13.6655273 C24.2802734,13.1206055 24.1923828,12.6591797 24.0693359,12.28125 C23.8320312,11.5869141 23.4453125,10.9760742 22.9091797,10.4487305 C22.5488281,10.0532227 22.0786133,9.71923828 21.4985352,9.44677734 C20.8833008,9.20068359 20.206543,9.06884766 19.4682617,9.05126953 C18.3168945,9.05126953 17.2929688,9.40283203 16.3964844,10.105957 L16.3964844,5.75537109 L24.0429688,5.75537109 L24.0429688,3 L13.7993164,3 L13.7993164,13.3886719 L16.3964844,13.3886719 C16.7216797,12.7998047 17.0908203,12.3867188 17.5039062,12.1494141 C17.9169922,11.9208984 18.3740234,11.8066406 18.875,11.8066406 C19.4375,11.8066406 19.9077148,11.8857422 20.2856445,12.0439453 C20.6635742,12.2373047 20.9492188,12.496582 21.1425781,12.8217773 C21.5029297,13.5073242 21.6743164,14.3994141 21.6567383,15.4980469 C21.6567383,15.9462891 21.6479492,16.4077148 21.6303711,16.8823242 C21.5952148,17.3657227 21.4985352,17.8139648 21.340332,18.2270508 C21.190918,18.6401367 20.9272461,18.9741211 20.5493164,19.2290039 C20.1538086,19.4926758 19.6264648,19.6245117 18.9672852,19.6245117 C17.4291992,19.6069336 16.5107422,18.8598633 16.2119141,17.3833008 L13.456543,17.3833008 C13.7202148,19.1499023 14.4013672,20.4287109 15.5,21.2197266 C16.5810547,21.9931641 17.7719727,22.3798828 19.0727539,22.3798828 Z"/>
    <filter id="day15-a" width="132.7%" height="136.1%" x="-16.3%" y="-12.9%" filterUnits="objectBoundingBox">
      <feOffset dy="1" in="SourceAlpha" result="shadowOffsetOuter1"/>
      <feGaussianBlur in="shadowOffsetOuter1" result="shadowBlurOuter1" stdDeviation="1"/>
      <feColorMatrix in="shadowBlurOuter1" values="0 0 0 0 0.000854821203   0 0 0 0 0.168099661   0 0 0 0 0.309386322  0 0 0 0.2 0"/>
    </filter>
  </defs>
  <g fill="none" transform="rotate(-8 13.706 12.69)">
    <use fill="#000" filter="url(#day15-a)" xlink:href="#day15-b"/>
    <use fill="#000" fill-opacity=".7" xlink:href="#day15-b"/>
    <use fill="#2D394F" xlink:href="#day15-b"/>
  </g>
</svg>
