<svg xmlns="http://www.w3.org/2000/svg" xmlns:xlink="http://www.w3.org/1999/xlink" width="112" height="104" viewBox="0 0 112 104">
  <defs>
    <path id="day10-b" d="M33.9375,89.5195312 L33.9375,12.6328125 L22.9160156,12.6328125 L12,20.5957031 L12,32.3027344 L22.9160156,24.2871094 L22.9160156,89.5195312 L33.9375,89.5195312 Z M75.7109375,90.1523438 C81.6875,90.0820312 86.7675781,88.1484375 90.9511719,84.3515625 C95.2050781,80.5195312 97.4023438,75.0703125 97.5429688,68.0039062 L97.5429688,34.0957031 C97.4023438,26.9941406 95.2050781,21.5273438 90.9511719,17.6953125 C86.7675781,13.8984375 81.6875,12 75.7109375,12 C69.9101562,12 64.9179688,13.8984375 60.734375,17.6953125 C56.2695312,21.5273438 54.0019531,26.9941406 53.9316406,34.0957031 L53.9316406,68.0039062 C54.0019531,75.0703125 56.2695312,80.5195312 60.734375,84.3515625 C64.9179688,88.1484375 69.9101562,90.0820312 75.7109375,90.1523438 Z M75.7109375,79.1308594 C68.6796875,79.0605469 65.09375,75.140625 64.953125,67.3710938 L64.953125,34.78125 C65.09375,27.0820312 68.6796875,23.1621094 75.7109375,23.0214844 C82.7070312,23.1621094 86.3105469,27.0820312 86.5214844,34.78125 L86.5214844,67.3710938 C86.3105469,75.140625 82.7070312,79.0605469 75.7109375,79.1308594 Z"/>
    <filter id="day10-a" width="132.7%" height="135.8%" x="-16.4%" y="-12.8%" filterUnits="objectBoundingBox">
      <feOffset dy="4" in="SourceAlpha" result="shadowOffsetOuter1"/>
      <feGaussianBlur in="shadowOffsetOuter1" result="shadowBlurOuter1" stdDeviation="4"/>
      <feColorMatrix in="shadowBlurOuter1" values="0 0 0 0 0.000854821203   0 0 0 0 0.168099661   0 0 0 0 0.309386322  0 0 0 0.2 0"/>
    </filter>
  </defs>
  <g fill="none" transform="rotate(-8 54.771 51.076)">
    <use fill="#000" filter="url(#day10-a)" xlink:href="#day10-b"/>
    <use fill="#000" fill-opacity=".7" xlink:href="#day10-b"/>
    <use fill="#2D394F" xlink:href="#day10-b"/>
  </g>
</svg>
