<svg xmlns="http://www.w3.org/2000/svg" xmlns:xlink="http://www.w3.org/1999/xlink" width="28" height="26" viewBox="0 0 28 26">
  <defs>
    <path id="day12-b" d="M8.484375,22.3798828 L8.484375,3.15820312 L5.72900391,3.15820312 L3,5.14892578 L3,8.07568359 L5.72900391,6.07177734 L5.72900391,22.3798828 L8.484375,22.3798828 Z M24.2802734,22.3798828 L24.2802734,19.6245117 L16.9370117,19.6245117 L23.1201172,11.8725586 C23.8935547,10.8881836 24.2802734,9.76318359 24.2802734,8.49755859 C24.2626953,6.91552734 23.730957,5.61035156 22.6850586,4.58203125 C21.6567383,3.54492188 20.3164062,3.01757812 18.6640625,3 C17.1875,3.01757812 15.9438477,3.53613281 14.9331055,4.55566406 C13.9311523,5.6015625 13.3950195,6.92431641 13.324707,8.52392578 L16.0668945,8.52392578 C16.1635742,7.64501953 16.4711914,6.96386719 16.9897461,6.48046875 C17.4907227,5.99707031 18.1191406,5.75537109 18.875,5.75537109 C19.7275391,5.77294922 20.3867188,6.04980469 20.8525391,6.5859375 C21.3007812,7.12207031 21.5249023,7.75048828 21.5249023,8.47119141 C21.5249023,8.74365234 21.4897461,9.03369141 21.4194336,9.34130859 C21.3139648,9.66650391 21.1162109,10.0180664 20.8261719,10.3959961 L13.324707,19.7827148 L13.324707,22.3798828 L24.2802734,22.3798828 Z"/>
    <filter id="day12-a" width="132.9%" height="136.1%" x="-16.4%" y="-12.9%" filterUnits="objectBoundingBox">
      <feOffset dy="1" in="SourceAlpha" result="shadowOffsetOuter1"/>
      <feGaussianBlur in="shadowOffsetOuter1" result="shadowBlurOuter1" stdDeviation="1"/>
      <feColorMatrix in="shadowBlurOuter1" values="0 0 0 0 0.000854821203   0 0 0 0 0.168099661   0 0 0 0 0.309386322  0 0 0 0.2 0"/>
    </filter>
  </defs>
  <g fill="none" transform="rotate(-8 13.64 12.69)">
    <use fill="#000" filter="url(#day12-a)" xlink:href="#day12-b"/>
    <use fill="#000" fill-opacity=".7" xlink:href="#day12-b"/>
    <use fill="#2D394F" xlink:href="#day12-b"/>
  </g>
</svg>
