<svg xmlns="http://www.w3.org/2000/svg" xmlns:xlink="http://www.w3.org/1999/xlink" width="28" height="26" viewBox="0 0 28 26">
  <defs>
    <path id="day13-b" d="M8.484375,22.3798828 L8.484375,3.15820312 L5.72900391,3.15820312 L3,5.14892578 L3,8.07568359 L5.72900391,6.07177734 L5.72900391,22.3798828 L8.484375,22.3798828 Z M18.2553711,22.5380859 C19.9516602,22.5205078 21.340332,21.9799805 22.4213867,20.9165039 C23.5200195,19.8793945 24.078125,18.4599609 24.0957031,16.6582031 C24.0957031,15.8496094 23.9243164,15.0761719 23.581543,14.3378906 C23.2211914,13.5996094 22.6367188,12.9667969 21.828125,12.4394531 C22.6191406,11.9033203 23.168457,11.2924805 23.4760742,10.6069336 C23.7397461,9.92138672 23.871582,9.20947266 23.871582,8.47119141 C23.8540039,7.01220703 23.3530273,5.74658203 22.3686523,4.67431641 C21.340332,3.57568359 19.9516602,3.01757812 18.2026367,3 C16.8227539,3.01757812 15.6362305,3.50976562 14.6430664,4.4765625 C13.6323242,5.45214844 13.0566406,6.65185547 12.9160156,8.07568359 L15.6713867,8.07568359 C15.847168,7.28466797 16.1899414,6.70019531 16.699707,6.32226562 C17.1831055,5.94433594 17.7192383,5.75537109 18.3081055,5.75537109 C19.1254883,5.77294922 19.793457,6.03222656 20.3120117,6.53320312 C20.8305664,7.05175781 21.0986328,7.71533203 21.1162109,8.52392578 C21.1162109,9.32373047 20.8569336,9.97412109 20.3383789,10.4750977 C19.8198242,10.9936523 19.090332,11.2529297 18.1499023,11.2529297 L17.2006836,11.2529297 L17.2006836,13.6918945 L18.3608398,13.6918945 C19.2133789,13.6918945 19.9165039,13.9511719 20.4702148,14.4697266 C21.0327148,15.0058594 21.3227539,15.7617187 21.340332,16.7373047 C21.3227539,17.6953125 21.0327148,18.4335938 20.4702148,18.9521484 C19.9165039,19.5058594 19.2353516,19.7827148 18.4267578,19.7827148 C17.6708984,19.7827148 17.0644531,19.5761719 16.6074219,19.1630859 C16.1591797,18.7675781 15.8120117,18.2490234 15.565918,17.6074219 L12.8105469,17.6074219 C13.109375,19.2070312 13.7641602,20.4287109 14.7749023,21.2724609 C15.7856445,22.1162109 16.9458008,22.5380859 18.2553711,22.5380859 Z"/>
    <filter id="day13-a" width="133.2%" height="135.8%" x="-16.6%" y="-12.8%" filterUnits="objectBoundingBox">
      <feOffset dy="1" in="SourceAlpha" result="shadowOffsetOuter1"/>
      <feGaussianBlur in="shadowOffsetOuter1" result="shadowBlurOuter1" stdDeviation="1"/>
      <feColorMatrix in="shadowBlurOuter1" values="0 0 0 0 0.000854821203   0 0 0 0 0.168099661   0 0 0 0 0.309386322  0 0 0 0.2 0"/>
    </filter>
  </defs>
  <g fill="none" transform="rotate(-8 13.548 12.769)">
    <use fill="#000" filter="url(#day13-a)" xlink:href="#day13-b"/>
    <use fill="#000" fill-opacity=".7" xlink:href="#day13-b"/>
    <use fill="#2D394F" xlink:href="#day13-b"/>
  </g>
</svg>
