<svg xmlns="http://www.w3.org/2000/svg" xmlns:xlink="http://www.w3.org/1999/xlink" width="112" height="104" viewBox="0 0 112 104">
  <defs>
    <path id="day15-b" d="M33.9375,88.8867188 L33.9375,12 L22.9160156,12 L12,19.9628906 L12,31.6699219 L22.9160156,23.6542969 L22.9160156,88.8867188 L33.9375,88.8867188 Z M76.2910156,89.5195312 C80.1582031,89.4492188 83.4980469,88.5527344 86.3105469,86.8300781 C89.1933594,85.1777344 91.390625,83.3496094 92.9023438,81.3457031 C94.625,79.3066406 95.8554688,76.96875 96.59375,74.3320312 C97.296875,71.6601562 97.6484375,67.828125 97.6484375,62.8359375 C97.6484375,59.6015625 97.5429688,56.8769531 97.3320312,54.6621094 C97.1210938,52.4824219 96.7695312,50.6367188 96.2773438,49.125 C95.328125,46.3476562 93.78125,43.9042969 91.6367188,41.7949219 C90.1953125,40.2128906 88.3144531,38.8769531 85.9941406,37.7871094 C83.5332031,36.8027344 80.8261719,36.2753906 77.8730469,36.2050781 C73.2675781,36.2050781 69.171875,37.6113281 65.5859375,40.4238281 L65.5859375,23.0214844 L96.171875,23.0214844 L96.171875,12 L55.1972656,12 L55.1972656,53.5546875 L65.5859375,53.5546875 C66.8867188,51.1992188 68.3632812,49.546875 70.015625,48.5976562 C71.6679688,47.6835938 73.4960938,47.2265625 75.5,47.2265625 C77.75,47.2265625 79.6308594,47.5429688 81.1425781,48.1757812 C82.6542969,48.9492188 83.796875,49.9863281 84.5703125,51.2871094 C86.0117188,54.0292969 86.6972656,57.5976562 86.6269531,61.9921875 C86.6269531,63.7851563 86.5917969,65.6308594 86.5214844,67.5292969 C86.3808594,69.4628906 85.9941406,71.2558594 85.3613281,72.9082031 C84.7636719,74.5605469 83.7089844,75.8964844 82.1972656,76.9160156 C80.6152344,77.9707031 78.5058594,78.4980469 75.8691406,78.4980469 C69.7167969,78.4277344 66.0429688,75.4394531 64.8476562,69.5332031 L53.8261719,69.5332031 C54.8808594,76.5996094 57.6054688,81.7148438 62,84.8789062 C66.3242188,87.9726562 71.0878906,89.5195312 76.2910156,89.5195312 Z"/>
    <filter id="day15-a" width="132.7%" height="136.1%" x="-16.3%" y="-12.9%" filterUnits="objectBoundingBox">
      <feOffset dy="4" in="SourceAlpha" result="shadowOffsetOuter1"/>
      <feGaussianBlur in="shadowOffsetOuter1" result="shadowBlurOuter1" stdDeviation="4"/>
      <feColorMatrix in="shadowBlurOuter1" values="0 0 0 0 0.000854821203   0 0 0 0 0.168099661   0 0 0 0 0.309386322  0 0 0 0.2 0"/>
    </filter>
  </defs>
  <g fill="none" transform="rotate(-8 54.824 50.76)">
    <use fill="#000" filter="url(#day15-a)" xlink:href="#day15-b"/>
    <use fill="#000" fill-opacity=".7" xlink:href="#day15-b"/>
    <use fill="#2D394F" xlink:href="#day15-b"/>
  </g>
</svg>
