<svg xmlns="http://www.w3.org/2000/svg" xmlns:xlink="http://www.w3.org/1999/xlink" width="28" height="26" viewBox="0 0 28 26">
  <defs>
    <path id="day18-b" d="M8.484375,22.3798828 L8.484375,3.15820312 L5.72900391,3.15820312 L3,5.14892578 L3,8.07568359 L5.72900391,6.07177734 L5.72900391,22.3798828 L8.484375,22.3798828 Z M18.9277344,22.5380859 C20.5712891,22.5205078 21.9599609,21.9799805 23.09375,20.9165039 C24.2099609,19.8793945 24.7768555,18.4951172 24.7944336,16.7636719 C24.7768555,14.9091797 24.0209961,13.4677734 22.5268555,12.4394531 C23.0981445,11.9384766 23.5639648,11.362793 23.9243164,10.7124023 C24.2670898,10.105957 24.4384766,9.38525391 24.4384766,8.55029297 C24.4208984,6.95068359 23.8979492,5.62792969 22.8696289,4.58203125 C21.8500977,3.54492188 20.5361328,3.01757812 18.9277344,3 C17.3457031,3.01757812 16.0537109,3.54492188 15.0517578,4.58203125 C13.9882812,5.62792969 13.4477539,6.95068359 13.4301758,8.55029297 C13.4301758,9.38525391 13.6191406,10.105957 13.9970703,10.7124023 C14.3222656,11.362793 14.7705078,11.9384766 15.3417969,12.4394531 C13.8476562,13.4677734 13.0917969,14.9091797 13.0742188,16.7636719 C13.0917969,18.4951172 13.6762695,19.8793945 14.8276367,20.9165039 C15.9262695,21.9799805 17.2929688,22.5205078 18.9277344,22.5380859 Z M18.9277344,11.2529297 C18.2158203,11.2529297 17.5874023,11.0112305 17.0424805,10.527832 C16.4887695,10.0620117 16.203125,9.38525391 16.1855469,8.49755859 C16.203125,7.58349609 16.4887695,6.89355469 17.0424805,6.42773438 C17.5874023,5.97949219 18.2158203,5.75537109 18.9277344,5.75537109 C19.6660156,5.75537109 20.3076172,5.97949219 20.8525391,6.42773438 C21.3886719,6.89355469 21.6655273,7.58349609 21.6831055,8.49755859 C21.6655273,9.38525391 21.3886719,10.0620117 20.8525391,10.527832 C20.3076172,11.0112305 19.6660156,11.2529297 18.9277344,11.2529297 Z M18.9277344,19.7827148 C18.0839844,19.7827148 17.3676758,19.4882812 16.7788086,18.8994141 C16.1635742,18.3369141 15.847168,17.6162109 15.8295898,16.7373047 C15.847168,15.8408203 16.1635742,15.1113281 16.7788086,14.5488281 C17.3676758,13.9951172 18.0839844,13.7094727 18.9277344,13.6918945 C19.7978516,13.7094727 20.5273438,13.9951172 21.1162109,14.5488281 C21.7138672,15.1113281 22.0214844,15.8408203 22.0390625,16.7373047 C22.0214844,17.6162109 21.7138672,18.3369141 21.1162109,18.8994141 C20.5273438,19.4882812 19.7978516,19.7827148 18.9277344,19.7827148 Z"/>
    <filter id="day18-a" width="132.1%" height="135.8%" x="-16.1%" y="-12.8%" filterUnits="objectBoundingBox">
      <feOffset dy="1" in="SourceAlpha" result="shadowOffsetOuter1"/>
      <feGaussianBlur in="shadowOffsetOuter1" result="shadowBlurOuter1" stdDeviation="1"/>
      <feColorMatrix in="shadowBlurOuter1" values="0 0 0 0 0.000854821203   0 0 0 0 0.168099661   0 0 0 0 0.309386322  0 0 0 0.2 0"/>
    </filter>
  </defs>
  <g fill="none" transform="rotate(-8 13.897 12.769)">
    <use fill="#000" filter="url(#day18-a)" xlink:href="#day18-b"/>
    <use fill="#000" fill-opacity=".7" xlink:href="#day18-b"/>
    <use fill="#2D394F" xlink:href="#day18-b"/>
  </g>
</svg>
