<svg xmlns="http://www.w3.org/2000/svg" xmlns:xlink="http://www.w3.org/1999/xlink" width="28" height="26" viewBox="0 0 28 26">
  <defs>
    <path id="day16-b" d="M8.484375,22.4194336 L8.484375,3.19775391 L5.72900391,3.19775391 L3,5.18847656 L3,8.11523437 L5.72900391,6.11132812 L5.72900391,22.4194336 L8.484375,22.4194336 Z M17.2797852,22.40625 C17.8950195,22.5820312 18.6025391,22.6347656 19.4023437,22.5644531 C20.1669922,22.5029297 20.8261719,22.340332 21.3798828,22.0766602 C21.9335937,21.8129883 22.4038086,21.4987793 22.7905273,21.1340332 C23.1772461,20.7692871 23.4892578,20.3825684 23.7265625,19.973877 C23.9638672,19.5651855 24.1462402,19.1828613 24.2736816,18.8269043 C24.401123,18.4709473 24.4890137,18.1633301 24.5373535,17.9040527 C24.5856934,17.6447754 24.6142578,17.484375 24.6230469,17.4228516 C24.6318359,17.2998047 24.6384277,17.1503906 24.6428223,16.9746094 C24.6472168,16.7988281 24.6494141,16.6252441 24.6494141,16.4538574 L24.6494141,16.4538574 L24.6494141,15.6958008 C24.6494141,15.5288086 24.6252441,15.2980957 24.5769043,15.0036621 C24.5285645,14.7092285 24.4428711,14.3928223 24.3198242,14.0544434 C24.1967773,13.7160645 24.0275879,13.3688965 23.8122559,13.0129395 C23.5969238,12.6569824 23.3266602,12.3339844 23.0014648,12.0439453 C22.6762695,11.7539062 22.2873535,11.512207 21.8347168,11.3188477 C21.3820801,11.1254883 20.8525391,11.0200195 20.2460937,11.0024414 C19.8242187,10.9848633 19.4528809,10.9914551 19.1320801,11.0222168 C18.8112793,11.0529785 18.5234375,11.1430664 18.2685547,11.2924805 C18.3916016,11.081543 18.5454102,10.800293 18.7299805,10.4487305 C18.9145508,10.097168 19.1188965,9.70605469 19.3430176,9.27539062 C19.5671387,8.84472656 19.8000488,8.39208984 20.041748,7.91748047 C20.2834473,7.44287109 20.520752,6.97265625 20.7536621,6.50683594 C20.9865723,6.04101562 21.2084961,5.59716797 21.4194336,5.17529297 C21.6303711,4.75341797 21.8149414,4.37988281 21.9731445,4.0546875 C22.1313477,3.72949219 22.2565918,3.47241211 22.348877,3.28344727 C22.4411621,3.09448242 22.4829102,3 22.4741211,3 L22.4741211,3 L19.362793,3 C18.5102539,4.71386719 17.7412109,6.26513672 17.0556641,7.65380859 C16.765625,8.25146484 16.4755859,8.84033203 16.1855469,9.42041016 C15.8955078,10.0004883 15.6340332,10.5322266 15.401123,11.015625 C15.1682129,11.4990234 14.9726562,11.9055176 14.8144531,12.2351074 C14.65625,12.5646973 14.5595703,12.7734375 14.5244141,12.8613281 C14.3837891,13.2128906 14.2607422,13.5380859 14.1552734,13.8369141 C14.0498047,14.1357422 13.9553223,14.4389648 13.8718262,14.746582 C13.7883301,15.0541992 13.7158203,15.3771973 13.6542969,15.7155762 C13.5927734,16.0539551 13.5356445,16.4384766 13.4829102,16.8691406 C13.4477539,17.1591797 13.4587402,17.5107422 13.5158691,17.9238281 C13.572998,18.3369141 13.6872559,18.7675781 13.8586426,19.2158203 C14.0300293,19.6640625 14.2651367,20.1013184 14.5639648,20.5275879 C14.862793,20.9538574 15.2363281,21.3295898 15.6845703,21.6547852 C16.1328125,21.9799805 16.6645508,22.2304687 17.2797852,22.40625 Z M19.1254883,19.7431641 C18.6333008,19.7431641 18.2224121,19.6816406 17.8928223,19.5585937 C17.5632324,19.4355469 17.2929688,19.2773437 17.0820312,19.0839844 C16.8710938,18.890625 16.7084961,18.6687012 16.5942383,18.4182129 C16.4799805,18.1677246 16.3986816,17.9084473 16.3503418,17.6403809 C16.302002,17.3723145 16.2734375,17.104248 16.2646484,16.8361816 C16.2558594,16.5681152 16.2514648,16.3242187 16.2514648,16.1044922 C16.2514648,16.0078125 16.2734375,15.8693848 16.3173828,15.689209 C16.3613281,15.5090332 16.4338379,15.3134766 16.5349121,15.1025391 C16.6359863,14.8916016 16.7634277,14.6784668 16.9172363,14.4631348 C17.0710449,14.2478027 17.253418,14.0566406 17.4643555,13.8896484 C17.675293,13.7226562 17.9169922,13.5908203 18.1894531,13.4941406 C18.4619141,13.3974609 18.7651367,13.3623047 19.0991211,13.3886719 C19.8110352,13.4414062 20.3603516,13.5996094 20.7470703,13.8632812 C21.1337891,14.1269531 21.4128418,14.4411621 21.5842285,14.8059082 C21.7556152,15.1706543 21.8544922,15.5551758 21.8808594,15.9594727 C21.9072266,16.3637695 21.9204102,16.7329102 21.9204102,17.0668945 C21.9204102,17.1459961 21.9072266,17.2668457 21.8808594,17.4294434 C21.8544922,17.592041 21.8039551,17.7744141 21.729248,17.9765625 C21.654541,18.1787109 21.5512695,18.3852539 21.4194336,18.5961914 C21.2875977,18.8071289 21.1184082,18.998291 20.9118652,19.1696777 C20.7053223,19.3410645 20.454834,19.4816895 20.1604004,19.5915527 C19.8659668,19.701416 19.5209961,19.7519531 19.1254883,19.7431641 Z"/>
    <filter id="day16-a" width="132.3%" height="135.7%" x="-16.2%" y="-12.8%" filterUnits="objectBoundingBox">
      <feOffset dy="1" in="SourceAlpha" result="shadowOffsetOuter1"/>
      <feGaussianBlur in="shadowOffsetOuter1" result="shadowBlurOuter1" stdDeviation="1"/>
      <feColorMatrix in="shadowBlurOuter1" values="0 0 0 0 0.000854821203   0 0 0 0 0.168099661   0 0 0 0 0.309386322  0 0 0 0.2 0"/>
    </filter>
  </defs>
  <g fill="none" transform="rotate(-8 13.825 12.797)">
    <use fill="#000" filter="url(#day16-a)" xlink:href="#day16-b"/>
    <use fill="#000" fill-opacity=".7" xlink:href="#day16-b"/>
    <use fill="#2D394F" xlink:href="#day16-b"/>
  </g>
</svg>
