<svg xmlns="http://www.w3.org/2000/svg" xmlns:xlink="http://www.w3.org/1999/xlink" width="112" height="104" viewBox="0 0 112 104">
  <defs>
    <path id="day20-b" d="M48.7736219,89.5195312 L48.7736219,78.4980469 L19.400575,78.4980469 L44.1329969,47.4902344 C47.2267469,43.5527344 48.7736219,39.0527344 48.7736219,33.9902344 C48.7033094,27.6621094 46.5763563,22.4414062 42.3927625,18.328125 C38.2794813,14.1796875 32.9181532,12.0703125 26.3087782,12 C20.4025282,12.0703125 15.4279188,14.1445312 11.38495,18.2226562 C7.37713754,22.40625 5.23260629,27.6972656 4.95135629,34.0957031 L15.9201063,34.0957031 C16.306825,30.5800781 17.5372938,27.8554688 19.6115125,25.921875 C21.6154188,23.9882812 24.1290907,23.0214844 27.1525282,23.0214844 C30.5626844,23.0917969 33.1994032,24.1992188 35.0626844,26.34375 C36.8556532,28.4882812 37.7521375,31.0019531 37.7521375,33.8847656 C37.7521375,34.9746094 37.6115125,36.1347656 37.3302625,37.3652344 C36.9083875,38.6660156 36.1173719,40.0722656 34.9572157,41.5839844 L4.95135629,79.1308594 L4.95135629,89.5195312 L48.7736219,89.5195312 Z M83.2013563,90.1523438 C89.1779188,90.0820312 94.2579969,88.1484375 98.4415907,84.3515625 C102.695497,80.5195312 104.892763,75.0703125 105.033388,68.0039062 L105.033388,34.0957031 C104.892763,26.9941406 102.695497,21.5273438 98.4415907,17.6953125 C94.2579969,13.8984375 89.1779188,12 83.2013563,12 C77.400575,12 72.4083875,13.8984375 68.2247938,17.6953125 C63.75995,21.5273438 61.4923719,26.9941406 61.4220594,34.0957031 L61.4220594,68.0039062 C61.4923719,75.0703125 63.75995,80.5195312 68.2247938,84.3515625 C72.4083875,88.1484375 77.400575,90.0820312 83.2013563,90.1523438 Z M83.2013563,79.1308594 C76.1701063,79.0605469 72.5841688,75.140625 72.4435438,67.3710938 L72.4435438,34.78125 C72.5841688,27.0820312 76.1701063,23.1621094 83.2013563,23.0214844 C90.19745,23.1621094 93.8009657,27.0820312 94.0119032,34.78125 L94.0119032,67.3710938 C93.8009657,75.140625 90.19745,79.0605469 83.2013563,79.1308594 Z"/>
    <filter id="day20-a" width="128%" height="135.8%" x="-14%" y="-12.8%" filterUnits="objectBoundingBox">
      <feOffset dy="4" in="SourceAlpha" result="shadowOffsetOuter1"/>
      <feGaussianBlur in="shadowOffsetOuter1" result="shadowBlurOuter1" stdDeviation="4"/>
      <feColorMatrix in="shadowBlurOuter1" values="0 0 0 0 0.000854821203   0 0 0 0 0.168099661   0 0 0 0 0.309386322  0 0 0 0.2 0"/>
    </filter>
  </defs>
  <g fill="none" transform="rotate(-8 54.992 51.076)">
    <use fill="#000" filter="url(#day20-a)" xlink:href="#day20-b"/>
    <use fill="#000" fill-opacity=".7" xlink:href="#day20-b"/>
    <use fill="#2D394F" xlink:href="#day20-b"/>
  </g>
</svg>
