<svg xmlns="http://www.w3.org/2000/svg" xmlns:xlink="http://www.w3.org/1999/xlink" width="28" height="26" viewBox="0 0 28 26">
  <defs>
    <path id="day24-b" d="M12.188537,22.4034 L12.188537,19.6480289 L4.84527531,19.6480289 L11.0283808,11.8960758 C11.8018183,10.9117008 12.188537,9.78670078 12.188537,8.52107578 C12.1709589,6.93904453 11.6392206,5.63386875 10.5933222,4.60554843 C9.56500188,3.56843906 8.22466985,3.04109531 6.5723261,3.02351718 C5.0957636,3.04109531 3.85211125,3.55965 2.84136906,4.57918125 C1.83941594,5.62507968 1.30328313,6.94783359 1.23297063,8.54744296 L3.97515813,8.54744296 C4.07183781,7.66853671 4.379455,6.98738437 4.89800969,6.50398593 C5.39898625,6.0205875 6.02740422,5.77888828 6.7832636,5.77888828 C7.63580266,5.7964664 8.29498235,6.07332187 8.76080266,6.60945468 C9.20904485,7.1455875 9.43316594,7.77400546 9.43316594,8.49470859 C9.43316594,8.76716953 9.39800969,9.05720859 9.32769719,9.36482578 C9.22222844,9.69002109 9.02447453,10.0415836 8.73443547,10.4195133 L1.23297063,19.806232 L1.23297063,22.4034 L12.188537,22.4034 Z M25.0929297,22.1311708 L25.0929297,19.270331 L26.6222265,19.270331 L26.6222265,16.673163 L25.0929297,16.673163 L25.0929297,11.1492372 L22.3375586,11.1492372 L22.3375586,16.673163 L17.3146093,16.673163 L23.8141211,2.90949112 L20.7423437,2.90949112 L14.3219336,16.673163 L14.3219336,19.270331 L22.3375586,19.270331 L22.3375586,22.1311708 L25.0929297,22.1311708 Z"/>
    <filter id="day24-a" width="127.6%" height="135.9%" x="-13.8%" y="-12.8%" filterUnits="objectBoundingBox">
      <feOffset dy="1" in="SourceAlpha" result="shadowOffsetOuter1"/>
      <feGaussianBlur in="shadowOffsetOuter1" result="shadowBlurOuter1" stdDeviation="1"/>
      <feColorMatrix in="shadowBlurOuter1" values="0 0 0 0 0.000854821203   0 0 0 0 0.168099661   0 0 0 0 0.309386322  0 0 0 0.2 0"/>
    </filter>
  </defs>
  <g fill="none" transform="rotate(-8 13.928 12.656)">
    <use fill="#000" filter="url(#day24-a)" xlink:href="#day24-b"/>
    <use fill="#000" fill-opacity=".7" xlink:href="#day24-b"/>
    <use fill="#2D394F" xlink:href="#day24-b"/>
  </g>
</svg>
