<svg xmlns="http://www.w3.org/2000/svg" xmlns:xlink="http://www.w3.org/1999/xlink" width="28" height="26" viewBox="0 0 28 26">
  <defs>
    <path id="day29-b" d="M12.9555664,22.3798828 L12.9555664,19.6245117 L5.61230469,19.6245117 L11.7954102,11.8725586 C12.5688477,10.8881836 12.9555664,9.76318359 12.9555664,8.49755859 C12.9379883,6.91552734 12.40625,5.61035156 11.3603516,4.58203125 C10.3320313,3.54492188 8.99169922,3.01757812 7.33935547,3 C5.86279297,3.01757812 4.61914063,3.53613281 3.60839844,4.55566406 C2.60644531,5.6015625 2.0703125,6.92431641 2,8.52392578 L4.7421875,8.52392578 C4.83886719,7.64501953 5.14648438,6.96386719 5.66503906,6.48046875 C6.16601563,5.99707031 6.79443359,5.75537109 7.55029297,5.75537109 C8.40283203,5.77294922 9.06201172,6.04980469 9.52783203,6.5859375 C9.97607422,7.12207031 10.2001953,7.75048828 10.2001953,8.47119141 C10.2001953,8.74365234 10.1650391,9.03369141 10.0947266,9.34130859 C9.98925781,9.66650391 9.79150391,10.0180664 9.50146484,10.3959961 L2,19.7827148 L2,22.3798828 L12.9555664,22.3798828 Z M21.0878906,22.3798828 C21.9228516,20.6923828 22.6787109,19.1630859 23.3554688,17.7919922 C23.6455078,17.2119141 23.9289551,16.6340332 24.2058105,16.0583496 C24.482666,15.482666 24.7375488,14.9597168 24.970459,14.489502 C25.2033691,14.0192871 25.3967285,13.621582 25.5505371,13.2963867 C25.7043457,12.9711914 25.7988281,12.7602539 25.8339844,12.6635742 C25.9746094,12.3120117 26.0976563,11.9868164 26.203125,11.6879883 C26.3085938,11.3891602 26.4030762,11.0859375 26.4865723,10.7783203 C26.5700684,10.4707031 26.6425781,10.1477051 26.7041016,9.80932617 C26.765625,9.47094727 26.8227539,9.08642578 26.8754883,8.65576172 C26.9106445,8.36572266 26.9018555,8.01635742 26.8491211,7.60766602 C26.7963867,7.19897461 26.6887207,6.77709961 26.526123,6.34204102 C26.3635254,5.90698242 26.137207,5.47851562 25.847168,5.05664062 C25.5571289,4.63476562 25.1923828,4.265625 24.7529297,3.94921875 C24.3134766,3.6328125 23.7883301,3.39111328 23.1774902,3.22412109 C22.5666504,3.05712891 21.8613281,3.00878906 21.0615234,3.07910156 C20.296875,3.14941406 19.635498,3.31201172 19.0773926,3.56689453 C18.5192871,3.82177734 18.0490723,4.125 17.666748,4.4765625 C17.2844238,4.828125 16.9746094,5.20385742 16.7373047,5.60375977 C16.5,6.00366211 16.3154297,6.37939453 16.1835938,6.73095703 C16.0517578,7.08251953 15.9616699,7.38354492 15.9133301,7.6340332 C15.8649902,7.88452148 15.8364258,8.04052734 15.8276367,8.10205078 C15.8100586,8.22509766 15.7990723,8.37451172 15.7946777,8.55029297 C15.7902832,8.72607422 15.7880859,8.8996582 15.7880859,9.07104492 C15.7880859,9.24243164 15.7902832,9.3984375 15.7946777,9.5390625 C15.7990723,9.6796875 15.8012695,9.77636719 15.8012695,9.82910156 C15.8012695,9.99609375 15.829834,10.2268066 15.8869629,10.5212402 C15.9440918,10.8156738 16.036377,11.1320801 16.1638184,11.470459 C16.2912598,11.8088379 16.4604492,12.1560059 16.6713867,12.5119629 C16.8823242,12.8679199 17.1459961,13.190918 17.4624023,13.480957 C17.7788086,13.7709961 18.154541,14.0126953 18.5895996,14.2060547 C19.0246582,14.3994141 19.5322266,14.5048828 20.1123047,14.5224609 C20.5341797,14.5400391 20.9055176,14.5334473 21.2263184,14.5026855 C21.5471191,14.4719238 21.8349609,14.3818359 22.0898438,14.2324219 C21.9228516,14.5224609 21.7053223,14.9223633 21.4372559,15.4321289 C21.1691895,15.9418945 20.8813477,16.5 20.5737305,17.1064453 C20.2661133,17.7128906 19.9541016,18.328125 19.6376953,18.9521484 C19.3212891,19.5761719 19.0356445,20.1430664 18.7807617,20.652832 C18.5258789,21.1625977 18.3193359,21.5778809 18.1611328,21.8986816 C18.0029297,22.2194824 17.9282227,22.3798828 17.9370117,22.3798828 L17.9370117,22.3798828 L21.0878906,22.3798828 Z M21.4559766,12.1396582 L21.2592773,12.1362305 C20.5913086,12.1010742 20.0727539,11.9538574 19.7036133,11.6945801 C19.3344727,11.4353027 19.064209,11.123291 18.8928223,10.7585449 C18.7214355,10.3937988 18.6181641,10.0048828 18.5830078,9.59179688 C18.5478516,9.17871094 18.5302734,8.80078125 18.5302734,8.45800781 C18.5302734,8.35253906 18.5698242,8.15917969 18.6489258,7.87792969 C18.7280273,7.59667969 18.8686523,7.30664062 19.0708008,7.0078125 C19.2729492,6.70898438 19.5476074,6.43652344 19.8947754,6.19042969 C20.2419434,5.94433594 20.6879883,5.80810547 21.2329102,5.78173828 C21.7250977,5.75537109 22.1359863,5.79711914 22.4655762,5.90698242 C22.795166,6.0168457 23.0654297,6.16845703 23.2763672,6.36181641 C23.4873047,6.55517578 23.6499023,6.78149414 23.7641602,7.04077148 C23.878418,7.30004883 23.9597168,7.5703125 24.0080566,7.8515625 C24.0563965,8.1328125 24.0827637,8.40966797 24.0871582,8.68212891 C24.0915527,8.95458984 24.0981445,9.20068359 24.1069336,9.42041016 C24.1069336,9.52587891 24.0849609,9.66650391 24.0410156,9.84228516 C23.9970703,10.0180664 23.9245605,10.2092285 23.8234863,10.4157715 C23.7224121,10.6223145 23.5949707,10.8310547 23.4411621,11.0419922 C23.2873535,11.2529297 23.1049805,11.4418945 22.894043,11.6088867 C22.6831055,11.7758789 22.4414063,11.9099121 22.1689453,12.0109863 C21.8964844,12.1120605 21.5932617,12.1538086 21.2592773,12.1362305 L21.4559766,12.1396582 Z"/>
    <filter id="day29-a" width="128.1%" height="136.1%" x="-14.1%" y="-12.9%" filterUnits="objectBoundingBox">
      <feOffset dy="1" in="SourceAlpha" result="shadowOffsetOuter1"/>
      <feGaussianBlur in="shadowOffsetOuter1" result="shadowBlurOuter1" stdDeviation="1"/>
      <feColorMatrix in="shadowBlurOuter1" values="0 0 0 0 0.000854821203   0 0 0 0 0.168099661   0 0 0 0 0.309386322  0 0 0 0.2 0"/>
    </filter>
  </defs>
  <g fill="none" transform="rotate(-8 14.448 12.69)">
    <use fill="#000" filter="url(#day29-a)" xlink:href="#day29-b"/>
    <use fill="#000" fill-opacity=".7" xlink:href="#day29-b"/>
    <use fill="#2D394F" xlink:href="#day29-b"/>
  </g>
</svg>
