<svg xmlns="http://www.w3.org/2000/svg" xmlns:xlink="http://www.w3.org/1999/xlink" width="28" height="26" viewBox="0 0 28 26">
  <defs>
    <path id="day21-b" d="M13.9555664,22.3798828 L13.9555664,19.6245117 L6.61230469,19.6245117 L12.7954102,11.8725586 C13.5688477,10.8881836 13.9555664,9.76318359 13.9555664,8.49755859 C13.9379883,6.91552734 13.40625,5.61035156 12.3603516,4.58203125 C11.3320312,3.54492188 9.99169922,3.01757812 8.33935547,3 C6.86279297,3.01757812 5.61914062,3.53613281 4.60839844,4.55566406 C3.60644531,5.6015625 3.0703125,6.92431641 3,8.52392578 L5.7421875,8.52392578 C5.83886719,7.64501953 6.14648438,6.96386719 6.66503906,6.48046875 C7.16601562,5.99707031 7.79443359,5.75537109 8.55029297,5.75537109 C9.40283203,5.77294922 10.0620117,6.04980469 10.527832,6.5859375 C10.9760742,7.12207031 11.2001953,7.75048828 11.2001953,8.47119141 C11.2001953,8.74365234 11.1650391,9.03369141 11.0947266,9.34130859 C10.9892578,9.66650391 10.7915039,10.0180664 10.5014648,10.3959961 L3,19.7827148 L3,22.3798828 L13.9555664,22.3798828 Z M23.0786133,22.3798828 L23.0786133,3.15820312 L20.3232422,3.15820312 L17.5942383,5.14892578 L17.5942383,8.07568359 L20.3232422,6.07177734 L20.3232422,22.3798828 L23.0786133,22.3798828 Z"/>
    <filter id="day21-a" width="134.9%" height="136.1%" x="-17.4%" y="-12.9%" filterUnits="objectBoundingBox">
      <feOffset dy="1" in="SourceAlpha" result="shadowOffsetOuter1"/>
      <feGaussianBlur in="shadowOffsetOuter1" result="shadowBlurOuter1" stdDeviation="1"/>
      <feColorMatrix in="shadowBlurOuter1" values="0 0 0 0 0.000854821203   0 0 0 0 0.168099661   0 0 0 0 0.309386322  0 0 0 0.2 0"/>
    </filter>
  </defs>
  <g fill="none" transform="rotate(-8 13.04 12.69)">
    <use fill="#000" filter="url(#day21-a)" xlink:href="#day21-b"/>
    <use fill="#000" fill-opacity=".7" xlink:href="#day21-b"/>
    <use fill="#2D394F" xlink:href="#day21-b"/>
  </g>
</svg>
