<svg xmlns="http://www.w3.org/2000/svg" xmlns:xlink="http://www.w3.org/1999/xlink" width="112" height="104" viewBox="0 0 112 104">
  <defs>
    <path id="day28-b" d="M48.7656672,89.5195312 L48.7656672,78.4980469 L19.3926203,78.4980469 L44.1250422,47.4902344 C47.2187922,43.5527344 48.7656672,39.0527344 48.7656672,33.9902344 C48.6953547,27.6621094 46.5684016,22.4414062 42.3848078,18.328125 C38.2715266,14.1796875 32.9101985,12.0703125 26.3008235,12 C20.3945735,12.0703125 15.4199641,14.1445312 11.3769953,18.2226562 C7.36918283,22.40625 5.22465158,27.6972656 4.94340158,34.0957031 L15.9121516,34.0957031 C16.2988703,30.5800781 17.5293391,27.8554688 19.6035578,25.921875 C21.6074641,23.9882812 24.121136,23.0214844 27.1445735,23.0214844 C30.5547297,23.0917969 33.1914485,24.1992188 35.0547297,26.34375 C36.8476985,28.4882812 37.7441828,31.0019531 37.7441828,33.8847656 C37.7441828,34.9746094 37.6035578,36.1347656 37.3223078,37.3652344 C36.9004328,38.6660156 36.1094172,40.0722656 34.949261,41.5839844 L4.94340158,79.1308594 L4.94340158,89.5195312 L48.7656672,89.5195312 Z M83.1934016,90.1523438 C89.7676203,90.0820312 95.3223078,87.9199219 99.8574641,83.6660156 C104.322308,79.5175781 106.589886,73.9804688 106.660198,67.0546875 C106.589886,59.6367188 103.566448,53.8710937 97.589886,49.7578125 C99.8750422,47.7539062 101.738323,45.4511719 103.17973,42.8496094 C104.550823,40.4238281 105.23637,37.5410156 105.23637,34.2011719 C105.166058,27.8027344 103.074261,22.5117188 98.9609797,18.328125 C94.8828547,14.1796875 89.6269953,12.0703125 83.1934016,12 C76.8652766,12.0703125 71.6973078,14.1796875 67.6894953,18.328125 C63.4355891,22.5117188 61.2734797,27.8027344 61.2031672,34.2011719 C61.2031672,37.5410156 61.9590266,40.4238281 63.4707453,42.8496094 C64.7715266,45.4511719 66.5644953,47.7539062 68.8496516,49.7578125 C62.8730891,53.8710937 59.8496516,59.6367188 59.7793391,67.0546875 C59.8496516,73.9804688 62.1875422,79.5175781 66.793011,83.6660156 C71.1875422,87.9199219 76.6543391,90.0820312 83.1934016,90.1523438 Z M83.1934016,45.0117188 C80.3457453,45.0117188 77.8320735,44.0449219 75.652386,42.1113281 C73.4375422,40.2480469 72.2949641,37.5410156 72.2246516,33.9902344 C72.2949641,30.3339844 73.4375422,27.5742188 75.652386,25.7109375 C77.8320735,23.9179688 80.3457453,23.0214844 83.1934016,23.0214844 C86.1465266,23.0214844 88.7129328,23.9179688 90.8926203,25.7109375 C93.0371516,27.5742188 94.1445735,30.3339844 94.214886,33.9902344 C94.1445735,37.5410156 93.0371516,40.2480469 90.8926203,42.1113281 C88.7129328,44.0449219 86.1465266,45.0117188 83.1934016,45.0117188 Z M83.1934016,79.1308594 C79.8184016,79.1308594 76.9531672,77.953125 74.5976985,75.5976562 C72.136761,73.3476562 70.871136,70.4648438 70.8008235,66.9492188 C70.871136,63.3632812 72.136761,60.4453125 74.5976985,58.1953125 C76.9531672,55.9804688 79.8184016,54.8378906 83.1934016,54.7675781 C86.6738703,54.8378906 89.5918391,55.9804688 91.9473078,58.1953125 C94.3379328,60.4453125 95.5684016,63.3632812 95.6387141,66.9492188 C95.5684016,70.4648438 94.3379328,73.3476562 91.9473078,75.5976562 C89.5918391,77.953125 86.6738703,79.1308594 83.1934016,79.1308594 Z"/>
    <filter id="day28-a" width="127.5%" height="135.8%" x="-13.8%" y="-12.8%" filterUnits="objectBoundingBox">
      <feOffset dy="4" in="SourceAlpha" result="shadowOffsetOuter1"/>
      <feGaussianBlur in="shadowOffsetOuter1" result="shadowBlurOuter1" stdDeviation="4"/>
      <feColorMatrix in="shadowBlurOuter1" values="0 0 0 0 0.000854821203   0 0 0 0 0.168099661   0 0 0 0 0.309386322  0 0 0 0.2 0"/>
    </filter>
  </defs>
  <g fill="none" transform="rotate(-8 55.802 51.076)">
    <use fill="#000" filter="url(#day28-a)" xlink:href="#day28-b"/>
    <use fill="#000" fill-opacity=".7" xlink:href="#day28-b"/>
    <use fill="#2D394F" xlink:href="#day28-b"/>
  </g>
</svg>
