<svg xmlns="http://www.w3.org/2000/svg" xmlns:xlink="http://www.w3.org/1999/xlink" width="112" height="104" viewBox="0 0 112 104">
  <defs>
    <path id="day22-b" d="M48.7316395,89.5195312 L48.7316395,78.4980469 L19.3585926,78.4980469 L44.0910145,47.4902344 C47.1847645,43.5527344 48.7316395,39.0527344 48.7316395,33.9902344 C48.661327,27.6621094 46.5343739,22.4414062 42.3507801,18.328125 C38.2374989,14.1796875 32.8761708,12.0703125 26.2667958,12 C20.3605458,12.0703125 15.3859364,14.1445312 11.3429676,18.2226562 C7.33515513,22.40625 5.19062388,27.6972656 4.90937388,34.0957031 L15.8781239,34.0957031 C16.2648426,30.5800781 17.4953114,27.8554688 19.5695301,25.921875 C21.5734364,23.9882812 24.0871083,23.0214844 27.1105458,23.0214844 C30.520702,23.0917969 33.1574208,24.1992188 35.020702,26.34375 C36.8136708,28.4882812 37.7101551,31.0019531 37.7101551,33.8847656 C37.7101551,34.9746094 37.5695301,36.1347656 37.2882801,37.3652344 C36.8664051,38.6660156 36.0753895,40.0722656 34.9152333,41.5839844 L4.90937388,79.1308594 L4.90937388,89.5195312 L48.7316395,89.5195312 Z M104.56953,89.5195312 L104.56953,78.4980469 L75.1964833,78.4980469 L99.9289051,47.4902344 C103.022655,43.5527344 104.56953,39.0527344 104.56953,33.9902344 C104.499218,27.6621094 102.372265,22.4414062 98.1886708,18.328125 C94.0753895,14.1796875 88.7140614,12.0703125 82.1046864,12 C76.1984364,12.0703125 71.223827,14.1445312 67.1808583,18.2226562 C63.1730458,22.40625 61.0285145,27.6972656 60.7472645,34.0957031 L71.7160145,34.0957031 C72.1027333,30.5800781 73.333202,27.8554688 75.4074208,25.921875 C77.411327,23.9882812 79.9249989,23.0214844 82.9484364,23.0214844 C86.3585926,23.0917969 88.9953114,24.1992188 90.8585926,26.34375 C92.6515614,28.4882812 93.5480458,31.0019531 93.5480458,33.8847656 C93.5480458,34.9746094 93.4074208,36.1347656 93.1261708,37.3652344 C92.7042958,38.6660156 91.9132801,40.0722656 90.7531239,41.5839844 L60.7472645,79.1308594 L60.7472645,89.5195312 L104.56953,89.5195312 Z"/>
    <filter id="day22-a" width="128.1%" height="136.1%" x="-14%" y="-12.9%" filterUnits="objectBoundingBox">
      <feOffset dy="4" in="SourceAlpha" result="shadowOffsetOuter1"/>
      <feGaussianBlur in="shadowOffsetOuter1" result="shadowBlurOuter1" stdDeviation="4"/>
      <feColorMatrix in="shadowBlurOuter1" values="0 0 0 0 0.000854821203   0 0 0 0 0.168099661   0 0 0 0 0.309386322  0 0 0 0.2 0"/>
    </filter>
  </defs>
  <g fill="none" transform="rotate(-8 54.74 50.76)">
    <use fill="#000" filter="url(#day22-a)" xlink:href="#day22-b"/>
    <use fill="#000" fill-opacity=".7" xlink:href="#day22-b"/>
    <use fill="#2D394F" xlink:href="#day22-b"/>
  </g>
</svg>
