<svg xmlns="http://www.w3.org/2000/svg" xmlns:xlink="http://www.w3.org/1999/xlink" width="112" height="104" viewBox="0 0 112 104">
  <defs>
    <path id="day26-b" d="M48.7842167,89.6777344 L48.7842167,78.65625 L19.4111698,78.65625 L44.1435917,47.6484375 C47.2373417,43.7109375 48.7842167,39.2109375 48.7842167,34.1484375 C48.7139042,27.8203125 46.5869511,22.5996094 42.4033573,18.4863281 C38.2900761,14.3378906 32.928748,12.2285156 26.319373,12.1582031 C20.413123,12.2285156 15.4385136,14.3027344 11.3955448,18.3808594 C7.38773234,22.5644531 5.24320109,27.8554687 4.96195109,34.2539062 L15.9307011,34.2539062 C16.3174198,30.7382812 17.5478886,28.0136719 19.6221073,26.0800781 C21.6260136,24.1464844 24.1396855,23.1796875 27.163123,23.1796875 C30.5732792,23.25 33.209998,24.3574219 35.0732792,26.5019531 C36.866248,28.6464844 37.7627323,31.1601562 37.7627323,34.0429687 C37.7627323,35.1328125 37.6221073,36.2929687 37.3408573,37.5234375 C36.9189823,38.8242187 36.1279667,40.2304687 34.9678105,41.7421875 L4.96195109,79.2890625 L4.96195109,89.6777344 L48.7842167,89.6777344 Z M76.6201542,89.625 C79.0810917,90.328125 81.9111698,90.5390625 85.1103886,90.2578125 C88.1689823,90.0117187 90.8057011,89.3613281 93.0205448,88.3066406 C95.2353886,87.2519531 97.116248,85.9951172 98.663123,84.5361328 C100.209998,83.0771484 101.458045,81.5302734 102.407264,79.8955078 C103.356482,78.2607422 104.085975,76.7314453 104.59574,75.3076172 C105.105506,73.8837891 105.457068,72.6533203 105.650428,71.6162109 C105.843787,70.5791016 105.958045,69.9375 105.993201,69.6914062 C106.028357,69.1992187 106.054725,68.6015625 106.072303,67.8984375 C106.089881,67.1953125 106.09867,66.5009766 106.09867,65.8154297 L106.09867,65.8154297 L106.09867,62.7832031 C106.09867,62.1152344 106.00199,61.1923828 105.808631,60.0146484 C105.615271,58.8369141 105.272498,57.5712891 104.78031,56.2177734 C104.288123,54.8642578 103.611365,53.4755859 102.750037,52.0517578 C101.888709,50.6279297 100.807654,49.3359375 99.506873,48.1757812 C98.2060917,47.015625 96.6504276,46.0488281 94.8398808,45.2753906 C93.0293339,44.5019531 90.9111698,44.0800781 88.4853886,44.0097656 C86.7978886,43.9394531 85.312537,43.9658203 84.0293339,44.0888672 C82.7461308,44.2119141 81.5947636,44.5722656 80.5752323,45.1699219 C81.0674198,44.3261719 81.6826542,43.2011719 82.4209355,41.7949219 C83.1592167,40.3886719 83.9765995,38.8242187 84.8730839,37.1015625 C85.7695683,35.3789062 86.7012089,33.5683594 87.6680058,31.6699219 C88.6348026,29.7714844 89.5840214,27.890625 90.515662,26.0273437 C91.4473026,24.1640625 92.334998,22.3886719 93.178748,20.7011719 C94.022498,19.0136719 94.7607792,17.5195312 95.3935917,16.21875 C96.0264042,14.9179687 96.5273808,13.8896484 96.8965214,13.1337891 C97.265662,12.3779297 97.4326542,12 97.397498,12 L97.397498,12 L84.9521855,12 C81.5420292,18.8554687 78.4658573,25.0605469 75.7236698,30.6152344 C74.5635136,33.0058594 73.4033573,35.3613281 72.2432011,37.6816406 C71.0830448,40.0019531 70.0371464,42.1289062 69.1055058,44.0625 C68.1738651,45.9960937 67.3916386,47.6220703 66.7588261,48.9404297 C66.1260136,50.2587891 65.7392948,51.09375 65.5986698,51.4453125 C65.0361698,52.8515625 64.5439823,54.1523437 64.1221073,55.3476562 C63.7002323,56.5429687 63.3223026,57.7558594 62.9883183,58.9863281 C62.6543339,60.2167969 62.3642948,61.5087891 62.1182011,62.8623047 C61.8721073,64.2158203 61.6435917,65.7539062 61.4326542,67.4765625 C61.2920292,68.6367187 61.3359745,70.0429687 61.5644901,71.6953125 C61.7930058,73.3476562 62.250037,75.0703125 62.9355839,76.8632812 C63.6211308,78.65625 64.5615605,80.4052734 65.756873,82.1103516 C66.9521855,83.8154297 68.4463261,85.3183594 70.2392948,86.6191406 C72.0322636,87.9199219 74.1592167,88.921875 76.6201542,89.625 Z M84.0029667,78.9726562 C82.0342167,78.9726562 80.390662,78.7265625 79.0723026,78.234375 C77.7539433,77.7421875 76.6728886,77.109375 75.8291386,76.3359375 C74.9853886,75.5625 74.334998,74.6748047 73.8779667,73.6728516 C73.4209355,72.6708984 73.0957401,71.6337891 72.9023808,70.5615234 C72.7090214,69.4892578 72.5947636,68.4169922 72.5596073,67.3447266 C72.5244511,66.2724609 72.506873,65.296875 72.506873,64.4179687 C72.506873,64.03125 72.5947636,63.4775391 72.7705448,62.7568359 C72.9463261,62.0361328 73.2363651,61.2539062 73.640662,60.4101562 C74.0449589,59.5664062 74.5547245,58.7138672 75.1699589,57.8525391 C75.7851933,56.9912109 76.5146855,56.2265625 77.3584355,55.5585937 C78.2021855,54.890625 79.1689823,54.3632812 80.2588261,53.9765625 C81.3486698,53.5898437 82.5615605,53.4492187 83.897498,53.5546875 C86.7451542,53.765625 88.9424198,54.3984375 90.4892948,55.453125 C92.0361698,56.5078125 93.1523808,57.7646484 93.8379276,59.2236328 C94.5234745,60.6826172 94.9189823,62.2207031 95.0244511,63.8378906 C95.1299198,65.4550781 95.1826542,66.9316406 95.1826542,68.2675781 C95.1826542,68.5839844 95.1299198,69.0673828 95.0244511,69.7177734 C94.9189823,70.3681641 94.7168339,71.0976562 94.4180058,71.90625 C94.1191776,72.7148437 93.7060917,73.5410156 93.178748,74.3847656 C92.6514042,75.2285156 91.9746464,75.9931641 91.1484745,76.6787109 C90.3223026,77.3642578 89.3203495,77.9267578 88.1426151,78.3662109 C86.9648808,78.8056641 85.584998,79.0078125 84.0029667,78.9726562 Z"/>
    <filter id="day26-a" width="127.7%" height="135.7%" x="-13.8%" y="-12.8%" filterUnits="objectBoundingBox">
      <feOffset dy="4" in="SourceAlpha" result="shadowOffsetOuter1"/>
      <feGaussianBlur in="shadowOffsetOuter1" result="shadowBlurOuter1" stdDeviation="4"/>
      <feColorMatrix in="shadowBlurOuter1" values="0 0 0 0 0.000854821203   0 0 0 0 0.168099661   0 0 0 0 0.309386322  0 0 0 0.2 0"/>
    </filter>
  </defs>
  <g fill="none" transform="rotate(-8 55.53 51.19)">
    <use fill="#000" filter="url(#day26-a)" xlink:href="#day26-b"/>
    <use fill="#000" fill-opacity=".7" xlink:href="#day26-b"/>
    <use fill="#2D394F" xlink:href="#day26-b"/>
  </g>
</svg>
