<svg xmlns="http://www.w3.org/2000/svg" xmlns:xlink="http://www.w3.org/1999/xlink" width="112" height="104" viewBox="0 0 112 104">
  <defs>
    <path id="day25-b" d="M48.7731087,89.5195312 L48.7731087,78.4980469 L19.4000618,78.4980469 L44.1324837,47.4902344 C47.2262337,43.5527344 48.7731087,39.0527344 48.7731087,33.9902344 C48.7027962,27.6621094 46.5758431,22.4414062 42.3922493,18.328125 C38.2789681,14.1796875 32.91764,12.0703125 26.308265,12 C20.402015,12.0703125 15.4274056,14.1445312 11.3844368,18.2226562 C7.37662433,22.40625 5.23209308,27.6972656 4.95084308,34.0957031 L15.9195931,34.0957031 C16.3063118,30.5800781 17.5367806,27.8554688 19.6109993,25.921875 C21.6149056,23.9882812 24.1285775,23.0214844 27.152015,23.0214844 C30.5621712,23.0917969 33.19889,24.1992188 35.0621712,26.34375 C36.85514,28.4882812 37.7516243,31.0019531 37.7516243,33.8847656 C37.7516243,34.9746094 37.6109993,36.1347656 37.3297493,37.3652344 C36.9078743,38.6660156 36.1168587,40.0722656 34.9567025,41.5839844 L4.95084308,79.1308594 L4.95084308,89.5195312 L48.7731087,89.5195312 Z M83.7809212,90.1523438 C87.6481087,90.0820312 90.9879525,89.1855469 93.8004525,87.4628906 C96.683265,85.8105469 98.8805306,83.9824219 100.392249,81.9785156 C102.114906,79.9394531 103.345374,77.6015625 104.083656,74.9648438 C104.786781,72.2929688 105.138343,68.4609375 105.138343,63.46875 C105.138343,60.234375 105.032874,57.5097656 104.821937,55.2949219 C104.610999,53.1152344 104.259437,51.2695312 103.767249,49.7578125 C102.818031,46.9804688 101.271156,44.5371094 99.1266243,42.4277344 C97.6852181,40.8457031 95.8043587,39.5097656 93.4840462,38.4199219 C91.0231087,37.4355469 88.3160775,36.9082031 85.3629525,36.8378906 C80.7574837,36.8378906 76.6617806,38.2441406 73.0758431,41.0566406 L73.0758431,23.6542969 L103.661781,23.6542969 L103.661781,12.6328125 L62.6871712,12.6328125 L62.6871712,54.1875 L73.0758431,54.1875 C74.3766243,51.8320312 75.8531868,50.1796875 77.5055306,49.2304688 C79.1578743,48.3164062 80.9859993,47.859375 82.9899056,47.859375 C85.2399056,47.859375 87.120765,48.1757812 88.6324837,48.8085938 C90.1442025,49.5820312 91.2867806,50.6191406 92.0602181,51.9199219 C93.5016243,54.6621094 94.1871712,58.2304688 94.1168587,62.625 C94.1168587,64.4179688 94.0817025,66.2636719 94.01139,68.1621094 C93.870765,70.0957031 93.4840462,71.8886719 92.8512337,73.5410156 C92.2535775,75.1933594 91.19889,76.5292969 89.6871712,77.5488281 C88.10514,78.6035156 85.995765,79.1308594 83.3590462,79.1308594 C77.2067025,79.0605469 73.5328743,76.0722656 72.3375618,70.1660156 L61.3160775,70.1660156 C62.370765,77.2324219 65.0953743,82.3476562 69.4899056,85.5117188 C73.8141243,88.6054688 78.5777962,90.1523438 83.7809212,90.1523438 Z"/>
    <filter id="day25-a" width="127.9%" height="135.8%" x="-14%" y="-12.8%" filterUnits="objectBoundingBox">
      <feOffset dy="4" in="SourceAlpha" result="shadowOffsetOuter1"/>
      <feGaussianBlur in="shadowOffsetOuter1" result="shadowBlurOuter1" stdDeviation="4"/>
      <feColorMatrix in="shadowBlurOuter1" values="0 0 0 0 0.000854821203   0 0 0 0 0.168099661   0 0 0 0 0.309386322  0 0 0 0.2 0"/>
    </filter>
  </defs>
  <g fill="none" transform="rotate(-8 55.045 51.076)">
    <use fill="#000" filter="url(#day25-a)" xlink:href="#day25-b"/>
    <use fill="#000" fill-opacity=".7" xlink:href="#day25-b"/>
    <use fill="#2D394F" xlink:href="#day25-b"/>
  </g>
</svg>
