<svg xmlns="http://www.w3.org/2000/svg" xmlns:xlink="http://www.w3.org/1999/xlink" width="28" height="26" viewBox="0 0 28 26">
  <defs>
    <path id="day25-b" d="M12.1932772,22.3798828 L12.1932772,19.6245117 L4.85001546,19.6245117 L11.0331209,11.8725586 C11.8065584,10.8881836 12.1932772,9.76318359 12.1932772,8.49755859 C12.1756991,6.91552734 11.6439608,5.61035156 10.5980623,4.58203125 C9.56974202,3.54492188 8.22940999,3.01757812 6.57706624,3 C5.10050374,3.01757812 3.8568514,3.53613281 2.84610921,4.55566406 C1.84415608,5.6015625 1.30802327,6.92431641 1.23771077,8.52392578 L3.97989827,8.52392578 C4.07657796,7.64501953 4.38419515,6.96386719 4.90274983,6.48046875 C5.4037264,5.99707031 6.03214436,5.75537109 6.78800374,5.75537109 C7.6405428,5.77294922 8.29972249,6.04980469 8.7655428,6.5859375 C9.21378499,7.12207031 9.43790608,7.75048828 9.43790608,8.47119141 C9.43790608,8.74365234 9.40274983,9.03369141 9.33243733,9.34130859 C9.22696858,9.66650391 9.02921468,10.0180664 8.73917561,10.3959961 L1.23771077,19.7827148 L1.23771077,22.3798828 L12.1932772,22.3798828 Z M20.9452303,22.5380859 C21.9120272,22.5205078 22.7469881,22.2963867 23.4501131,21.8657227 C24.1708162,21.4526367 24.7201326,20.9956055 25.0980623,20.4946289 C25.5287264,19.9848633 25.8363436,19.4003906 26.0209139,18.7412109 C26.1966951,18.0732422 26.2845858,17.1152344 26.2845858,15.8671875 C26.2845858,15.0585938 26.2582186,14.3774414 26.2054842,13.8237305 C26.1527498,13.2788086 26.0648592,12.8173828 25.9418123,12.4394531 C25.7045076,11.7451172 25.3177889,11.1342773 24.7816561,10.6069336 C24.4213045,10.2114258 23.9510897,9.87744141 23.3710116,9.60498047 C22.7557772,9.35888672 22.0790194,9.22705078 21.3407381,9.20947266 C20.1893709,9.20947266 19.1654451,9.56103516 18.2689608,10.2641602 L18.2689608,5.91357422 L25.9154451,5.91357422 L25.9154451,3.15820312 L15.6717928,3.15820312 L15.6717928,13.546875 L18.2689608,13.546875 C18.5941561,12.9580078 18.9632967,12.5449219 19.3763826,12.3076172 C19.7894686,12.0791016 20.2464998,11.9648438 20.7474764,11.9648438 C21.3099764,11.9648438 21.7801912,12.0439453 22.1581209,12.2021484 C22.5360506,12.3955078 22.8216951,12.6547852 23.0150545,12.9799805 C23.3754061,13.6655273 23.5467928,14.5576172 23.5292147,15.65625 C23.5292147,16.1044922 23.5204256,16.565918 23.5028475,17.0405273 C23.4676912,17.5239258 23.3710116,17.972168 23.2128084,18.3852539 C23.0633944,18.7983398 22.7997225,19.1323242 22.4217928,19.387207 C22.026285,19.6508789 21.4989412,19.7827148 20.8397616,19.7827148 C19.3016756,19.7651367 18.3832186,19.0180664 18.0843905,17.5415039 L15.3290194,17.5415039 C15.5926912,19.3081055 16.2738436,20.5869141 17.3724764,21.3779297 C18.4535311,22.1513672 19.6444491,22.5380859 20.9452303,22.5380859 Z"/>
    <filter id="day25-a" width="127.9%" height="135.8%" x="-14%" y="-12.8%" filterUnits="objectBoundingBox">
      <feOffset dy="1" in="SourceAlpha" result="shadowOffsetOuter1"/>
      <feGaussianBlur in="shadowOffsetOuter1" result="shadowBlurOuter1" stdDeviation="1"/>
      <feColorMatrix in="shadowBlurOuter1" values="0 0 0 0 0.000854821203   0 0 0 0 0.168099661   0 0 0 0 0.309386322  0 0 0 0.2 0"/>
    </filter>
  </defs>
  <g fill="none" transform="rotate(-8 13.761 12.769)">
    <use fill="#000" filter="url(#day25-a)" xlink:href="#day25-b"/>
    <use fill="#000" fill-opacity=".7" xlink:href="#day25-b"/>
    <use fill="#2D394F" xlink:href="#day25-b"/>
  </g>
</svg>
