<svg xmlns="http://www.w3.org/2000/svg" xmlns:xlink="http://www.w3.org/1999/xlink" width="112" height="104" viewBox="0 0 112 104">
  <defs>
    <path id="day23-b" d="M49.5792672,89.5195312 L49.5792672,78.4980469 L20.2062203,78.4980469 L44.9386422,47.4902344 C48.0323922,43.5527344 49.5792672,39.0527344 49.5792672,33.9902344 C49.5089547,27.6621094 47.3820016,22.4414062 43.1984078,18.328125 C39.0851266,14.1796875 33.7237984,12.0703125 27.1144234,12 C21.2081734,12.0703125 16.2335641,14.1445312 12.1905953,18.2226562 C8.18278282,22.40625 6.03825157,27.6972656 5.75700157,34.0957031 L16.7257516,34.0957031 C17.1124703,30.5800781 18.3429391,27.8554688 20.4171578,25.921875 C22.4210641,23.9882812 24.9347359,23.0214844 27.9581734,23.0214844 C31.3683297,23.0917969 34.0050484,24.1992188 35.8683297,26.34375 C37.6612984,28.4882812 38.5577828,31.0019531 38.5577828,33.8847656 C38.5577828,34.9746094 38.4171578,36.1347656 38.1359078,37.3652344 C37.7140328,38.6660156 36.9230172,40.0722656 35.7628609,41.5839844 L5.75700157,79.1308594 L5.75700157,89.5195312 L49.5792672,89.5195312 Z M81.3175484,90.1523438 C88.1027047,90.0820312 93.6573922,87.9199219 97.9816109,83.6660156 C102.376142,79.5175781 104.608564,73.8398438 104.678877,66.6328125 C104.678877,63.3984375 103.99333,60.3046875 102.622236,57.3515625 C101.18083,54.3984375 98.8429391,51.8671875 95.6085641,49.7578125 C98.7726266,47.6132812 100.969892,45.1699219 102.200361,42.4277344 C103.255048,39.6855469 103.782392,36.8378906 103.782392,33.8847656 C103.71208,28.0488281 101.708173,22.9863281 97.7706734,18.6972656 C93.6573922,14.3027344 88.1027047,12.0703125 81.1066109,12 C75.5870797,12.0703125 70.8409859,14.0390625 66.8683297,17.90625 C62.8253609,21.8085938 60.5226266,26.6074219 59.9601266,32.3027344 L70.9816109,32.3027344 C71.6847359,29.1386719 73.0558297,26.8007812 75.0948922,25.2890625 C77.0284859,23.7773438 79.1730172,23.0214844 81.5284859,23.0214844 C84.7980172,23.0917969 87.4698922,24.1289062 89.5441109,26.1328125 C91.6183297,28.2070312 92.6905953,30.8613281 92.7609078,34.0957031 C92.7609078,37.2949219 91.7237984,39.8964844 89.6495797,41.9003906 C87.5753609,43.9746094 84.6573922,45.0117188 80.8956734,45.0117188 L77.0987984,45.0117188 L77.0987984,54.7675781 L81.7394234,54.7675781 C85.1495797,54.7675781 87.9620797,55.8046875 90.1769234,57.8789062 C92.4269234,60.0234375 93.5870797,63.046875 93.6573922,66.9492188 C93.5870797,70.78125 92.4269234,73.734375 90.1769234,75.8085938 C87.9620797,78.0234375 85.2374703,79.1308594 82.0030953,79.1308594 C78.9796578,79.1308594 76.5538766,78.3046875 74.7257516,76.6523438 C72.9327828,75.0703125 71.5441109,72.9960938 70.5597359,70.4296875 L59.5382516,70.4296875 C60.7335641,76.828125 63.3527047,81.7148438 67.3956734,85.0898438 C71.4386422,88.4648438 76.0792672,90.1523438 81.3175484,90.1523438 Z"/>
    <filter id="day23-a" width="128.3%" height="135.8%" x="-14.2%" y="-12.8%" filterUnits="objectBoundingBox">
      <feOffset dy="4" in="SourceAlpha" result="shadowOffsetOuter1"/>
      <feGaussianBlur in="shadowOffsetOuter1" result="shadowBlurOuter1" stdDeviation="4"/>
      <feColorMatrix in="shadowBlurOuter1" values="0 0 0 0 0.000854821203   0 0 0 0 0.168099661   0 0 0 0 0.309386322  0 0 0 0.2 0"/>
    </filter>
  </defs>
  <g fill="none" transform="rotate(-8 55.218 51.076)">
    <use fill="#000" filter="url(#day23-a)" xlink:href="#day23-b"/>
    <use fill="#000" fill-opacity=".7" xlink:href="#day23-b"/>
    <use fill="#2D394F" xlink:href="#day23-b"/>
  </g>
</svg>
