<svg xmlns="http://www.w3.org/2000/svg" xmlns:xlink="http://www.w3.org/1999/xlink" width="28" height="26" viewBox="0 0 28 26">
  <defs>
    <path id="day20-b" d="M12.1934055,22.3798828 L12.1934055,19.6245117 L4.85014376,19.6245117 L11.0332492,11.8725586 C11.8066867,10.8881836 12.1934055,9.76318359 12.1934055,8.49755859 C12.1758274,6.91552734 11.6440891,5.61035156 10.5981906,4.58203125 C9.56987032,3.54492188 8.22953829,3.01757812 6.57719454,3 C5.10063204,3.01757812 3.8569797,3.53613281 2.84623751,4.55566406 C1.84428438,5.6015625 1.30815157,6.92431641 1.23783907,8.52392578 L3.98002657,8.52392578 C4.07670626,7.64501953 4.38432345,6.96386719 4.90287813,6.48046875 C5.4038547,5.99707031 6.03227267,5.75537109 6.78813204,5.75537109 C7.6406711,5.77294922 8.29985079,6.04980469 8.7656711,6.5859375 C9.21391329,7.12207031 9.43803438,7.75048828 9.43803438,8.47119141 C9.43803438,8.74365234 9.40287813,9.03369141 9.33256563,9.34130859 C9.22709688,9.66650391 9.02934298,10.0180664 8.73930392,10.3959961 L1.23783907,19.7827148 L1.23783907,22.3798828 L12.1934055,22.3798828 Z M20.8003391,22.5380859 C22.2944797,22.5205078 23.5644992,22.0371094 24.6103977,21.0878906 C25.6738742,20.1298828 26.2231906,18.7675781 26.2583469,17.0009766 L26.2583469,8.52392578 C26.2231906,6.74853516 25.6738742,5.38183594 24.6103977,4.42382812 C23.5644992,3.47460938 22.2944797,3 20.8003391,3 C19.3501438,3 18.1020969,3.47460938 17.0561984,4.42382812 C15.9399875,5.38183594 15.373093,6.74853516 15.3555149,8.52392578 L15.3555149,17.0009766 C15.373093,18.7675781 15.9399875,20.1298828 17.0561984,21.0878906 C18.1020969,22.0371094 19.3501438,22.5205078 20.8003391,22.5380859 Z M20.8003391,19.7827148 C19.0425266,19.7651367 18.1460422,18.7851562 18.1108859,16.8427734 L18.1108859,8.6953125 C18.1460422,6.77050781 19.0425266,5.79052734 20.8003391,5.75537109 C22.5493625,5.79052734 23.4502414,6.77050781 23.5029758,8.6953125 L23.5029758,16.8427734 C23.4502414,18.7851562 22.5493625,19.7651367 20.8003391,19.7827148 Z"/>
    <filter id="day20-a" width="128%" height="135.8%" x="-14%" y="-12.8%" filterUnits="objectBoundingBox">
      <feOffset dy="1" in="SourceAlpha" result="shadowOffsetOuter1"/>
      <feGaussianBlur in="shadowOffsetOuter1" result="shadowBlurOuter1" stdDeviation="1"/>
      <feColorMatrix in="shadowBlurOuter1" values="0 0 0 0 0.000854821203   0 0 0 0 0.168099661   0 0 0 0 0.309386322  0 0 0 0.2 0"/>
    </filter>
  </defs>
  <g fill="none" transform="rotate(-8 13.748 12.769)">
    <use fill="#000" filter="url(#day20-a)" xlink:href="#day20-b"/>
    <use fill="#000" fill-opacity=".7" xlink:href="#day20-b"/>
    <use fill="#2D394F" xlink:href="#day20-b"/>
  </g>
</svg>
