<svg xmlns="http://www.w3.org/2000/svg" xmlns:xlink="http://www.w3.org/1999/xlink" width="28" height="26" viewBox="0 0 28 26">
  <defs>
    <path id="day22-b" d="M12.1829099,22.3798828 L12.1829099,19.6245117 L4.83964816,19.6245117 L11.0227536,11.8725586 C11.7961911,10.8881836 12.1829099,9.76318359 12.1829099,8.49755859 C12.1653318,6.91552734 11.6335935,5.61035156 10.587695,4.58203125 C9.55937472,3.54492188 8.21904269,3.01757812 6.56669894,3 C5.09013644,3.01757812 3.84648409,3.53613281 2.83574191,4.55566406 C1.83378878,5.6015625 1.29765597,6.92431641 1.22734347,8.52392578 L3.96953097,8.52392578 C4.06621066,7.64501953 4.37382784,6.96386719 4.89238253,6.48046875 C5.39335909,5.99707031 6.02177706,5.75537109 6.77763644,5.75537109 C7.6301755,5.77294922 8.28935519,6.04980469 8.7551755,6.5859375 C9.20341769,7.12207031 9.42753878,7.75048828 9.42753878,8.47119141 C9.42753878,8.74365234 9.39238253,9.03369141 9.32207003,9.34130859 C9.21660128,9.66650391 9.01884738,10.0180664 8.72880831,10.3959961 L1.22734347,19.7827148 L1.22734347,22.3798828 L12.1829099,22.3798828 Z M26.1423825,22.3798828 L26.1423825,19.6245117 L18.7991208,19.6245117 L24.9822263,11.8725586 C25.7556638,10.8881836 26.1423825,9.76318359 26.1423825,8.49755859 C26.1248044,6.91552734 25.5930661,5.61035156 24.5471677,4.58203125 C23.5188474,3.54492188 22.1785153,3.01757812 20.5261716,3 C19.0496091,3.01757812 17.8059568,3.53613281 16.7952146,4.55566406 C15.7932614,5.6015625 15.2571286,6.92431641 15.1868161,8.52392578 L17.9290036,8.52392578 C18.0256833,7.64501953 18.3333005,6.96386719 18.8518552,6.48046875 C19.3528318,5.99707031 19.9812497,5.75537109 20.7371091,5.75537109 C21.5896482,5.77294922 22.2488278,6.04980469 22.7146482,6.5859375 C23.1628903,7.12207031 23.3870114,7.75048828 23.3870114,8.47119141 C23.3870114,8.74365234 23.3518552,9.03369141 23.2815427,9.34130859 C23.1760739,9.66650391 22.97832,10.0180664 22.688281,10.3959961 L15.1868161,19.7827148 L15.1868161,22.3798828 L26.1423825,22.3798828 Z"/>
    <filter id="day22-a" width="128.1%" height="136.1%" x="-14%" y="-12.9%" filterUnits="objectBoundingBox">
      <feOffset dy="1" in="SourceAlpha" result="shadowOffsetOuter1"/>
      <feGaussianBlur in="shadowOffsetOuter1" result="shadowBlurOuter1" stdDeviation="1"/>
      <feColorMatrix in="shadowBlurOuter1" values="0 0 0 0 0.000854821203   0 0 0 0 0.168099661   0 0 0 0 0.309386322  0 0 0 0.2 0"/>
    </filter>
  </defs>
  <g fill="none" transform="rotate(-8 13.685 12.69)">
    <use fill="#000" filter="url(#day22-a)" xlink:href="#day22-b"/>
    <use fill="#000" fill-opacity=".7" xlink:href="#day22-b"/>
    <use fill="#2D394F" xlink:href="#day22-b"/>
  </g>
</svg>
