<svg xmlns="http://www.w3.org/2000/svg" xmlns:xlink="http://www.w3.org/1999/xlink" width="112" height="104" viewBox="0 0 112 104">
  <defs>
    <path id="day29-b" d="M51.8222656,89.5195312 L51.8222656,78.4980469 L22.4492188,78.4980469 L47.1816406,47.4902344 C50.2753906,43.5527344 51.8222656,39.0527344 51.8222656,33.9902344 C51.7519531,27.6621094 49.625,22.4414062 45.4414063,18.328125 C41.328125,14.1796875 35.9667969,12.0703125 29.3574219,12 C23.4511719,12.0703125 18.4765625,14.1445312 14.4335938,18.2226562 C10.4257813,22.40625 8.28125,27.6972656 8,34.0957031 L18.96875,34.0957031 C19.3554688,30.5800781 20.5859375,27.8554688 22.6601563,25.921875 C24.6640625,23.9882812 27.1777344,23.0214844 30.2011719,23.0214844 C33.6113281,23.0917969 36.2480469,24.1992188 38.1113281,26.34375 C39.9042969,28.4882812 40.8007813,31.0019531 40.8007813,33.8847656 C40.8007813,34.9746094 40.6601563,36.1347656 40.3789063,37.3652344 C39.9570313,38.6660156 39.1660156,40.0722656 38.0058594,41.5839844 L8,79.1308594 L8,89.5195312 L51.8222656,89.5195312 Z M84.3515625,89.5195312 C87.6914063,82.7695312 90.7148438,76.6523438 93.421875,71.1679688 C94.5820313,68.8476562 95.7158203,66.5361328 96.8232422,64.2333984 C97.9306641,61.9306641 98.9501953,59.8388672 99.8818359,57.9580078 C100.813477,56.0771484 101.586914,54.4863281 102.202148,53.1855469 C102.817383,51.8847656 103.195313,51.0410156 103.335938,50.6542969 C103.898438,49.2480469 104.390625,47.9472656 104.8125,46.7519531 C105.234375,45.5566406 105.612305,44.34375 105.946289,43.1132812 C106.280273,41.8828125 106.570313,40.5908203 106.816406,39.2373047 C107.0625,37.8837891 107.291016,36.3457031 107.501953,34.6230469 C107.642578,33.4628906 107.607422,32.0654297 107.396484,30.4306641 C107.185547,28.7958984 106.754883,27.1083984 106.104492,25.3681641 C105.454102,23.6279297 104.548828,21.9140625 103.388672,20.2265625 C102.228516,18.5390625 100.769531,17.0625 99.0117188,15.796875 C97.2539063,14.53125 95.1533203,13.5644531 92.7099609,12.8964844 C90.2666016,12.2285156 87.4453125,12.0351562 84.2460938,12.3164062 C81.1875,12.5976562 78.5419922,13.2480469 76.3095703,14.2675781 C74.0771484,15.2871094 72.1962891,16.5 70.6669922,17.90625 C69.1376953,19.3125 67.8984375,20.8154297 66.9492188,22.4150391 C66,24.0146484 65.2617188,25.5175781 64.734375,26.9238281 C64.2070313,28.3300781 63.8466797,29.5341797 63.6533203,30.5361328 C63.4599609,31.5380859 63.3457031,32.1621094 63.3105469,32.4082031 C63.2402344,32.9003906 63.1962891,33.4980469 63.1787109,34.2011719 C63.1611328,34.9042969 63.1523438,35.5986328 63.1523438,36.2841797 C63.1523438,36.9697266 63.1611328,37.59375 63.1787109,38.15625 C63.1962891,38.71875 63.2050781,39.1054688 63.2050781,39.3164062 C63.2050781,39.984375 63.3193359,40.9072266 63.5478516,42.0849609 C63.7763672,43.2626953 64.1455078,44.5283203 64.6552734,45.8818359 C65.1650391,47.2353516 65.8417969,48.6240234 66.6855469,50.0478516 C67.5292969,51.4716797 68.5839844,52.7636719 69.8496094,53.9238281 C71.1152344,55.0839844 72.6181641,56.0507812 74.3583984,56.8242188 C76.0986328,57.5976562 78.1289063,58.0195312 80.4492188,58.0898438 C82.1367188,58.1601563 83.6220703,58.1337891 84.9052734,58.0107422 C86.1884766,57.8876953 87.3398438,57.5273438 88.359375,56.9296875 C87.6914063,58.0898438 86.8212891,59.6894531 85.7490234,61.7285156 C84.6767578,63.7675781 83.5253906,66 82.2949219,68.4257812 C81.0644531,70.8515625 79.8164063,73.3125 78.5507813,75.8085938 C77.2851563,78.3046875 76.1425781,80.5722656 75.1230469,82.6113281 C74.1035156,84.6503906 73.2773438,86.3115234 72.6445313,87.5947266 C72.0117188,88.8779297 71.7128906,89.5195312 71.7480469,89.5195312 L71.7480469,89.5195312 L84.3515625,89.5195312 Z M85.8239063,48.5586328 L85.0371094,48.5449219 C82.3652344,48.4042969 80.2910156,47.8154297 78.8144531,46.7783203 C77.3378906,45.7412109 76.2568359,44.4931641 75.5712891,43.0341797 C74.8857422,41.5751953 74.4726563,40.0195312 74.3320313,38.3671875 C74.1914063,36.7148438 74.1210938,35.203125 74.1210938,33.8320312 C74.1210938,33.4101562 74.2792969,32.6367188 74.5957031,31.5117188 C74.9121094,30.3867188 75.4746094,29.2265625 76.2832031,28.03125 C77.0917969,26.8359375 78.1904297,25.7460938 79.5791016,24.7617188 C80.9677734,23.7773438 82.7519531,23.2324219 84.9316406,23.1269531 C86.9003906,23.0214844 88.5439453,23.1884766 89.8623047,23.6279297 C91.1806641,24.0673828 92.2617188,24.6738281 93.1054688,25.4472656 C93.9492188,26.2207031 94.5996094,27.1259766 95.0566406,28.1630859 C95.5136719,29.2001953 95.8388672,30.28125 96.0322266,31.40625 C96.2255859,32.53125 96.3310547,33.6386719 96.3486328,34.7285156 C96.3662109,35.8183594 96.3925781,36.8027344 96.4277344,37.6816406 C96.4277344,38.1035156 96.3398438,38.6660156 96.1640625,39.3691406 C95.9882813,40.0722656 95.6982422,40.8369141 95.2939453,41.6630859 C94.8896484,42.4892578 94.3798828,43.3242188 93.7646484,44.1679688 C93.1494141,45.0117188 92.4199219,45.7675781 91.5761719,46.4355469 C90.7324219,47.1035156 89.765625,47.6396484 88.6757813,48.0439453 C87.5859375,48.4482422 86.3730469,48.6152344 85.0371094,48.5449219 L85.8239063,48.5586328 Z"/>
    <filter id="day29-a" width="128.1%" height="136.1%" x="-14.1%" y="-12.9%" filterUnits="objectBoundingBox">
      <feOffset dy="4" in="SourceAlpha" result="shadowOffsetOuter1"/>
      <feGaussianBlur in="shadowOffsetOuter1" result="shadowBlurOuter1" stdDeviation="4"/>
      <feColorMatrix in="shadowBlurOuter1" values="0 0 0 0 0.000854821203   0 0 0 0 0.168099661   0 0 0 0 0.309386322  0 0 0 0.2 0"/>
    </filter>
  </defs>
  <g fill="none" transform="rotate(-8 57.793 50.76)">
    <use fill="#000" filter="url(#day29-a)" xlink:href="#day29-b"/>
    <use fill="#000" fill-opacity=".7" xlink:href="#day29-b"/>
    <use fill="#2D394F" xlink:href="#day29-b"/>
  </g>
</svg>
