<svg xmlns="http://www.w3.org/2000/svg" xmlns:xlink="http://www.w3.org/1999/xlink" width="28" height="26" viewBox="0 0 28 26">
  <defs>
    <path id="day27-b" d="M12.1805363,22.3798828 L12.1805363,19.6245117 L4.83727457,19.6245117 L11.02038,11.8725586 C11.7938175,10.8881836 12.1805363,9.76318359 12.1805363,8.49755859 C12.1629582,6.91552734 11.6312199,5.61035156 10.5853214,4.58203125 C9.55700114,3.54492188 8.2166691,3.01757812 6.56432535,3 C5.08776285,3.01757812 3.84411051,3.53613281 2.83336832,4.55566406 C1.8314152,5.6015625 1.29528239,6.92431641 1.22496989,8.52392578 L3.96715739,8.52392578 C4.06383707,7.64501953 4.37145426,6.96386719 4.89000895,6.48046875 C5.39098551,5.99707031 6.01940348,5.75537109 6.77526285,5.75537109 C7.62780192,5.77294922 8.2869816,6.04980469 8.75280192,6.5859375 C9.2010441,7.12207031 9.4251652,7.75048828 9.4251652,8.47119141 C9.4251652,8.74365234 9.39000895,9.03369141 9.31969645,9.34130859 C9.2142277,9.66650391 9.01647379,10.0180664 8.72643473,10.3959961 L1.22496989,19.7827148 L1.22496989,22.3798828 L12.1805363,22.3798828 Z M20.1151066,22.3798828 L26.6278019,5.91357422 L26.6278019,3.15820312 L15.6854191,3.15820312 L15.6854191,8.6953125 L18.4407902,8.6953125 L18.4407902,5.91357422 L23.542841,5.91357422 L17.0433293,22.3798828 L20.1151066,22.3798828 Z"/>
    <filter id="day27-a" width="127.6%" height="136.1%" x="-13.8%" y="-12.9%" filterUnits="objectBoundingBox">
      <feOffset dy="1" in="SourceAlpha" result="shadowOffsetOuter1"/>
      <feGaussianBlur in="shadowOffsetOuter1" result="shadowBlurOuter1" stdDeviation="1"/>
      <feColorMatrix in="shadowBlurOuter1" values="0 0 0 0 0.000854821203   0 0 0 0 0.168099661   0 0 0 0 0.309386322  0 0 0 0.2 0"/>
    </filter>
  </defs>
  <g fill="none" transform="rotate(-8 13.926 12.69)">
    <use fill="#000" filter="url(#day27-a)" xlink:href="#day27-b"/>
    <use fill="#000" fill-opacity=".7" xlink:href="#day27-b"/>
    <use fill="#2D394F" xlink:href="#day27-b"/>
  </g>
</svg>
