<svg xmlns="http://www.w3.org/2000/svg" xmlns:xlink="http://www.w3.org/1999/xlink" width="112" height="104" viewBox="0 0 112 104">
  <defs>
    <path id="day2-b" d="M79.8222656,89.5195312 L79.8222656,78.4980469 L50.4492188,78.4980469 L75.1816406,47.4902344 C78.2753906,43.5527344 79.8222656,39.0527344 79.8222656,33.9902344 C79.7519531,27.6621094 77.625,22.4414062 73.4414062,18.328125 C69.328125,14.1796875 63.9667969,12.0703125 57.3574219,12 C51.4511719,12.0703125 46.4765625,14.1445312 42.4335938,18.2226562 C38.4257812,22.40625 36.28125,27.6972656 36,34.0957031 L46.96875,34.0957031 C47.3554688,30.5800781 48.5859375,27.8554688 50.6601562,25.921875 C52.6640625,23.9882812 55.1777344,23.0214844 58.2011719,23.0214844 C61.6113281,23.0917969 64.2480469,24.1992188 66.1113281,26.34375 C67.9042969,28.4882812 68.8007812,31.0019531 68.8007812,33.8847656 C68.8007812,34.9746094 68.6601562,36.1347656 68.3789062,37.3652344 C67.9570312,38.6660156 67.1660156,40.0722656 66.0058594,41.5839844 L36,79.1308594 L36,89.5195312 L79.8222656,89.5195312 Z"/>
    <filter id="day2-a" width="163.9%" height="136.1%" x="-31.9%" y="-12.9%" filterUnits="objectBoundingBox">
      <feOffset dy="4" in="SourceAlpha" result="shadowOffsetOuter1"/>
      <feGaussianBlur in="shadowOffsetOuter1" result="shadowBlurOuter1" stdDeviation="4"/>
      <feColorMatrix in="shadowBlurOuter1" values="0 0 0 0 0.000854821203   0 0 0 0 0.168099661   0 0 0 0 0.309386322  0 0 0 0.2 0"/>
    </filter>
  </defs>
  <g fill="none" transform="rotate(-8 57.911 50.76)">
    <use fill="#000" filter="url(#day2-a)" xlink:href="#day2-b"/>
    <use fill="#000" fill-opacity=".7" xlink:href="#day2-b"/>
    <use fill="#2D394F" xlink:href="#day2-b"/>
  </g>
</svg>
