<svg xmlns="http://www.w3.org/2000/svg" xmlns:xlink="http://www.w3.org/1999/xlink" width="28" height="26" viewBox="0 0 28 26">
  <defs>
    <path id="day2-b" d="M19.9555664,22.3798828 L19.9555664,19.6245117 L12.6123047,19.6245117 L18.7954102,11.8725586 C19.5688477,10.8881836 19.9555664,9.76318359 19.9555664,8.49755859 C19.9379883,6.91552734 19.40625,5.61035156 18.3603516,4.58203125 C17.3320312,3.54492188 15.9916992,3.01757812 14.3393555,3 C12.862793,3.01757812 11.6191406,3.53613281 10.6083984,4.55566406 C9.60644531,5.6015625 9.0703125,6.92431641 9,8.52392578 L11.7421875,8.52392578 C11.8388672,7.64501953 12.1464844,6.96386719 12.6650391,6.48046875 C13.1660156,5.99707031 13.7944336,5.75537109 14.550293,5.75537109 C15.402832,5.77294922 16.0620117,6.04980469 16.527832,6.5859375 C16.9760742,7.12207031 17.2001953,7.75048828 17.2001953,8.47119141 C17.2001953,8.74365234 17.1650391,9.03369141 17.0947266,9.34130859 C16.9892578,9.66650391 16.7915039,10.0180664 16.5014648,10.3959961 L9,19.7827148 L9,22.3798828 L19.9555664,22.3798828 Z"/>
    <filter id="day2-a" width="163.9%" height="136.1%" x="-31.9%" y="-12.9%" filterUnits="objectBoundingBox">
      <feOffset dy="1" in="SourceAlpha" result="shadowOffsetOuter1"/>
      <feGaussianBlur in="shadowOffsetOuter1" result="shadowBlurOuter1" stdDeviation="1"/>
      <feColorMatrix in="shadowBlurOuter1" values="0 0 0 0 0.000854821203   0 0 0 0 0.168099661   0 0 0 0 0.309386322  0 0 0 0.2 0"/>
    </filter>
  </defs>
  <g fill="none" transform="rotate(-8 14.478 12.69)">
    <use fill="#000" filter="url(#day2-a)" xlink:href="#day2-b"/>
    <use fill="#000" fill-opacity=".7" xlink:href="#day2-b"/>
    <use fill="#2D394F" xlink:href="#day2-b"/>
  </g>
</svg>
