<svg xmlns="http://www.w3.org/2000/svg" xmlns:xlink="http://www.w3.org/1999/xlink" width="112" height="104" viewBox="0 0 112 104">
  <defs>
    <path id="day27-b" d="M48.7221452,89.5195312 L48.7221452,78.4980469 L19.3490983,78.4980469 L44.0815202,47.4902344 C47.1752702,43.5527344 48.7221452,39.0527344 48.7221452,33.9902344 C48.6518327,27.6621094 46.5248795,22.4414062 42.3412858,18.328125 C38.2280045,14.1796875 32.8666764,12.0703125 26.2573014,12 C20.3510514,12.0703125 15.376442,14.1445312 11.3334733,18.2226562 C7.32566079,22.40625 5.18112954,27.6972656 4.89987954,34.0957031 L15.8686295,34.0957031 C16.2553483,30.5800781 17.485817,27.8554688 19.5600358,25.921875 C21.563942,23.9882812 24.0776139,23.0214844 27.1010514,23.0214844 C30.5112077,23.0917969 33.1479264,24.1992188 35.0112077,26.34375 C36.8041764,28.4882812 37.7006608,31.0019531 37.7006608,33.8847656 C37.7006608,34.9746094 37.5600358,36.1347656 37.2787858,37.3652344 C36.8569108,38.6660156 36.0658952,40.0722656 34.9057389,41.5839844 L4.89987954,79.1308594 L4.89987954,89.5195312 L48.7221452,89.5195312 Z M80.4604264,89.5195312 L106.511208,23.6542969 L106.511208,12.6328125 L62.7416764,12.6328125 L62.7416764,34.78125 L73.7631608,34.78125 L73.7631608,23.6542969 L94.1713639,23.6542969 L68.173317,89.5195312 L80.4604264,89.5195312 Z"/>
    <filter id="day27-a" width="127.6%" height="136.1%" x="-13.8%" y="-12.9%" filterUnits="objectBoundingBox">
      <feOffset dy="4" in="SourceAlpha" result="shadowOffsetOuter1"/>
      <feGaussianBlur in="shadowOffsetOuter1" result="shadowBlurOuter1" stdDeviation="4"/>
      <feColorMatrix in="shadowBlurOuter1" values="0 0 0 0 0.000854821203   0 0 0 0 0.168099661   0 0 0 0 0.309386322  0 0 0 0.2 0"/>
    </filter>
  </defs>
  <g fill="none" transform="rotate(-8 55.706 50.76)">
    <use fill="#000" filter="url(#day27-a)" xlink:href="#day27-b"/>
    <use fill="#000" fill-opacity=".7" xlink:href="#day27-b"/>
    <use fill="#2D394F" xlink:href="#day27-b"/>
  </g>
</svg>
