<svg xmlns="http://www.w3.org/2000/svg" xmlns:xlink="http://www.w3.org/1999/xlink" width="28" height="26" viewBox="0 0 28 26">
  <defs>
    <path id="day23-b" d="M12.3948168,22.3798828 L12.3948168,19.6245117 L5.05155508,19.6245117 L11.2346605,11.8725586 C12.008098,10.8881836 12.3948168,9.76318359 12.3948168,8.49755859 C12.3772387,6.91552734 11.8455004,5.61035156 10.799602,4.58203125 C9.77128164,3.54492188 8.43094961,3.01757812 6.77860586,3 C5.30204336,3.01757812 4.05839102,3.53613281 3.04764883,4.55566406 C2.0456957,5.6015625 1.50956289,6.92431641 1.43925039,8.52392578 L4.18143789,8.52392578 C4.27811758,7.64501953 4.58573477,6.96386719 5.10428945,6.48046875 C5.60526602,5.99707031 6.23368399,5.75537109 6.98954336,5.75537109 C7.84208242,5.77294922 8.50126211,6.04980469 8.96708242,6.5859375 C9.41532461,7.12207031 9.6394457,7.75048828 9.6394457,8.47119141 C9.6394457,8.74365234 9.60428945,9.03369141 9.53397695,9.34130859 C9.4285082,9.66650391 9.2307543,10.0180664 8.94071524,10.3959961 L1.43925039,19.7827148 L1.43925039,22.3798828 L12.3948168,22.3798828 Z M20.3293871,22.5380859 C22.0256762,22.5205078 23.414348,21.9799805 24.4954027,20.9165039 C25.5940355,19.8793945 26.152141,18.4599609 26.1697191,16.6582031 C26.1697191,15.8496094 25.9983324,15.0761719 25.655559,14.3378906 C25.2952074,13.5996094 24.7107348,12.9667969 23.902141,12.4394531 C24.6931566,11.9033203 25.242473,11.2924805 25.5500902,10.6069336 C25.8137621,9.92138672 25.945598,9.20947266 25.945598,8.47119141 C25.9280199,7.01220703 25.4270434,5.74658203 24.4426684,4.67431641 C23.414348,3.57568359 22.0256762,3.01757812 20.2766527,3 C18.8967699,3.01757812 17.7102465,3.50976562 16.7170824,4.4765625 C15.7063402,5.45214844 15.1306566,6.65185547 14.9900316,8.07568359 L17.7454027,8.07568359 C17.921184,7.28466797 18.2639574,6.70019531 18.773723,6.32226562 C19.2571215,5.94433594 19.7932543,5.75537109 20.3821215,5.75537109 C21.1995043,5.77294922 21.867473,6.03222656 22.3860277,6.53320312 C22.9045824,7.05175781 23.1726488,7.71533203 23.190227,8.52392578 C23.190227,9.32373047 22.9309496,9.97412109 22.4123949,10.4750977 C21.8938402,10.9936523 21.164348,11.2529297 20.2239184,11.2529297 L19.2746996,11.2529297 L19.2746996,13.6918945 L20.4348559,13.6918945 C21.2873949,13.6918945 21.9905199,13.9511719 22.5442309,14.4697266 C23.1067309,15.0058594 23.3967699,15.7617187 23.414348,16.7373047 C23.3967699,17.6953125 23.1067309,18.4335938 22.5442309,18.9521484 C21.9905199,19.5058594 21.3093676,19.7827148 20.5007738,19.7827148 C19.7449145,19.7827148 19.1384691,19.5761719 18.6814379,19.1630859 C18.2331957,18.7675781 17.8860277,18.2490234 17.639934,17.6074219 L14.8845629,17.6074219 C15.183391,19.2070312 15.8381762,20.4287109 16.8489184,21.2724609 C17.8596605,22.1162109 19.0198168,22.5380859 20.3293871,22.5380859 Z"/>
    <filter id="day23-a" width="128.3%" height="135.8%" x="-14.2%" y="-12.8%" filterUnits="objectBoundingBox">
      <feOffset dy="1" in="SourceAlpha" result="shadowOffsetOuter1"/>
      <feGaussianBlur in="shadowOffsetOuter1" result="shadowBlurOuter1" stdDeviation="1"/>
      <feColorMatrix in="shadowBlurOuter1" values="0 0 0 0 0.000854821203   0 0 0 0 0.168099661   0 0 0 0 0.309386322  0 0 0 0.2 0"/>
    </filter>
  </defs>
  <g fill="none" transform="rotate(-8 13.804 12.769)">
    <use fill="#000" filter="url(#day23-a)" xlink:href="#day23-b"/>
    <use fill="#000" fill-opacity=".7" xlink:href="#day23-b"/>
    <use fill="#2D394F" xlink:href="#day23-b"/>
  </g>
</svg>
