<svg xmlns="http://www.w3.org/2000/svg" xmlns:xlink="http://www.w3.org/1999/xlink" width="112" height="104" viewBox="0 0 112 104">
  <defs>
    <path id="day24-b" d="M48.7541481,89.6136 L48.7541481,78.5921156 L19.3811013,78.5921156 L44.1135231,47.5843031 C47.2072731,43.6468031 48.7541481,39.1468031 48.7541481,34.0843031 C48.6838356,27.7561781 46.5568825,22.535475 42.3732888,18.4221937 C38.2600075,14.2737562 32.8986794,12.1643812 26.2893044,12.0940687 C20.3830544,12.1643812 15.408445,14.2386 11.3654763,18.316725 C7.35766376,22.5003187 5.21313251,27.7913344 4.93188251,34.1897719 L15.9006325,34.1897719 C16.2873513,30.6741469 17.51782,27.9495375 19.5920388,26.0159437 C21.595945,24.08235 24.1096169,23.1155531 27.1330544,23.1155531 C30.5432106,23.1858656 33.1799294,24.2932875 35.0432106,26.4378187 C36.8361794,28.58235 37.7326638,31.0960219 37.7326638,33.9788344 C37.7326638,35.0686781 37.5920388,36.2288344 37.3107888,37.4593031 C36.8889138,38.7600844 36.0978981,40.1663344 34.9377419,41.6780531 L4.93188251,79.2249281 L4.93188251,89.6136 L48.7541481,89.6136 Z M100.371719,88.5246832 L100.371719,77.0813239 L106.488906,77.0813239 L106.488906,66.692652 L100.371719,66.692652 L100.371719,44.5969489 L89.3502342,44.5969489 L89.3502342,66.692652 L69.2584374,66.692652 L95.2564842,11.6379645 L82.9693749,11.6379645 L57.2877342,66.692652 L57.2877342,77.0813239 L89.3502342,77.0813239 L89.3502342,88.5246832 L100.371719,88.5246832 Z"/>
    <filter id="day24-a" width="127.6%" height="135.9%" x="-13.8%" y="-12.8%" filterUnits="objectBoundingBox">
      <feOffset dy="4" in="SourceAlpha" result="shadowOffsetOuter1"/>
      <feGaussianBlur in="shadowOffsetOuter1" result="shadowBlurOuter1" stdDeviation="4"/>
      <feColorMatrix in="shadowBlurOuter1" values="0 0 0 0 0.000854821203   0 0 0 0 0.168099661   0 0 0 0 0.309386322  0 0 0 0.2 0"/>
    </filter>
  </defs>
  <g fill="none" transform="rotate(-8 55.71 50.626)">
    <use fill="#000" filter="url(#day24-a)" xlink:href="#day24-b"/>
    <use fill="#000" fill-opacity=".7" xlink:href="#day24-b"/>
    <use fill="#2D394F" xlink:href="#day24-b"/>
  </g>
</svg>
