<svg xmlns="http://www.w3.org/2000/svg" xmlns:xlink="http://www.w3.org/1999/xlink" width="112" height="104" viewBox="0 0 112 104">
  <defs>
    <path id="day21-b" d="M55.8222656,89.5195312 L55.8222656,78.4980469 L26.4492188,78.4980469 L51.1816406,47.4902344 C54.2753906,43.5527344 55.8222656,39.0527344 55.8222656,33.9902344 C55.7519531,27.6621094 53.625,22.4414062 49.4414062,18.328125 C45.328125,14.1796875 39.9667969,12.0703125 33.3574219,12 C27.4511719,12.0703125 22.4765625,14.1445312 18.4335938,18.2226562 C14.4257812,22.40625 12.28125,27.6972656 12,34.0957031 L22.96875,34.0957031 C23.3554688,30.5800781 24.5859375,27.8554688 26.6601562,25.921875 C28.6640625,23.9882812 31.1777344,23.0214844 34.2011719,23.0214844 C37.6113281,23.0917969 40.2480469,24.1992188 42.1113281,26.34375 C43.9042969,28.4882812 44.8007812,31.0019531 44.8007812,33.8847656 C44.8007812,34.9746094 44.6601562,36.1347656 44.3789062,37.3652344 C43.9570312,38.6660156 43.1660156,40.0722656 42.0058594,41.5839844 L12,79.1308594 L12,89.5195312 L55.8222656,89.5195312 Z M92.3144531,89.5195312 L92.3144531,12.6328125 L81.2929688,12.6328125 L70.3769531,20.5957031 L70.3769531,32.3027344 L81.2929688,24.2871094 L81.2929688,89.5195312 L92.3144531,89.5195312 Z"/>
    <filter id="day21-a" width="134.9%" height="136.1%" x="-17.4%" y="-12.9%" filterUnits="objectBoundingBox">
      <feOffset dy="4" in="SourceAlpha" result="shadowOffsetOuter1"/>
      <feGaussianBlur in="shadowOffsetOuter1" result="shadowBlurOuter1" stdDeviation="4"/>
      <feColorMatrix in="shadowBlurOuter1" values="0 0 0 0 0.000854821203   0 0 0 0 0.168099661   0 0 0 0 0.309386322  0 0 0 0.2 0"/>
    </filter>
  </defs>
  <g fill="none" transform="rotate(-8 52.157 50.76)">
    <use fill="#000" filter="url(#day21-a)" xlink:href="#day21-b"/>
    <use fill="#000" fill-opacity=".7" xlink:href="#day21-b"/>
    <use fill="#2D394F" xlink:href="#day21-b"/>
  </g>
</svg>
