<svg xmlns="http://www.w3.org/2000/svg" xmlns:xlink="http://www.w3.org/1999/xlink" width="28" height="26" viewBox="0 0 28 26">
  <defs>
    <path id="day28-b" d="M12.1914168,22.3798828 L12.1914168,19.6245117 L4.84815508,19.6245117 L11.0312606,11.8725586 C11.8046981,10.8881836 12.1914168,9.76318359 12.1914168,8.49755859 C12.1738387,6.91552734 11.6421004,5.61035156 10.596202,4.58203125 C9.56788164,3.54492188 8.22754961,3.01757812 6.57520586,3 C5.09864336,3.01757812 3.85499102,3.53613281 2.84424883,4.55566406 C1.84229571,5.6015625 1.30616289,6.92431641 1.23585039,8.52392578 L3.97803789,8.52392578 C4.07471758,7.64501953 4.38233477,6.96386719 4.90088946,6.48046875 C5.40186602,5.99707031 6.03028399,5.75537109 6.78614336,5.75537109 C7.63868243,5.77294922 8.29786211,6.04980469 8.76368243,6.5859375 C9.21192461,7.12207031 9.43604571,7.75048828 9.43604571,8.47119141 C9.43604571,8.74365234 9.40088946,9.03369141 9.33057696,9.34130859 C9.22510821,9.66650391 9.0273543,10.0180664 8.73731524,10.3959961 L1.23585039,19.7827148 L1.23585039,22.3798828 L12.1914168,22.3798828 Z M20.7983504,22.5380859 C22.4419051,22.5205078 23.830577,21.9799805 24.964366,20.9165039 C26.080577,19.8793945 26.6474715,18.4951172 26.6650496,16.7636719 C26.6474715,14.9091797 25.8916121,13.4677734 24.3974715,12.4394531 C24.9687606,11.9384766 25.4345809,11.362793 25.7949324,10.7124023 C26.1377059,10.105957 26.3090926,9.38525391 26.3090926,8.55029297 C26.2915145,6.95068359 25.7685652,5.62792969 24.7402449,4.58203125 C23.7207137,3.54492188 22.4067488,3.01757812 20.7983504,3 C19.2163191,3.01757812 17.924327,3.54492188 16.9223738,4.58203125 C15.8588973,5.62792969 15.3183699,6.95068359 15.3007918,8.55029297 C15.3007918,9.38525391 15.4897566,10.105957 15.8676863,10.7124023 C16.1928816,11.362793 16.6411238,11.9384766 17.2124129,12.4394531 C15.7182723,13.4677734 14.9624129,14.9091797 14.9448348,16.7636719 C14.9624129,18.4951172 15.5468856,19.8793945 16.6982527,20.9165039 C17.7968856,21.9799805 19.1635848,22.5205078 20.7983504,22.5380859 Z M20.7983504,11.2529297 C20.0864363,11.2529297 19.4580184,11.0112305 18.9130965,10.527832 C18.3593856,10.0620117 18.073741,9.38525391 18.0561629,8.49755859 C18.073741,7.58349609 18.3593856,6.89355469 18.9130965,6.42773438 C19.4580184,5.97949219 20.0864363,5.75537109 20.7983504,5.75537109 C21.5366316,5.75537109 22.1782332,5.97949219 22.7231551,6.42773438 C23.2592879,6.89355469 23.5361434,7.58349609 23.5537215,8.49755859 C23.5361434,9.38525391 23.2592879,10.0620117 22.7231551,10.527832 C22.1782332,11.0112305 21.5366316,11.2529297 20.7983504,11.2529297 Z M20.7983504,19.7827148 C19.9546004,19.7827148 19.2382918,19.4882812 18.6494246,18.8994141 C18.0341902,18.3369141 17.717784,17.6162109 17.7002059,16.7373047 C17.717784,15.8408203 18.0341902,15.1113281 18.6494246,14.5488281 C19.2382918,13.9951172 19.9546004,13.7094727 20.7983504,13.6918945 C21.6684676,13.7094727 22.3979598,13.9951172 22.986827,14.5488281 C23.5844832,15.1113281 23.8921004,15.8408203 23.9096785,16.7373047 C23.8921004,17.6162109 23.5844832,18.3369141 22.986827,18.8994141 C22.3979598,19.4882812 21.6684676,19.7827148 20.7983504,19.7827148 Z"/>
    <filter id="day28-a" width="127.5%" height="135.8%" x="-13.8%" y="-12.8%" filterUnits="objectBoundingBox">
      <feOffset dy="1" in="SourceAlpha" result="shadowOffsetOuter1"/>
      <feGaussianBlur in="shadowOffsetOuter1" result="shadowBlurOuter1" stdDeviation="1"/>
      <feColorMatrix in="shadowBlurOuter1" values="0 0 0 0 0.000854821203   0 0 0 0 0.168099661   0 0 0 0 0.309386322  0 0 0 0.2 0"/>
    </filter>
  </defs>
  <g fill="none" transform="rotate(-8 13.95 12.769)">
    <use fill="#000" filter="url(#day28-a)" xlink:href="#day28-b"/>
    <use fill="#000" fill-opacity=".7" xlink:href="#day28-b"/>
    <use fill="#2D394F" xlink:href="#day28-b"/>
  </g>
</svg>
