<svg xmlns="http://www.w3.org/2000/svg" xmlns:xlink="http://www.w3.org/1999/xlink" width="28" height="26" viewBox="0 0 28 26">
  <defs>
    <path id="day26-b" d="M12.1960542,22.4194336 L12.1960542,19.6640625 L4.85279246,19.6640625 L11.0358979,11.9121094 C11.8093354,10.9277344 12.1960542,9.80273437 12.1960542,8.53710937 C12.1784761,6.95507812 11.6467378,5.64990234 10.6008393,4.62158203 C9.57251902,3.58447266 8.23218699,3.05712891 6.57984324,3.03955078 C5.10328074,3.05712891 3.8596284,3.57568359 2.84888621,4.59521484 C1.84693308,5.64111328 1.31080027,6.96386719 1.24048777,8.56347656 L3.98267527,8.56347656 C4.07935496,7.68457031 4.38697215,7.00341797 4.90552683,6.52001953 C5.4065034,6.03662109 6.03492137,5.79492187 6.79078074,5.79492187 C7.6433198,5.8125 8.30249949,6.08935547 8.7683198,6.62548828 C9.21656199,7.16162109 9.44068308,7.79003906 9.44068308,8.51074219 C9.44068308,8.78320312 9.40552683,9.07324219 9.33521433,9.38085937 C9.22974558,9.70605469 9.03199168,10.0576172 8.74195262,10.4355469 L1.24048777,19.8222656 L1.24048777,22.4194336 L12.1960542,22.4194336 Z M19.1550386,22.40625 C19.7702729,22.5820312 20.4777925,22.6347656 21.2775971,22.5644531 C22.0422456,22.5029297 22.7014253,22.340332 23.2551362,22.0766602 C23.8088471,21.8129883 24.279062,21.4987793 24.6657807,21.1340332 C25.0524995,20.7692871 25.3645112,20.3825684 25.6018159,19.973877 C25.8391206,19.5651855 26.0214936,19.1828613 26.148935,18.8269043 C26.2763764,18.4709473 26.3642671,18.1633301 26.4126069,17.9040527 C26.4609468,17.6447754 26.4895112,17.484375 26.4983003,17.4228516 C26.5070893,17.2998047 26.5136811,17.1503906 26.5180757,16.9746094 C26.5224702,16.7988281 26.5246675,16.6252441 26.5246675,16.4538574 L26.5246675,16.4538574 L26.5246675,15.6958008 C26.5246675,15.5288086 26.5004975,15.2980957 26.4521577,15.0036621 C26.4038178,14.7092285 26.3181245,14.3928223 26.1950776,14.0544434 C26.0720307,13.7160645 25.9028413,13.3688965 25.6875093,13.0129395 C25.4721772,12.6569824 25.2019136,12.3339844 24.8767182,12.0439453 C24.5515229,11.7539062 24.1626069,11.512207 23.7099702,11.3188477 C23.2573335,11.1254883 22.7277925,11.0200195 22.1213471,11.0024414 C21.6994721,10.9848633 21.3281343,10.9914551 21.0073335,11.0222168 C20.6865327,11.0529785 20.3986909,11.1430664 20.1438081,11.2924805 C20.266855,11.081543 20.4206636,10.800293 20.6052339,10.4487305 C20.7898042,10.097168 20.9941499,9.70605469 21.218271,9.27539062 C21.4423921,8.84472656 21.6753022,8.39208984 21.9170014,7.91748047 C22.1587007,7.44287109 22.3960053,6.97265625 22.6289155,6.50683594 C22.8618257,6.04101562 23.0837495,5.59716797 23.294687,5.17529297 C23.5056245,4.75341797 23.6901948,4.37988281 23.8483979,4.0546875 C24.0066011,3.72949219 24.1318452,3.47241211 24.2241303,3.28344727 C24.3164155,3.09448242 24.3581636,3 24.3493745,3 L24.3493745,3 L21.2380464,3 C20.3855073,4.71386719 19.6164643,6.26513672 18.9309175,7.65380859 C18.6408784,8.25146484 18.3508393,8.84033203 18.0608003,9.42041016 C17.7707612,10.0004883 17.5092866,10.5322266 17.2763764,11.015625 C17.0434663,11.4990234 16.8479096,11.9055176 16.6897065,12.2351074 C16.5315034,12.5646973 16.4348237,12.7734375 16.3996675,12.8613281 C16.2590425,13.2128906 16.1359956,13.5380859 16.0305268,13.8369141 C15.9250581,14.1357422 15.8305757,14.4389648 15.7470796,14.746582 C15.6635835,15.0541992 15.5910737,15.3771973 15.5295503,15.7155762 C15.4680268,16.0539551 15.4108979,16.4384766 15.3581636,16.8691406 C15.3230073,17.1591797 15.3339936,17.5107422 15.3911225,17.9238281 C15.4482514,18.3369141 15.5625093,18.7675781 15.733896,19.2158203 C15.9052827,19.6640625 16.1403901,20.1013184 16.4392182,20.5275879 C16.7380464,20.9538574 17.1115815,21.3295898 17.5598237,21.6547852 C18.0080659,21.9799805 18.5398042,22.2304687 19.1550386,22.40625 Z M21.0007417,19.7431641 C20.5085542,19.7431641 20.0976655,19.6816406 19.7680757,19.5585937 C19.4384858,19.4355469 19.1682221,19.2773437 18.9572846,19.0839844 C18.7463471,18.890625 18.5837495,18.6687012 18.4694917,18.4182129 C18.3552339,18.1677246 18.273935,17.9084473 18.2255952,17.6403809 C18.1772553,17.3723145 18.1486909,17.104248 18.1399018,16.8361816 C18.1311128,16.5681152 18.1267182,16.3242187 18.1267182,16.1044922 C18.1267182,16.0078125 18.1486909,15.8693848 18.1926362,15.689209 C18.2365815,15.5090332 18.3090913,15.3134766 18.4101655,15.1025391 C18.5112397,14.8916016 18.6386811,14.6784668 18.7924897,14.4631348 C18.9462983,14.2478027 19.1286714,14.0566406 19.3396089,13.8896484 C19.5505464,13.7226562 19.7922456,13.5908203 20.0647065,13.4941406 C20.3371675,13.3974609 20.6403901,13.3623047 20.9743745,13.3886719 C21.6862886,13.4414062 22.235605,13.5996094 22.6223237,13.8632812 C23.0090425,14.1269531 23.2880952,14.4411621 23.4594819,14.8059082 C23.6308686,15.1706543 23.7297456,15.5551758 23.7561128,15.9594727 C23.78248,16.3637695 23.7956636,16.7329102 23.7956636,17.0668945 C23.7956636,17.1459961 23.78248,17.2668457 23.7561128,17.4294434 C23.7297456,17.592041 23.6792085,17.7744141 23.6045014,17.9765625 C23.5297944,18.1787109 23.4265229,18.3852539 23.294687,18.5961914 C23.1628511,18.8071289 22.9936616,18.998291 22.7871186,19.1696777 C22.5805757,19.3410645 22.3300874,19.4816895 22.0356538,19.5915527 C21.7412202,19.701416 21.3962495,19.7519531 21.0007417,19.7431641 Z"/>
    <filter id="day26-a" width="127.7%" height="135.7%" x="-13.8%" y="-12.8%" filterUnits="objectBoundingBox">
      <feOffset dy="1" in="SourceAlpha" result="shadowOffsetOuter1"/>
      <feGaussianBlur in="shadowOffsetOuter1" result="shadowBlurOuter1" stdDeviation="1"/>
      <feColorMatrix in="shadowBlurOuter1" values="0 0 0 0 0.000854821203   0 0 0 0 0.168099661   0 0 0 0 0.309386322  0 0 0 0.2 0"/>
    </filter>
  </defs>
  <g fill="none" transform="rotate(-8 13.883 12.797)">
    <use fill="#000" filter="url(#day26-a)" xlink:href="#day26-b"/>
    <use fill="#000" fill-opacity=".7" xlink:href="#day26-b"/>
    <use fill="#2D394F" xlink:href="#day26-b"/>
  </g>
</svg>
