<svg xmlns="http://www.w3.org/2000/svg" xmlns:xlink="http://www.w3.org/1999/xlink" width="112" height="104" viewBox="0 0 112 104">
  <defs>
    <path id="day3-b" d="M53.7792969,90.1523438 C60.5644531,90.0820312 66.1191406,87.9199219 70.4433594,83.6660156 C74.8378906,79.5175781 77.0703125,73.8398438 77.140625,66.6328125 C77.140625,63.3984375 76.4550781,60.3046875 75.0839844,57.3515625 C73.6425781,54.3984375 71.3046875,51.8671875 68.0703125,49.7578125 C71.234375,47.6132812 73.4316406,45.1699219 74.6621094,42.4277344 C75.7167969,39.6855469 76.2441406,36.8378906 76.2441406,33.8847656 C76.1738281,28.0488281 74.1699219,22.9863281 70.2324219,18.6972656 C66.1191406,14.3027344 60.5644531,12.0703125 53.5683594,12 C48.0488281,12.0703125 43.3027344,14.0390625 39.3300781,17.90625 C35.2871094,21.8085938 32.984375,26.6074219 32.421875,32.3027344 L43.4433594,32.3027344 C44.1464844,29.1386719 45.5175781,26.8007812 47.5566406,25.2890625 C49.4902344,23.7773438 51.6347656,23.0214844 53.9902344,23.0214844 C57.2597656,23.0917969 59.9316406,24.1289062 62.0058594,26.1328125 C64.0800781,28.2070312 65.1523438,30.8613281 65.2226562,34.0957031 C65.2226562,37.2949219 64.1855469,39.8964844 62.1113281,41.9003906 C60.0371094,43.9746094 57.1191406,45.0117188 53.3574219,45.0117188 L49.5605469,45.0117188 L49.5605469,54.7675781 L54.2011719,54.7675781 C57.6113281,54.7675781 60.4238281,55.8046875 62.6386719,57.8789062 C64.8886719,60.0234375 66.0488281,63.046875 66.1191406,66.9492188 C66.0488281,70.78125 64.8886719,73.734375 62.6386719,75.8085938 C60.4238281,78.0234375 57.6992188,79.1308594 54.4648438,79.1308594 C51.4414062,79.1308594 49.015625,78.3046875 47.1875,76.6523438 C45.3945312,75.0703125 44.0058594,72.9960938 43.0214844,70.4296875 L32,70.4296875 C33.1953125,76.828125 35.8144531,81.7148438 39.8574219,85.0898438 C43.9003906,88.4648438 48.5410156,90.1523438 53.7792969,90.1523438 Z"/>
    <filter id="day3-a" width="162%" height="135.8%" x="-31%" y="-12.8%" filterUnits="objectBoundingBox">
      <feOffset dy="4" in="SourceAlpha" result="shadowOffsetOuter1"/>
      <feGaussianBlur in="shadowOffsetOuter1" result="shadowBlurOuter1" stdDeviation="4"/>
      <feColorMatrix in="shadowBlurOuter1" values="0 0 0 0 0.000854821203   0 0 0 0 0.168099661   0 0 0 0 0.309386322  0 0 0 0.2 0"/>
    </filter>
  </defs>
  <g fill="none" transform="rotate(-8 54.57 51.076)">
    <use fill="#000" filter="url(#day3-a)" xlink:href="#day3-b"/>
    <use fill="#000" fill-opacity=".7" xlink:href="#day3-b"/>
    <use fill="#2D394F" xlink:href="#day3-b"/>
  </g>
</svg>
