<svg xmlns="http://www.w3.org/2000/svg" xmlns:xlink="http://www.w3.org/1999/xlink" width="112" height="104" viewBox="0 0 112 104">
  <defs>
    <path id="day31-b" d="M33.7792969,90.1523438 C40.5644531,90.0820312 46.1191406,87.9199219 50.4433594,83.6660156 C54.8378906,79.5175781 57.0703125,73.8398438 57.140625,66.6328125 C57.140625,63.3984375 56.4550781,60.3046875 55.0839844,57.3515625 C53.6425781,54.3984375 51.3046875,51.8671875 48.0703125,49.7578125 C51.234375,47.6132812 53.4316406,45.1699219 54.6621094,42.4277344 C55.7167969,39.6855469 56.2441406,36.8378906 56.2441406,33.8847656 C56.1738281,28.0488281 54.1699219,22.9863281 50.2324219,18.6972656 C46.1191406,14.3027344 40.5644531,12.0703125 33.5683594,12 C28.0488281,12.0703125 23.3027344,14.0390625 19.3300781,17.90625 C15.2871094,21.8085938 12.984375,26.6074219 12.421875,32.3027344 L23.4433594,32.3027344 C24.1464844,29.1386719 25.5175781,26.8007812 27.5566406,25.2890625 C29.4902344,23.7773438 31.6347656,23.0214844 33.9902344,23.0214844 C37.2597656,23.0917969 39.9316406,24.1289062 42.0058594,26.1328125 C44.0800781,28.2070312 45.1523438,30.8613281 45.2226562,34.0957031 C45.2226562,37.2949219 44.1855469,39.8964844 42.1113281,41.9003906 C40.0371094,43.9746094 37.1191406,45.0117188 33.3574219,45.0117188 L29.5605469,45.0117188 L29.5605469,54.7675781 L34.2011719,54.7675781 C37.6113281,54.7675781 40.4238281,55.8046875 42.6386719,57.8789062 C44.8886719,60.0234375 46.0488281,63.046875 46.1191406,66.9492188 C46.0488281,70.78125 44.8886719,73.734375 42.6386719,75.8085938 C40.4238281,78.0234375 37.6992188,79.1308594 34.4648438,79.1308594 C31.4414062,79.1308594 29.015625,78.3046875 27.1875,76.6523438 C25.3945312,75.0703125 24.0058594,72.9960938 23.0214844,70.4296875 L12,70.4296875 C13.1953125,76.828125 15.8144531,81.7148438 19.8574219,85.0898438 C23.9003906,88.4648438 28.5410156,90.1523438 33.7792969,90.1523438 Z M98.3710938,89.5195312 L98.3710938,12.6328125 L87.3496094,12.6328125 L76.4335938,20.5957031 L76.4335938,32.3027344 L87.3496094,24.2871094 L87.3496094,89.5195312 L98.3710938,89.5195312 Z"/>
    <filter id="day31-a" width="132.4%" height="135.8%" x="-16.2%" y="-12.8%" filterUnits="objectBoundingBox">
      <feOffset dy="4" in="SourceAlpha" result="shadowOffsetOuter1"/>
      <feGaussianBlur in="shadowOffsetOuter1" result="shadowBlurOuter1" stdDeviation="4"/>
      <feColorMatrix in="shadowBlurOuter1" values="0 0 0 0 0.000854821203   0 0 0 0 0.168099661   0 0 0 0 0.309386322  0 0 0 0.2 0"/>
    </filter>
  </defs>
  <g fill="none" transform="rotate(-8 55.186 51.076)">
    <use fill="#000" filter="url(#day31-a)" xlink:href="#day31-b"/>
    <use fill="#000" fill-opacity=".7" xlink:href="#day31-b"/>
    <use fill="#2D394F" xlink:href="#day31-b"/>
  </g>
</svg>
