<svg xmlns="http://www.w3.org/2000/svg" xmlns:xlink="http://www.w3.org/1999/xlink" width="112" height="104" viewBox="0 0 112 104">
  <defs>
    <path id="day30-b" d="M26.7206456,92.6328125 C33.5058019,92.5625 39.0604894,90.4003906 43.3847081,86.1464844 C47.7792394,81.9980469 50.0116612,76.3203125 50.0819737,69.1132812 C50.0819737,65.8789062 49.3964269,62.7851562 48.0253331,59.8320312 C46.5839269,56.8789062 44.2460362,54.3476562 41.0116612,52.2382812 C44.1757237,50.09375 46.3729894,47.6503906 47.6034581,44.9082031 C48.6581456,42.1660156 49.1854894,39.3183594 49.1854894,36.3652344 C49.1151769,30.5292969 47.1112706,25.4667969 43.1737706,21.1777344 C39.0604894,16.7832031 33.5058019,14.5507812 26.5097081,14.4804688 C20.9901769,14.5507812 16.2440831,16.5195312 12.2714269,20.3867188 C8.22845812,24.2890625 5.92572375,29.0878906 5.36322375,34.7832031 L16.3847081,34.7832031 C17.0878331,31.6191406 18.4589269,29.28125 20.4979894,27.7695312 C22.4315831,26.2578125 24.5761144,25.5019531 26.9315831,25.5019531 C30.2011144,25.5722656 32.8729894,26.609375 34.9472081,28.6132812 C37.0214269,30.6875 38.0936925,33.3417969 38.164005,36.5761719 C38.164005,39.7753906 37.1268956,42.3769531 35.0526769,44.3808594 C32.9784581,46.4550781 30.0604894,47.4921875 26.2987706,47.4921875 L22.5018956,47.4921875 L22.5018956,57.2480469 L27.1425206,57.2480469 C30.5526769,57.2480469 33.3651769,58.2851562 35.5800206,60.359375 C37.8300206,62.5039062 38.9901769,65.5273438 39.0604894,69.4296875 C38.9901769,73.2617188 37.8300206,76.2148438 35.5800206,78.2890625 C33.3651769,80.5039062 30.6405675,81.6113281 27.4061925,81.6113281 C24.382755,81.6113281 21.9569737,80.7851562 20.1288487,79.1328125 C18.33588,77.5507812 16.9472081,75.4765625 15.9628331,72.9101562 L4.94134875,72.9101562 C6.13666125,79.3085938 8.75580187,84.1953125 12.7987706,87.5703125 C16.8417394,90.9453125 21.4823644,92.6328125 26.7206456,92.6328125 Z M85.2479894,92.6328125 C91.2245519,92.5625 96.30463,90.6289062 100.488224,86.8320312 C104.74213,83 106.939396,77.5507812 107.080021,70.484375 L107.080021,36.5761719 C106.939396,29.4746094 104.74213,24.0078125 100.488224,20.1757812 C96.30463,16.3789062 91.2245519,14.4804688 85.2479894,14.4804688 C79.4472081,14.4804688 74.4550206,16.3789062 70.2714269,20.1757812 C65.8065831,24.0078125 63.539005,29.4746094 63.4686925,36.5761719 L63.4686925,70.484375 C63.539005,77.5507812 65.8065831,83 70.2714269,86.8320312 C74.4550206,90.6289062 79.4472081,92.5625 85.2479894,92.6328125 Z M85.2479894,81.6113281 C78.2167394,81.5410156 74.6308019,77.6210938 74.4901769,69.8515625 L74.4901769,37.2617188 C74.6308019,29.5625 78.2167394,25.6425781 85.2479894,25.5019531 C92.2440831,25.6425781 95.8475987,29.5625 96.0585362,37.2617188 L96.0585362,69.8515625 C95.8475987,77.6210938 92.2440831,81.5410156 85.2479894,81.6113281 Z"/>
    <filter id="day30-a" width="127.4%" height="135.8%" x="-13.7%" y="-12.8%" filterUnits="objectBoundingBox">
      <feOffset dy="4" in="SourceAlpha" result="shadowOffsetOuter1"/>
      <feGaussianBlur in="shadowOffsetOuter1" result="shadowBlurOuter1" stdDeviation="4"/>
      <feColorMatrix in="shadowBlurOuter1" values="0 0 0 0 0.000854821203   0 0 0 0 0.168099661   0 0 0 0 0.309386322  0 0 0 0.2 0"/>
    </filter>
  </defs>
  <g fill="none" transform="rotate(-8 56.01 53.557)">
    <use fill="#000" filter="url(#day30-a)" xlink:href="#day30-b"/>
    <use fill="#000" fill-opacity=".7" xlink:href="#day30-b"/>
    <use fill="#2D394F" xlink:href="#day30-b"/>
  </g>
</svg>
