<svg xmlns="http://www.w3.org/2000/svg" xmlns:xlink="http://www.w3.org/1999/xlink" width="28" height="26" viewBox="0 0 28 26">
  <defs>
    <path id="day30-b" d="M6.68016141,23.1582031 C8.37645047,23.140625 9.76512234,22.6000977 10.846177,21.5366211 C11.9448098,20.4995117 12.5029153,19.0800781 12.5204934,17.2783203 C12.5204934,16.4697266 12.3491067,15.6962891 12.0063333,14.9580078 C11.6459817,14.2197266 11.0615091,13.5869141 10.2529153,13.0595703 C11.0439309,12.5234375 11.5932473,11.9125977 11.9008645,11.2270508 C12.1645364,10.5415039 12.2963723,9.82958984 12.2963723,9.09130859 C12.2787942,7.63232422 11.7778177,6.36669922 10.7934427,5.29443359 C9.76512234,4.19580078 8.37645047,3.63769531 6.62742703,3.62011719 C5.24754422,3.63769531 4.06102078,4.12988281 3.06785672,5.09667969 C2.05711453,6.07226562 1.48143094,7.27197266 1.34080594,8.69580078 L4.09617703,8.69580078 C4.27195828,7.90478516 4.61473172,7.3203125 5.12449734,6.94238281 C5.60789578,6.56445312 6.14402859,6.37548828 6.73289578,6.37548828 C7.55027859,6.39306641 8.21824734,6.65234375 8.73680203,7.15332031 C9.25535672,7.671875 9.52342312,8.33544922 9.54100125,9.14404297 C9.54100125,9.94384766 9.28172391,10.5942383 8.76316922,11.0952148 C8.24461453,11.6137695 7.51512234,11.8730469 6.57469266,11.8730469 L5.62547391,11.8730469 L5.62547391,14.3120117 L6.78563016,14.3120117 C7.63816922,14.3120117 8.34129422,14.5712891 8.89500516,15.0898438 C9.45750516,15.6259766 9.74754422,16.3818359 9.76512234,17.3574219 C9.74754422,18.3154297 9.45750516,19.0537109 8.89500516,19.5722656 C8.34129422,20.1259766 7.66014187,20.402832 6.85154812,20.402832 C6.09568875,20.402832 5.48924344,20.1962891 5.03221219,19.7832031 C4.58397,19.3876953 4.23680203,18.8691406 3.99070828,18.2275391 L1.23533719,18.2275391 C1.53416531,19.8271484 2.18895047,21.0488281 3.19969266,21.8925781 C4.21043484,22.7363281 5.37059109,23.1582031 6.68016141,23.1582031 Z M21.3119973,23.1582031 C22.806138,23.140625 24.0761575,22.6572266 25.1220559,21.7080078 C26.1855325,20.75 26.7348489,19.3876953 26.7700052,17.6210938 L26.7700052,9.14404297 C26.7348489,7.36865234 26.1855325,6.00195312 25.1220559,5.04394531 C24.0761575,4.09472656 22.806138,3.62011719 21.3119973,3.62011719 C19.861802,3.62011719 18.6137552,4.09472656 17.5678567,5.04394531 C16.4516458,6.00195312 15.8847512,7.36865234 15.8671731,9.14404297 L15.8671731,17.6210938 C15.8847512,19.3876953 16.4516458,20.75 17.5678567,21.7080078 C18.6137552,22.6572266 19.861802,23.140625 21.3119973,23.1582031 Z M21.3119973,20.402832 C19.5541848,20.3852539 18.6577005,19.4052734 18.6225442,17.4628906 L18.6225442,9.31542969 C18.6577005,7.390625 19.5541848,6.41064453 21.3119973,6.37548828 C23.0610208,6.41064453 23.9618997,7.390625 24.0146341,9.31542969 L24.0146341,17.4628906 C23.9618997,19.4052734 23.0610208,20.3852539 21.3119973,20.402832 Z"/>
    <filter id="day30-a" width="127.4%" height="135.8%" x="-13.7%" y="-12.8%" filterUnits="objectBoundingBox">
      <feOffset dy="1" in="SourceAlpha" result="shadowOffsetOuter1"/>
      <feGaussianBlur in="shadowOffsetOuter1" result="shadowBlurOuter1" stdDeviation="1"/>
      <feColorMatrix in="shadowBlurOuter1" values="0 0 0 0 0.000854821203   0 0 0 0 0.168099661   0 0 0 0 0.309386322  0 0 0 0.2 0"/>
    </filter>
  </defs>
  <g fill="none" transform="rotate(-8 14.003 13.39)">
    <use fill="#000" filter="url(#day30-a)" xlink:href="#day30-b"/>
    <use fill="#000" fill-opacity=".7" xlink:href="#day30-b"/>
    <use fill="#2D394F" xlink:href="#day30-b"/>
  </g>
</svg>
