<svg xmlns="http://www.w3.org/2000/svg" xmlns:xlink="http://www.w3.org/1999/xlink" width="28" height="26" viewBox="0 0 28 26">
  <defs>
    <path id="day3-b" d="M13.4448242,22.5380859 C15.1411133,22.5205078 16.5297852,21.9799805 17.6108398,20.9165039 C18.7094727,19.8793945 19.2675781,18.4599609 19.2851562,16.6582031 C19.2851562,15.8496094 19.1137695,15.0761719 18.7709961,14.3378906 C18.4106445,13.5996094 17.8261719,12.9667969 17.0175781,12.4394531 C17.8085938,11.9033203 18.3579102,11.2924805 18.6655273,10.6069336 C18.9291992,9.92138672 19.0610352,9.20947266 19.0610352,8.47119141 C19.043457,7.01220703 18.5424805,5.74658203 17.5581055,4.67431641 C16.5297852,3.57568359 15.1411133,3.01757812 13.3920898,3 C12.012207,3.01757812 10.8256836,3.50976562 9.83251953,4.4765625 C8.82177734,5.45214844 8.24609375,6.65185547 8.10546875,8.07568359 L10.8608398,8.07568359 C11.0366211,7.28466797 11.3793945,6.70019531 11.8891602,6.32226562 C12.3725586,5.94433594 12.9086914,5.75537109 13.4975586,5.75537109 C14.3149414,5.77294922 14.9829102,6.03222656 15.5014648,6.53320312 C16.0200195,7.05175781 16.2880859,7.71533203 16.3056641,8.52392578 C16.3056641,9.32373047 16.0463867,9.97412109 15.527832,10.4750977 C15.0092773,10.9936523 14.2797852,11.2529297 13.3393555,11.2529297 L12.3901367,11.2529297 L12.3901367,13.6918945 L13.550293,13.6918945 C14.402832,13.6918945 15.105957,13.9511719 15.659668,14.4697266 C16.222168,15.0058594 16.512207,15.7617187 16.5297852,16.7373047 C16.512207,17.6953125 16.222168,18.4335938 15.659668,18.9521484 C15.105957,19.5058594 14.4248047,19.7827148 13.6162109,19.7827148 C12.8603516,19.7827148 12.2539062,19.5761719 11.796875,19.1630859 C11.3486328,18.7675781 11.0014648,18.2490234 10.7553711,17.6074219 L8,17.6074219 C8.29882812,19.2070312 8.95361328,20.4287109 9.96435547,21.2724609 C10.9750977,22.1162109 12.1352539,22.5380859 13.4448242,22.5380859 Z"/>
    <filter id="day3-a" width="162%" height="135.8%" x="-31%" y="-12.8%" filterUnits="objectBoundingBox">
      <feOffset dy="1" in="SourceAlpha" result="shadowOffsetOuter1"/>
      <feGaussianBlur in="shadowOffsetOuter1" result="shadowBlurOuter1" stdDeviation="1"/>
      <feColorMatrix in="shadowBlurOuter1" values="0 0 0 0 0.000854821203   0 0 0 0 0.168099661   0 0 0 0 0.309386322  0 0 0 0.2 0"/>
    </filter>
  </defs>
  <g fill="none" transform="rotate(-8 13.643 12.769)">
    <use fill="#000" filter="url(#day3-a)" xlink:href="#day3-b"/>
    <use fill="#000" fill-opacity=".7" xlink:href="#day3-b"/>
    <use fill="#2D394F" xlink:href="#day3-b"/>
  </g>
</svg>
