<svg xmlns="http://www.w3.org/2000/svg" xmlns:xlink="http://www.w3.org/1999/xlink" width="28" height="26" viewBox="0 0 28 26">
  <defs>
    <path id="day31-b" d="M8.44482422,22.5380859 C10.1411133,22.5205078 11.5297852,21.9799805 12.6108398,20.9165039 C13.7094727,19.8793945 14.2675781,18.4599609 14.2851562,16.6582031 C14.2851562,15.8496094 14.1137695,15.0761719 13.7709961,14.3378906 C13.4106445,13.5996094 12.8261719,12.9667969 12.0175781,12.4394531 C12.8085938,11.9033203 13.3579102,11.2924805 13.6655273,10.6069336 C13.9291992,9.92138672 14.0610352,9.20947266 14.0610352,8.47119141 C14.043457,7.01220703 13.5424805,5.74658203 12.5581055,4.67431641 C11.5297852,3.57568359 10.1411133,3.01757812 8.39208984,3 C7.01220703,3.01757812 5.82568359,3.50976562 4.83251953,4.4765625 C3.82177734,5.45214844 3.24609375,6.65185547 3.10546875,8.07568359 L5.86083984,8.07568359 C6.03662109,7.28466797 6.37939453,6.70019531 6.88916016,6.32226562 C7.37255859,5.94433594 7.90869141,5.75537109 8.49755859,5.75537109 C9.31494141,5.77294922 9.98291016,6.03222656 10.5014648,6.53320312 C11.0200195,7.05175781 11.2880859,7.71533203 11.3056641,8.52392578 C11.3056641,9.32373047 11.0463867,9.97412109 10.527832,10.4750977 C10.0092773,10.9936523 9.27978516,11.2529297 8.33935547,11.2529297 L7.39013672,11.2529297 L7.39013672,13.6918945 L8.55029297,13.6918945 C9.40283203,13.6918945 10.105957,13.9511719 10.659668,14.4697266 C11.222168,15.0058594 11.512207,15.7617187 11.5297852,16.7373047 C11.512207,17.6953125 11.222168,18.4335938 10.659668,18.9521484 C10.105957,19.5058594 9.42480469,19.7827148 8.61621094,19.7827148 C7.86035156,19.7827148 7.25390625,19.5761719 6.796875,19.1630859 C6.34863281,18.7675781 6.00146484,18.2490234 5.75537109,17.6074219 L3,17.6074219 C3.29882812,19.2070312 3.95361328,20.4287109 4.96435547,21.2724609 C5.97509766,22.1162109 7.13525391,22.5380859 8.44482422,22.5380859 Z M24.5927734,22.3798828 L24.5927734,3.15820312 L21.8374023,3.15820312 L19.1083984,5.14892578 L19.1083984,8.07568359 L21.8374023,6.07177734 L21.8374023,22.3798828 L24.5927734,22.3798828 Z"/>
    <filter id="day31-a" width="132.4%" height="135.8%" x="-16.2%" y="-12.8%" filterUnits="objectBoundingBox">
      <feOffset dy="1" in="SourceAlpha" result="shadowOffsetOuter1"/>
      <feGaussianBlur in="shadowOffsetOuter1" result="shadowBlurOuter1" stdDeviation="1"/>
      <feColorMatrix in="shadowBlurOuter1" values="0 0 0 0 0.000854821203   0 0 0 0 0.168099661   0 0 0 0 0.309386322  0 0 0 0.2 0"/>
    </filter>
  </defs>
  <g fill="none" transform="rotate(-8 13.796 12.769)">
    <use fill="#000" filter="url(#day31-a)" xlink:href="#day31-b"/>
    <use fill="#000" fill-opacity=".7" xlink:href="#day31-b"/>
    <use fill="#2D394F" xlink:href="#day31-b"/>
  </g>
</svg>
