<svg xmlns="http://www.w3.org/2000/svg" xmlns:xlink="http://www.w3.org/1999/xlink" width="28" height="26" viewBox="0 0 28 26">
  <defs>
    <path id="day5-b" d="M14.6162109,22.3798828 C15.5830078,22.3623047 16.4179688,22.1381836 17.1210938,21.7075195 C17.8417969,21.2944336 18.3911133,20.8374023 18.769043,20.3364258 C19.199707,19.8266602 19.5073242,19.2421875 19.6918945,18.5830078 C19.8676758,17.9150391 19.9555664,16.9570312 19.9555664,15.7089844 C19.9555664,14.9003906 19.9291992,14.2192383 19.8764648,13.6655273 C19.8237305,13.1206055 19.7358398,12.6591797 19.612793,12.28125 C19.3754883,11.5869141 18.9887695,10.9760742 18.4526367,10.4487305 C18.0922852,10.0532227 17.6220703,9.71923828 17.0419922,9.44677734 C16.4267578,9.20068359 15.75,9.06884766 15.0117188,9.05126953 C13.8603516,9.05126953 12.8364258,9.40283203 11.9399414,10.105957 L11.9399414,5.75537109 L19.5864258,5.75537109 L19.5864258,3 L9.34277344,3 L9.34277344,13.3886719 L11.9399414,13.3886719 C12.2651367,12.7998047 12.6342773,12.3867188 13.0473633,12.1494141 C13.4604492,11.9208984 13.9174805,11.8066406 14.418457,11.8066406 C14.980957,11.8066406 15.4511719,11.8857422 15.8291016,12.0439453 C16.2070312,12.2373047 16.4926758,12.496582 16.6860352,12.8217773 C17.0463867,13.5073242 17.2177734,14.3994141 17.2001953,15.4980469 C17.2001953,15.9462891 17.1914062,16.4077148 17.1738281,16.8823242 C17.1386719,17.3657227 17.0419922,17.8139648 16.8837891,18.2270508 C16.734375,18.6401367 16.4707031,18.9741211 16.0927734,19.2290039 C15.6972656,19.4926758 15.1699219,19.6245117 14.5107422,19.6245117 C12.9726562,19.6069336 12.0541992,18.8598633 11.7553711,17.3833008 L9,17.3833008 C9.26367188,19.1499023 9.94482422,20.4287109 11.043457,21.2197266 C12.1245117,21.9931641 13.3154297,22.3798828 14.6162109,22.3798828 Z"/>
    <filter id="day5-a" width="163.9%" height="136.1%" x="-31.9%" y="-12.9%" filterUnits="objectBoundingBox">
      <feOffset dy="1" in="SourceAlpha" result="shadowOffsetOuter1"/>
      <feGaussianBlur in="shadowOffsetOuter1" result="shadowBlurOuter1" stdDeviation="1"/>
      <feColorMatrix in="shadowBlurOuter1" values="0 0 0 0 0.000854821203   0 0 0 0 0.168099661   0 0 0 0 0.309386322  0 0 0 0.2 0"/>
    </filter>
  </defs>
  <g fill="none" transform="rotate(-8 14.478 12.69)">
    <use fill="#000" filter="url(#day5-a)" xlink:href="#day5-b"/>
    <use fill="#000" fill-opacity=".7" xlink:href="#day5-b"/>
    <use fill="#2D394F" xlink:href="#day5-b"/>
  </g>
</svg>
