<svg xmlns="http://www.w3.org/2000/svg" xmlns:xlink="http://www.w3.org/1999/xlink" width="112" height="104" viewBox="0 0 112 104">
  <defs>
    <path id="day5-b" d="M58.4648438,89.5195312 C62.3320312,89.4492188 65.671875,88.5527344 68.484375,86.8300781 C71.3671875,85.1777344 73.5644531,83.3496094 75.0761719,81.3457031 C76.7988281,79.3066406 78.0292969,76.96875 78.7675781,74.3320312 C79.4707031,71.6601562 79.8222656,67.828125 79.8222656,62.8359375 C79.8222656,59.6015625 79.7167969,56.8769531 79.5058594,54.6621094 C79.2949219,52.4824219 78.9433594,50.6367188 78.4511719,49.125 C77.5019531,46.3476562 75.9550781,43.9042969 73.8105469,41.7949219 C72.3691406,40.2128906 70.4882812,38.8769531 68.1679688,37.7871094 C65.7070312,36.8027344 63,36.2753906 60.046875,36.2050781 C55.4414062,36.2050781 51.3457031,37.6113281 47.7597656,40.4238281 L47.7597656,23.0214844 L78.3457031,23.0214844 L78.3457031,12 L37.3710938,12 L37.3710938,53.5546875 L47.7597656,53.5546875 C49.0605469,51.1992188 50.5371094,49.546875 52.1894531,48.5976562 C53.8417969,47.6835938 55.6699219,47.2265625 57.6738281,47.2265625 C59.9238281,47.2265625 61.8046875,47.5429688 63.3164062,48.1757812 C64.828125,48.9492188 65.9707031,49.9863281 66.7441406,51.2871094 C68.1855469,54.0292969 68.8710938,57.5976562 68.8007812,61.9921875 C68.8007812,63.7851563 68.765625,65.6308594 68.6953125,67.5292969 C68.5546875,69.4628906 68.1679688,71.2558594 67.5351562,72.9082031 C66.9375,74.5605469 65.8828125,75.8964844 64.3710938,76.9160156 C62.7890625,77.9707031 60.6796875,78.4980469 58.0429688,78.4980469 C51.890625,78.4277344 48.2167969,75.4394531 47.0214844,69.5332031 L36,69.5332031 C37.0546875,76.5996094 39.7792969,81.7148438 44.1738281,84.8789062 C48.4980469,87.9726562 53.2617188,89.5195312 58.4648438,89.5195312 Z"/>
    <filter id="day5-a" width="163.9%" height="136.1%" x="-31.9%" y="-12.9%" filterUnits="objectBoundingBox">
      <feOffset dy="4" in="SourceAlpha" result="shadowOffsetOuter1"/>
      <feGaussianBlur in="shadowOffsetOuter1" result="shadowBlurOuter1" stdDeviation="4"/>
      <feColorMatrix in="shadowBlurOuter1" values="0 0 0 0 0.000854821203   0 0 0 0 0.168099661   0 0 0 0 0.309386322  0 0 0 0.2 0"/>
    </filter>
  </defs>
  <g fill="none" transform="rotate(-8 57.911 50.76)">
    <use fill="#000" filter="url(#day5-a)" xlink:href="#day5-b"/>
    <use fill="#000" fill-opacity=".7" xlink:href="#day5-b"/>
    <use fill="#2D394F" xlink:href="#day5-b"/>
  </g>
</svg>
