<svg xmlns="http://www.w3.org/2000/svg" xmlns:xlink="http://www.w3.org/1999/xlink" width="112" height="104" viewBox="0 0 112 104">
  <defs>
    <path id="day6-b" d="M47.2678571,89.625 C49.7287946,90.328125 52.5588728,90.5390625 55.7580915,90.2578125 C58.8166853,90.0117187 61.453404,89.3613281 63.6682478,88.3066406 C65.8830915,87.2519531 67.7639509,85.9951172 69.3108259,84.5361328 C70.8577009,83.0771484 72.1057478,81.5302734 73.0549665,79.8955078 C74.0041853,78.2607422 74.7336775,76.7314453 75.2434431,75.3076172 C75.7532087,73.8837891 76.1047712,72.6533203 76.2981306,71.6162109 C76.49149,70.5791016 76.6057478,69.9375 76.640904,69.6914062 C76.6760603,69.1992187 76.7024275,68.6015625 76.7200056,67.8984375 C76.7375837,67.1953125 76.7463728,66.5009766 76.7463728,65.8154297 L76.7463728,65.8154297 L76.7463728,62.7832031 C76.7463728,62.1152344 76.6496931,61.1923828 76.4563337,60.0146484 C76.2629743,58.8369141 75.9202009,57.5712891 75.4280134,56.2177734 C74.9358259,54.8642578 74.2590681,53.4755859 73.39774,52.0517578 C72.5364118,50.6279297 71.4553571,49.3359375 70.1545759,48.1757812 C68.8537946,47.015625 67.2981306,46.0488281 65.4875837,45.2753906 C63.6770368,44.5019531 61.5588728,44.0800781 59.1330915,44.0097656 C57.4455915,43.9394531 55.96024,43.9658203 54.6770368,44.0888672 C53.3938337,44.2119141 52.2424665,44.5722656 51.2229353,45.1699219 C51.7151228,44.3261719 52.3303571,43.2011719 53.0686384,41.7949219 C53.8069196,40.3886719 54.6243025,38.8242187 55.5207868,37.1015625 C56.4172712,35.3789062 57.3489118,33.5683594 58.3157087,31.6699219 C59.2825056,29.7714844 60.2317243,27.890625 61.163365,26.0273437 C62.0950056,24.1640625 62.9827009,22.3886719 63.8264509,20.7011719 C64.6702009,19.0136719 65.4084821,17.5195312 66.0412946,16.21875 C66.6741071,14.9179687 67.1750837,13.8896484 67.5442243,13.1337891 C67.913365,12.3779297 68.0803571,12 68.0452009,12 L68.0452009,12 L55.5998884,12 C52.1897321,18.8554687 49.1135603,25.0605469 46.3713728,30.6152344 C45.2112165,33.0058594 44.0510603,35.3613281 42.890904,37.6816406 C41.7307478,40.0019531 40.6848493,42.1289062 39.7532087,44.0625 C38.8215681,45.9960937 38.0393415,47.6220703 37.406529,48.9404297 C36.7737165,50.2587891 36.3869978,51.09375 36.2463728,51.4453125 C35.6838728,52.8515625 35.1916853,54.1523437 34.7698103,55.3476562 C34.3479353,56.5429687 33.9700056,57.7558594 33.6360212,58.9863281 C33.3020368,60.2167969 33.0119978,61.5087891 32.765904,62.8623047 C32.5198103,64.2158203 32.2912946,65.7539062 32.0803571,67.4765625 C31.9397321,68.6367187 31.9836775,70.0429687 32.2121931,71.6953125 C32.4407087,73.3476562 32.89774,75.0703125 33.5832868,76.8632812 C34.2688337,78.65625 35.2092634,80.4052734 36.4045759,82.1103516 C37.5998884,83.8154297 39.094029,85.3183594 40.8869978,86.6191406 C42.6799665,87.9199219 44.8069196,88.921875 47.2678571,89.625 Z M54.6506696,78.9726562 C52.6819196,78.9726562 51.038365,78.7265625 49.7200056,78.234375 C48.4016462,77.7421875 47.3205915,77.109375 46.4768415,76.3359375 C45.6330915,75.5625 44.9827009,74.6748047 44.5256696,73.6728516 C44.0686384,72.6708984 43.7434431,71.6337891 43.5500837,70.5615234 C43.3567243,69.4892578 43.2424665,68.4169922 43.2073103,67.3447266 C43.172154,66.2724609 43.1545759,65.296875 43.1545759,64.4179687 C43.1545759,64.03125 43.2424665,63.4775391 43.4182478,62.7568359 C43.594029,62.0361328 43.8840681,61.2539062 44.288365,60.4101562 C44.6926618,59.5664062 45.2024275,58.7138672 45.8176618,57.8525391 C46.4328962,56.9912109 47.1623884,56.2265625 48.0061384,55.5585937 C48.8498884,54.890625 49.8166853,54.3632812 50.906529,53.9765625 C51.9963728,53.5898437 53.2092634,53.4492187 54.5452009,53.5546875 C57.3928571,53.765625 59.5901228,54.3984375 61.1369978,55.453125 C62.6838728,56.5078125 63.8000837,57.7646484 64.4856306,59.2236328 C65.1711775,60.6826172 65.5666853,62.2207031 65.672154,63.8378906 C65.7776228,65.4550781 65.8303571,66.9316406 65.8303571,68.2675781 C65.8303571,68.5839844 65.7776228,69.0673828 65.672154,69.7177734 C65.5666853,70.3681641 65.3645368,71.0976562 65.0657087,71.90625 C64.7668806,72.7148437 64.3537946,73.5410156 63.8264509,74.3847656 C63.2991071,75.2285156 62.6223493,75.9931641 61.7961775,76.6787109 C60.9700056,77.3642578 59.9680525,77.9267578 58.7903181,78.3662109 C57.6125837,78.8056641 56.2327009,79.0078125 54.6506696,78.9726562 Z"/>
    <filter id="day6-a" width="162.6%" height="135.7%" x="-31.3%" y="-12.8%" filterUnits="objectBoundingBox">
      <feOffset dy="4" in="SourceAlpha" result="shadowOffsetOuter1"/>
      <feGaussianBlur in="shadowOffsetOuter1" result="shadowBlurOuter1" stdDeviation="4"/>
      <feColorMatrix in="shadowBlurOuter1" values="0 0 0 0 0.000854821203   0 0 0 0 0.168099661   0 0 0 0 0.309386322  0 0 0 0.2 0"/>
    </filter>
  </defs>
  <g fill="none" transform="rotate(-8 54.373 51.19)">
    <use fill="#000" filter="url(#day6-a)" xlink:href="#day6-b"/>
    <use fill="#000" fill-opacity=".7" xlink:href="#day6-b"/>
    <use fill="#2D394F" xlink:href="#day6-b"/>
  </g>
</svg>
