<svg xmlns="http://www.w3.org/2000/svg" xmlns:xlink="http://www.w3.org/1999/xlink" width="28" height="26" viewBox="0 0 28 26">
  <defs>
    <path id="day6-b" d="M11.8169643,22.40625 C12.4321987,22.5820312 13.1397182,22.6347656 13.9395229,22.5644531 C14.7041713,22.5029297 15.363351,22.340332 15.9170619,22.0766602 C16.4707729,21.8129883 16.9409877,21.4987793 17.3277065,21.1340332 C17.7144252,20.7692871 18.0264369,20.3825684 18.2637416,19.973877 C18.5010463,19.5651855 18.6834194,19.1828613 18.8108608,18.8269043 C18.9383022,18.4709473 19.0261928,18.1633301 19.0745326,17.9040527 C19.1228725,17.6447754 19.1514369,17.484375 19.160226,17.4228516 C19.1690151,17.2998047 19.1756069,17.1503906 19.1800014,16.9746094 C19.1843959,16.7988281 19.1865932,16.6252441 19.1865932,16.4538574 L19.1865932,16.4538574 L19.1865932,15.6958008 C19.1865932,15.5288086 19.1624233,15.2980957 19.1140834,15.0036621 C19.0657436,14.7092285 18.9800502,14.3928223 18.8570033,14.0544434 C18.7339565,13.7160645 18.564767,13.3688965 18.349435,13.0129395 C18.134103,12.6569824 17.8638393,12.3339844 17.538644,12.0439453 C17.2134487,11.7539062 16.8245326,11.512207 16.3718959,11.3188477 C15.9192592,11.1254883 15.3897182,11.0200195 14.7832729,11.0024414 C14.3613979,10.9848633 13.99006,10.9914551 13.6692592,11.0222168 C13.3484584,11.0529785 13.0606166,11.1430664 12.8057338,11.2924805 C12.9287807,11.081543 13.0825893,10.800293 13.2671596,10.4487305 C13.4517299,10.097168 13.6560756,9.70605469 13.8801967,9.27539062 C14.1043178,8.84472656 14.337228,8.39208984 14.5789272,7.91748047 C14.8206264,7.44287109 15.0579311,6.97265625 15.2908412,6.50683594 C15.5237514,6.04101562 15.7456752,5.59716797 15.9566127,5.17529297 C16.1675502,4.75341797 16.3521205,4.37988281 16.5103237,4.0546875 C16.6685268,3.72949219 16.7937709,3.47241211 16.8860561,3.28344727 C16.9783412,3.09448242 17.0200893,3 17.0113002,3 L17.0113002,3 L13.8999721,3 C13.047433,4.71386719 12.2783901,6.26513672 11.5928432,7.65380859 C11.3028041,8.25146484 11.0127651,8.84033203 10.722726,9.42041016 C10.4326869,10.0004883 10.1712123,10.5322266 9.93830218,11.015625 C9.70539202,11.4990234 9.50983538,11.9055176 9.35163225,12.2351074 C9.19342913,12.5646973 9.09674944,12.7734375 9.06159319,12.8613281 C8.92096819,13.2128906 8.79792132,13.5380859 8.69245257,13.8369141 C8.58698382,14.1357422 8.4925014,14.4389648 8.4090053,14.746582 C8.32550921,15.0541992 8.25299944,15.3771973 8.191476,15.7155762 C8.12995257,16.0539551 8.07282366,16.4384766 8.02008929,16.8691406 C7.98493304,17.1591797 7.99591936,17.5107422 8.05304827,17.9238281 C8.11017718,18.3369141 8.22443499,18.7675781 8.39582171,19.2158203 C8.56720843,19.6640625 8.80231585,20.1013184 9.10114397,20.5275879 C9.3999721,20.9538574 9.77350725,21.3295898 10.2217494,21.6547852 C10.6699916,21.9799805 11.2017299,22.2304687 11.8169643,22.40625 Z M13.6626674,19.7431641 C13.1704799,19.7431641 12.7595912,19.6816406 12.4300014,19.5585937 C12.1004116,19.4355469 11.8301479,19.2773437 11.6192104,19.0839844 C11.4082729,18.890625 11.2456752,18.6687012 11.1314174,18.4182129 C11.0171596,18.1677246 10.9358608,17.9084473 10.8875209,17.6403809 C10.8391811,17.3723145 10.8106166,17.104248 10.8018276,16.8361816 C10.7930385,16.5681152 10.788644,16.3242187 10.788644,16.1044922 C10.788644,16.0078125 10.8106166,15.8693848 10.8545619,15.689209 C10.8985073,15.5090332 10.971017,15.3134766 11.0720912,15.1025391 C11.1731655,14.8916016 11.3006069,14.6784668 11.4544155,14.4631348 C11.6082241,14.2478027 11.7905971,14.0566406 12.0015346,13.8896484 C12.2124721,13.7226562 12.4541713,13.5908203 12.7266323,13.4941406 C12.9990932,13.3974609 13.3023158,13.3623047 13.6363002,13.3886719 C14.3482143,13.4414062 14.8975307,13.5996094 15.2842494,13.8632812 C15.6709682,14.1269531 15.9500209,14.4411621 16.1214076,14.8059082 C16.2927944,15.1706543 16.3916713,15.5551758 16.4180385,15.9594727 C16.4444057,16.3637695 16.4575893,16.7329102 16.4575893,17.0668945 C16.4575893,17.1459961 16.4444057,17.2668457 16.4180385,17.4294434 C16.3916713,17.592041 16.3411342,17.7744141 16.2664272,17.9765625 C16.1917201,18.1787109 16.0884487,18.3852539 15.9566127,18.5961914 C15.8247768,18.8071289 15.6555873,18.998291 15.4490444,19.1696777 C15.2425014,19.3410645 14.9920131,19.4816895 14.6975795,19.5915527 C14.4031459,19.701416 14.0581752,19.7519531 13.6626674,19.7431641 Z"/>
    <filter id="day6-a" width="162.6%" height="135.7%" x="-31.3%" y="-12.8%" filterUnits="objectBoundingBox">
      <feOffset dy="1" in="SourceAlpha" result="shadowOffsetOuter1"/>
      <feGaussianBlur in="shadowOffsetOuter1" result="shadowBlurOuter1" stdDeviation="1"/>
      <feColorMatrix in="shadowBlurOuter1" values="0 0 0 0 0.000854821203   0 0 0 0 0.168099661   0 0 0 0 0.309386322  0 0 0 0.2 0"/>
    </filter>
  </defs>
  <g fill="none" transform="rotate(-8 13.593 12.797)">
    <use fill="#000" filter="url(#day6-a)" xlink:href="#day6-b"/>
    <use fill="#000" fill-opacity=".7" xlink:href="#day6-b"/>
    <use fill="#2D394F" xlink:href="#day6-b"/>
  </g>
</svg>
