<svg xmlns="http://www.w3.org/2000/svg" xmlns:xlink="http://www.w3.org/1999/xlink" width="112" height="104" viewBox="0 0 112 104">
  <defs>
    <path id="day8-b" d="M55.4140625,90.1523438 C61.9882812,90.0820312 67.5429688,87.9199219 72.078125,83.6660156 C76.5429688,79.5175781 78.8105469,73.9804688 78.8808594,67.0546875 C78.8105469,59.6367188 75.7871094,53.8710937 69.8105469,49.7578125 C72.0957031,47.7539062 73.9589844,45.4511719 75.4003906,42.8496094 C76.7714844,40.4238281 77.4570312,37.5410156 77.4570312,34.2011719 C77.3867188,27.8027344 75.2949219,22.5117188 71.1816406,18.328125 C67.1035156,14.1796875 61.8476562,12.0703125 55.4140625,12 C49.0859375,12.0703125 43.9179688,14.1796875 39.9101562,18.328125 C35.65625,22.5117188 33.4941406,27.8027344 33.4238281,34.2011719 C33.4238281,37.5410156 34.1796875,40.4238281 35.6914062,42.8496094 C36.9921875,45.4511719 38.7851562,47.7539062 41.0703125,49.7578125 C35.09375,53.8710937 32.0703125,59.6367188 32,67.0546875 C32.0703125,73.9804688 34.4082031,79.5175781 39.0136719,83.6660156 C43.4082031,87.9199219 48.875,90.0820312 55.4140625,90.1523438 Z M55.4140625,45.0117188 C52.5664062,45.0117188 50.0527344,44.0449219 47.8730469,42.1113281 C45.6582031,40.2480469 44.515625,37.5410156 44.4453125,33.9902344 C44.515625,30.3339844 45.6582031,27.5742188 47.8730469,25.7109375 C50.0527344,23.9179688 52.5664062,23.0214844 55.4140625,23.0214844 C58.3671875,23.0214844 60.9335938,23.9179688 63.1132812,25.7109375 C65.2578125,27.5742188 66.3652344,30.3339844 66.4355469,33.9902344 C66.3652344,37.5410156 65.2578125,40.2480469 63.1132812,42.1113281 C60.9335938,44.0449219 58.3671875,45.0117188 55.4140625,45.0117188 Z M55.4140625,79.1308594 C52.0390625,79.1308594 49.1738281,77.953125 46.8183594,75.5976562 C44.3574219,73.3476562 43.0917969,70.4648438 43.0214844,66.9492188 C43.0917969,63.3632812 44.3574219,60.4453125 46.8183594,58.1953125 C49.1738281,55.9804688 52.0390625,54.8378906 55.4140625,54.7675781 C58.8945312,54.8378906 61.8125,55.9804688 64.1679688,58.1953125 C66.5585938,60.4453125 67.7890625,63.3632812 67.859375,66.9492188 C67.7890625,70.4648438 66.5585938,73.3476562 64.1679688,75.5976562 C61.8125,77.953125 58.8945312,79.1308594 55.4140625,79.1308594 Z"/>
    <filter id="day8-a" width="159.7%" height="135.8%" x="-29.9%" y="-12.8%" filterUnits="objectBoundingBox">
      <feOffset dy="4" in="SourceAlpha" result="shadowOffsetOuter1"/>
      <feGaussianBlur in="shadowOffsetOuter1" result="shadowBlurOuter1" stdDeviation="4"/>
      <feColorMatrix in="shadowBlurOuter1" values="0 0 0 0 0.000854821203   0 0 0 0 0.168099661   0 0 0 0 0.309386322  0 0 0 0.2 0"/>
    </filter>
  </defs>
  <g fill="none" transform="rotate(-8 55.44 51.076)">
    <use fill="#000" filter="url(#day8-a)" xlink:href="#day8-b"/>
    <use fill="#000" fill-opacity=".7" xlink:href="#day8-b"/>
    <use fill="#2D394F" xlink:href="#day8-b"/>
  </g>
</svg>
