<svg xmlns="http://www.w3.org/2000/svg" xmlns:xlink="http://www.w3.org/1999/xlink" width="28" height="26" viewBox="0 0 28 26">
  <defs>
    <path id="day8-b" d="M13.8535156,22.5380859 C15.4970703,22.5205078 16.8857422,21.9799805 18.0195312,20.9165039 C19.1357422,19.8793945 19.7026367,18.4951172 19.7202148,16.7636719 C19.7026367,14.9091797 18.9467773,13.4677734 17.4526367,12.4394531 C18.0239258,11.9384766 18.4897461,11.362793 18.8500977,10.7124023 C19.1928711,10.105957 19.3642578,9.38525391 19.3642578,8.55029297 C19.3466797,6.95068359 18.8237305,5.62792969 17.7954102,4.58203125 C16.7758789,3.54492188 15.4619141,3.01757812 13.8535156,3 C12.2714844,3.01757812 10.9794922,3.54492188 9.97753906,4.58203125 C8.9140625,5.62792969 8.37353516,6.95068359 8.35595703,8.55029297 C8.35595703,9.38525391 8.54492188,10.105957 8.92285156,10.7124023 C9.24804688,11.362793 9.69628906,11.9384766 10.2675781,12.4394531 C8.7734375,13.4677734 8.01757812,14.9091797 8,16.7636719 C8.01757812,18.4951172 8.60205078,19.8793945 9.75341797,20.9165039 C10.8520508,21.9799805 12.21875,22.5205078 13.8535156,22.5380859 Z M13.8535156,11.2529297 C13.1416016,11.2529297 12.5131836,11.0112305 11.9682617,10.527832 C11.4145508,10.0620117 11.1289062,9.38525391 11.1113281,8.49755859 C11.1289062,7.58349609 11.4145508,6.89355469 11.9682617,6.42773438 C12.5131836,5.97949219 13.1416016,5.75537109 13.8535156,5.75537109 C14.5917969,5.75537109 15.2333984,5.97949219 15.7783203,6.42773438 C16.3144531,6.89355469 16.5913086,7.58349609 16.6088867,8.49755859 C16.5913086,9.38525391 16.3144531,10.0620117 15.7783203,10.527832 C15.2333984,11.0112305 14.5917969,11.2529297 13.8535156,11.2529297 Z M13.8535156,19.7827148 C13.0097656,19.7827148 12.293457,19.4882812 11.7045898,18.8994141 C11.0893555,18.3369141 10.7729492,17.6162109 10.7553711,16.7373047 C10.7729492,15.8408203 11.0893555,15.1113281 11.7045898,14.5488281 C12.293457,13.9951172 13.0097656,13.7094727 13.8535156,13.6918945 C14.7236328,13.7094727 15.453125,13.9951172 16.0419922,14.5488281 C16.6396484,15.1113281 16.9472656,15.8408203 16.9648438,16.7373047 C16.9472656,17.6162109 16.6396484,18.3369141 16.0419922,18.8994141 C15.453125,19.4882812 14.7236328,19.7827148 13.8535156,19.7827148 Z"/>
    <filter id="day8-a" width="159.7%" height="135.8%" x="-29.9%" y="-12.8%" filterUnits="objectBoundingBox">
      <feOffset dy="1" in="SourceAlpha" result="shadowOffsetOuter1"/>
      <feGaussianBlur in="shadowOffsetOuter1" result="shadowBlurOuter1" stdDeviation="1"/>
      <feColorMatrix in="shadowBlurOuter1" values="0 0 0 0 0.000854821203   0 0 0 0 0.168099661   0 0 0 0 0.309386322  0 0 0 0.2 0"/>
    </filter>
  </defs>
  <g fill="none" transform="rotate(-8 13.86 12.769)">
    <use fill="#000" filter="url(#day8-a)" xlink:href="#day8-b"/>
    <use fill="#000" fill-opacity=".7" xlink:href="#day8-b"/>
    <use fill="#2D394F" xlink:href="#day8-b"/>
  </g>
</svg>
