<svg xmlns="http://www.w3.org/2000/svg" xmlns:xlink="http://www.w3.org/1999/xlink" width="28" height="26" viewBox="0 0 28 26">
  <defs>
    <path id="day9-b" d="M13.2998047,22.3320312 C14.1347656,20.6445312 14.890625,19.1152344 15.5673828,17.7441406 C15.8574219,17.1640625 16.1408691,16.5861816 16.4177246,16.010498 C16.6945801,15.4348145 16.9494629,14.9118652 17.182373,14.4416504 C17.4152832,13.9714355 17.6086426,13.5737305 17.7624512,13.2485352 C17.9162598,12.9233398 18.0107422,12.7124023 18.0458984,12.6157227 C18.1865234,12.2641602 18.3095703,11.9389648 18.4150391,11.6401367 C18.5205078,11.3413086 18.6149902,11.0380859 18.6984863,10.7304688 C18.7819824,10.4228516 18.8544922,10.0998535 18.9160156,9.76147461 C18.9775391,9.4230957 19.034668,9.03857422 19.0874023,8.60791016 C19.1225586,8.31787109 19.1137695,7.96850586 19.0610352,7.55981445 C19.0083008,7.15112305 18.9006348,6.72924805 18.7380371,6.29418945 C18.5754395,5.85913086 18.3491211,5.43066406 18.059082,5.00878906 C17.769043,4.58691406 17.4042969,4.21777344 16.9648438,3.90136719 C16.5253906,3.58496094 16.0002441,3.34326172 15.3894043,3.17626953 C14.7785645,3.00927734 14.0732422,2.9609375 13.2734375,3.03125 C12.5087891,3.1015625 11.8474121,3.26416016 11.2893066,3.51904297 C10.7312012,3.77392578 10.2609863,4.07714844 9.87866211,4.42871094 C9.49633789,4.78027344 9.18652344,5.15600586 8.94921875,5.5559082 C8.71191406,5.95581055 8.52734375,6.33154297 8.39550781,6.68310547 C8.26367188,7.03466797 8.17358398,7.33569336 8.12524414,7.58618164 C8.0769043,7.83666992 8.04833984,7.99267578 8.03955078,8.05419922 C8.02197266,8.17724609 8.01098633,8.32666016 8.0065918,8.50244141 C8.00219727,8.67822266 8,8.85180664 8,9.02319336 C8,9.19458008 8.00219727,9.35058594 8.0065918,9.49121094 C8.01098633,9.63183594 8.01318359,9.72851562 8.01318359,9.78125 C8.01318359,9.94824219 8.04174805,10.1789551 8.09887695,10.4733887 C8.15600586,10.7678223 8.24829102,11.0842285 8.37573242,11.4226074 C8.50317383,11.7609863 8.67236328,12.1081543 8.88330078,12.4641113 C9.09423828,12.8200684 9.35791016,13.1430664 9.67431641,13.4331055 C9.99072266,13.7231445 10.3664551,13.9648438 10.8015137,14.1582031 C11.2365723,14.3515625 11.7441406,14.4570312 12.3242188,14.4746094 C12.7460938,14.4921875 13.1174316,14.4855957 13.4382324,14.454834 C13.7590332,14.4240723 14.046875,14.3339844 14.3017578,14.1845703 C14.1347656,14.4746094 13.9172363,14.8745117 13.6491699,15.3842773 C13.3811035,15.894043 13.0932617,16.4521484 12.7856445,17.0585938 C12.4780273,17.6650391 12.1660156,18.2802734 11.8496094,18.9042969 C11.5332031,19.5283203 11.2475586,20.0952148 10.9926758,20.6049805 C10.737793,21.1147461 10.53125,21.5300293 10.3730469,21.8508301 C10.2148438,22.1716309 10.1401367,22.3320312 10.1489258,22.3320312 L10.1489258,22.3320312 L13.2998047,22.3320312 Z M13.6678906,12.0918066 L13.4711914,12.0883789 C12.8032227,12.0532227 12.284668,11.9060059 11.9155273,11.6467285 C11.5463867,11.3874512 11.276123,11.0754395 11.1047363,10.7106934 C10.9333496,10.3459473 10.8300781,9.95703125 10.7949219,9.54394531 C10.7597656,9.13085938 10.7421875,8.75292969 10.7421875,8.41015625 C10.7421875,8.3046875 10.7817383,8.11132812 10.8608398,7.83007812 C10.9399414,7.54882812 11.0805664,7.25878906 11.2827148,6.95996094 C11.4848633,6.66113281 11.7595215,6.38867188 12.1066895,6.14257812 C12.4538574,5.89648438 12.8999023,5.76025391 13.4448242,5.73388672 C13.9370117,5.70751953 14.3479004,5.74926758 14.6774902,5.85913086 C15.0070801,5.96899414 15.2773438,6.12060547 15.4882813,6.31396484 C15.6992188,6.50732422 15.8618164,6.73364258 15.9760742,6.99291992 C16.090332,7.25219727 16.1716309,7.52246094 16.2199707,7.80371094 C16.2683105,8.08496094 16.2946777,8.36181641 16.2990723,8.63427734 C16.3034668,8.90673828 16.3100586,9.15283203 16.3188477,9.37255859 C16.3188477,9.47802734 16.296875,9.61865234 16.2529297,9.79443359 C16.2089844,9.97021484 16.1364746,10.161377 16.0354004,10.3679199 C15.9343262,10.5744629 15.8068848,10.7832031 15.6530762,10.9941406 C15.4992676,11.2050781 15.3168945,11.394043 15.105957,11.5610352 C14.8950195,11.7280273 14.6533203,11.8620605 14.3808594,11.9631348 C14.1083984,12.064209 13.8051758,12.105957 13.4711914,12.0883789 L13.6678906,12.0918066 Z"/>
    <filter id="day9-a" width="163%" height="136.2%" x="-31.5%" y="-12.9%" filterUnits="objectBoundingBox">
      <feOffset dy="1" in="SourceAlpha" result="shadowOffsetOuter1"/>
      <feGaussianBlur in="shadowOffsetOuter1" result="shadowBlurOuter1" stdDeviation="1"/>
      <feColorMatrix in="shadowBlurOuter1" values="0 0 0 0 0.000854821203   0 0 0 0 0.168099661   0 0 0 0 0.309386322  0 0 0 0.2 0"/>
    </filter>
  </defs>
  <g fill="none" transform="rotate(-8 13.554 12.666)">
    <use fill="#000" filter="url(#day9-a)" xlink:href="#day9-b"/>
    <use fill="#000" fill-opacity=".7" xlink:href="#day9-b"/>
    <use fill="#2D394F" xlink:href="#day9-b"/>
  </g>
</svg>
