<svg xmlns="http://www.w3.org/2000/svg" xmlns:xlink="http://www.w3.org/1999/xlink" width="112" height="104" viewBox="0 0 112 104">
  <defs>
    <path id="day9-b" d="M53.1992188,89.328125 C56.5390625,82.578125 59.5625,76.4609375 62.2695313,70.9765625 C63.4296875,68.65625 64.5634766,66.3447266 65.6708984,64.0419922 C66.7783203,61.7392578 67.7978516,59.6474609 68.7294922,57.7666016 C69.6611328,55.8857422 70.4345703,54.2949219 71.0498047,52.9941406 C71.6650391,51.6933594 72.0429688,50.8496094 72.1835938,50.4628906 C72.7460938,49.0566406 73.2382813,47.7558594 73.6601563,46.5605469 C74.0820313,45.3652344 74.4599609,44.1523438 74.7939453,42.921875 C75.1279297,41.6914062 75.4179688,40.3994141 75.6640625,39.0458984 C75.9101563,37.6923828 76.1386719,36.1542969 76.3496094,34.4316406 C76.4902344,33.2714844 76.4550781,31.8740234 76.2441406,30.2392578 C76.0332031,28.6044922 75.6025391,26.9169922 74.9521484,25.1767578 C74.3017578,23.4365234 73.3964844,21.7226562 72.2363281,20.0351562 C71.0761719,18.3476562 69.6171875,16.8710938 67.859375,15.6054688 C66.1015625,14.3398438 64.0009766,13.3730469 61.5576172,12.7050781 C59.1142578,12.0371094 56.2929688,11.84375 53.09375,12.125 C50.0351563,12.40625 47.3896484,13.0566406 45.1572266,14.0761719 C42.9248047,15.0957031 41.0439453,16.3085938 39.5146484,17.7148438 C37.9853516,19.1210938 36.7460938,20.6240234 35.796875,22.2236328 C34.8476563,23.8232422 34.109375,25.3261719 33.5820313,26.7324219 C33.0546875,28.1386719 32.6943359,29.3427734 32.5009766,30.3447266 C32.3076172,31.3466797 32.1933594,31.9707031 32.1582031,32.2167969 C32.0878906,32.7089844 32.0439453,33.3066406 32.0263672,34.0097656 C32.0087891,34.7128906 32,35.4072266 32,36.0927734 C32,36.7783203 32.0087891,37.4023438 32.0263672,37.9648438 C32.0439453,38.5273438 32.0527344,38.9140625 32.0527344,39.125 C32.0527344,39.7929688 32.1669922,40.7158203 32.3955078,41.8935547 C32.6240234,43.0712891 32.9931641,44.3369141 33.5029297,45.6904297 C34.0126953,47.0439453 34.6894531,48.4326172 35.5332031,49.8564453 C36.3769531,51.2802734 37.4316406,52.5722656 38.6972656,53.7324219 C39.9628906,54.8925781 41.4658203,55.859375 43.2060547,56.6328125 C44.9462891,57.40625 46.9765625,57.828125 49.296875,57.8984375 C50.984375,57.96875 52.4697266,57.9423828 53.7529297,57.8193359 C55.0361328,57.6962891 56.1875,57.3359375 57.2070313,56.7382812 C56.5390625,57.8984375 55.6689453,59.4980469 54.5966797,61.5371094 C53.5244141,63.5761719 52.3730469,65.8085938 51.1425781,68.234375 C49.9121094,70.6601562 48.6640625,73.1210938 47.3984375,75.6171875 C46.1328125,78.1132812 44.9902344,80.3808594 43.9707031,82.4199219 C42.9511719,84.4589844 42.125,86.1201172 41.4921875,87.4033203 C40.859375,88.6865234 40.5605469,89.328125 40.5957031,89.328125 L40.5957031,89.328125 L53.1992188,89.328125 Z M54.6715625,48.3672266 L53.8847656,48.3535156 C51.2128906,48.2128906 49.1386719,47.6240234 47.6621094,46.5869141 C46.1855469,45.5498047 45.1044922,44.3017578 44.4189453,42.8427734 C43.7333984,41.3837891 43.3203125,39.828125 43.1796875,38.1757812 C43.0390625,36.5234375 42.96875,35.0117188 42.96875,33.640625 C42.96875,33.21875 43.1269531,32.4453125 43.4433594,31.3203125 C43.7597656,30.1953125 44.3222656,29.0351562 45.1308594,27.8398438 C45.9394531,26.6445312 47.0380859,25.5546875 48.4267578,24.5703125 C49.8154297,23.5859375 51.5996094,23.0410156 53.7792969,22.9355469 C55.7480469,22.8300781 57.3916016,22.9970703 58.7099609,23.4365234 C60.0283203,23.8759766 61.109375,24.4824219 61.953125,25.2558594 C62.796875,26.0292969 63.4472656,26.9345703 63.9042969,27.9716797 C64.3613281,29.0087891 64.6865234,30.0898438 64.8798828,31.2148438 C65.0732422,32.3398438 65.1787109,33.4472656 65.1962891,34.5371094 C65.2138672,35.6269531 65.2402344,36.6113281 65.2753906,37.4902344 C65.2753906,37.9121094 65.1875,38.4746094 65.0117188,39.1777344 C64.8359375,39.8808594 64.5458984,40.6455078 64.1416016,41.4716797 C63.7373047,42.2978516 63.2275391,43.1328125 62.6123047,43.9765625 C61.9970703,44.8203125 61.2675781,45.5761719 60.4238281,46.2441406 C59.5800781,46.9121094 58.6132813,47.4482422 57.5234375,47.8525391 C56.4335938,48.2568359 55.2207031,48.4238281 53.8847656,48.3535156 L54.6715625,48.3672266 Z"/>
    <filter id="day9-a" width="163%" height="136.2%" x="-31.5%" y="-12.9%" filterUnits="objectBoundingBox">
      <feOffset dy="4" in="SourceAlpha" result="shadowOffsetOuter1"/>
      <feGaussianBlur in="shadowOffsetOuter1" result="shadowBlurOuter1" stdDeviation="4"/>
      <feColorMatrix in="shadowBlurOuter1" values="0 0 0 0 0.000854821203   0 0 0 0 0.168099661   0 0 0 0 0.309386322  0 0 0 0.2 0"/>
    </filter>
  </defs>
  <g fill="none" transform="rotate(-8 54.217 50.664)">
    <use fill="#000" filter="url(#day9-a)" xlink:href="#day9-b"/>
    <use fill="#000" fill-opacity=".7" xlink:href="#day9-b"/>
    <use fill="#2D394F" xlink:href="#day9-b"/>
  </g>
</svg>
