<?xml version="1.0" encoding="UTF-8"?>
<svg width="16px" height="16px" viewBox="0 0 16 16" version="1.1" xmlns="http://www.w3.org/2000/svg" xmlns:xlink="http://www.w3.org/1999/xlink">
    <title>-mockplus-</title>
    <g id="任务栏" stroke="none" stroke-width="1" fill="none" fill-rule="evenodd">
        <g id="任务栏-其他插件" transform="translate(-43.000000, -222.000000)" fill="#FFFFFF" fill-rule="nonzero">
            <g id="声音" transform="translate(23.000000, 50.000000)">
                <g id="-mockplus-" transform="translate(10.000000, 162.000000)">
                    <g id="-mockplus-" transform="translate(10.000000, 10.000000)">
                        <g id="ICON" transform="translate(1.000000, 1.500000)">
                            <path d="M7,0 C10.7854517,0 13.8690987,3.00478338 13.995941,6.75935025 L14,7 L14,9.5 C14,9.77614237 13.7761424,10 13.5,10 C13.2545401,10 13.0503916,9.82312484 13.0080557,9.58987563 L13,9.5 L13,7 C13,3.6862915 10.3137085,1 7,1 C3.76160306,1 1.12242824,3.56557489 1.00413847,6.77506174 L1,7 L1,9.5 C1,9.77614237 0.776142375,10 0.5,10 C0.254540111,10 0.0503916296,9.82312484 0.00805566941,9.58987563 L0,9.5 L0,7 C0,3.13400675 3.13400675,0 7,0 Z M3.5,7 C4.32842712,7 5,7.67157288 5,8.5 L5,11.5 C5,12.3284271 4.32842712,13 3.5,13 C2.67157288,13 2,12.3284271 2,11.5 L2,8.5 C2,7.67157288 2.67157288,7 3.5,7 Z M10.5,7 C11.3284271,7 12,7.67157288 12,8.5 L12,11.5 C12,12.3284271 11.3284271,13 10.5,13 C9.67157288,13 9,12.3284271 9,11.5 L9,8.5 C9,7.67157288 9.67157288,7 10.5,7 Z" id="形状结合"></path>
                        </g>
                    </g>
                </g>
            </g>
        </g>
    </g>
</svg>