<svg xmlns="http://www.w3.org/2000/svg" width="20" height="10" viewBox="0 0 20 10">
  <path fill="#E06164" d="M3.99123195,8.44472193 C5.44023195,8.44472193 6.32223195,7.58072193 6.32223195,6.51872193 C6.32223195,5.54672193 5.75523195,5.06072193 4.97223195,4.72772193 L4.06323195,4.34072193 C3.52323195,4.12472193 2.99223195,3.90872193 2.99223195,3.34172193 C2.99223195,2.81072193 3.43323195,2.48672193 4.10823195,2.48672193 C4.69323195,2.48672193 5.15223195,2.71172193 5.56623195,3.08072193 L6.11523195,2.41472193 C5.61123195,1.90172193 4.88223195,1.57772193 4.10823195,1.57772193 C2.84823195,1.57772193 1.93023195,2.36072193 1.93023195,3.40472193 C1.93023195,4.36772193 2.64123195,4.87172193 3.28023195,5.14172193 L4.19823195,5.53772193 C4.81023195,5.80772193 5.26023195,5.99672193 5.26023195,6.59972193 C5.26023195,7.15772193 4.81023195,7.53572193 4.00923195,7.53572193 C3.37023195,7.53572193 2.72223195,7.22972193 2.24523195,6.75272193 L1.63323195,7.47272193 C2.23623195,8.08472193 3.08223195,8.44472193 3.99123195,8.44472193 Z M12.087232,8.32772193 L12.087232,7.44572193 L9.11723195,7.44572193 L9.11723195,5.30372193 L11.547232,5.30372193 L11.547232,4.42172193 L9.11723195,4.42172193 L9.11723195,2.57672193 L11.988232,2.57672193 L11.988232,1.70372193 L8.07323195,1.70372193 L8.07323195,8.32772193 L12.087232,8.32772193 Z M15.017232,8.32772193 L15.017232,5.81672193 L16.016232,5.81672193 C17.456232,5.81672193 18.509232,5.15072193 18.509232,3.70172193 C18.509232,2.20772193 17.456232,1.70372193 15.980232,1.70372193 L13.973232,1.70372193 L13.973232,8.32772193 L15.017232,8.32772193 Z M15.917232,4.97972193 L15.017232,4.97972193 L15.017232,2.54072193 L15.881232,2.54072193 C16.934232,2.54072193 17.483232,2.82872193 17.483232,3.70172193 C17.483232,4.57472193 16.979232,4.97972193 15.917232,4.97972193 Z" transform="rotate(-9 10.071 5.011)"/>
</svg>
