<svg xmlns="http://www.w3.org/2000/svg" width="80" height="40" viewBox="0 0 80 40">
  <path fill="#E06164" d="M7.96,33.5078417 L7.96,21.0158417 C7.96,18.1358417 7.636,15.0758417 7.42,12.3398417 L7.6,12.3398417 L10.372,17.8838417 L19.156,33.5078417 L23.44,33.5078417 L23.44,7.01184165 L19.48,7.01184165 L19.48,19.3598417 C19.48,22.2398417 19.804,25.4438417 20.02,28.1798417 L19.84,28.1798417 L17.068,22.5638417 L8.284,7.01184165 L4,7.01184165 L4,33.5078417 L7.96,33.5078417 Z M42.504,33.9758417 C49.308,33.9758417 54.06,28.6838417 54.06,20.1518417 C54.06,11.6198417 49.308,6.50784165 42.504,6.50784165 C35.7,6.50784165 30.984,11.6198417 30.984,20.1518417 C30.984,28.6838417 35.7,33.9758417 42.504,33.9758417 Z M42.504,30.3398417 C38.112,30.3398417 35.268,26.3798417 35.268,20.1518417 C35.268,13.9238417 38.112,10.1438417 42.504,10.1438417 C46.896,10.1438417 49.776,13.9238417 49.776,20.1518417 C49.776,26.3798417 46.896,30.3398417 42.504,30.3398417 Z M70.856,33.5078417 L79.136,7.01184165 L74.888,7.01184165 L70.964,20.7278417 C70.1,23.7518417 69.452,26.3438417 68.552,29.4038417 L68.372,29.4038417 C67.436,26.3438417 66.86,23.7518417 65.96,20.7278417 L62.036,7.01184165 L57.608,7.01184165 L65.924,33.5078417 L70.856,33.5078417 Z" transform="rotate(-9 41.568 20.242)"/>
</svg>
