<svg xmlns="http://www.w3.org/2000/svg" width="20" height="10" viewBox="0 0 20 10">
  <path fill="#E06164" d="M1.53798122,8.25879188 L1.53798122,4.98279188 C1.53798122,4.38879188 1.45698122,3.53379188 1.41198122,2.93079188 L1.44798122,2.93079188 L1.96998122,4.46079188 L3.13098122,7.61979188 L3.77898122,7.61979188 L4.93098122,4.46079188 L5.46198122,2.93079188 L5.49798122,2.93079188 C5.44398122,3.53379188 5.36298122,4.38879188 5.36298122,4.98279188 L5.36298122,8.25879188 L6.33498122,8.25879188 L6.33498122,1.63479188 L5.12898122,1.63479188 L3.93198122,4.98279188 C3.77898122,5.42379188 3.65298122,5.87379188 3.49998122,6.32379188 L3.45498122,6.32379188 C3.30198122,5.87379188 3.16698122,5.42379188 3.01398122,4.98279188 L1.79898122,1.63479188 L0.601981221,1.63479188 L0.601981221,8.25879188 L1.53798122,8.25879188 Z M8.76098122,8.25879188 L9.32798122,6.36879188 L11.6319812,6.36879188 L12.1899812,8.25879188 L13.2969812,8.25879188 L11.1009812,1.63479188 L9.89498122,1.63479188 L7.69898122,8.25879188 L8.76098122,8.25879188 Z M11.3799812,5.54979188 L9.57098122,5.54979188 L9.84098122,4.65879188 C10.0569812,3.93879188 10.2639812,3.20979188 10.4529812,2.45379188 L10.4889812,2.45379188 C10.6959812,3.20079188 10.8939812,3.93879188 11.1189812,4.65879188 L11.3799812,5.54979188 Z M15.7139812,8.25879188 L15.7139812,5.58579188 L16.7849812,5.58579188 L18.2879812,8.25879188 L19.4669812,8.25879188 L17.8469812,5.45079188 C18.6839812,5.18979188 19.2329812,4.57779188 19.2329812,3.55179188 C19.2329812,2.12079188 18.2069812,1.63479188 16.8389812,1.63479188 L14.6699812,1.63479188 L14.6699812,8.25879188 L15.7139812,8.25879188 Z M16.7129812,4.74879188 L15.7139812,4.74879188 L15.7139812,2.47179188 L16.7129812,2.47179188 C17.6759812,2.47179188 18.1979812,2.75079188 18.1979812,3.55179188 C18.1979812,4.35279188 17.6759812,4.74879188 16.7129812,4.74879188 Z" transform="rotate(-9 10.034 4.947)"/>
</svg>
