<svg xmlns="http://www.w3.org/2000/svg" width="20" height="10" viewBox="0 0 20 10">
  <path fill="#E06164" d="M2.53339587,8.40819591 C3.88339587,8.40819591 4.45939587,7.45419591 4.45939587,6.26619591 L4.45939587,1.66719591 L3.41539587,1.66719591 L3.41539587,6.16719591 C3.41539587,7.13919591 3.08239587,7.49919591 2.41639587,7.49919591 C1.98439587,7.49919591 1.62439587,7.29219591 1.34539587,6.77919591 L0.616395871,7.31019591 C1.03039587,8.03919591 1.64239587,8.40819591 2.53339587,8.40819591 Z M9.09939587,8.40819591 C10.5663959,8.40819591 11.5563959,7.60719591 11.5563959,5.44719591 L11.5563959,1.66719591 L10.5483959,1.66719591 L10.5483959,5.51919591 C10.5483959,7.01319591 9.93639587,7.49919591 9.09939587,7.49919591 C8.27139587,7.49919591 7.67739587,7.01319591 7.67739587,5.51919591 L7.67739587,1.66719591 L6.63339587,1.66719591 L6.63339587,5.44719591 C6.63339587,7.60719591 7.63239587,8.40819591 9.09939587,8.40819591 Z M14.7563959,8.29119591 L14.7563959,5.16819591 C14.7563959,4.44819591 14.6753959,3.68319591 14.6213959,2.99919591 L14.6663959,2.99919591 L15.3593959,4.38519591 L17.5553959,8.29119591 L18.6263959,8.29119591 L18.6263959,1.66719591 L17.6363959,1.66719591 L17.6363959,4.75419591 C17.6363959,5.47419591 17.7173959,6.27519591 17.7713959,6.95919591 L17.7263959,6.95919591 L17.0333959,5.55519591 L14.8373959,1.66719591 L13.7663959,1.66719591 L13.7663959,8.29119591 L14.7563959,8.29119591 Z" transform="rotate(-9 9.621 5.038)"/>
</svg>
