<svg xmlns="http://www.w3.org/2000/svg" width="80" height="40" viewBox="0 0 80 40">
  <path fill="#E06164" d="M8.57209138,33.1789278 L8.57209138,20.0749278 C8.57209138,17.6989278 8.24809138,14.2789278 8.06809138,11.8669278 L8.21209138,11.8669278 L10.3000914,17.9869278 L14.9440914,30.6229278 L17.5360914,30.6229278 L22.1440914,17.9869278 L24.2680914,11.8669278 L24.4120914,11.8669278 C24.1960914,14.2789278 23.8720914,17.6989278 23.8720914,20.0749278 L23.8720914,33.1789278 L27.7600914,33.1789278 L27.7600914,6.68292785 L22.9360914,6.68292785 L18.1480914,20.0749278 C17.5360914,21.8389278 17.0320914,23.6389278 16.4200914,25.4389278 L16.2400914,25.4389278 C15.6280914,23.6389278 15.0880914,21.8389278 14.4760914,20.0749278 L9.61609138,6.68292785 L4.82809138,6.68292785 L4.82809138,33.1789278 L8.57209138,33.1789278 Z M37.4640914,33.1789278 L39.7320914,25.6189278 L48.9480914,25.6189278 L51.1800914,33.1789278 L55.6080914,33.1789278 L46.8240914,6.68292785 L42.0000914,6.68292785 L33.2160914,33.1789278 L37.4640914,33.1789278 Z M47.9400914,22.3429278 L40.7040914,22.3429278 L41.7840914,18.7789278 C42.6480914,15.8989278 43.4760914,12.9829278 44.2320914,9.95892785 L44.3760914,9.95892785 C45.2040914,12.9469278 45.9960914,15.8989278 46.8960914,18.7789278 L47.9400914,22.3429278 Z M69.0200914,33.1789278 L69.0200914,23.1349278 L77.0120914,6.68292785 L72.6560914,6.68292785 L69.5600914,13.7029278 C68.7680914,15.6829278 67.9040914,17.5189278 67.0400914,19.5349278 L66.8960914,19.5349278 C65.9960914,17.5189278 65.2400914,15.6829278 64.4120914,13.7029278 L61.3520914,6.68292785 L56.8880914,6.68292785 L64.8440914,23.1349278 L64.8440914,33.1789278 L69.0200914,33.1789278 Z" transform="rotate(-9 40.92 19.93)"/>
</svg>
