<svg xmlns="http://www.w3.org/2000/svg" width="20" height="10" viewBox="0 0 20 10">
  <path fill="#E06164" d="M2.917,8.53005689 C4.267,8.53005689 4.843,7.57605689 4.843,6.38805689 L4.843,1.78905689 L3.799,1.78905689 L3.799,6.28905689 C3.799,7.26105689 3.466,7.62105689 2.8,7.62105689 C2.368,7.62105689 2.008,7.41405689 1.729,6.90105689 L1,7.43205689 C1.414,8.16105689 2.026,8.53005689 2.917,8.53005689 Z M7.242,8.41305689 L7.809,6.52305689 L10.113,6.52305689 L10.671,8.41305689 L11.778,8.41305689 L9.582,1.78905689 L8.376,1.78905689 L6.18,8.41305689 L7.242,8.41305689 Z M9.861,5.70405689 L8.052,5.70405689 L8.322,4.81305689 C8.538,4.09305689 8.745,3.36405689 8.934,2.60805689 L8.97,2.60805689 C9.177,3.35505689 9.375,4.09305689 9.6,4.81305689 L9.861,5.70405689 Z M14.141,8.41305689 L14.141,5.29005689 C14.141,4.57005689 14.06,3.80505689 14.006,3.12105689 L14.051,3.12105689 L14.744,4.50705689 L16.94,8.41305689 L18.011,8.41305689 L18.011,1.78905689 L17.021,1.78905689 L17.021,4.87605689 C17.021,5.59605689 17.102,6.39705689 17.156,7.08105689 L17.111,7.08105689 L16.418,5.67705689 L14.222,1.78905689 L13.151,1.78905689 L13.151,8.41305689 L14.141,8.41305689 Z" transform="rotate(-9 9.505 5.16)"/>
</svg>
