<svg xmlns="http://www.w3.org/2000/svg" width="20" height="10" viewBox="0 0 20 10">
  <path fill="#E06164" d="M2.14302285,8.29473196 L2.14302285,5.01873196 C2.14302285,4.42473196 2.06202285,3.56973196 2.01702285,2.96673196 L2.05302285,2.96673196 L2.57502285,4.49673196 L3.73602285,7.65573196 L4.38402285,7.65573196 L5.53602285,4.49673196 L6.06702285,2.96673196 L6.10302285,2.96673196 C6.04902285,3.56973196 5.96802285,4.42473196 5.96802285,5.01873196 L5.96802285,8.29473196 L6.94002285,8.29473196 L6.94002285,1.67073196 L5.73402285,1.67073196 L4.53702285,5.01873196 C4.38402285,5.45973196 4.25802285,5.90973196 4.10502285,6.35973196 L4.06002285,6.35973196 C3.90702285,5.90973196 3.77202285,5.45973196 3.61902285,5.01873196 L2.40402285,1.67073196 L1.20702285,1.67073196 L1.20702285,8.29473196 L2.14302285,8.29473196 Z M9.36602285,8.29473196 L9.93302285,6.40473196 L12.2370228,6.40473196 L12.7950228,8.29473196 L13.9020228,8.29473196 L11.7060228,1.67073196 L10.5000228,1.67073196 L8.30402285,8.29473196 L9.36602285,8.29473196 Z M11.9850228,5.58573196 L10.1760228,5.58573196 L10.4460228,4.69473196 C10.6620228,3.97473196 10.8690228,3.24573196 11.0580228,2.48973196 L11.0940228,2.48973196 C11.3010228,3.23673196 11.4990228,3.97473196 11.7240228,4.69473196 L11.9850228,5.58573196 Z M17.2550228,8.29473196 L17.2550228,5.78373196 L19.2530228,1.67073196 L18.1640228,1.67073196 L17.3900228,3.42573196 C17.1920228,3.92073196 16.9760228,4.37973196 16.7600228,4.88373196 L16.7240228,4.88373196 C16.4990228,4.37973196 16.3100228,3.92073196 16.1030228,3.42573196 L15.3380228,1.67073196 L14.2220228,1.67073196 L16.2110228,5.78373196 L16.2110228,8.29473196 L17.2550228,8.29473196 Z" transform="rotate(-9 10.23 4.983)"/>
</svg>
