<svg xmlns="http://www.w3.org/2000/svg" width="20" height="10" viewBox="0 0 20 10">
  <path fill="#E06164" d="M3.20340643,8.26362364 C5.18340643,8.26362364 6.34440643,7.07562364 6.34440643,4.92462364 C6.34440643,2.76462364 5.18340643,1.63962364 3.14940643,1.63962364 L1.43040643,1.63962364 L1.43040643,8.26362364 L3.20340643,8.26362364 Z M3.07740643,7.40862364 L2.47440643,7.40862364 L2.47440643,2.48562364 L3.07740643,2.48562364 C4.49940643,2.48562364 5.26440643,3.26862364 5.26440643,4.92462364 C5.26440643,6.57162364 4.49940643,7.40862364 3.07740643,7.40862364 Z M12.2354064,8.26362364 L12.2354064,7.38162364 L9.26540643,7.38162364 L9.26540643,5.23962364 L11.6954064,5.23962364 L11.6954064,4.35762364 L9.26540643,4.35762364 L9.26540643,2.51262364 L12.1364064,2.51262364 L12.1364064,1.63962364 L8.22140643,1.63962364 L8.22140643,8.26362364 L12.2354064,8.26362364 Z M16.7044064,8.38062364 C17.5594064,8.38062364 18.2344064,8.03862364 18.7654064,7.42662364 L18.2074064,6.76962364 C17.8114064,7.20162364 17.3434064,7.47162364 16.7404064,7.47162364 C15.5704064,7.47162364 14.8324064,6.50862364 14.8324064,4.93362364 C14.8324064,3.37662364 15.6244064,2.42262364 16.7674064,2.42262364 C17.3074064,2.42262364 17.7214064,2.66562364 18.0634064,3.01662364 L18.6304064,2.35062364 C18.2254064,1.90962364 17.5774064,1.51362364 16.7494064,1.51362364 C15.0754064,1.51362364 13.7614064,2.80962364 13.7614064,4.96962364 C13.7614064,7.13862364 15.0394064,8.38062364 16.7044064,8.38062364 Z" transform="rotate(-9 10.098 4.947)"/>
</svg>
