<svg xmlns="http://www.w3.org/2000/svg" width="20" height="10" viewBox="0 0 20 10">
  <path fill="#E06164" d="M3.88,8.5439796 C5.581,8.5439796 6.769,7.2209796 6.769,5.0879796 C6.769,2.9549796 5.581,1.6769796 3.88,1.6769796 C2.179,1.6769796 1,2.9549796 1,5.0879796 C1,7.2209796 2.179,8.5439796 3.88,8.5439796 Z M3.88,7.6349796 C2.782,7.6349796 2.071,6.6449796 2.071,5.0879796 C2.071,3.5309796 2.782,2.5859796 3.88,2.5859796 C4.978,2.5859796 5.698,3.5309796 5.698,5.0879796 C5.698,6.6449796 4.978,7.6349796 3.88,7.6349796 Z M11.229,8.5439796 C12.084,8.5439796 12.759,8.2019796 13.29,7.5899796 L12.732,6.9329796 C12.336,7.3649796 11.868,7.6349796 11.265,7.6349796 C10.095,7.6349796 9.357,6.6719796 9.357,5.0969796 C9.357,3.5399796 10.149,2.5859796 11.292,2.5859796 C11.832,2.5859796 12.246,2.8289796 12.588,3.1799796 L13.155,2.5139796 C12.75,2.0729796 12.102,1.6769796 11.274,1.6769796 C9.6,1.6769796 8.286,2.9729796 8.286,5.1329796 C8.286,7.3019796 9.564,8.5439796 11.229,8.5439796 Z M17.192,8.4269796 L17.192,2.6759796 L19.145,2.6759796 L19.145,1.8029796 L14.204,1.8029796 L14.204,2.6759796 L16.148,2.6759796 L16.148,8.4269796 L17.192,8.4269796 Z" transform="rotate(-9 10.073 5.11)"/>
</svg>
