<svg xmlns="http://www.w3.org/2000/svg" width="80" height="40" viewBox="0 0 80 40">
  <path fill="#E06164" d="M12.8136257,33.0544946 C20.7336257,33.0544946 25.3776257,28.3024946 25.3776257,19.6984946 C25.3776257,11.0584946 20.7336257,6.55849457 12.5976257,6.55849457 L5.72162571,6.55849457 L5.72162571,33.0544946 L12.8136257,33.0544946 Z M12.3096257,29.6344946 L9.89762571,29.6344946 L9.89762571,9.94249457 L12.3096257,9.94249457 C17.9976257,9.94249457 21.0576257,13.0744946 21.0576257,19.6984946 C21.0576257,26.2864946 17.9976257,29.6344946 12.3096257,29.6344946 Z M48.9416257,33.0544946 L48.9416257,29.5264946 L37.0616257,29.5264946 L37.0616257,20.9584946 L46.7816257,20.9584946 L46.7816257,17.4304946 L37.0616257,17.4304946 L37.0616257,10.0504946 L48.5456257,10.0504946 L48.5456257,6.55849457 L32.8856257,6.55849457 L32.8856257,33.0544946 L48.9416257,33.0544946 Z M66.8176257,33.5224946 C70.2376257,33.5224946 72.9376257,32.1544946 75.0616257,29.7064946 L72.8296257,27.0784946 C71.2456257,28.8064946 69.3736257,29.8864946 66.9616257,29.8864946 C62.2816257,29.8864946 59.3296257,26.0344946 59.3296257,19.7344946 C59.3296257,13.5064946 62.4976257,9.69049457 67.0696257,9.69049457 C69.2296257,9.69049457 70.8856257,10.6624946 72.2536257,12.0664946 L74.5216257,9.40249457 C72.9016257,7.63849457 70.3096257,6.05449457 66.9976257,6.05449457 C60.3016257,6.05449457 55.0456257,11.2384946 55.0456257,19.8784946 C55.0456257,28.5544946 60.1576257,33.5224946 66.8176257,33.5224946 Z" transform="rotate(-9 40.392 19.788)"/>
</svg>
