<svg xmlns="http://www.w3.org/2000/svg" width="80" height="40" viewBox="0 0 80 40">
  <path fill="#E06164" d="M12.176,33.4157638 L12.176,22.0037638 L21.968,22.0037638 L21.968,18.5117638 L12.176,18.5117638 L12.176,10.4117638 L23.696,10.4117638 L23.696,6.91976377 L8,6.91976377 L8,33.4157638 L12.176,33.4157638 Z M46.432,33.4157638 L46.432,29.8877638 L34.552,29.8877638 L34.552,21.3197638 L44.272,21.3197638 L44.272,17.7917638 L34.552,17.7917638 L34.552,10.4117638 L46.036,10.4117638 L46.036,6.91976377 L30.376,6.91976377 L30.376,33.4157638 L46.432,33.4157638 Z M62.832,33.4157638 C68.7,33.4157638 72.984,30.8957638 72.984,25.6397638 C72.984,22.0397638 70.788,19.9877638 67.764,19.3397638 L67.764,19.1597638 C70.14,18.3677638 71.544,15.9557638 71.544,13.4357638 C71.544,8.64776377 67.62,6.91976377 62.184,6.91976377 L53.976,6.91976377 L53.976,33.4157638 L62.832,33.4157638 Z M61.716,17.9717638 L58.152,17.9717638 L58.152,10.1597638 L61.824,10.1597638 C65.568,10.1597638 67.44,11.2037638 67.44,13.9757638 C67.44,16.4597638 65.748,17.9717638 61.716,17.9717638 Z M62.364,30.1397638 L58.152,30.1397638 L58.152,21.1397638 L62.364,21.1397638 C66.576,21.1397638 68.88,22.4357638 68.88,25.4237638 C68.88,28.6637638 66.504,30.1397638 62.364,30.1397638 Z" transform="rotate(-9 40.492 20.168)"/>
</svg>
