<svg xmlns="http://www.w3.org/2000/svg" width="20" height="10" viewBox="0 0 20 10">
  <path fill="#E06164" d="M1.48387445,8.17203273 L2.05087445,6.28203273 L4.35487445,6.28203273 L4.91287445,8.17203273 L6.01987445,8.17203273 L3.82387445,1.54803273 L2.61787445,1.54803273 L0.421874448,8.17203273 L1.48387445,8.17203273 Z M4.10287445,5.46303273 L2.29387445,5.46303273 L2.56387445,4.57203273 C2.77987445,3.85203273 2.98687445,3.12303273 3.17587445,2.36703273 L3.21187445,2.36703273 C3.41887445,3.11403273 3.61687445,3.85203273 3.84187445,4.57203273 L4.10287445,5.46303273 Z M9.67887445,8.28903273 C11.1458744,8.28903273 12.1358744,7.48803273 12.1358744,5.32803273 L12.1358744,1.54803273 L11.1278744,1.54803273 L11.1278744,5.40003273 C11.1278744,6.89403273 10.5158744,7.38003273 9.67887445,7.38003273 C8.85087445,7.38003273 8.25687445,6.89403273 8.25687445,5.40003273 L8.25687445,1.54803273 L7.21287445,1.54803273 L7.21287445,5.32803273 C7.21287445,7.48803273 8.21187445,8.28903273 9.67887445,8.28903273 Z M17.0458744,8.28903273 C17.9548744,8.28903273 18.7018744,7.95603273 19.1428744,7.51503273 L19.1428744,4.64403273 L16.8838744,4.64403273 L16.8838744,5.49903273 L18.1978744,5.49903273 L18.1978744,7.05603273 C17.9638744,7.26303273 17.5588744,7.38003273 17.1538744,7.38003273 C15.7858744,7.38003273 15.0568744,6.41703273 15.0568744,4.84203273 C15.0568744,3.28503273 15.8758744,2.33103273 17.1088744,2.33103273 C17.7478744,2.33103273 18.1528744,2.59203273 18.4768744,2.92503273 L19.0438744,2.25903273 C18.6388744,1.83603273 18.0088744,1.42203273 17.0728744,1.42203273 C15.3178744,1.42203273 13.9858744,2.71803273 13.9858744,4.87803273 C13.9858744,7.04703273 15.2728744,8.28903273 17.0458744,8.28903273 Z" transform="rotate(-9 9.782 4.856)"/>
</svg>
