<svg xmlns="http://www.w3.org/2000/svg" width="80" height="40" viewBox="0 0 80 40">
  <path fill="#E06164" d="M11.668,34.1202276 C17.068,34.1202276 19.372,30.3042276 19.372,25.5522276 L19.372,7.15622758 L15.196,7.15622758 L15.196,25.1562276 C15.196,29.0442276 13.864,30.4842276 11.2,30.4842276 C9.472,30.4842276 8.032,29.6562276 6.916,27.6042276 L4,29.7282276 C5.656,32.6442276 8.104,34.1202276 11.668,34.1202276 Z M28.968,33.6522276 L31.236,26.0922276 L40.452,26.0922276 L42.684,33.6522276 L47.112,33.6522276 L38.328,7.15622758 L33.504,7.15622758 L24.72,33.6522276 L28.968,33.6522276 Z M39.444,22.8162276 L32.208,22.8162276 L33.288,19.2522276 C34.152,16.3722276 34.98,13.4562276 35.736,10.4322276 L35.88,10.4322276 C36.708,13.4202276 37.5,16.3722276 38.4,19.2522276 L39.444,22.8162276 Z M56.564,33.6522276 L56.564,21.1602276 C56.564,18.2802276 56.24,15.2202276 56.024,12.4842276 L56.204,12.4842276 L58.976,18.0282276 L67.76,33.6522276 L72.044,33.6522276 L72.044,7.15622758 L68.084,7.15622758 L68.084,19.5042276 C68.084,22.3842276 68.408,25.5882276 68.624,28.3242276 L68.444,28.3242276 L65.672,22.7082276 L56.888,7.15622758 L52.604,7.15622758 L52.604,33.6522276 L56.564,33.6522276 Z" transform="rotate(-9 38.022 20.638)"/>
</svg>
