<svg xmlns="http://www.w3.org/2000/svg" width="80" height="40" viewBox="0 0 80 40">
  <path fill="#E06164" d="M7.87498333,33.193007 L10.1429833,25.633007 L19.3589833,25.633007 L21.5909833,33.193007 L26.0189833,33.193007 L17.2349833,6.69700695 L12.4109833,6.69700695 L3.62698333,33.193007 L7.87498333,33.193007 Z M18.3509833,22.357007 L11.1149833,22.357007 L12.1949833,18.793007 C13.0589833,15.913007 13.8869833,12.997007 14.6429833,9.97300695 L14.7869833,9.97300695 C15.6149833,12.961007 16.4069833,15.913007 17.3069833,18.793007 L18.3509833,22.357007 Z M35.6869833,33.193007 L35.6869833,23.149007 L39.6829833,23.149007 C45.4429833,23.149007 49.6549833,20.485007 49.6549833,14.689007 C49.6549833,8.71300695 45.4429833,6.69700695 39.5389833,6.69700695 L31.5109833,6.69700695 L31.5109833,33.193007 L35.6869833,33.193007 Z M39.2869833,19.801007 L35.6869833,19.801007 L35.6869833,10.045007 L39.1429833,10.045007 C43.3549833,10.045007 45.5509833,11.197007 45.5509833,14.689007 C45.5509833,18.181007 43.5349833,19.801007 39.2869833,19.801007 Z M60.9789833,33.193007 L60.9789833,22.501007 L65.2629833,22.501007 L71.2749833,33.193007 L75.9909833,33.193007 L69.5109833,21.961007 C72.8589833,20.917007 75.0549833,18.469007 75.0549833,14.365007 C75.0549833,8.64100695 70.9509833,6.69700695 65.4789833,6.69700695 L56.8029833,6.69700695 L56.8029833,33.193007 L60.9789833,33.193007 Z M64.9749833,19.153007 L60.9789833,19.153007 L60.9789833,10.045007 L64.9749833,10.045007 C68.8269833,10.045007 70.9149833,11.161007 70.9149833,14.365007 C70.9149833,17.569007 68.8269833,19.153007 64.9749833,19.153007 Z" transform="rotate(-9 39.809 19.945)"/>
</svg>
