<svg xmlns="http://www.w3.org/2000/svg" width="80" height="40" viewBox="0 0 80 40">
  <path fill="#E06164" d="M15.9649278,33.7788877 C21.7609278,33.7788877 25.2889278,30.3228877 25.2889278,26.0748877 C25.2889278,22.1868877 23.0209278,20.2428877 19.8889278,18.9108877 L16.2529278,17.3628877 C14.0929278,16.4988877 11.9689278,15.6348877 11.9689278,13.3668877 C11.9689278,11.2428877 13.7329278,9.94688773 16.4329278,9.94688773 C18.7729278,9.94688773 20.6089278,10.8468877 22.2649278,12.3228877 L24.4609278,9.65888773 C22.4449278,7.60688773 19.5289278,6.31088773 16.4329278,6.31088773 C11.3929278,6.31088773 7.72092781,9.44288773 7.72092781,13.6188877 C7.72092781,17.4708877 10.5649278,19.4868877 13.1209278,20.5668877 L16.7929278,22.1508877 C19.2409278,23.2308877 21.0409278,23.9868877 21.0409278,26.3988877 C21.0409278,28.6308877 19.2409278,30.1428877 16.0369278,30.1428877 C13.4809278,30.1428877 10.8889278,28.9188877 8.98092781,27.0108877 L6.53292781,29.8908877 C8.94492781,32.3388877 12.3289278,33.7788877 15.9649278,33.7788877 Z M48.3489278,33.3108877 L48.3489278,29.7828877 L36.4689278,29.7828877 L36.4689278,21.2148877 L46.1889278,21.2148877 L46.1889278,17.6868877 L36.4689278,17.6868877 L36.4689278,10.3068877 L47.9529278,10.3068877 L47.9529278,6.81488773 L32.2929278,6.81488773 L32.2929278,33.3108877 L48.3489278,33.3108877 Z M60.0689278,33.3108877 L60.0689278,23.2668877 L64.0649278,23.2668877 C69.8249278,23.2668877 74.0369278,20.6028877 74.0369278,14.8068877 C74.0369278,8.83088773 69.8249278,6.81488773 63.9209278,6.81488773 L55.8929278,6.81488773 L55.8929278,33.3108877 L60.0689278,33.3108877 Z M63.6689278,19.9188877 L60.0689278,19.9188877 L60.0689278,10.1628877 L63.5249278,10.1628877 C67.7369278,10.1628877 69.9329278,11.3148877 69.9329278,14.8068877 C69.9329278,18.2988877 67.9169278,19.9188877 63.6689278,19.9188877 Z" transform="rotate(-9 40.285 20.045)"/>
</svg>
