<svg xmlns="http://www.w3.org/2000/svg" width="20" height="10" viewBox="0 0 20 10">
  <path fill="#E06164" d="M1.99,8.37696041 L1.99,5.25396041 C1.99,4.53396041 1.909,3.76896041 1.855,3.08496041 L1.9,3.08496041 L2.593,4.47096041 L4.789,8.37696041 L5.86,8.37696041 L5.86,1.75296041 L4.87,1.75296041 L4.87,4.83996041 C4.87,5.55996041 4.951,6.36096041 5.005,7.04496041 L4.96,7.04496041 L4.267,5.64096041 L2.071,1.75296041 L1,1.75296041 L1,8.37696041 L1.99,8.37696041 Z M10.626,8.49396041 C12.327,8.49396041 13.515,7.17096041 13.515,5.03796041 C13.515,2.90496041 12.327,1.62696041 10.626,1.62696041 C8.925,1.62696041 7.746,2.90496041 7.746,5.03796041 C7.746,7.17096041 8.925,8.49396041 10.626,8.49396041 Z M10.626,7.58496041 C9.528,7.58496041 8.817,6.59496041 8.817,5.03796041 C8.817,3.48096041 9.528,2.53596041 10.626,2.53596041 C11.724,2.53596041 12.444,3.48096041 12.444,5.03796041 C12.444,6.59496041 11.724,7.58496041 10.626,7.58496041 Z M17.714,8.37696041 L19.784,1.75296041 L18.722,1.75296041 L17.741,5.18196041 C17.525,5.93796041 17.363,6.58596041 17.138,7.35096041 L17.093,7.35096041 C16.859,6.58596041 16.715,5.93796041 16.49,5.18196041 L15.509,1.75296041 L14.402,1.75296041 L16.481,8.37696041 L17.714,8.37696041 Z" transform="rotate(-9 10.392 5.06)"/>
</svg>
