<svg xmlns="http://www.w3.org/2000/svg" width="80" height="40" viewBox="0 0 80 40">
  <path fill="#E06164" d="M5.93549779,32.6881309 L8.20349779,25.1281309 L17.4194978,25.1281309 L19.6514978,32.6881309 L24.0794978,32.6881309 L15.2954978,6.19213091 L10.4714978,6.19213091 L1.68749779,32.6881309 L5.93549779,32.6881309 Z M16.4114978,21.8521309 L9.17549779,21.8521309 L10.2554978,18.2881309 C11.1194978,15.4081309 11.9474978,12.4921309 12.7034978,9.46813091 L12.8474978,9.46813091 C13.6754978,12.4561309 14.4674978,15.4081309 15.3674978,18.2881309 L16.4114978,21.8521309 Z M38.7154978,33.1561309 C44.5834978,33.1561309 48.5434978,29.9521309 48.5434978,21.3121309 L48.5434978,6.19213091 L44.5114978,6.19213091 L44.5114978,21.6001309 C44.5114978,27.5761309 42.0634978,29.5201309 38.7154978,29.5201309 C35.4034978,29.5201309 33.0274978,27.5761309 33.0274978,21.6001309 L33.0274978,6.19213091 L28.8514978,6.19213091 L28.8514978,21.3121309 C28.8514978,29.9521309 32.8474978,33.1561309 38.7154978,33.1561309 Z M68.1834978,33.1561309 C71.8194978,33.1561309 74.8074978,31.8241309 76.5714978,30.0601309 L76.5714978,18.5761309 L67.5354978,18.5761309 L67.5354978,21.9961309 L72.7914978,21.9961309 L72.7914978,28.2241309 C71.8554978,29.0521309 70.2354978,29.5201309 68.6154978,29.5201309 C63.1434978,29.5201309 60.2274978,25.6681309 60.2274978,19.3681309 C60.2274978,13.1401309 63.5034978,9.32413091 68.4354978,9.32413091 C70.9914978,9.32413091 72.6114978,10.3681309 73.9074978,11.7001309 L76.1754978,9.03613091 C74.5554978,7.34413091 72.0354978,5.68813091 68.2914978,5.68813091 C61.2714978,5.68813091 55.9434978,10.8721309 55.9434978,19.5121309 C55.9434978,28.1881309 61.0914978,33.1561309 68.1834978,33.1561309 Z" transform="rotate(-9 39.13 19.422)"/>
</svg>
