<svg xmlns="http://www.w3.org/2000/svg" width="20" height="10" viewBox="0 0 20 10">
  <path fill="#E06164" d="M1.96874583,8.29825174 L2.53574583,6.40825174 L4.83974583,6.40825174 L5.39774583,8.29825174 L6.50474583,8.29825174 L4.30874583,1.67425174 L3.10274583,1.67425174 L0.906745833,8.29825174 L1.96874583,8.29825174 Z M4.58774583,5.58925174 L2.77874583,5.58925174 L3.04874583,4.69825174 C3.26474583,3.97825174 3.47174583,3.24925174 3.66074583,2.49325174 L3.69674583,2.49325174 C3.90374583,3.24025174 4.10174583,3.97825174 4.32674583,4.69825174 L4.58774583,5.58925174 Z M8.92174583,8.29825174 L8.92174583,5.78725174 L9.92074583,5.78725174 C11.3607458,5.78725174 12.4137458,5.12125174 12.4137458,3.67225174 C12.4137458,2.17825174 11.3607458,1.67425174 9.88474583,1.67425174 L7.87774583,1.67425174 L7.87774583,8.29825174 L8.92174583,8.29825174 Z M9.82174583,4.95025174 L8.92174583,4.95025174 L8.92174583,2.51125174 L9.78574583,2.51125174 C10.8387458,2.51125174 11.3877458,2.79925174 11.3877458,3.67225174 C11.3877458,4.54525174 10.8837458,4.95025174 9.82174583,4.95025174 Z M15.2447458,8.29825174 L15.2447458,5.62525174 L16.3157458,5.62525174 L17.8187458,8.29825174 L18.9977458,8.29825174 L17.3777458,5.49025174 C18.2147458,5.22925174 18.7637458,4.61725174 18.7637458,3.59125174 C18.7637458,2.16025174 17.7377458,1.67425174 16.3697458,1.67425174 L14.2007458,1.67425174 L14.2007458,8.29825174 L15.2447458,8.29825174 Z M16.2437458,4.78825174 L15.2447458,4.78825174 L15.2447458,2.51125174 L16.2437458,2.51125174 C17.2067458,2.51125174 17.7287458,2.79025174 17.7287458,3.59125174 C17.7287458,4.39225174 17.2067458,4.78825174 16.2437458,4.78825174 Z" transform="rotate(-9 9.952 4.986)"/>
</svg>
