<svg xmlns="http://www.w3.org/2000/svg" width="20" height="10" viewBox="0 0 20 10">
  <path fill="#E06164" d="M3.044,8.35394094 L3.044,5.50094094 L5.492,5.50094094 L5.492,4.62794094 L3.044,4.62794094 L3.044,2.60294094 L5.924,2.60294094 L5.924,1.72994094 L2,1.72994094 L2,8.35394094 L3.044,8.35394094 Z M11.608,8.35394094 L11.608,7.47194094 L8.638,7.47194094 L8.638,5.32994094 L11.068,5.32994094 L11.068,4.44794094 L8.638,4.44794094 L8.638,2.60294094 L11.509,2.60294094 L11.509,1.72994094 L7.594,1.72994094 L7.594,8.35394094 L11.608,8.35394094 Z M15.708,8.35394094 C17.175,8.35394094 18.246,7.72394094 18.246,6.40994094 C18.246,5.50994094 17.697,4.99694094 16.941,4.83494094 L16.941,4.78994094 C17.535,4.59194094 17.886,3.98894094 17.886,3.35894094 C17.886,2.16194094 16.905,1.72994094 15.546,1.72994094 L13.494,1.72994094 L13.494,8.35394094 L15.708,8.35394094 Z M15.429,4.49294094 L14.538,4.49294094 L14.538,2.53994094 L15.456,2.53994094 C16.392,2.53994094 16.86,2.80094094 16.86,3.49394094 C16.86,4.11494094 16.437,4.49294094 15.429,4.49294094 Z M15.591,7.53494094 L14.538,7.53494094 L14.538,5.28494094 L15.591,5.28494094 C16.644,5.28494094 17.22,5.60894094 17.22,6.35594094 C17.22,7.16594094 16.626,7.53494094 15.591,7.53494094 Z" transform="rotate(-9 10.123 5.042)"/>
</svg>
