<svg xmlns="http://www.w3.org/2000/svg" width="80" height="40" viewBox="0 0 80 40">
  <path fill="#E06164" d="M6.15192488,33.0351675 L6.15192488,19.9311675 C6.15192488,17.5551675 5.82792488,14.1351675 5.64792488,11.7231675 L5.79192488,11.7231675 L7.87992488,17.8431675 L12.5239249,30.4791675 L15.1159249,30.4791675 L19.7239249,17.8431675 L21.8479249,11.7231675 L21.9919249,11.7231675 C21.7759249,14.1351675 21.4519249,17.5551675 21.4519249,19.9311675 L21.4519249,33.0351675 L25.3399249,33.0351675 L25.3399249,6.5391675 L20.5159249,6.5391675 L15.7279249,19.9311675 C15.1159249,21.6951675 14.6119249,23.4951675 13.9999249,25.2951675 L13.8199249,25.2951675 C13.2079249,23.4951675 12.6679249,21.6951675 12.0559249,19.9311675 L7.19592488,6.5391675 L2.40792488,6.5391675 L2.40792488,33.0351675 L6.15192488,33.0351675 Z M35.0439249,33.0351675 L37.3119249,25.4751675 L46.5279249,25.4751675 L48.7599249,33.0351675 L53.1879249,33.0351675 L44.4039249,6.5391675 L39.5799249,6.5391675 L30.7959249,33.0351675 L35.0439249,33.0351675 Z M45.5199249,22.1991675 L38.2839249,22.1991675 L39.3639249,18.6351675 C40.2279249,15.7551675 41.0559249,12.8391675 41.8119249,9.8151675 L41.9559249,9.8151675 C42.7839249,12.8031675 43.5759249,15.7551675 44.4759249,18.6351675 L45.5199249,22.1991675 Z M62.8559249,33.0351675 L62.8559249,22.3431675 L67.1399249,22.3431675 L73.1519249,33.0351675 L77.8679249,33.0351675 L71.3879249,21.8031675 C74.7359249,20.7591675 76.9319249,18.3111675 76.9319249,14.2071675 C76.9319249,8.4831675 72.8279249,6.5391675 67.3559249,6.5391675 L58.6799249,6.5391675 L58.6799249,33.0351675 L62.8559249,33.0351675 Z M66.8519249,18.9951675 L62.8559249,18.9951675 L62.8559249,9.8871675 L66.8519249,9.8871675 C70.7039249,9.8871675 72.7919249,11.0031675 72.7919249,14.2071675 C72.7919249,17.4111675 70.7039249,18.9951675 66.8519249,18.9951675 Z" transform="rotate(-9 40.138 19.787)"/>
</svg>
