<svg xmlns="http://www.w3.org/2000/svg" width="80" height="40" viewBox="0 0 80 40">
  <path fill="#E06164" d="M11.7586254,32.1145959 C17.1586254,32.1145959 19.4626254,28.2985959 19.4626254,23.5465959 L19.4626254,5.15059594 L15.2866254,5.15059594 L15.2866254,23.1505959 C15.2866254,27.0385959 13.9546254,28.4785959 11.2906254,28.4785959 C9.5626254,28.4785959 8.1226254,27.6505959 7.0066254,25.5985959 L4.0906254,27.7225959 C5.7466254,30.6385959 8.1946254,32.1145959 11.7586254,32.1145959 Z M38.0226254,32.1145959 C43.8906254,32.1145959 47.8506254,28.9105959 47.8506254,20.2705959 L47.8506254,5.15059594 L43.8186254,5.15059594 L43.8186254,20.5585959 C43.8186254,26.5345959 41.3706254,28.4785959 38.0226254,28.4785959 C34.7106254,28.4785959 32.3346254,26.5345959 32.3346254,20.5585959 L32.3346254,5.15059594 L28.1586254,5.15059594 L28.1586254,20.2705959 C28.1586254,28.9105959 32.1546254,32.1145959 38.0226254,32.1145959 Z M72.0626254,31.6465959 L72.0626254,28.1185959 L60.8666254,28.1185959 L60.8666254,5.15059594 L56.6906254,5.15059594 L56.6906254,31.6465959 L72.0626254,31.6465959 Z" transform="rotate(-9 38.077 18.633)"/>
</svg>
