<svg xmlns="http://www.w3.org/2000/svg" width="80" height="40" viewBox="0 0 80 40">
  <path fill="#E06164" d="M15.52,34.1759184 C22.324,34.1759184 27.076,28.8839184 27.076,20.3519184 C27.076,11.8199184 22.324,6.70791841 15.52,6.70791841 C8.716,6.70791841 4,11.8199184 4,20.3519184 C4,28.8839184 8.716,34.1759184 15.52,34.1759184 Z M15.52,30.5399184 C11.128,30.5399184 8.284,26.5799184 8.284,20.3519184 C8.284,14.1239184 11.128,10.3439184 15.52,10.3439184 C19.912,10.3439184 22.792,14.1239184 22.792,20.3519184 C22.792,26.5799184 19.912,30.5399184 15.52,30.5399184 Z M44.916,34.1759184 C48.336,34.1759184 51.036,32.8079184 53.16,30.3599184 L50.928,27.7319184 C49.344,29.4599184 47.472,30.5399184 45.06,30.5399184 C40.38,30.5399184 37.428,26.6879184 37.428,20.3879184 C37.428,14.1599184 40.596,10.3439184 45.168,10.3439184 C47.328,10.3439184 48.984,11.3159184 50.352,12.7199184 L52.62,10.0559184 C51,8.29191841 48.408,6.70791841 45.096,6.70791841 C38.4,6.70791841 33.144,11.8919184 33.144,20.5319184 C33.144,29.2079184 38.256,34.1759184 44.916,34.1759184 Z M68.768,33.7079184 L68.768,10.7039184 L76.58,10.7039184 L76.58,7.21191841 L56.816,7.21191841 L56.816,10.7039184 L64.592,10.7039184 L64.592,33.7079184 L68.768,33.7079184 Z" transform="rotate(-9 40.29 20.442)"/>
</svg>
