<svg xmlns="http://www.w3.org/2000/svg" width="80" height="40" viewBox="0 0 80 40">
  <path fill="#E06164" d="M10.1335835,33.6327836 C15.5335835,33.6327836 17.8375835,29.8167836 17.8375835,25.0647836 L17.8375835,6.66878364 L13.6615835,6.66878364 L13.6615835,24.6687836 C13.6615835,28.5567836 12.3295835,29.9967836 9.66558349,29.9967836 C7.93758349,29.9967836 6.49758349,29.1687836 5.38158349,27.1167836 L2.46558349,29.2407836 C4.12158349,32.1567836 6.56958349,33.6327836 10.1335835,33.6327836 Z M36.3975835,33.6327836 C42.2655835,33.6327836 46.2255835,30.4287836 46.2255835,21.7887836 L46.2255835,6.66878364 L42.1935835,6.66878364 L42.1935835,22.0767836 C42.1935835,28.0527836 39.7455835,29.9967836 36.3975835,29.9967836 C33.0855835,29.9967836 30.7095835,28.0527836 30.7095835,22.0767836 L30.7095835,6.66878364 L26.5335835,6.66878364 L26.5335835,21.7887836 C26.5335835,30.4287836 30.5295835,33.6327836 36.3975835,33.6327836 Z M59.0255835,33.1647836 L59.0255835,20.6727836 C59.0255835,17.7927836 58.7015835,14.7327836 58.4855835,11.9967836 L58.6655835,11.9967836 L61.4375835,17.5407836 L70.2215835,33.1647836 L74.5055835,33.1647836 L74.5055835,6.66878364 L70.5455835,6.66878364 L70.5455835,19.0167836 C70.5455835,21.8967836 70.8695835,25.1007836 71.0855835,27.8367836 L70.9055835,27.8367836 L68.1335835,22.2207836 L59.3495835,6.66878364 L55.0655835,6.66878364 L55.0655835,33.1647836 L59.0255835,33.1647836 Z" transform="rotate(-9 38.486 20.15)"/>
</svg>
