<svg xmlns="http://www.w3.org/2000/svg" width="20" height="10" viewBox="0 0 20 10">
  <path fill="#E06164" d="M2.93965635,8.02864898 C4.28965635,8.02864898 4.86565635,7.07464898 4.86565635,5.88664898 L4.86565635,1.28764898 L3.82165635,1.28764898 L3.82165635,5.78764898 C3.82165635,6.75964898 3.48865635,7.11964898 2.82265635,7.11964898 C2.39065635,7.11964898 2.03065635,6.91264898 1.75165635,6.39964898 L1.02265635,6.93064898 C1.43665635,7.65964898 2.04865635,8.02864898 2.93965635,8.02864898 Z M9.50565635,8.02864898 C10.9726564,8.02864898 11.9626564,7.22764898 11.9626564,5.06764898 L11.9626564,1.28764898 L10.9546564,1.28764898 L10.9546564,5.13964898 C10.9546564,6.63364898 10.3426564,7.11964898 9.50565635,7.11964898 C8.67765635,7.11964898 8.08365635,6.63364898 8.08365635,5.13964898 L8.08365635,1.28764898 L7.03965635,1.28764898 L7.03965635,5.06764898 C7.03965635,7.22764898 8.03865635,8.02864898 9.50565635,8.02864898 Z M18.0156564,7.91164898 L18.0156564,7.02964898 L15.2166564,7.02964898 L15.2166564,1.28764898 L14.1726564,1.28764898 L14.1726564,7.91164898 L18.0156564,7.91164898 Z" transform="rotate(-9 9.52 4.658)"/>
</svg>
