<?xml version="1.0" ?><!DOCTYPE svg  PUBLIC '-//W3C//DTD SVG 1.1//EN'  'http://www.w3.org/Graphics/SVG/1.1/DTD/svg11.dtd'><svg height="16px" id="Layer_1" style="enable-background:new 0 0 16 16;" version="1.1" viewBox="0 0 16 16" width="16px" xml:space="preserve" xmlns="http://www.w3.org/2000/svg" xmlns:xlink="http://www.w3.org/1999/xlink"><path d="M2,6C0.896,6,0,6.896,0,8s0.896,2,2,2s2-0.896,2-2S3.104,6,2,6z M8,6C6.896,6,6,6.896,6,8s0.896,2,2,2s2-0.896,2-2  S9.104,6,8,6z M14,6c-1.104,0-2,0.896-2,2s0.896,2,2,2s2-0.896,2-2S15.104,6,14,6z"/></svg>