<?xml version="1.0" encoding="UTF-8"?>
<svg width="18px" height="18px" viewBox="0 0 18 18" version="1.1" xmlns="http://www.w3.org/2000/svg" xmlns:xlink="http://www.w3.org/1999/xlink">
    <title>ICON / MenuItem / Volume+</title>
    <g id="任务栏" stroke="none" stroke-width="1" fill="none" fill-rule="evenodd">
        <g id="任务栏-时尚" transform="translate(-739.000000, -845.000000)" fill="#000000" fill-rule="nonzero">
            <g id="UDE-/-ControlPanel" transform="translate(712.000000, 534.000000)">
                <g id="编组-4" transform="translate(10.000000, 290.000000)">
                    <g id="ICON-/-MenuItem-/-Volume+" transform="translate(16.000000, 20.000000)">
                        <path d="M7.42511349,5.62852582 L10.4450149,3.30395027 C10.6638368,3.13551163 10.9777735,3.17635535 11.1462121,3.39517727 C11.213509,3.48260398 11.25,3.58983426 11.25,3.70016242 L11.25,16.6041118 C11.25,16.8802542 11.0261424,17.1041118 10.75,17.1041118 C10.6314788,17.1041118 10.5168113,17.0620095 10.4264501,16.9853145 L7.45591022,14.4640369 C6.91374298,14.0038666 6.2257383,13.751253 5.51461104,13.751253 L2.75,13.751253 C1.92157288,13.751253 1.25,13.0796801 1.25,12.251253 L1.25,7.75125297 C1.25,6.92282585 1.92157288,6.25125297 2.75,6.25125297 L5.59520262,6.25125297 C6.25717158,6.25125297 6.90055321,6.03230722 7.42511349,5.62852582 Z M17.5,2.44375297 C17.5,2.098575 17.779822,1.81875297 18.125,1.81875297 C18.470178,1.81875297 18.75,2.098575 18.75,2.44375297 L18.75,17.612503 C18.75,17.9576809 18.470178,18.237503 18.125,18.237503 C17.779822,18.237503 17.5,17.9576809 17.5,17.612503 L17.5,2.44375297 Z M15,4.74750297 C15,4.402325 15.279822,4.12250297 15.625,4.12250297 C15.970178,4.12250297 16.25,4.402325 16.25,4.74750297 L16.25,15.308753 C16.25,15.6539309 15.970178,15.933753 15.625,15.933753 C15.279822,15.933753 15,15.6539309 15,15.308753 L15,4.74750297 Z M12.5175,7.02375297 C12.5175,6.678575 12.797322,6.39875297 13.1425,6.39875297 C13.487678,6.39875297 13.7675,6.678575 13.7675,7.02375297 L13.7675,12.978753 C13.7675,13.3239309 13.487678,13.603753 13.1425,13.603753 C12.797322,13.603753 12.5175,13.3239309 12.5175,12.978753 L12.5175,7.02375297 Z" id="Combined-Shape"></path>
                    </g>
                </g>
            </g>
        </g>
    </g>
</svg>