<svg xmlns="http://www.w3.org/2000/svg" width="14" height="6" viewBox="0 0 14 6">
  <path fill="#2D394F" d="M3.15962092,4.79797102 L3.64462092,2.75297102 C3.70462092,2.46297102 3.76462092,2.18797102 3.81462092,1.90797102 L3.83962092,1.90797102 C3.88962092,2.18797102 3.94462092,2.46297102 4.00962092,2.75297102 L4.50462092,4.79797102 L5.21962092,4.79797102 L5.94462092,1.11797102 L5.38962092,1.11797102 L5.03962092,3.03297102 C4.97962092,3.41797102 4.91462092,3.81297102 4.85462092,4.21297102 L4.82962092,4.21297102 C4.74462092,3.81297102 4.66462092,3.41797102 4.57962092,3.03297102 L4.09962092,1.11797102 L3.58962092,1.11797102 L3.11462092,3.03297102 C3.02962092,3.42297102 2.94462092,3.81797102 2.86462092,4.21297102 L2.84462092,4.21297102 L2.64962092,3.03297102 L2.30462092,1.11797102 L1.70462092,1.11797102 L2.45962092,4.79797102 L3.15962092,4.79797102 Z M8.77962092,4.79797102 L8.77962092,4.30797102 L7.12962092,4.30797102 L7.12962092,3.11797102 L8.47962092,3.11797102 L8.47962092,2.62797102 L7.12962092,2.62797102 L7.12962092,1.60297102 L8.72462092,1.60297102 L8.72462092,1.11797102 L6.54962092,1.11797102 L6.54962092,4.79797102 L8.77962092,4.79797102 Z M10.5346209,4.79797102 C11.6346209,4.79797102 12.2796209,4.13797102 12.2796209,2.94297102 C12.2796209,1.74297102 11.6346209,1.11797102 10.5046209,1.11797102 L9.54962092,1.11797102 L9.54962092,4.79797102 L10.5346209,4.79797102 Z M10.4646209,4.32297102 L10.1296209,4.32297102 L10.1296209,1.58797102 L10.4646209,1.58797102 C11.2546209,1.58797102 11.6796209,2.02297102 11.6796209,2.94297102 C11.6796209,3.85797102 11.2546209,4.32297102 10.4646209,4.32297102 Z" transform="rotate(-8 6.992 2.958)"/>
</svg>
