<svg xmlns="http://www.w3.org/2000/svg" width="14" height="6" viewBox="0 0 14 6">
  <path fill="#2D394F" d="M2.36518338,4.93041345 L2.36518338,1.73541345 L3.45018338,1.73541345 L3.45018338,1.25041345 L0.705183376,1.25041345 L0.705183376,1.73541345 L1.78518338,1.73541345 L1.78518338,4.93041345 L2.36518338,4.93041345 Z M5.43518338,4.99541345 C6.25018338,4.99541345 6.80018338,4.55041345 6.80018338,3.35041345 L6.80018338,1.25041345 L6.24018338,1.25041345 L6.24018338,3.39041345 C6.24018338,4.22041345 5.90018338,4.49041345 5.43518338,4.49041345 C4.97518338,4.49041345 4.64518338,4.22041345 4.64518338,3.39041345 L4.64518338,1.25041345 L4.06518338,1.25041345 L4.06518338,3.35041345 C4.06518338,4.55041345 4.62018338,4.99541345 5.43518338,4.99541345 Z M9.98018338,4.93041345 L9.98018338,4.44041345 L8.33018338,4.44041345 L8.33018338,3.25041345 L9.68018338,3.25041345 L9.68018338,2.76041345 L8.33018338,2.76041345 L8.33018338,1.73541345 L9.92518338,1.73541345 L9.92518338,1.25041345 L7.75018338,1.25041345 L7.75018338,4.93041345 L9.98018338,4.93041345 Z M11.8001834,4.99541345 C12.6051834,4.99541345 13.0951834,4.51541345 13.0951834,3.92541345 C13.0951834,3.38541345 12.7801834,3.11541345 12.3451834,2.93041345 L11.8401834,2.71541345 C11.5401834,2.59541345 11.2451834,2.47541345 11.2451834,2.16041345 C11.2451834,1.86541345 11.4901834,1.68541345 11.8651834,1.68541345 C12.1901834,1.68541345 12.4451834,1.81041345 12.6751834,2.01541345 L12.9801834,1.64541345 C12.7001834,1.36041345 12.2951834,1.18041345 11.8651834,1.18041345 C11.1651834,1.18041345 10.6551834,1.61541345 10.6551834,2.19541345 C10.6551834,2.73041345 11.0501834,3.01041345 11.4051834,3.16041345 L11.9151834,3.38041345 C12.2551834,3.53041345 12.5051834,3.63541345 12.5051834,3.97041345 C12.5051834,4.28041345 12.2551834,4.49041345 11.8101834,4.49041345 C11.4551834,4.49041345 11.0951834,4.32041345 10.8301834,4.05541345 L10.4901834,4.45541345 C10.8251834,4.79541345 11.2951834,4.99541345 11.8001834,4.99541345 Z" transform="rotate(-8 6.9 3.088)"/>
</svg>
