<svg xmlns="http://www.w3.org/2000/svg" width="14" height="6" viewBox="0 0 14 6">
  <path fill="#2D394F" d="M2.23379614,4.75 L2.23379614,2.93 C2.23379614,2.6 2.18879614,2.125 2.16379614,1.79 L2.18379614,1.79 L2.47379614,2.64 L3.11879614,4.395 L3.47879614,4.395 L4.11879614,2.64 L4.41379614,1.79 L4.43379614,1.79 C4.40379614,2.125 4.35879614,2.6 4.35879614,2.93 L4.35879614,4.75 L4.89879614,4.75 L4.89879614,1.07 L4.22879614,1.07 L3.56379614,2.93 C3.47879614,3.175 3.40879614,3.425 3.32379614,3.675 L3.29879614,3.675 C3.21379614,3.425 3.13879614,3.175 3.05379614,2.93 L2.37879614,1.07 L1.71379614,1.07 L1.71379614,4.75 L2.23379614,4.75 Z M7.26379614,4.815 C8.20879614,4.815 8.86879614,4.08 8.86879614,2.895 C8.86879614,1.71 8.20879614,1 7.26379614,1 C6.31879614,1 5.66379614,1.71 5.66379614,2.895 C5.66379614,4.08 6.31879614,4.815 7.26379614,4.815 Z M7.26379614,4.31 C6.65379614,4.31 6.25879614,3.76 6.25879614,2.895 C6.25879614,2.03 6.65379614,1.505 7.26379614,1.505 C7.87379614,1.505 8.27379614,2.03 8.27379614,2.895 C8.27379614,3.76 7.87379614,4.31 7.26379614,4.31 Z M10.1837961,4.75 L10.1837961,3.015 C10.1837961,2.615 10.1387961,2.19 10.1087961,1.81 L10.1337961,1.81 L10.5187961,2.58 L11.7387961,4.75 L12.3337961,4.75 L12.3337961,1.07 L11.7837961,1.07 L11.7837961,2.785 C11.7837961,3.185 11.8287961,3.63 11.8587961,4.01 L11.8337961,4.01 L11.4487961,3.23 L10.2287961,1.07 L9.63379614,1.07 L9.63379614,4.75 L10.1837961,4.75 Z" transform="rotate(-8 7.024 2.907)"/>
</svg>
