<svg xmlns="http://www.w3.org/2000/svg" width="14" height="6" viewBox="0 0 14 6">
  <path fill="#2D394F" d="M3.31,4.96899035 C4.115,4.96899035 4.605,4.48899035 4.605,3.89899035 C4.605,3.35899035 4.29,3.08899035 3.855,2.90399035 L3.35,2.68899035 C3.05,2.56899035 2.755,2.44899035 2.755,2.13399035 C2.755,1.83899035 3,1.65899035 3.375,1.65899035 C3.7,1.65899035 3.955,1.78399035 4.185,1.98899035 L4.49,1.61899035 C4.21,1.33399035 3.805,1.15399035 3.375,1.15399035 C2.675,1.15399035 2.165,1.58899035 2.165,2.16899035 C2.165,2.70399035 2.56,2.98399035 2.915,3.13399035 L3.425,3.35399035 C3.765,3.50399035 4.015,3.60899035 4.015,3.94399035 C4.015,4.25399035 3.765,4.46399035 3.32,4.46399035 C2.965,4.46399035 2.605,4.29399035 2.34,4.02899035 L2,4.42899035 C2.335,4.76899035 2.805,4.96899035 3.31,4.96899035 Z M6.65,4.96899035 C7.465,4.96899035 8.015,4.52399035 8.015,3.32399035 L8.015,1.22399035 L7.455,1.22399035 L7.455,3.36399035 C7.455,4.19399035 7.115,4.46399035 6.65,4.46399035 C6.19,4.46399035 5.86,4.19399035 5.86,3.36399035 L5.86,1.22399035 L5.28,1.22399035 L5.28,3.32399035 C5.28,4.52399035 5.835,4.96899035 6.65,4.96899035 Z M9.515,4.90399035 L9.515,3.16899035 C9.515,2.76899035 9.47,2.34399035 9.44,1.96399035 L9.465,1.96399035 L9.85,2.73399035 L11.07,4.90399035 L11.665,4.90399035 L11.665,1.22399035 L11.115,1.22399035 L11.115,2.93899035 C11.115,3.33899035 11.16,3.78399035 11.19,4.16399035 L11.165,4.16399035 L10.78,3.38399035 L9.56,1.22399035 L8.965,1.22399035 L8.965,4.90399035 L9.515,4.90399035 Z" transform="rotate(-8 6.832 3.061)"/>
</svg>
