<svg xmlns="http://www.w3.org/2000/svg" width="14" height="6" viewBox="0 0 14 6">
  <path fill="#2D394F" d="M1.95534903,4.7949326 L1.95534903,1.5999326 L3.04034903,1.5999326 L3.04034903,1.1149326 L0.295349032,1.1149326 L0.295349032,1.5999326 L1.37534903,1.5999326 L1.37534903,4.7949326 L1.95534903,4.7949326 Z M4.25534903,4.7949326 L4.25534903,3.1199326 L5.83034903,3.1199326 L5.83034903,4.7949326 L6.41034903,4.7949326 L6.41034903,1.1149326 L5.83034903,1.1149326 L5.83034903,2.6149326 L4.25534903,2.6149326 L4.25534903,1.1149326 L3.67534903,1.1149326 L3.67534903,4.7949326 L4.25534903,4.7949326 Z M8.72534903,4.8599326 C9.54034903,4.8599326 10.090349,4.4149326 10.090349,3.2149326 L10.090349,1.1149326 L9.53034903,1.1149326 L9.53034903,3.2549326 C9.53034903,4.0849326 9.19034903,4.3549326 8.72534903,4.3549326 C8.26534903,4.3549326 7.93534903,4.0849326 7.93534903,3.2549326 L7.93534903,1.1149326 L7.35534903,1.1149326 L7.35534903,3.2149326 C7.35534903,4.4149326 7.91034903,4.8599326 8.72534903,4.8599326 Z M11.620349,4.7949326 L11.620349,3.3099326 L12.215349,3.3099326 L13.050349,4.7949326 L13.705349,4.7949326 L12.805349,3.2349326 C13.270349,3.0899326 13.575349,2.7499326 13.575349,2.1799326 C13.575349,1.3849326 13.005349,1.1149326 12.245349,1.1149326 L11.040349,1.1149326 L11.040349,4.7949326 L11.620349,4.7949326 Z M12.175349,2.8449326 L11.620349,2.8449326 L11.620349,1.5799326 L12.175349,1.5799326 C12.710349,1.5799326 13.000349,1.7349326 13.000349,2.1799326 C13.000349,2.6249326 12.710349,2.8449326 12.175349,2.8449326 Z" transform="rotate(-8 7 2.987)"/>
</svg>
