<svg xmlns="http://www.w3.org/2000/svg" width="56" height="24" viewBox="0 0 56 24">
  <path fill="#2D394F" d="M13.24,19.8759614 C16.46,19.8759614 18.42,17.9559614 18.42,15.5959614 C18.42,13.4359614 17.16,12.3559614 15.42,11.6159614 L13.4,10.7559614 C12.2,10.2759614 11.02,9.79596141 11.02,8.53596141 C11.02,7.35596141 12,6.63596141 13.5,6.63596141 C14.8,6.63596141 15.82,7.13596141 16.74,7.95596141 L17.96,6.47596141 C16.84,5.33596141 15.22,4.61596141 13.5,4.61596141 C10.7,4.61596141 8.66,6.35596141 8.66,8.67596141 C8.66,10.8159614 10.24,11.9359614 11.66,12.5359614 L13.7,13.4159614 C15.06,14.0159614 16.06,14.4359614 16.06,15.7759614 C16.06,17.0159614 15.06,17.8559614 13.28,17.8559614 C11.86,17.8559614 10.42,17.1759614 9.36,16.1159614 L8,17.7159614 C9.34,19.0759614 11.22,19.8759614 13.24,19.8759614 Z M26.6,19.8759614 C29.86,19.8759614 32.06,18.0959614 32.06,13.2959614 L32.06,4.89596141 L29.82,4.89596141 L29.82,13.4559614 C29.82,16.7759614 28.46,17.8559614 26.6,17.8559614 C24.76,17.8559614 23.44,16.7759614 23.44,13.4559614 L23.44,4.89596141 L21.12,4.89596141 L21.12,13.2959614 C21.12,18.0959614 23.34,19.8759614 26.6,19.8759614 Z M38.06,19.6159614 L38.06,12.6759614 C38.06,11.0759614 37.88,9.37596141 37.76,7.85596141 L37.86,7.85596141 L39.4,10.9359614 L44.28,19.6159614 L46.66,19.6159614 L46.66,4.89596141 L44.46,4.89596141 L44.46,11.7559614 C44.46,13.3559614 44.64,15.1359614 44.76,16.6559614 L44.66,16.6559614 L43.12,13.5359614 L38.24,4.89596141 L35.86,4.89596141 L35.86,19.6159614 L38.06,19.6159614 Z" transform="rotate(-8 27.33 12.246)"/>
</svg>
