<svg xmlns="http://www.w3.org/2000/svg" width="14" height="6" viewBox="0 0 14 6">
  <path fill="#2D394F" d="M3.49868356,4.89686589 L3.49868356,3.31186589 L4.85868356,3.31186589 L4.85868356,2.82686589 L3.49868356,2.82686589 L3.49868356,1.70186589 L5.09868356,1.70186589 L5.09868356,1.21686589 L2.91868356,1.21686589 L2.91868356,4.89686589 L3.49868356,4.89686589 Z M6.82868356,4.89686589 L6.82868356,3.41186589 L7.42368356,3.41186589 L8.25868356,4.89686589 L8.91368356,4.89686589 L8.01368356,3.33686589 C8.47868356,3.19186589 8.78368356,2.85186589 8.78368356,2.28186589 C8.78368356,1.48686589 8.21368356,1.21686589 7.45368356,1.21686589 L6.24868356,1.21686589 L6.24868356,4.89686589 L6.82868356,4.89686589 Z M7.38368356,2.94686589 L6.82868356,2.94686589 L6.82868356,1.68186589 L7.38368356,1.68186589 C7.91868356,1.68186589 8.20868356,1.83686589 8.20868356,2.28186589 C8.20868356,2.72686589 7.91868356,2.94686589 7.38368356,2.94686589 Z M10.6036836,4.89686589 L10.6036836,1.21686589 L10.0236836,1.21686589 L10.0236836,4.89686589 L10.6036836,4.89686589 Z" transform="rotate(-8 6.761 3.057)"/>
</svg>
