<svg xmlns="http://www.w3.org/2000/svg" width="56" height="24" viewBox="0 0 56 24">
  <path fill="#2D394F" d="M12.6384837,19.1918841 L14.5784837,11.0118841 C14.8184837,9.85188407 15.0584837,8.75188407 15.2584837,7.63188407 L15.3584837,7.63188407 C15.5584837,8.75188407 15.7784837,9.85188407 16.0384837,11.0118841 L18.0184837,19.1918841 L20.8784837,19.1918841 L23.7784837,4.47188407 L21.5584837,4.47188407 L20.1584837,12.1318841 C19.9184837,13.6718841 19.6584837,15.2518841 19.4184837,16.8518841 L19.3184837,16.8518841 C18.9784837,15.2518841 18.6584837,13.6718841 18.3184837,12.1318841 L16.3984837,4.47188407 L14.3584837,4.47188407 L12.4584837,12.1318841 C12.1184837,13.6918841 11.7784837,15.2718841 11.4584837,16.8518841 L11.3784837,16.8518841 L10.5984837,12.1318841 L9.21848368,4.47188407 L6.81848368,4.47188407 L9.83848368,19.1918841 L12.6384837,19.1918841 Z M35.1184837,19.1918841 L35.1184837,17.2318841 L28.5184837,17.2318841 L28.5184837,12.4718841 L33.9184837,12.4718841 L33.9184837,10.5118841 L28.5184837,10.5118841 L28.5184837,6.41188407 L34.8984837,6.41188407 L34.8984837,4.47188407 L26.1984837,4.47188407 L26.1984837,19.1918841 L35.1184837,19.1918841 Z M42.1384837,19.1918841 C46.5384837,19.1918841 49.1184837,16.5518841 49.1184837,11.7718841 C49.1184837,6.97188407 46.5384837,4.47188407 42.0184837,4.47188407 L38.1984837,4.47188407 L38.1984837,19.1918841 L42.1384837,19.1918841 Z M41.8584837,17.2918841 L40.5184837,17.2918841 L40.5184837,6.35188407 L41.8584837,6.35188407 C45.0184837,6.35188407 46.7184837,8.09188407 46.7184837,11.7718841 C46.7184837,15.4318841 45.0184837,17.2918841 41.8584837,17.2918841 Z" transform="rotate(-8 27.968 11.832)"/>
</svg>
