<svg xmlns="http://www.w3.org/2000/svg" width="56" height="24" viewBox="0 0 56 24">
  <path fill="#2D394F" d="M7.82139613,19.1797304 L7.82139613,6.3997304 L12.1613961,6.3997304 L12.1613961,4.4597304 L1.18139613,4.4597304 L1.18139613,6.3997304 L5.50139613,6.3997304 L5.50139613,19.1797304 L7.82139613,19.1797304 Z M17.0213961,19.1797304 L17.0213961,12.4797304 L23.3213961,12.4797304 L23.3213961,19.1797304 L25.6413961,19.1797304 L25.6413961,4.4597304 L23.3213961,4.4597304 L23.3213961,10.4597304 L17.0213961,10.4597304 L17.0213961,4.4597304 L14.7013961,4.4597304 L14.7013961,19.1797304 L17.0213961,19.1797304 Z M34.9013961,19.4397304 C38.1613961,19.4397304 40.3613961,17.6597304 40.3613961,12.8597304 L40.3613961,4.4597304 L38.1213961,4.4597304 L38.1213961,13.0197304 C38.1213961,16.3397304 36.7613961,17.4197304 34.9013961,17.4197304 C33.0613961,17.4197304 31.7413961,16.3397304 31.7413961,13.0197304 L31.7413961,4.4597304 L29.4213961,4.4597304 L29.4213961,12.8597304 C29.4213961,17.6597304 31.6413961,19.4397304 34.9013961,19.4397304 Z M46.4813961,19.1797304 L46.4813961,13.2397304 L48.8613961,13.2397304 L52.2013961,19.1797304 L54.8213961,19.1797304 L51.2213961,12.9397304 C53.0813961,12.3597304 54.3013961,10.9997304 54.3013961,8.7197304 C54.3013961,5.5397304 52.0213961,4.4597304 48.9813961,4.4597304 L44.1613961,4.4597304 L44.1613961,19.1797304 L46.4813961,19.1797304 Z M48.7013961,11.3797304 L46.4813961,11.3797304 L46.4813961,6.3197304 L48.7013961,6.3197304 C50.8413961,6.3197304 52.0013961,6.9397304 52.0013961,8.7197304 C52.0013961,10.4997304 50.8413961,11.3797304 48.7013961,11.3797304 Z" transform="rotate(-8 28.001 11.95)"/>
</svg>
