<svg xmlns="http://www.w3.org/2000/svg" width="56" height="24" viewBox="0 0 56 24">
  <path fill="#2D394F" d="M13.9947342,19.5874635 L13.9947342,13.2474635 L19.4347342,13.2474635 L19.4347342,11.3074635 L13.9947342,11.3074635 L13.9947342,6.80746355 L20.3947342,6.80746355 L20.3947342,4.86746355 L11.6747342,4.86746355 L11.6747342,19.5874635 L13.9947342,19.5874635 Z M27.3147342,19.5874635 L27.3147342,13.6474635 L29.6947342,13.6474635 L33.0347342,19.5874635 L35.6547342,19.5874635 L32.0547342,13.3474635 C33.9147342,12.7674635 35.1347342,11.4074635 35.1347342,9.12746355 C35.1347342,5.94746355 32.8547342,4.86746355 29.8147342,4.86746355 L24.9947342,4.86746355 L24.9947342,19.5874635 L27.3147342,19.5874635 Z M29.5347342,11.7874635 L27.3147342,11.7874635 L27.3147342,6.72746355 L29.5347342,6.72746355 C31.6747342,6.72746355 32.8347342,7.34746355 32.8347342,9.12746355 C32.8347342,10.9074635 31.6747342,11.7874635 29.5347342,11.7874635 Z M42.4147342,19.5874635 L42.4147342,4.86746355 L40.0947342,4.86746355 L40.0947342,19.5874635 L42.4147342,19.5874635 Z" transform="rotate(-8 27.045 12.227)"/>
</svg>
