<svg xmlns="http://www.w3.org/2000/svg" width="56" height="24" viewBox="0 0 56 24">
  <path fill="#2D394F" d="M14.9301222,19.6421506 C18.1501222,19.6421506 20.1101222,17.7221506 20.1101222,15.3621506 C20.1101222,13.2021506 18.8501222,12.1221506 17.1101222,11.3821506 L15.0901222,10.5221506 C13.8901222,10.0421506 12.7101222,9.5621506 12.7101222,8.3021506 C12.7101222,7.1221506 13.6901222,6.4021506 15.1901222,6.4021506 C16.4901222,6.4021506 17.5101222,6.9021506 18.4301222,7.7221506 L19.6501222,6.2421506 C18.5301222,5.1021506 16.9101222,4.3821506 15.1901222,4.3821506 C12.3901222,4.3821506 10.3501222,6.1221506 10.3501222,8.4421506 C10.3501222,10.5821506 11.9301222,11.7021506 13.3501222,12.3021506 L15.3901222,13.1821506 C16.7501222,13.7821506 17.7501222,14.2021506 17.7501222,15.5421506 C17.7501222,16.7821506 16.7501222,17.6221506 14.9701222,17.6221506 C13.5501222,17.6221506 12.1101222,16.9421506 11.0501222,15.8821506 L9.69012217,17.4821506 C11.0301222,18.8421506 12.9101222,19.6421506 14.9301222,19.6421506 Z M23.3101222,19.3821506 L24.5701222,15.1821506 L29.6901222,15.1821506 L30.9301222,19.3821506 L33.3901222,19.3821506 L28.5101222,4.6621506 L25.8301222,4.6621506 L20.9501222,19.3821506 L23.3101222,19.3821506 Z M29.1301222,13.3621506 L25.1101222,13.3621506 L25.7101222,11.3821506 C26.1901222,9.7821506 26.6501222,8.1621506 27.0701222,6.4821506 L27.1501222,6.4821506 C27.6101222,8.1421506 28.0501222,9.7821506 28.5501222,11.3821506 L29.1301222,13.3621506 Z M40.6501222,19.3821506 L40.6501222,6.6021506 L44.9901222,6.6021506 L44.9901222,4.6621506 L34.0101222,4.6621506 L34.0101222,6.6021506 L38.3301222,6.6021506 L38.3301222,19.3821506 L40.6501222,19.3821506 Z" transform="rotate(-8 27.34 12.012)"/>
</svg>
