<svg xmlns="http://www.w3.org/2000/svg" width="56" height="24" viewBox="0 0 56 24">
  <path fill="#2D394F" d="M8.93518454,19 L8.93518454,11.72 C8.93518454,10.4 8.75518454,8.5 8.65518454,7.16 L8.73518454,7.16 L9.89518454,10.56 L12.4751845,17.58 L13.9151845,17.58 L16.4751845,10.56 L17.6551845,7.16 L17.7351845,7.16 C17.6151845,8.5 17.4351845,10.4 17.4351845,11.72 L17.4351845,19 L19.5951845,19 L19.5951845,4.28 L16.9151845,4.28 L14.2551845,11.72 C13.9151845,12.7 13.6351845,13.7 13.2951845,14.7 L13.1951845,14.7 C12.8551845,13.7 12.5551845,12.7 12.2151845,11.72 L9.51518454,4.28 L6.85518454,4.28 L6.85518454,19 L8.93518454,19 Z M29.0551845,19.26 C32.8351845,19.26 35.4751845,16.32 35.4751845,11.58 C35.4751845,6.84 32.8351845,4 29.0551845,4 C25.2751845,4 22.6551845,6.84 22.6551845,11.58 C22.6551845,16.32 25.2751845,19.26 29.0551845,19.26 Z M29.0551845,17.24 C26.6151845,17.24 25.0351845,15.04 25.0351845,11.58 C25.0351845,8.12 26.6151845,6.02 29.0551845,6.02 C31.4951845,6.02 33.0951845,8.12 33.0951845,11.58 C33.0951845,15.04 31.4951845,17.24 29.0551845,17.24 Z M40.7351845,19 L40.7351845,12.06 C40.7351845,10.46 40.5551845,8.76 40.4351845,7.24 L40.5351845,7.24 L42.0751845,10.32 L46.9551845,19 L49.3351845,19 L49.3351845,4.28 L47.1351845,4.28 L47.1351845,11.14 C47.1351845,12.74 47.3151845,14.52 47.4351845,16.04 L47.3351845,16.04 L45.7951845,12.92 L40.9151845,4.28 L38.5351845,4.28 L38.5351845,19 L40.7351845,19 Z" transform="rotate(-8 28.095 11.63)"/>
</svg>
