<svg xmlns="http://www.w3.org/2000/svg" width="56" height="24" viewBox="0 0 56 24">
  <path fill="#2D394F" d="M9.4607335,19.7216538 L9.4607335,6.9416538 L13.8007335,6.9416538 L13.8007335,5.0016538 L2.8207335,5.0016538 L2.8207335,6.9416538 L7.1407335,6.9416538 L7.1407335,19.7216538 L9.4607335,19.7216538 Z M21.7407335,19.9816538 C25.0007335,19.9816538 27.2007335,18.2016538 27.2007335,13.4016538 L27.2007335,5.0016538 L24.9607335,5.0016538 L24.9607335,13.5616538 C24.9607335,16.8816538 23.6007335,17.9616538 21.7407335,17.9616538 C19.9007335,17.9616538 18.5807335,16.8816538 18.5807335,13.5616538 L18.5807335,5.0016538 L16.2607335,5.0016538 L16.2607335,13.4016538 C16.2607335,18.2016538 18.4807335,19.9816538 21.7407335,19.9816538 Z M39.9207335,19.7216538 L39.9207335,17.7616538 L33.3207335,17.7616538 L33.3207335,13.0016538 L38.7207335,13.0016538 L38.7207335,11.0416538 L33.3207335,11.0416538 L33.3207335,6.9416538 L39.7007335,6.9416538 L39.7007335,5.0016538 L31.0007335,5.0016538 L31.0007335,19.7216538 L39.9207335,19.7216538 Z M47.2007335,19.9816538 C50.4207335,19.9816538 52.3807335,18.0616538 52.3807335,15.7016538 C52.3807335,13.5416538 51.1207335,12.4616538 49.3807335,11.7216538 L47.3607335,10.8616538 C46.1607335,10.3816538 44.9807335,9.9016538 44.9807335,8.6416538 C44.9807335,7.4616538 45.9607335,6.7416538 47.4607335,6.7416538 C48.7607335,6.7416538 49.7807335,7.2416538 50.7007335,8.0616538 L51.9207335,6.5816538 C50.8007335,5.4416538 49.1807335,4.7216538 47.4607335,4.7216538 C44.6607335,4.7216538 42.6207335,6.4616538 42.6207335,8.7816538 C42.6207335,10.9216538 44.2007335,12.0416538 45.6207335,12.6416538 L47.6607335,13.5216538 C49.0207335,14.1216538 50.0207335,14.5416538 50.0207335,15.8816538 C50.0207335,17.1216538 49.0207335,17.9616538 47.2407335,17.9616538 C45.8207335,17.9616538 44.3807335,17.2816538 43.3207335,16.2216538 L41.9607335,17.8216538 C43.3007335,19.1816538 45.1807335,19.9816538 47.2007335,19.9816538 Z" transform="rotate(-8 27.6 12.352)"/>
</svg>
