<svg xmlns="http://www.w3.org/2000/svg" width="14" height="6" viewBox="0 0 14 6">
  <path fill="#2D394F" d="M3.73253054,4.91053765 C4.53753054,4.91053765 5.02753054,4.43053765 5.02753054,3.84053765 C5.02753054,3.30053765 4.71253054,3.03053765 4.27753054,2.84553765 L3.77253054,2.63053765 C3.47253054,2.51053765 3.17753054,2.39053765 3.17753054,2.07553765 C3.17753054,1.78053765 3.42253054,1.60053765 3.79753054,1.60053765 C4.12253054,1.60053765 4.37753054,1.72553765 4.60753054,1.93053765 L4.91253054,1.56053765 C4.63253054,1.27553765 4.22753054,1.09553765 3.79753054,1.09553765 C3.09753054,1.09553765 2.58753054,1.53053765 2.58753054,2.11053765 C2.58753054,2.64553765 2.98253054,2.92553765 3.33753054,3.07553765 L3.84753054,3.29553765 C4.18753054,3.44553765 4.43753054,3.55053765 4.43753054,3.88553765 C4.43753054,4.19553765 4.18753054,4.40553765 3.74253054,4.40553765 C3.38753054,4.40553765 3.02753054,4.23553765 2.76253054,3.97053765 L2.42253054,4.37053765 C2.75753054,4.71053765 3.22753054,4.91053765 3.73253054,4.91053765 Z M5.82753054,4.84553765 L6.14253054,3.79553765 L7.42253054,3.79553765 L7.73253054,4.84553765 L8.34753054,4.84553765 L7.12753054,1.16553765 L6.45753054,1.16553765 L5.23753054,4.84553765 L5.82753054,4.84553765 Z M7.28253054,3.34053765 L6.27753054,3.34053765 L6.42753054,2.84553765 C6.54753054,2.44553765 6.66253054,2.04053765 6.76753054,1.62053765 L6.78753054,1.62053765 C6.90253054,2.03553765 7.01253054,2.44553765 7.13753054,2.84553765 L7.28253054,3.34053765 Z M10.1625305,4.84553765 L10.1625305,1.65053765 L11.2475305,1.65053765 L11.2475305,1.16553765 L8.50253054,1.16553765 L8.50253054,1.65053765 L9.58253054,1.65053765 L9.58253054,4.84553765 L10.1625305,4.84553765 Z" transform="rotate(-8 6.835 3.003)"/>
</svg>
