<?xml version="1.0" encoding="UTF-8" standalone="no"?>
<svg width="48px" height="48px" viewBox="0 0 48 48" version="1.1" xmlns="http://www.w3.org/2000/svg" xmlns:xlink="http://www.w3.org/1999/xlink">
    <!-- Generator: Sketch 3.7 (28169) - http://www.bohemiancoding.com/sketch -->
    <title>battery_040</title>
    <desc>Created with Sketch.</desc>
    <defs>
        <filter x="-50%" y="-50%" width="200%" height="200%" filterUnits="objectBoundingBox" id="filter-1">
            <feOffset dx="0" dy="1" in="SourceAlpha" result="shadowOffsetOuter1"></feOffset>
            <feGaussianBlur stdDeviation="0.5" in="shadowOffsetOuter1" result="shadowBlurOuter1"></feGaussianBlur>
            <feColorMatrix values="0 0 0 0 0   0 0 0 0 0   0 0 0 0 0  0 0 0 0.2 0" type="matrix" in="shadowBlurOuter1" result="shadowMatrixOuter1"></feColorMatrix>
            <feMerge>
                <feMergeNode in="shadowMatrixOuter1"></feMergeNode>
                <feMergeNode in="SourceGraphic"></feMergeNode>
            </feMerge>
        </filter>
    </defs>
    <g id="Page-1" stroke="none" stroke-width="1" fill="none" fill-rule="evenodd">
        <g id="battery_040">
            <g transform="translate(3.000000, 3.000000)">
                <g id="Group-13" filter="url(#filter-1)">
                    <path d="M21.0000009,0 C15.4304544,-5.30432999e-07 10.0890219,2.21249295 6.15075787,6.15075701 C2.2124938,10.0890211 3.26709682e-07,15.4304536 8.5714268e-07,21 C-2.85714265e-07,21.004 -2.85714265e-07,21.008 8.57142908e-07,21.012 L42.0000009,21.012 C42.000002,21.008 42.000002,21.004 42.0000009,21 C42.0000014,15.4304536 39.7875079,10.0890211 35.8492438,6.15075701 C31.9109798,2.21249295 26.5695473,-5.30432999e-07 21.0000009,0 L21.0000009,0 Z" id="path15574" fill="#6D9D1D"></path>
                    <path d="M0,21 C0.0050231481,32.5944263 9.40557264,41.9909022 21,41.9909 C32.5944274,41.9909022 41.9949769,32.5944263 42,21 L2.27373675e-13,21 L0,21 Z" id="path15578" fill="#9AD82D"></path>
                </g>
                <circle id="circle15580" fill="#FFFFFF" cx="21" cy="21" r="12"></circle>
                <path d="M21.0592728,12.0533936 C20.3758546,12.0607786 20.0688,12.6070473 20.0767273,13.0194998 L20.0854546,20.0452235 C20.0774546,20.5458529 20.3546182,21.0394666 21.0661091,21.044193 C21.7655273,21.051578 22.0810182,20.5548626 22.0716364,20.0452235 C22.0716364,19.6674067 22.0629091,13.0194998 22.0629091,13.0194998 C22.0701819,12.5978899 21.7588364,12.0587846 21.0592728,12.0533936 L21.0592728,12.0533936 Z" id="path15584" fill="#8FC92B"></path>
                <path d="M17.0269818,14.291936 C16.8396578,14.3005747 16.658717,14.3636564 16.5056727,14.473681 C14.4290909,15.9181139 13.0639273,18.3358166 13.0639273,21.0610308 C13.0639273,25.4841313 16.6653091,29.076345 21.0639273,29.076345 C25.4625455,29.076345 29.0639273,25.4842051 29.0639273,21.0610308 C29.0639273,18.3410599 27.7032728,15.9262374 25.6335273,14.4809183 C25.3452854,14.2796868 24.9732154,14.2498905 24.6574725,14.4027534 C24.3417295,14.5556162 24.1302825,14.8679146 24.1027815,15.2220089 C24.0752805,15.5761031 24.2359036,15.9181978 24.5241455,16.1194291 C26.0887273,17.2120405 27.1065455,19.0119875 27.1065455,21.0610308 C27.1065455,24.3931446 24.4205091,27.0873418 21.0639273,27.0873418 C17.7073455,27.0873418 15.0226909,24.3930708 15.0226909,21.0610308 C15.0226909,19.0079996 16.0425455,17.2055417 17.6122182,16.1136688 C17.9789794,15.8667092 18.138409,15.4016137 18.0019306,14.9767817 C17.8654523,14.5519496 17.466605,14.2717823 17.0269818,14.291936 L17.0269818,14.291936 Z" id="path15586" fill="#8FC92B"></path>
            </g>
        </g>
    </g>
</svg>